<svg width="487" height="333" viewBox="0 0 487 333" fill="none" xmlns="http://www.w3.org/2000/svg">
<path d="M29.9812 326.375H163.844L163.844 18.3906H29.9812L29.9812 326.375Z" fill="#9BC1F9"/>
<path d="M111.323 326.466H120.075L120.075 0.201141H111.323L111.323 326.466Z" fill="#466EB6"/>
<path d="M111.333 0.205566C111.333 1.03349 111.394 326.333 111.394 326.333H30.3706V18.1958L111.333 0.205566Z" fill="#86B1F2"/>
<path d="M39.645 45.2004L40.0434 131.329C40.3837 131.288 40.7219 131.267 41.0559 131.267C45.4816 131.267 49.1935 134.853 49.2142 139.403L94.1783 133.869C94.1597 129.728 97.2429 126.227 101.353 125.721L100.949 35.5724C100.37 35.6948 99.797 35.755 99.2327 35.755C94.8506 35.755 91.0972 32.2067 91.0764 27.6147L46.1186 37.1701C46.1372 41.0421 43.4337 44.3953 39.645 45.2004ZM42.7988 47.4268C45.8945 45.9494 48.1768 43.1171 48.9632 39.7784L88.5845 31.358C89.9913 35.3151 93.5413 38.2699 97.8197 38.8094L98.1994 123.305C94.8236 124.638 92.2757 127.53 91.3835 131.047L51.7974 135.919C50.5276 132.054 47.2286 129.099 43.1743 128.325L42.7988 47.4268Z" fill="#9BC1F9"/>
<path d="M39.7842 202.151L39.9668 304.802C39.9709 304.802 39.9771 304.802 39.9813 304.802C44.4879 304.802 48.1458 308.452 48.1541 312.96L59.904 312.94C59.904 308.431 63.5537 304.775 68.0623 304.766V201.108C67.8216 201.128 67.5851 201.139 67.3486 201.139C62.8876 201.139 59.1882 197.516 59.1882 192.965L47.2578 193.995C47.264 198.24 44.0169 201.786 39.7842 202.151ZM42.9338 204.643C46.3884 203.378 49.0567 200.464 50.0153 196.91L56.5593 196.345C57.7607 200.182 60.9539 203.145 64.9189 204.017V302.069C61.2091 303.15 58.2794 306.086 57.2046 309.798L50.8473 309.809C49.7642 306.096 46.8241 303.164 43.106 302.094L42.9338 204.643Z" fill="#9BC1F9"/>
<path d="M73.2983 199.249V304.729H73.3129C77.8257 304.729 81.4857 308.387 81.4857 312.903L91.0819 312.886C91.1151 308.402 94.7564 304.783 99.2402 304.775L100.054 198.415C99.8128 198.435 99.5763 198.446 99.3398 198.446C94.856 198.446 91.1441 194.785 91.1794 190.21L80.7699 191.106C80.7699 195.346 77.5248 198.883 73.2983 199.249ZM76.4417 201.757C79.9462 200.51 82.5978 197.62 83.5398 194.02L88.5277 193.59C89.0568 195.325 90.003 196.914 91.3184 198.238C92.8704 199.803 94.7938 200.857 96.8894 201.32L96.1196 302.073C92.4305 303.146 89.4988 306.059 88.4053 309.742L84.1851 309.751C83.1061 306.03 80.1661 303.094 76.4438 302.021V201.757H76.4417Z" fill="#9BC1F9"/>
<path d="M92.8314 169.843C94.6545 169.843 96.1324 166.976 96.1324 163.44C96.1324 159.903 94.6545 157.036 92.8314 157.036C91.0082 157.036 89.5303 159.903 89.5303 163.44C89.5303 166.976 91.0082 169.843 92.8314 169.843Z" fill="#F7CC7F"/>
<path d="M86.4409 161.186V166.234H93.3585C93.5618 165.4 93.6759 164.469 93.6759 163.485C93.6759 162.676 93.5971 161.9 93.4539 161.186H86.4409Z" fill="#F47458"/>
<path d="M81.6772 163.44C81.6772 168.768 83.9036 173.089 86.6527 173.089C89.4019 173.089 91.6282 168.768 91.6282 163.44C91.6282 158.111 89.4019 153.791 86.6527 153.791C83.9036 153.791 81.6772 158.111 81.6772 163.44Z" fill="#FAE0B2"/>
<path d="M85.3168 173.089C88.0647 173.089 90.2923 168.769 90.2923 163.44C90.2923 158.111 88.0647 153.791 85.3168 153.791C82.5689 153.791 80.3413 158.111 80.3413 163.44C80.3413 168.769 82.5689 173.089 85.3168 173.089Z" fill="#FAE0B2"/>
<path d="M2.31262 332.727H484.462C485.686 332.727 486.678 331.277 486.678 329.488C486.678 327.699 485.686 326.249 484.462 326.249H2.31262C1.08846 326.249 0.0966797 327.699 0.0966797 329.488C0.0966797 331.277 1.08846 332.727 2.31262 332.727Z" fill="#FE978E"/>
<path d="M427.792 311.097C427.792 311.097 427.825 311.408 427.825 311.925C427.825 313.479 427.522 316.903 425.095 319.43C421.856 322.8 421.837 326.992 425.259 327.708C428.68 328.423 436.838 327.479 436.838 327.479C436.838 327.479 438.683 324.273 437.423 315.712C436.164 307.15 435.434 297.761 435.434 297.761L426.138 296.309L427.792 311.097Z" fill="#FF7446"/>
<path d="M425.97 314.737C425.97 314.737 422.521 319.416 421.714 321.369C420.907 323.321 421.081 328.177 421.714 328.677C427.292 333.08 437.863 329.117 437.863 329.117C437.863 329.117 438.589 325.888 438.956 321.925C439.324 317.961 439.116 314.27 437.863 314.27C436.61 314.27 436.39 316.349 433.526 315.762C430.665 315.179 428.904 314.15 425.97 314.737Z" fill="#001653"/>
<path d="M438.74 323.902C436.591 324.743 433.674 325.724 430.96 326.112C428.063 326.525 424.165 325.237 421.22 323.942C421.069 326.017 421.287 328.343 421.714 328.681C427.291 333.084 437.863 329.121 437.863 329.121C437.863 329.121 438.361 326.909 438.74 323.902Z" fill="white"/>
<path d="M438.74 323.902C430.74 326.305 429.269 326.733 421.22 323.94C422.561 324.66 423.967 325.257 425.428 325.718C428.522 326.677 430.347 326.594 432.277 326.16C434.578 325.649 436.744 324.867 438.74 323.902Z" fill="#957447"/>
<path d="M334.786 165.452C337.075 166.314 340.108 167.59 340.108 167.59C340.5 166.646 332.946 165.031 331.888 162.73C331.321 161.5 340.557 166.031 341.198 165.49C341.463 165.266 330.751 161.778 331.245 160.935C331.66 160.228 342.509 164.052 342.569 163.523C342.652 162.788 333.176 160.885 334.025 159.827C334.459 159.286 345.959 162.396 347.202 162.576C348.721 162.576 343.227 158.844 345.098 158.346C347.64 157.667 354.022 164.986 354.52 165.089C355.964 165.388 368.266 166.895 374.289 162.956C379.155 159.773 383.875 154.88 385.031 150.668C386.164 146.537 387.735 140.635 386.392 136.085C391.872 135.251 397.188 135.06 402.748 135.724C403.086 142.559 394.903 169.644 391.482 171.872C383.954 176.776 370.524 175.576 361.056 174.796C353.425 174.167 345.951 172.665 339.079 169.177C337.544 168.397 335.486 167.523 334.297 166.166C333.985 165.818 334.349 165.289 334.786 165.452Z" fill="#F25C12"/>
<path d="M389.811 113.144C385.734 117.357 381.616 142.595 383.13 148.612C385.747 153.499 397.598 154.341 401.431 156.659C410.272 153.024 404.215 136.722 404.215 136.722L407.437 104.969C407.437 104.967 397.58 105.12 389.811 113.144Z" fill="#E6A500"/>
<path d="M400.96 305.453C402.167 309.248 400.974 313.425 397.881 315.931C396.812 316.797 395.573 317.608 394.171 318.22C388.755 320.588 381.742 320.054 380.763 324.918C379.786 329.782 415.102 323.553 415.102 323.553C415.102 323.553 412.651 311.725 412.494 309.744C412.336 307.762 412.71 300.487 412.71 300.487L399.072 299.508L400.96 305.453Z" fill="#FF7446"/>
<path d="M413.668 315.183C413.668 315.183 414.1 317.061 415.09 320.246C416.079 323.431 415.461 326.429 415.461 326.429C415.461 326.429 382.382 327.996 381.043 326.948C379.705 325.9 380.392 322.086 380.73 321.748C381.068 321.41 385.266 320.277 387.419 318.949C389.573 317.621 396.924 312.595 399.41 312.796C401.893 313 403.041 314.834 407.759 315.044C412.475 315.255 412.496 314.268 413.668 315.183Z" fill="#001653"/>
<path d="M381.043 326.948C382.382 327.996 415.461 326.43 415.461 326.43C415.461 326.43 415.865 324.463 415.494 322.02C398.227 325.22 380.73 321.749 380.73 321.749C380.392 322.087 379.705 325.901 381.043 326.948Z" fill="white"/>
<path d="M415.494 322.022C403.703 324.378 390.629 323.879 380.73 321.75C398.736 324.469 413.253 322.363 412.249 322.464C412.293 322.458 415.712 321.991 415.494 322.022Z" fill="#957447"/>
<path d="M441.04 190.825C446.714 211.58 439.668 304.679 439.668 304.679L422.677 303.517C422.677 303.517 418.812 210.901 416.009 208.098C415.187 207.276 414.307 207.538 413.631 208.002C412.948 208.473 412.467 209.183 412.224 209.976C410.475 215.69 400.481 248.955 402.497 256.24C404.703 264.216 414.548 306.947 414.548 306.947L400.292 307.517C400.292 307.517 380.745 274.873 380.745 252.084C380.745 229.294 383.923 199.086 393.161 186.794C397.364 181.2 418.065 176.871 418.065 176.871C418.065 176.871 439.268 184.343 441.04 190.825Z" fill="#021F6E"/>
<path d="M410.332 306.907C410.332 306.907 400.487 261.347 398.282 252.841C396.68 246.666 402.67 222.974 406.071 210.463C407.091 206.708 411.602 205.195 414.683 207.575C414.683 207.575 400.29 248.262 402.496 256.238C404.701 264.214 414.546 306.945 414.546 306.945L400.29 307.515C400.29 307.515 400.255 307.455 400.186 307.341L410.332 306.907Z" fill="#021753"/>
<path d="M437.515 186.518C439.337 187.942 440.654 189.406 441.042 190.826C446.717 211.58 439.671 304.679 439.671 304.679L435.463 304.391C435.699 301.025 441.799 213.396 437.515 186.518Z" fill="#021753"/>
<path d="M389.896 192.359C390.888 190.245 391.975 188.371 393.16 186.794C393.648 186.145 394.359 185.512 395.235 184.902C397.596 186.11 400.862 187.425 405.379 188.813C419 193.003 433.686 190.768 439.788 188.645C440.409 189.378 440.844 190.11 441.042 190.828C441.533 192.629 441.93 194.974 442.245 197.754C439.199 200.02 421.49 205.494 405.379 200.367C395.154 197.111 391.343 195.14 389.896 192.359Z" fill="#021753"/>
<path d="M439.662 311.728C435.309 313.141 424.829 312.791 422.329 311.728C420.022 310.749 419.866 302.165 422.329 301.7C425.79 301.046 435.6 301.119 439.662 301.7C442.146 302.057 442.048 310.956 439.662 311.728Z" fill="#5D70A2"/>
<path d="M413.826 307.896C409.473 309.309 398.993 308.958 396.491 307.896C394.184 306.916 394.028 298.332 396.491 297.867C399.952 297.214 409.762 297.286 413.826 297.867C416.308 298.22 416.21 307.122 413.826 307.896Z" fill="#5D70A2"/>
<path d="M420.316 104.256C420.316 104.256 434.485 103.527 440.276 110.389C446.067 117.251 445.594 189.351 443.25 191.364C440.905 193.377 420.769 199.453 404.774 194.719C388.779 189.986 387.76 183.49 387.76 183.49C387.76 183.49 392.015 135.001 392.015 121.75C392.015 108.499 404.956 100.689 420.316 104.256Z" fill="#FCC332"/>
<path d="M432.815 177.287C434.069 173.805 432.728 162.732 431.303 154.721C430.187 154.935 429.114 155.188 428.101 155.48C426.39 150.181 424.881 136.43 424.831 127.783C424.736 111.565 432.946 106.849 432.946 106.849C434.573 106.477 437.175 108.009 441.248 112.246C445.949 125.102 444.966 184.937 442.76 186.827C441.82 187.635 439.984 192.691 435.245 193.696C434.013 188.859 431.658 180.505 432.815 177.287Z" fill="#E6A500"/>
<path d="M421.539 104.405C424.611 107.229 424.85 107.283 421.657 110.989C418.466 114.695 407.894 118.907 406.388 118.195C402.647 116.429 406.129 110.532 408.619 106.291C409.397 104.967 418.466 101.578 421.539 104.405Z" fill="#E6A500"/>
<path d="M407.805 93.7265C407.805 93.7265 406.978 113.24 407.805 114.095C408.633 114.95 420.491 110.818 421.524 108.397C422.558 105.975 417.202 70.7002 417.202 70.7002L407.805 93.7265Z" fill="#F25C12"/>
<path opacity="0.6" d="M407.448 106.593C409.543 106.216 411.348 105.682 411.878 105.085C416.714 99.6212 413.089 90.7526 413.469 88.4473C414.226 83.8574 415.768 80.0664 414.994 76.1094L407.803 93.7261C407.805 93.7261 407.506 100.781 407.448 106.593Z" fill="#B5450E"/>
<path d="M344.22 115.893C343.413 117.925 345.09 119.896 346.845 119.022C347.258 118.817 347.573 118.448 347.743 118.018C348.552 115.985 346.874 114.011 345.117 114.889C344.704 115.094 344.39 115.464 344.22 115.893Z" fill="#00424C"/>
<path d="M345.308 116.87L345.908 117.713L346.271 116.704C346.746 115.391 350.773 103.789 346.325 101.15C345.011 100.368 343.773 100.621 342.928 101.835C340.986 104.63 341.59 111.654 345.308 116.87ZM343.816 102.661C344.227 102.071 344.733 101.889 345.36 102.109C345.503 102.158 345.652 102.229 345.808 102.322C348.509 103.926 346.806 111.322 345.586 115.129C342.613 110.305 342.492 104.563 343.816 102.661Z" fill="#00424C"/>
<path d="M345.87 116.225L346.798 116.426C347.642 116.608 348.484 116.694 349.304 116.694C353.433 116.694 357.037 114.56 357.908 112.097C358.371 110.788 358.002 109.543 356.894 108.68C353.19 105.802 347.134 114.38 346.455 115.37L345.87 116.225ZM347.991 115.299C349.721 112.998 352.931 109.408 355.174 109.408C355.57 109.408 355.937 109.52 356.261 109.771C356.917 110.282 357.112 110.879 356.859 111.597C356.166 113.55 352.383 115.826 347.991 115.299Z" fill="#00424C"/>
<path d="M316.327 167.536H372.067C375.12 167.536 377.593 165.062 377.593 162.01V122.658C377.593 119.605 375.12 117.132 372.067 117.132H316.327C313.274 117.132 310.801 119.605 310.801 122.658V162.01C310.801 165.06 313.274 167.536 316.327 167.536Z" fill="#FCC332"/>
<path d="M315.171 117.132H336.046V167.536H315.171C312.758 167.536 310.801 164.409 310.801 160.551V124.116C310.801 120.259 312.758 117.132 315.171 117.132Z" fill="#F29913"/>
<path d="M354.821 117.132H356.469C365.378 133.217 359.919 161.392 358.577 167.536H357.29C358.212 163.396 364.577 132.752 354.896 117.281C354.869 117.234 354.844 117.184 354.821 117.132Z" fill="#00424C"/>
<path d="M324.016 167.345C324.025 167.409 324.029 167.473 324.029 167.536H322.809C319.213 138.82 323.18 123.629 325.859 117.132H327.369C324.931 122.56 320.257 137.527 324.016 167.345Z" fill="#00424C"/>
<path d="M423.145 222.028H464.754C465.543 222.028 466.18 221.389 466.18 220.603V193.588C466.18 192.8 465.541 192.163 464.754 192.163H423.145C422.357 192.163 421.72 192.802 421.72 193.588V220.603C421.718 221.389 422.357 222.028 423.145 222.028Z" fill="#50BFA5"/>
<path d="M423.415 218.589H461.073V195.602H423.415V218.589Z" fill="white"/>
<path d="M421.572 213.666H423.933C424.377 213.666 424.738 213.305 424.738 212.861V201.326C424.738 200.882 424.377 200.521 423.933 200.521H421.572C421.128 200.521 420.767 200.882 420.767 201.326V212.861C420.767 213.307 421.128 213.666 421.572 213.666Z" fill="#F29913"/>
<path d="M436.232 177.287C433.429 185.817 443.299 204.268 439.29 210.171C435.282 216.077 437.299 222.275 442.156 225.35C447.013 228.423 453.053 224.115 452.565 221.777C452.078 219.436 450.768 213.136 450.169 210.256C449.569 207.376 460.869 184.302 452.916 170.308C448.196 162.004 455.175 147.714 451.488 138.48C448.189 144.63 432.57 140.787 433.466 147.535C434.892 153.3 437.807 172.491 436.232 177.287Z" fill="#F25C12"/>
<path d="M400.846 73.4933C400.846 73.4933 398.813 80.4965 398.813 86.2401C398.813 91.9837 398.948 101.927 403.017 101.927C407.085 101.927 412.916 100.807 414.271 92.6829C415.628 84.5593 414.271 75.5953 410.204 73.4933C406.133 71.3934 400.846 73.4933 400.846 73.4933Z" fill="#FF7446"/>
<path d="M402.433 78.6683C403.527 78.2159 404.66 79.1932 404.45 80.3926C404.114 82.312 404.197 84.416 405.994 84.8538C409.451 85.6984 411.086 84.8538 411.65 85.439C412.216 86.0241 410.015 89.1387 411.65 89.7238C413.285 90.309 414.165 84.7252 415.609 84.7252C417.053 84.7252 417.368 92.7762 415.609 94.5939C413.849 96.4116 415.86 98.8787 418.186 98.8787C420.512 98.8787 417.891 101.8 421.024 102.774C424.157 103.747 426.67 103.747 427.676 99.7876C428.682 95.8264 427.676 93.6207 427.676 93.6207C427.676 93.6207 430.877 89.8774 430.064 86.1756C429.612 84.1193 427.531 80.4175 427.531 80.4175C427.531 80.4175 425.917 76.0247 425.477 73.4932C425.037 70.9617 418.804 68.4281 414.536 67.9737C410.268 67.5193 412.405 64.9214 408.822 64.9214C405.239 64.9214 404.747 69.6524 404.747 69.6524C404.747 69.6524 399.632 66.5938 399.394 66.7391C396.416 68.5526 398.892 71.7378 398.892 71.7378C398.892 71.7378 396.441 71.9971 395.937 75.1781C395.435 78.3591 397.508 80.3075 400.778 79.2679C401.396 79.0729 401.946 78.8695 402.433 78.6683Z" fill="#100062"/>
<path d="M398.893 67.0977C399.524 67.189 400.354 67.3882 401.348 67.6849C402.879 68.5377 404.747 69.6541 404.747 69.6541C404.747 69.6541 411.424 71.5236 415.252 73.3476C420.157 75.684 424.454 78.0308 427.338 79.8776C427.458 80.2179 427.531 80.4171 427.531 80.4171C427.531 80.4171 428.296 81.7783 429 83.3076C425.962 82.6436 420.03 80.3569 413.413 77.2029C405.942 73.6381 398.472 67.4546 398.893 67.0977Z" fill="#0C004A"/>
<path d="M413.34 84.2852C413.34 84.2852 415.068 81.1021 416.608 82.8783C418.148 84.6545 417.338 92.1639 414.975 92.1639C412.612 92.1639 412.502 86.2979 413.34 84.2852Z" fill="#FF7446"/>
<path d="M432.51 107C432.51 107 427.692 110.669 427.777 126.887C427.823 135.534 430.36 150.183 431.925 155.481C438.415 153.429 447.567 153.296 454.196 155.481C455.09 148.405 453.285 133.305 452.161 128.427C449.393 116.429 439.396 104.255 432.51 107Z" fill="#FCC332"/>
<path d="M403.346 67.9424C406.551 61.2173 414.651 58.3891 421.438 61.624C428.225 64.8589 431.13 72.9328 427.926 79.6578C427.804 79.9172 427.669 80.1683 427.532 80.4152L403.005 68.7247C403.111 68.4632 403.221 68.2018 403.346 67.9424Z" fill="#FCB500"/>
<path d="M408.444 71.0112C408.549 70.7477 408.659 70.4862 408.784 70.2289C411.46 64.6119 417.554 61.7131 423.443 62.7963C422.818 62.3584 422.15 61.9642 421.438 61.626C414.651 58.391 406.551 61.2193 403.346 67.9443C403.223 68.2037 403.111 68.4652 403.005 68.7266L427.532 80.4172C427.576 80.3342 408.444 71.0112 408.444 71.0112Z" fill="#FCC332"/>
<path d="M392.055 63.8382C392.317 63.2904 405.085 68.4987 413.25 72.3914C421.414 76.282 427.819 79.8821 427.56 80.4279C427.299 80.9757 413.758 77.7947 405.594 73.9041C397.429 70.0134 391.794 64.386 392.055 63.8382Z" fill="#FC9700"/>
<path d="M150.614 305.094C150.614 305.094 147.728 307.949 147.664 308.995C147.599 310.041 147.408 321.264 148.587 322.312C149.765 323.36 153.224 324.103 152.114 325.281C151.274 326.172 144.804 325.981 140.518 325.742C139.267 325.672 137.698 315.55 137.202 314.062C136.482 311.902 134.208 306.465 134.862 304.959C135.181 304.226 137.231 303.287 139.381 301.88C141.642 300.4 143.804 297.103 143.804 297.103L150.614 305.094Z" fill="#F7A491"/>
<path d="M189.219 312.106C189.219 312.106 186.635 319.501 186.633 319.52C186.44 320.692 185.685 323.587 185.685 324.651C185.685 328.652 203.487 321.255 199.497 319.483C199.136 319.321 198.003 318.04 197.885 316.677C197.703 314.579 199.385 311.948 199.385 311.948L189.219 312.106Z" fill="#F7A491"/>
<path d="M187.737 180.252L178.521 191.005L169.485 247.258L141.045 299.737C141.045 299.737 145.321 306.302 149.913 307.336L190.279 254.297L212.156 187.899L211.389 173.146L187.737 180.252Z" fill="#184655"/>
<path d="M210.808 169.873L217.177 189.519C217.177 189.519 222.784 248.045 221.987 252.076C220.041 261.912 200.379 315.467 200.379 315.467L187.783 313.864L201.608 250.543L178.573 191.057L210.808 169.873Z" fill="#355389"/>
<path d="M271.961 102.994C268.984 106.281 269.631 106.675 269.237 107.086C268.772 107.571 260.128 109.414 260.128 109.414C260.128 109.414 234.691 115.018 233.307 115.27L206.919 109.267L200.495 122.055C200.495 122.055 229.362 127.788 230.919 127.815C232.475 127.84 265.969 116.075 268.951 115.139C268.951 115.139 272.918 115.396 275.412 115.473C277.908 115.55 280.294 114.464 280.997 114.373C281.101 114.361 283.429 113.912 286.145 112.566C288.485 111.404 285.742 111.381 285.742 111.381C285.742 111.381 281.026 112.715 280.985 112.308C280.954 111.995 283.572 111.425 286.174 110.167C286.844 109.843 287.504 109.522 288.106 109.223C289.689 108.434 289.668 107.189 287.879 107.737C287.249 107.93 286.209 108.279 285.502 108.638C284.738 109.026 283.914 109.121 283.224 109.343C281.852 109.785 280.858 110.126 280.871 110.055C280.887 109.966 280.553 109.852 281.254 109.484C282.097 109.045 284.087 108.524 285.276 107.777C285.95 107.353 287.411 106.557 287.411 106.557C287.411 106.557 289.849 104.963 289.61 104.633C289.091 103.915 287.388 104.641 286.545 105.345C285.786 105.503 284.273 106.386 284.273 106.386C284.273 106.386 280.821 107.451 280.663 106.94C280.599 106.737 282.381 105.704 284.159 104.471C286.041 103.168 287.334 102.133 287.153 101.714C286.867 101.045 285.282 101.973 285.282 101.973C285.282 101.973 283.883 102.79 283.4 103.027C282.831 103.301 281.07 103.99 281.07 103.99C281.07 103.99 274.825 106.081 274.715 105.585C274.605 105.09 274.808 103.71 275.15 103.438C275.493 103.168 276.372 103.019 276.715 102.749C277.057 102.479 277.738 101.828 277.447 101.359C277.157 100.89 274.557 101.516 274.557 101.516C274.557 101.516 272.82 102.046 271.961 102.994Z" fill="#F8A492"/>
<path d="M215.965 110.624C215.965 110.624 215.057 116.231 214.474 118.304C213.988 120.026 210.575 127.114 210.575 127.114C210.575 127.114 198.34 123.103 192.557 120.808C185.542 118.024 177.433 112.029 177.96 111.269C179.438 109.14 181.822 106.655 185.189 105.812C196.833 102.901 215.965 110.624 215.965 110.624Z" fill="#3C8F7C"/>
<path d="M217.379 189.106C205.706 193.715 178.266 191.055 178.266 191.055C178.266 191.055 180.005 179.074 180.619 170.981C181.233 162.895 176.085 150.09 173.909 127.871C173.448 123.159 175.29 110.435 181.895 106.441C184.216 105.04 185.636 104.855 185.636 104.855C185.698 104.853 194.723 103.013 199.33 104.432C200.639 105.598 204.718 108.966 207.065 112.904C210.148 118.121 212.681 124.136 213.277 126.114C215.937 134.924 217.068 160.436 217.068 165.246C217.072 170.06 217.379 189.106 217.379 189.106Z" fill="#50BFA5"/>
<path d="M207.069 112.905C207.062 112.911 207.05 112.911 207.038 112.917C202.552 114.311 185.631 104.905 185.631 104.905L185.638 104.856L187.69 91.4366C187.69 91.4366 198.251 88.9487 197.636 92.7646C197.022 96.5743 199.068 104.192 199.068 104.192C199.137 104.26 199.222 104.339 199.332 104.432C200.643 105.598 204.722 108.966 207.069 112.905Z" fill="#F7A491"/>
<path d="M197.637 92.7612C198.251 88.9494 187.688 91.4373 187.688 91.4373L187.518 92.5537C187.827 93.3007 188.204 93.9398 188.663 94.4295C191.022 96.9527 194.711 98.4674 197.9 98.5815C197.581 96.5273 197.386 94.3237 197.637 92.7612Z" fill="#FE875E"/>
<path d="M185.648 70.8044C185.324 70.6882 183.057 87.4148 187.362 92.0171C191.667 96.6195 200.056 98.1259 203.064 94.5009C206.392 90.492 206.227 72.5121 199.531 67.779C192.838 63.0439 185.648 70.8044 185.648 70.8044Z" fill="#F7A491"/>
<path d="M196.983 58.8314C191.81 59.8793 188.457 63.0208 187.227 64.3592C184.878 64.6331 181.685 65.9237 178.388 71.3478C174.334 78.0168 177.328 85.4059 182.046 89.031C186.766 92.656 186.713 96.8641 186.713 96.8641C186.713 96.8641 194.709 92.7597 193.933 86.4372C193.607 83.7833 192.456 83.1815 193.319 81.1045C194.213 78.9464 193.545 75.5953 193.711 72.682L194.19 70.8457C194.19 70.8457 197.539 68.256 200.815 68.9864C204.094 69.7168 203.623 57.4868 196.983 58.8314Z" fill="#13375B"/>
<path d="M194.63 82.847C194.665 84.8888 194.25 86.5219 193.064 86.5426C191.877 86.5634 191.543 85.7645 190.561 82.8844C189.64 80.1848 190.758 79.1722 191.945 79.1536C193.13 79.1307 194.597 80.8073 194.63 82.847Z" fill="#F7A491"/>
<path d="M139.516 301.812C139.516 301.812 145.543 320.331 148.147 321.246C148.838 321.489 152.78 322.572 153.405 324.058C153.421 324.095 153.434 324.141 153.444 324.191C153.645 325.133 152.855 326.002 151.89 326.002H139.54C139.54 326.002 137.787 317.638 137.094 313.963C137.094 313.963 133.424 304.985 133.833 304.167C134.241 303.354 139.516 301.812 139.516 301.812Z" fill="#3C8F7C"/>
<path d="M184.672 325.973L186.712 319.445C186.712 319.445 190.994 321.281 193.134 320.976C195.273 320.669 199.454 319.445 199.454 319.445C207.998 322.296 214.998 323.68 213.724 325.973H184.672Z" fill="#3C8F7C"/>
<path d="M272.693 131.265C268.762 133.649 268.994 133.934 268.481 134.228C267.876 134.575 258.533 134.164 258.533 134.164C258.533 134.164 230.987 133.135 229.501 133.029L204.099 120.706L194.09 131.28C194.09 131.28 222.1 143.968 223.688 144.381C225.275 144.794 262.722 141.968 266.025 141.823C266.025 141.823 270.017 143.062 272.55 143.759C275.084 144.456 277.818 144.018 278.563 144.107C278.673 144.12 281.175 144.278 284.319 143.674C287.027 143.153 284.225 142.445 284.225 142.445C284.225 142.445 279.038 142.537 279.107 142.138C279.159 141.831 281.993 141.943 284.995 141.397C285.767 141.256 286.529 141.115 287.228 140.98C289.06 140.623 289.371 139.432 287.396 139.509C286.697 139.534 285.539 139.607 284.719 139.771C283.833 139.947 282.964 139.833 282.198 139.872C280.675 139.949 279.652 140.022 279.686 139.959C279.727 139.879 279.331 139.69 280.144 139.515C281.124 139.308 283.302 139.31 284.719 138.895C285.522 138.661 287.232 138.266 287.232 138.266C287.232 138.266 289.259 137.054 289.247 136.895C289.172 136.023 287.724 136.438 286.672 136.897C285.852 136.855 284.066 137.318 284.066 137.318C284.066 137.318 280.244 137.467 280.221 136.945C280.211 136.743 282.416 136.596 284.69 135.872C287.294 135.044 287.939 133.876 287.865 133.413C287.751 132.705 286.286 133.369 286.286 133.369C286.286 133.369 284.277 134.284 283.719 134.386C283.064 134.506 274.478 134.662 274.499 134.164C274.519 133.664 275.347 133.01 275.77 132.838C276.194 132.666 276.999 132.433 277.422 132.263C277.845 132.091 278.136 131.218 277.964 130.699C277.791 130.18 275.924 130.46 275.924 130.46C275.924 130.46 273.828 130.576 272.693 131.265Z" fill="#F8A492"/>
<path d="M201.612 142.617C201.612 142.617 206.61 136.311 208.353 133.759C211.735 128.804 214.567 123.22 214.567 123.22C214.567 123.22 200.641 115.198 195.45 112.463C176.405 102.424 176.847 117.396 177.733 120.718C179.712 128.148 201.612 142.617 201.612 142.617Z" fill="#96D9C9"/>
<path d="M272.281 109.945C273.929 109.005 275.203 107.534 274.784 105.679C276.196 107.148 274.416 109.858 272.281 109.945Z" fill="#FE875E"/>
</svg>
