<svg width="528" height="528" viewBox="0 0 528 528" fill="none" xmlns="http://www.w3.org/2000/svg">
<path d="M159.203 423.34H469.709C498.306 374.152 510.333 315.491 503.311 259.016C500.956 240.071 496.373 221 486.225 204.833C476.077 188.665 459.688 175.645 440.775 173.037C416.455 169.689 393.519 183.343 370.255 191.168C335.492 202.858 297.138 201.591 261.888 191.453C223.344 180.376 186.543 158.833 146.457 160.164C109.993 161.378 75.7895 182.467 54.226 211.908C32.6625 241.339 22.9156 278.277 21.9652 314.752C21.0148 351.226 28.3962 387.457 38.5127 422.517L159.203 423.34Z" fill="#D6EDF1"/>
<path d="M89.6654 169.478C100.901 162.234 113.52 156.837 126.805 155.327C131.24 154.82 136.457 154.345 138.769 150.522C140.691 147.344 139.54 142.993 136.953 140.311C134.376 137.639 130.702 136.319 127.09 135.432C108.768 130.934 88.9684 135.559 72.8855 145.433C66.9191 149.097 61.3223 153.511 57.0666 159.076C52.811 164.631 49.9492 171.421 49.8119 178.422C49.738 182.065 50.435 185.793 52.2618 188.94C53.8036 191.59 56.6654 195.075 60.0023 193.787C63.3076 192.509 66.6023 187.82 69.2106 185.455C75.6417 179.647 82.3895 174.177 89.6654 169.478Z" fill="#D6EDF1"/>
<path d="M400.256 450.268H398.387L427.997 423.287H429.866L400.256 450.268Z" fill="#F58249"/>
<path d="M306.177 451.799L307.856 450.268H400.256L398.587 451.799H306.177Z" fill="#F58249"/>
<path d="M427.997 423.287L404.395 444.798L398.386 450.268H307.855L321.594 437.754L337.455 423.287H427.997Z" fill="#F5AD49"/>
<path opacity="0.5" d="M404.395 444.798L398.387 450.268H307.845L321.584 437.754C329.176 436.107 337.287 436.086 345.122 436.213C359.378 436.445 373.708 436.92 387.721 439.571C393.413 440.637 399.232 442.232 404.395 444.798Z" fill="#F5AD49"/>
<path d="M467.354 97.3423H302.354V414.544H467.354V97.3423Z" fill="#A4D7E0"/>
<path d="M458.251 109.845H311.446V414.543H458.251V109.845Z" fill="#1C484F"/>
<path opacity="0.5" d="M458.251 372.599H311.446V414.543H458.251V372.599Z" fill="#1F4F57"/>
<path d="M368.027 383.191L458.294 414.543V109.845L368.027 119.624V383.191Z" fill="#E6E6E6"/>
<path d="M373.465 157.038V131.894L451.049 125.263V153.637L450.648 153.659L373.465 157.038ZM374.31 132.676V156.161L450.204 152.824V126.181L374.31 132.676Z" fill="#80C8D4"/>
<path d="M451.05 400.646L450.5 400.467L373.465 375.091V307.032L451.05 323.664V400.646ZM374.31 374.478L450.205 399.485V324.34L374.31 308.067V374.478Z" fill="#80C8D4"/>
<path d="M451.05 296.324L412.21 289.65V167.756L451.05 166.88V296.324ZM413.055 288.943L450.205 295.321V167.746L413.055 168.591V288.943Z" fill="#80C8D4"/>
<path d="M407.595 288.858L373.455 282.997V168.633L407.595 167.862V288.858ZM374.31 282.279L406.761 287.855V168.728L374.31 169.456V282.279Z" fill="#80C8D4"/>
<path d="M423.34 308.869L397.067 303.642V293.652L423.34 298.489V308.869ZM397.912 302.945L422.495 307.834V299.175L397.912 294.645V302.945Z" fill="#80C8D4"/>
<path d="M17.8994 423.065H500.513" stroke="#1C484F" stroke-miterlimit="10"/>
<path opacity="0.5" d="M127.998 421.935L82.6213 449.032H13.5483L65.3451 419.686L127.998 421.935Z" fill="url(#paint0_linear)"/>
<path d="M127.997 358.058V363.274H49.98L62.6309 359.008L65.4609 358.058H127.997Z" fill="#C7762F"/>
<path d="M117.733 363.274H49.98V427.88H117.733V363.274Z" fill="#F5AD49"/>
<path d="M81.502 417.701H53.0322V421.661H81.502V417.701Z" fill="#C7762F"/>
<path d="M72.1353 413.107H53.0322V415.99H72.1353V413.107Z" fill="#C7762F"/>
<path d="M112.506 372.599C112.506 375.461 110.183 377.784 107.321 377.784C104.459 377.784 102.136 375.461 102.136 372.599C102.136 369.737 104.459 367.414 107.321 367.414C110.183 367.425 112.506 369.737 112.506 372.599Z" fill="#C7762F"/>
<path opacity="0.5" d="M49.9708 427.884H53.0332L53.0332 363.278H49.9708L49.9708 427.884Z" fill="#F5AD49"/>
<path d="M127.998 358.058V421.936L117.733 427.881V363.275L120.468 361.891L127.998 358.058Z" fill="#E38C3B"/>
<path opacity="0.5" d="M127.998 409.961V421.936L117.733 427.881V363.275L120.479 361.881C120.215 371.702 120.637 381.544 121.757 391.301C122.285 395.905 122.992 400.562 124.861 404.797C125.664 406.645 126.72 408.408 127.998 409.961Z" fill="#E38C3B"/>
<path opacity="0.5" d="M127.998 358.058V358.776C98.6621 362.546 73.8777 360.434 62.6313 359.008L65.4614 358.047H127.998V358.058Z" fill="#C7762F"/>
<path d="M117.733 311.921V315.765H60.2446L69.5691 312.618L71.6494 311.921H117.733Z" fill="#C7762F"/>
<path d="M110.162 315.765H60.2446V363.359H110.162V315.765Z" fill="#F5AD49"/>
<path d="M83.4766 355.861H62.5044V358.786H83.4766V355.861Z" fill="#C7762F"/>
<path d="M76.5809 352.472H62.5044V354.594H76.5809V352.472Z" fill="#C7762F"/>
<path d="M106.318 322.64C106.318 324.752 104.607 326.452 102.506 326.452C100.405 326.452 98.6938 324.741 98.6938 322.64C98.6938 320.528 100.405 318.828 102.506 318.828C104.607 318.828 106.318 320.528 106.318 322.64Z" fill="#C7762F"/>
<path opacity="0.5" d="M60.2512 363.365H62.5005L62.5005 315.771H60.2512L60.2512 363.365Z" fill="#F5AD49"/>
<path d="M117.733 311.921V358.987L110.162 363.37V315.765L112.189 314.741L117.733 311.921Z" fill="#E38C3B"/>
<path opacity="0.5" d="M117.733 350.159V358.987L110.172 363.37V315.776L112.189 314.751C111.999 321.996 112.305 329.24 113.129 336.431C113.52 339.821 114.037 343.253 115.41 346.379C116.012 347.72 116.783 349.019 117.733 350.159Z" fill="#E38C3B"/>
<path opacity="0.5" d="M117.733 311.921V312.449C96.1172 315.227 77.8589 313.674 69.5693 312.618L71.6497 311.911H117.733V311.921Z" fill="#C7762F"/>
<path d="M413.794 272.121C417.617 276.155 421.186 280.442 424.491 284.919C427.786 289.407 430.806 294.096 433.594 298.922C439.17 308.584 443.71 318.817 447.501 329.292C451.229 339.8 454.228 350.56 456.657 361.427C457.871 366.865 458.959 372.324 459.952 377.794C460.923 383.275 461.81 388.766 462.655 394.268L461.124 394.511C460.226 389.03 459.276 383.56 458.241 378.111C457.227 372.652 456.14 367.213 454.936 361.807C452.517 350.993 449.677 340.264 446.034 329.799C442.454 319.324 438.05 309.112 432.728 299.397C430.077 294.529 427.173 289.798 424.016 285.247C420.88 280.674 417.469 276.281 413.794 272.121Z" fill="#1C2540"/>
<path d="M444.64 233.608C449.782 246.016 454.925 258.446 458.78 271.339C459.751 274.56 460.627 277.802 461.398 281.076C461.8 282.712 462.138 284.36 462.486 286.007C462.803 287.654 463.077 289.323 463.373 290.97C464.45 297.613 465.211 304.308 465.559 311.024C466.351 324.456 466.076 337.92 466.024 351.342C466.003 358.058 466.034 364.764 466.267 371.459C466.531 378.154 467.016 384.838 467.829 391.48L466.288 391.67C465.538 384.965 465.115 378.238 464.904 371.511C464.735 364.785 464.767 358.058 464.852 351.331C465.042 337.899 465.443 324.467 464.778 311.066C464.492 304.36 463.795 297.686 462.792 291.065C462.507 289.418 462.254 287.76 461.958 286.102C461.631 284.455 461.303 282.818 460.923 281.181C460.184 277.908 459.339 274.666 458.41 271.445C454.682 258.551 449.656 246.059 444.64 233.608Z" fill="#1C2540"/>
<path d="M507.746 274.613C481.832 306.926 468.811 349.114 471.916 390.213L470.364 390.319C467.755 348.776 481.43 306.588 507.746 274.613Z" fill="#1C2540"/>
<path d="M476.974 425.758H450.754C448.272 425.758 446.202 423.868 445.97 421.407L443.013 390.276H484.704L481.747 421.407C481.525 423.878 479.445 425.758 476.974 425.758Z" fill="#FF4846"/>
<path opacity="0.5" d="M483.838 399.495L484.715 390.276H443.013L443.89 399.495H483.838Z" fill="#871A1A"/>
<path d="M487.302 384.067H440.426V392.61H487.302V384.067Z" fill="#FF4846"/>
<path d="M513.174 281.434C511.706 284.096 509.362 286.155 507.218 288.32C506.151 289.397 505.127 290.516 504.145 291.667C500.269 296.197 497.059 301.287 494.62 306.736C492.835 310.717 491.462 314.889 490.554 319.165C490.48 319.503 490.417 319.841 490.343 320.179C489.203 325.998 488.77 331.975 487.048 337.666C486.668 338.913 485.971 340.771 485.021 342.714C482.856 347.149 479.361 352.028 475.369 350.983C474.873 350.866 474.366 350.645 473.859 350.317C472.845 349.684 472.021 348.807 471.356 347.783C468.959 344.087 468.558 338.363 468.885 334.023C468.949 333.168 469.044 332.376 469.149 331.658C469.899 326.758 471.641 322.101 473.489 317.476C474.271 315.522 475.094 313.558 475.855 311.594C477.28 307.929 478.558 304.191 479.931 300.506C481.357 296.651 482.867 292.829 484.736 289.175C486.193 286.303 487.914 283.515 489.91 280.97C492.899 277.158 496.5 273.884 500.819 271.719C502.846 270.705 505.064 269.935 507.334 269.966C509.605 270.009 511.938 270.938 513.269 272.775C515.053 275.246 514.642 278.763 513.174 281.434Z" fill="#80D4A9"/>
<path opacity="0.19" d="M513.174 281.435C511.706 284.096 509.362 286.155 507.218 288.32C506.152 289.397 505.127 290.516 504.145 291.667C503.3 292.079 502.477 292.512 501.653 292.977C498.485 294.814 495.486 297.496 494.652 301.066C494.219 302.914 494.398 304.825 494.609 306.726C492.825 310.707 491.452 314.878 490.544 319.155C490.47 319.493 490.407 319.831 490.333 320.169C487.914 322.956 485.222 325.628 484.166 329.092C483.342 331.816 483.616 334.731 484.102 337.529C484.398 339.251 484.768 340.961 485 342.693C482.835 347.128 479.34 352.007 475.348 350.962C474.852 350.845 474.345 350.624 473.838 350.296C472.824 349.663 472 348.786 471.335 347.762C468.938 344.066 468.537 338.342 468.864 334.002C470.585 332.154 472.74 330.634 473.859 328.374C475.538 325.005 474.461 321.256 473.468 317.455C474.25 315.501 475.073 313.537 475.834 311.573C477.259 307.908 478.537 304.17 479.91 300.485C482.793 298.531 485.781 296.599 487.439 293.663C489.287 290.368 489.139 286.377 489.625 282.628C489.699 282.068 489.784 281.508 489.889 280.949C492.878 277.137 496.479 273.863 500.798 271.698C502.825 270.684 505.043 269.914 507.313 269.945C509.584 269.988 511.917 270.917 513.248 272.754C515.054 275.246 514.642 278.763 513.174 281.435Z" fill="#80D4A9"/>
<path d="M473.458 298.129C473.225 302.68 473.922 307.221 474.176 311.772C474.218 312.638 474.26 313.494 474.26 314.36V314.37C474.292 318.087 473.859 321.826 472.286 325.163C470.311 329.365 464.503 335.205 460.089 331.013C458.431 329.45 457.248 327.475 456.424 325.31C454.978 321.53 454.619 317.179 454.735 313.42C454.893 308.245 455.791 303.039 455.717 297.886C455.706 296.334 455.601 294.781 455.358 293.24C455.083 291.476 454.64 289.765 454.08 288.097C451.007 279.005 444.259 271.19 440.394 262.236C439.55 260.282 438.853 258.254 438.293 256.206C436.551 249.743 436.223 242.9 437.385 236.311C437.543 235.392 437.733 234.484 437.955 233.586C438.916 229.626 441.06 225.233 444.946 224.315C445.094 224.272 445.252 224.241 445.4 224.22C449.698 223.533 453.288 227.366 455.728 230.978C458.568 235.17 461.071 239.595 463.457 244.072C464.513 246.037 465.538 248.011 466.562 249.986C469.751 256.111 472.983 262.457 474.725 269.068C474.725 269.068 474.725 269.068 474.736 269.078C475.601 272.384 476.108 275.752 476.034 279.195V279.417C475.876 285.71 473.785 291.835 473.458 298.129Z" fill="#80D4A9"/>
<path opacity="0.19" d="M473.732 312.354C473.922 313.019 474.101 313.685 474.27 314.361V314.371C474.302 318.088 473.869 321.826 472.296 325.163C470.321 329.366 464.513 335.206 460.099 331.014C458.441 329.451 457.258 327.476 456.435 325.311C457.596 325.195 458.663 324.773 459.592 323.907C461.113 322.481 461.831 320.39 462.053 318.31C462.802 311.14 458.251 304.73 455.738 297.876C455.727 296.324 455.622 294.772 455.379 293.23C455.104 291.466 454.661 289.756 454.101 288.087C454.206 281.403 455.854 274.465 452.453 268.847C449.148 263.409 442.126 261.254 438.324 256.196C436.582 249.733 436.254 242.89 437.416 236.301C437.574 235.836 437.733 235.372 437.902 234.928C438.968 232.066 440.214 229.215 442.168 226.871C442.981 225.899 443.921 225.023 444.966 224.305C445.114 224.263 445.273 224.231 445.421 224.21C449.718 223.523 453.309 227.357 455.748 230.968C458.589 235.161 461.092 239.585 463.478 244.063C463.499 244.907 463.52 245.752 463.552 246.597C463.721 251.803 464.344 257.294 467.428 261.487C469.212 263.894 471.673 265.7 473.721 267.875C474.08 268.245 474.418 268.646 474.746 269.058C474.746 269.058 474.746 269.058 474.756 269.069C475.622 272.374 476.129 275.743 476.055 279.185C475.506 280.262 474.83 281.287 474.228 282.332C471.419 287.211 470.12 292.955 470.553 298.573C470.912 303.283 472.454 307.803 473.732 312.354Z" fill="#80D4A9"/>
<path d="M459.518 337.202C459.497 337.624 459.466 338.057 459.423 338.48C459.107 342.007 458.357 350.265 453.816 351.078C450.595 351.648 445.917 345.998 443.351 344.214C441.915 343.221 440.437 342.228 439.032 341.162C436.783 339.472 434.692 337.593 433.15 335.195C431.746 332.999 430.943 330.57 430.426 328.036C429.591 324.012 429.454 319.714 428.704 315.649C428.367 313.833 427.912 312.058 427.342 310.316C425.262 303.938 421.735 298.077 417.638 292.596C417.638 292.596 417.638 292.596 417.627 292.596C415.61 289.882 413.456 287.264 411.259 284.719C410.499 283.842 409.728 282.934 408.978 281.994C406.402 278.71 404.216 275.077 404.617 271.043C405.135 265.816 410.288 261.814 415.536 261.571C420.784 261.318 425.8 264.211 429.222 268.203C430.204 269.333 431.059 270.558 431.83 271.835C433.763 275.025 435.146 278.583 436.318 282.153C437.163 284.698 437.913 287.264 438.747 289.809C439.56 292.248 440.437 294.677 441.556 296.989C442.686 299.365 444.048 301.604 445.495 303.801C448.483 308.32 451.862 312.608 454.534 317.265C455.548 319.018 456.456 320.823 457.195 322.714C459.043 327.307 459.782 332.291 459.518 337.202Z" fill="#80D4A9"/>
<path opacity="0.19" d="M459.519 337.202C459.497 337.624 459.466 338.057 459.423 338.48C459.107 342.007 458.357 350.265 453.816 351.078C450.595 351.648 445.917 345.999 443.351 344.214C441.915 343.221 440.437 342.229 439.032 341.162C439.581 338.48 440.078 335.639 438.81 333.253C437.247 330.296 433.699 329.293 430.426 328.036C429.591 324.013 429.454 319.715 428.704 315.649C428.367 313.833 427.912 312.059 427.342 310.316C428.271 308.521 429.148 306.705 429.718 304.762C430.869 300.865 430.373 296.029 427.057 293.674C424.628 291.952 421.386 292.026 418.44 292.47C418.176 292.512 417.902 292.554 417.627 292.607C417.627 292.607 417.627 292.607 417.616 292.607C415.599 289.893 413.445 287.274 411.249 284.729C410.488 283.853 409.718 282.945 408.968 282.005C412.991 278.837 417.521 276.271 422.305 274.444C425.251 273.314 428.303 272.469 431.418 271.92C431.556 271.899 431.682 271.878 431.82 271.846C433.752 275.035 435.135 278.594 436.308 282.163C437.152 284.708 437.902 287.274 438.736 289.819C438.367 290.685 438.018 291.562 437.744 292.459C436.719 295.828 436.994 300.02 439.782 302.164C441.387 303.399 443.404 303.685 445.484 303.811C448.473 308.331 451.852 312.618 454.524 317.275C453.679 319.176 452.655 321.003 451.894 322.935C450.764 325.839 450.289 329.314 451.936 331.954C453.594 334.551 456.794 335.681 459.519 337.202Z" fill="#80D4A9"/>
<path d="M114.65 204.811V207.208H112.517V204.875C110.405 204.748 108.367 204.083 107.195 203.164L108.367 200.556C109.434 201.348 110.975 201.928 112.517 202.076V198.507C110.141 197.926 107.491 197.134 107.491 194.082C107.491 191.812 109.138 189.869 112.517 189.489V187.113H114.65V189.447C116.255 189.573 117.818 190.006 118.99 190.745L117.924 193.375C116.836 192.752 115.727 192.393 114.65 192.266V195.899C117.026 196.458 119.635 197.24 119.635 200.26C119.624 202.488 117.998 204.41 114.65 204.811ZM112.507 195.371V192.34C111.377 192.593 110.923 193.216 110.923 193.924C110.933 194.663 111.567 195.064 112.507 195.371ZM116.181 200.513C116.181 199.764 115.558 199.362 114.64 199.035V201.981C115.717 201.76 116.181 201.2 116.181 200.513Z" fill="white"/>
<path d="M105.304 190.418V191.59H104.259V190.45C103.224 190.386 102.221 190.059 101.64 189.605L102.221 188.327C102.749 188.718 103.499 189.003 104.259 189.077V187.324C103.097 187.039 101.788 186.648 101.788 185.148C101.788 184.04 102.601 183.079 104.259 182.889V181.727H105.304V182.868C106.096 182.931 106.857 183.142 107.438 183.512L106.91 184.8C106.371 184.494 105.832 184.314 105.304 184.251V186.036C106.466 186.31 107.754 186.701 107.754 188.179C107.754 189.277 106.952 190.228 105.304 190.418ZM104.259 185.782V184.293C103.699 184.42 103.478 184.726 103.478 185.075C103.478 185.434 103.794 185.634 104.259 185.782ZM106.065 188.306C106.065 187.936 105.759 187.736 105.304 187.577V189.024C105.832 188.918 106.065 188.644 106.065 188.306Z" fill="white"/>
<path d="M229.764 139.751C229.764 144.492 223.333 154.303 220.112 158.928C219.236 160.185 217.377 160.185 216.501 158.928C213.27 154.303 206.849 144.482 206.849 139.751C206.849 133.426 211.981 128.293 218.307 128.293C224.643 128.293 229.764 133.426 229.764 139.751Z" fill="#D6EDF1"/>
<path d="M223.069 139.751C223.069 142.38 220.936 144.513 218.306 144.513C215.677 144.513 213.544 142.38 213.544 139.751C213.544 137.121 215.677 134.988 218.306 134.988C220.936 134.988 223.069 137.121 223.069 139.751Z" fill="white"/>
<path d="M312.977 76.2012L315.417 81.1538L320.876 81.9458L316.927 85.7896L317.856 91.2281L312.977 88.662L308.099 91.2281L309.028 85.7896L305.079 81.9458L310.538 81.1538L312.977 76.2012Z" fill="#F5AD49"/>
<path d="M331.542 76.2012L333.981 81.1538L339.441 81.9458L335.491 85.7896L336.421 91.2281L331.542 88.662L326.653 91.2281L327.592 85.7896L323.643 81.9458L329.103 81.1538L331.542 76.2012Z" fill="#F5AD49"/>
<path d="M350.106 76.2012L352.546 81.1538L358.005 81.9458L354.056 85.7896L354.985 91.2281L350.106 88.662L345.217 91.2281L346.157 85.7896L342.208 81.9458L347.656 81.1538L350.106 76.2012Z" fill="#F5AD49"/>
<path d="M368.661 76.2012L371.111 81.1538L376.57 81.9458L372.61 85.7896L373.55 91.2281L368.661 88.662L363.782 91.2281L364.711 85.7896L360.762 81.9458L366.221 81.1538L368.661 76.2012Z" fill="#F5AD49"/>
<path d="M387.225 76.2012L389.664 81.1538L395.124 81.9458L391.174 85.7896L392.114 91.2281L387.225 88.662L382.346 91.2281L383.276 85.7896L379.326 81.9458L384.786 81.1538L387.225 76.2012Z" fill="#F5AD49"/>
<path d="M48.3648 130.944H16.1885C15.4704 130.944 14.8896 131.525 14.8896 132.243V152.603C14.8896 153.321 15.4704 153.902 16.1885 153.902H37.8365L48.122 158.01C48.8612 158.305 49.6637 157.756 49.6637 156.964V152.603V150.871V132.243C49.6637 131.525 49.0829 130.944 48.3648 130.944Z" fill="#F5AD49"/>
<path d="M24.2249 142.349C24.2249 143.183 23.549 143.87 22.7042 143.87C21.87 143.87 21.1836 143.194 21.1836 142.349C21.1836 141.515 21.8594 140.829 22.7042 140.829C23.5385 140.829 24.2249 141.504 24.2249 142.349Z" fill="white"/>
<path d="M33.7923 142.349C33.7923 143.183 33.1164 143.87 32.2716 143.87C31.4268 143.87 30.751 143.194 30.751 142.349C30.751 141.515 31.4268 140.829 32.2716 140.829C33.1164 140.829 33.7923 141.504 33.7923 142.349Z" fill="white"/>
<path d="M43.3596 142.349C43.3596 143.183 42.6838 143.87 41.839 143.87C41.0048 143.87 40.3184 143.194 40.3184 142.349C40.3184 141.515 40.9942 140.829 41.839 140.829C42.6838 140.829 43.3596 141.504 43.3596 142.349Z" fill="white"/>
<path d="M151.948 107.068H127.512C126.794 107.068 126.213 107.649 126.213 108.367V128.726C126.213 129.445 126.794 130.025 127.512 130.025H141.43L151.716 134.133C152.455 134.429 153.258 133.88 153.258 133.088V128.726V126.995V108.367C153.247 107.649 152.666 107.068 151.948 107.068Z" fill="#FF4846"/>
<path d="M134.144 116.16C134.144 114.555 135.126 113.541 136.509 113.541C137.893 113.541 138.854 114.544 138.854 116.16C138.854 117.776 137.893 118.779 136.509 118.779C135.126 118.779 134.144 117.765 134.144 116.16ZM137.492 116.16C137.492 115.146 137.101 114.65 136.499 114.65C135.918 114.65 135.506 115.157 135.506 116.16C135.506 117.163 135.918 117.67 136.499 117.67C137.101 117.67 137.492 117.174 137.492 116.16ZM142.17 113.647H143.785L137.301 123.151H135.686L142.17 113.647ZM140.607 120.637C140.607 119.032 141.589 118.018 142.951 118.018C144.334 118.018 145.317 119.032 145.317 120.637C145.317 122.242 144.334 123.256 142.951 123.256C141.578 123.256 140.607 122.242 140.607 120.637ZM143.944 120.637C143.944 119.634 143.553 119.127 142.951 119.127C142.37 119.127 141.958 119.613 141.958 120.637C141.958 121.662 142.37 122.147 142.951 122.147C143.553 122.147 143.944 121.641 143.944 120.637Z" fill="white"/>
<path d="M60.2341 238.572C59.7378 240.082 59.3365 241.613 59.0303 243.165" stroke="white" stroke-miterlimit="10"/>
<path d="M58.312 252.659C58.6816 261.899 62.0291 271.118 67.4887 278.647C75.7783 290.052 88.4714 297.782 101.978 301.805C115.494 305.828 129.824 306.377 143.89 305.406C163.68 304.044 183.121 299.746 202.752 296.916C222.383 294.075 242.573 292.713 261.898 297.169C278.108 300.897 293.768 309.186 304.307 321.858" stroke="white" stroke-miterlimit="10" stroke-dasharray="9.03 9.03"/>
<path d="M307.222 325.639C308.13 326.927 308.985 328.258 309.798 329.631" stroke="white" stroke-miterlimit="10"/>
<path opacity="0.5" d="M89.1685 224.865L59.3999 234.717L52.2085 227.484L89.1685 224.865Z" fill="#80C8D4"/>
<path d="M61.9238 237.875L59.062 241.095L63.9196 239.511L61.9238 237.875Z" fill="#577BB5"/>
<path opacity="0.5" d="M61.9238 237.875L69.9811 249.153C69.9811 249.153 89.2214 224.728 89.1686 224.865C89.1158 224.992 61.9238 237.875 61.9238 237.875Z" fill="#80C8D4"/>
<path d="M59.062 241.095L59.3999 234.717L89.1686 224.865L61.9238 237.875L59.062 241.095Z" fill="#4E6FA3"/>
<path d="M37.4885 210.493C37.4885 213.375 35.1547 215.709 32.2718 215.709C29.3889 215.709 27.0552 213.375 27.0552 210.493C27.0552 207.61 29.3889 205.276 32.2718 205.276C35.1547 205.276 37.4885 207.61 37.4885 210.493Z" fill="#D6EDF1"/>
<path d="M25.5554 230.662C27.5792 230.662 29.2198 229.022 29.2198 226.998C29.2198 224.974 27.5792 223.333 25.5554 223.333C23.5317 223.333 21.8911 224.974 21.8911 226.998C21.8911 229.022 23.5317 230.662 25.5554 230.662Z" fill="#D6EDF1"/>
<path d="M103.847 221.95C103.847 224.305 101.936 226.217 99.5812 226.217C97.2263 226.217 95.3149 224.305 95.3149 221.95C95.3149 219.595 97.2263 217.684 99.5812 217.684C101.936 217.684 103.847 219.595 103.847 221.95Z" fill="white"/>
<path d="M113.943 240.314C113.943 242.141 112.464 243.63 110.627 243.63C108.8 243.63 107.311 242.152 107.311 240.314C107.311 238.488 108.789 236.999 110.627 236.999C112.464 237.009 113.943 238.488 113.943 240.314Z" fill="white"/>
<path d="M277.644 251.423C277.644 252.226 277 252.87 276.197 252.87C275.395 252.87 274.75 252.226 274.75 251.423C274.75 250.621 275.395 249.977 276.197 249.977C276.989 249.966 277.644 250.621 277.644 251.423Z" fill="white"/>
<path d="M60.9632 291.255C60.9632 292.575 59.8966 293.653 58.5661 293.653C57.2461 293.653 56.1689 292.586 56.1689 291.255C56.1689 289.936 57.2355 288.858 58.5661 288.858C59.8966 288.858 60.9632 289.925 60.9632 291.255Z" fill="white"/>
<path d="M231.212 346.653C232.425 346.653 233.408 345.67 233.408 344.457C233.408 343.244 232.425 342.26 231.212 342.26C229.999 342.26 229.015 343.244 229.015 344.457C229.015 345.67 229.999 346.653 231.212 346.653Z" fill="white"/>
<path d="M480.396 164.472C480.396 165.666 479.424 166.637 478.231 166.637C477.038 166.637 476.066 165.666 476.066 164.472C476.066 163.279 477.038 162.308 478.231 162.308C479.424 162.308 480.396 163.279 480.396 164.472Z" fill="#D6EDF1"/>
<path d="M484.915 230.388C486.233 230.388 487.302 229.319 487.302 228.001C487.302 226.683 486.233 225.615 484.915 225.615C483.597 225.615 482.529 226.683 482.529 228.001C482.529 229.319 483.597 230.388 484.915 230.388Z" fill="white"/>
<path d="M498.665 190.344C498.665 191.823 497.471 193.016 495.993 193.016C494.515 193.016 493.321 191.823 493.321 190.344C493.321 188.866 494.515 187.672 495.993 187.672C497.471 187.662 498.665 188.866 498.665 190.344Z" fill="#D6EDF1"/>
<path d="M286.461 114.46C287.733 114.46 288.763 113.429 288.763 112.158C288.763 110.887 287.733 109.856 286.461 109.856C285.19 109.856 284.159 110.887 284.159 112.158C284.159 113.429 285.19 114.46 286.461 114.46Z" fill="#D6EDF1"/>
<path d="M115.812 116.108C115.812 117.026 115.073 117.766 114.154 117.766C113.235 117.766 112.496 117.026 112.496 116.108C112.496 115.189 113.235 114.45 114.154 114.45C115.073 114.45 115.812 115.199 115.812 116.108Z" fill="#D6EDF1"/>
<path opacity="0.5" d="M328.627 434.639C358.388 434.639 382.515 432.601 382.515 430.087C382.515 427.574 358.388 425.536 328.627 425.536C298.866 425.536 274.739 427.574 274.739 430.087C274.739 432.601 298.866 434.639 328.627 434.639Z" fill="url(#paint1_radial)"/>
<path d="M318.214 342.017C319.006 353.01 319.048 363 318.626 371.87C317.179 402.346 310.368 419.749 310.368 419.749L300.125 419.517L293.704 326.737L292.986 316.293C295.109 316.103 297.221 315.892 299.301 315.712C307.549 314.994 315.764 313.896 323.948 312.66C321.583 329.313 318.214 342.017 318.214 342.017Z" fill="#C7683C"/>
<path opacity="0.5" d="M318.215 342.017C319.007 353.01 319.049 363 318.627 371.87L316.335 347.36C315.248 335.67 305.437 326.737 293.695 326.737L292.977 316.293C295.099 316.103 297.211 315.892 299.291 315.712C307.539 314.994 315.754 313.896 323.938 312.66C321.584 329.313 318.215 342.017 318.215 342.017Z" fill="#C7683C"/>
<path d="M311.636 419.285C311.636 419.285 313.622 425.335 312.365 428.693H286.039C286.039 428.693 284.318 423.846 291.794 424.374L299.334 419.749L298.405 404.332C298.405 404.332 302.639 401.417 305.818 405.525L315.015 406.317L311.636 419.285Z" fill="#E6E6E6"/>
<path d="M305.818 405.525C305.818 405.525 303.97 418.155 303.41 419.749C302.84 421.333 300.063 425.504 297.032 425.536C293.98 425.568 291.805 424.375 291.805 424.375L299.345 419.749L298.415 404.332C298.405 404.342 302.639 401.428 305.818 405.525Z" fill="#A9C0C4"/>
<path d="M339.8 309.925C335.66 310.76 331.468 311.488 327.223 312.143C322.281 312.914 317.328 313.632 312.365 314.276C323.4 346.304 338.205 385.144 351.363 411.449C355.502 412.769 357.889 408.851 361.353 408.133C360.677 383.655 351.088 358.459 342.07 336.167C341.605 328.511 340.951 319.44 339.8 309.925Z" fill="#D4774C"/>
<path d="M363.274 407.363C363.274 407.363 367.636 411.998 367.921 415.568L344.076 426.73C344.076 426.73 340.465 423.076 347.455 420.383L352.324 413.002L344.953 399.432C344.953 399.432 347.55 394.997 352.165 397.373L360.835 394.194L363.274 407.363Z" fill="#E6E6E6"/>
<path d="M352.176 397.363C352.176 397.363 355.851 409.591 356.02 411.27C356.178 412.949 355.428 417.902 352.693 419.211C349.948 420.531 347.466 420.383 347.466 420.383L352.334 413.002L344.963 399.432C344.953 399.432 347.561 394.997 352.176 397.363Z" fill="#A9C0C4"/>
<path d="M351.922 280.304C349.272 281.138 346.748 282.268 344.076 282.944C339.039 268.435 333.728 252.806 327.149 239.616C325.649 236.607 324.192 233.798 322.745 231.105C320.707 227.282 318.711 223.702 316.694 220.154C320.992 218.412 325.206 216.458 329.419 214.505C330.813 213.861 332.228 213.216 333.622 212.572C335.206 216.089 336.632 219.679 337.941 223.28C339.018 226.258 340.021 229.246 340.961 232.214C346.019 248.244 349.198 263.788 351.922 280.304Z" fill="#D4774C"/>
<path d="M347.192 275.985C347.192 275.985 349.071 276.714 351.067 278.657C353.063 280.61 353.306 284.528 354.468 286.228C355.629 287.928 356.717 289.343 356.326 289.818C355.935 290.294 355.238 289.618 353.179 287.115C353.179 287.115 351.891 286.144 352.482 287.611C353.063 289.069 355.323 292.078 354.626 292.839C354.056 293.451 351.141 288.741 350.793 288.667C350.444 288.593 353.158 294.856 352.028 295.732C350.898 296.609 349.747 289.09 348.913 288.995C348.079 288.9 349.526 294.222 348.786 294.486C347.171 295.077 346.643 286.355 345.925 286.534C345.206 286.714 344.647 289.956 343.675 289.755C342.704 289.565 343.971 286.26 343.918 285.594C343.844 284.929 342.461 277.242 347.192 275.985Z" fill="#D4774C"/>
<path d="M337.931 223.27L322.745 231.105C320.707 227.282 318.711 223.703 316.694 220.154C320.992 218.412 325.206 216.458 329.419 214.505C330.813 213.861 332.228 213.216 333.622 212.572C335.206 216.078 336.621 219.669 337.931 223.27Z" fill="#BF6237"/>
<path d="M336.769 216.786C336.769 216.786 324.467 225.223 318.901 225.614L303.452 197.44C303.452 197.44 303.347 195.877 303.579 193.723C304.36 186.373 313.051 182.772 318.743 187.461L318.901 187.598C320.063 188.58 321.552 190.47 323.157 192.846C327.434 199.14 332.608 208.781 335.164 213.692C336.167 215.593 336.769 216.786 336.769 216.786Z" fill="#D99434"/>
<path opacity="0.5" d="M336.769 216.786C336.769 216.786 324.467 225.223 318.901 225.614L303.452 197.44C303.452 197.44 303.347 195.877 303.579 193.723C304.36 186.373 313.051 182.772 318.743 187.461L318.901 187.598C320.063 188.58 321.552 190.47 323.157 192.846C322.64 198.813 322.133 204.79 321.615 210.767C321.489 212.182 321.394 213.702 322.069 214.938C322.946 216.554 324.921 217.272 326.769 217.356C329.937 217.493 333.094 216.068 335.164 213.692C336.167 215.593 336.769 216.786 336.769 216.786Z" fill="#D99434"/>
<path d="M309.873 182.814V165.179H298.151V183.691C295.279 184.726 292.797 186.69 291.097 189.277C290.147 190.724 289.27 191.949 288.478 193.079C289.566 193.617 290.717 194.071 291.878 194.473C292.301 194.42 292.713 194.378 293.051 194.335C296.451 193.976 299.904 193.279 302.998 191.79C305.427 190.629 307.718 189.214 309.429 187.144C309.461 186.975 309.482 186.806 309.545 186.637C309.999 185.285 310.57 184.092 311.245 182.952C310.791 182.899 310.327 182.857 309.873 182.814Z" fill="#D4774C"/>
<path d="M309.693 169.541C308.658 172.349 307.328 174.926 305.691 176.542C303.98 178.242 302.29 179.192 300.791 179.71C299.809 180.048 298.911 180.206 298.151 180.269V177.197C299.048 177.27 300.453 177.218 302.111 176.637C303.61 176.119 305.311 175.169 307.021 173.469C308.035 172.466 308.933 171.103 309.693 169.541Z" fill="#BF6237"/>
<path d="M345.745 314.445C344.932 314.656 343.485 314.994 341.574 315.416C331.299 317.687 307.507 322.46 294.709 323.104C293.177 323.178 291.794 323.21 290.622 323.146L289.429 237.03C289.429 237.03 288.267 229.954 287.053 222.668C285.88 215.677 284.656 208.496 284.37 207.155C283.768 204.431 283.23 202.688 287.992 193.258C292.755 183.839 298.215 183.649 298.215 183.649C294.075 184.483 289.598 191.896 289.598 191.896C289.598 191.896 299.154 189.256 302.703 185.55C306.251 181.843 310.538 182.624 310.538 182.624C314.16 183.269 316.483 185.349 317.972 187.63C319.958 190.703 320.581 194.473 319.926 198.074C319.144 202.35 318.701 207.873 318.469 213.079C318.067 221.665 318.194 229.416 318.194 229.416C332.471 243.45 329.726 265.52 329.726 265.52L345.745 314.445Z" fill="#F5AD49"/>
<path d="M308.965 213.945C308.331 218.359 307.793 222.784 307.455 227.219C307.286 229.437 307.169 231.665 307.159 233.883C307.148 234.442 307.159 234.991 307.191 235.541C307.212 236.09 307.222 236.649 307.286 237.198L307.36 238.022C307.391 238.297 307.444 238.571 307.486 238.835C307.581 239.384 307.666 239.923 307.761 240.472C309.524 249.195 311.541 257.885 313.558 266.555L319.556 292.607L322.545 305.638L325.47 318.679C323.231 310.052 321.088 301.403 318.976 292.744C316.864 284.085 314.836 275.405 312.798 266.724L309.873 253.672C308.944 249.311 307.951 244.971 307.169 240.567C307.074 240.018 307.001 239.458 306.916 238.899C306.874 238.624 306.832 238.339 306.8 238.064L306.737 237.22C306.684 236.66 306.673 236.1 306.663 235.541C306.641 234.981 306.652 234.421 306.663 233.861C306.705 231.623 306.853 229.395 307.064 227.177C307.539 222.752 308.162 218.328 308.965 213.945Z" fill="#C2612D"/>
<path opacity="0.5" d="M314.867 199.869L305.754 227.821C296.915 242.996 292.501 260.346 293.124 277.886L294.719 323.094C293.188 323.168 291.804 323.199 290.632 323.136L289.439 237.019C289.439 237.019 288.277 229.944 287.063 222.658L311.267 196.268L314.867 199.869Z" fill="#F5AD49"/>
<path opacity="0.5" d="M345.745 314.445C344.932 314.656 343.485 314.994 341.574 315.416L325.48 265.108C328.986 249.522 314.857 231.897 314.857 231.897L318.447 213.09C318.046 221.675 318.173 229.426 318.173 229.426C332.45 243.46 329.704 265.531 329.704 265.531L345.745 314.445Z" fill="#F5AD49"/>
<path d="M243.778 211.146C241.359 211.59 240.324 212.107 238.202 213.343C234.918 207.482 231.729 201.695 229.015 195.496C231.845 194.261 234.738 193.194 237.547 191.906C240.388 198.527 243.345 203.807 243.778 211.146Z" fill="#67B38B"/>
<path d="M238.107 211.221C234.875 206.923 233.101 201.6 230.757 196.796C231.19 196.553 231.327 196.183 231.179 195.708C232.869 195.022 234.569 194.367 236.248 193.638C236.491 194.061 236.871 194.208 237.336 194.061C239.712 198.982 242.521 203.712 242.774 209.309C242.299 209.436 242.13 209.784 242.098 210.26C240.884 210.407 240.05 210.798 239.078 211.548C238.835 211.189 238.518 211.02 238.107 211.221Z" fill="#80D4A9"/>
<path d="M240.388 201.706C241.074 203.29 240.219 204.864 238.688 205.497C237.157 206.141 235.499 205.624 234.833 204.072C234.168 202.519 234.802 200.798 236.365 200.122C237.917 199.446 239.702 200.122 240.388 201.706Z" fill="#67B38B"/>
<path d="M239.205 201.875C239.395 201.801 239.564 201.727 239.744 201.653C239.807 201.812 239.881 201.96 239.945 202.118C239.776 202.192 239.596 202.266 239.427 202.34C239.564 202.783 239.628 203.206 239.522 203.649C239.29 203.639 239.068 203.639 238.836 203.639C238.92 203.28 238.899 202.952 238.804 202.604C238.54 202.72 238.265 202.836 238.012 202.952C238.054 203.596 238.16 204.103 237.442 204.441C236.903 204.684 236.301 204.367 236.006 203.829C235.816 203.903 235.636 203.977 235.457 204.05C235.393 203.892 235.33 203.734 235.256 203.586C235.435 203.512 235.615 203.449 235.794 203.375C235.689 203.016 235.625 202.657 235.668 202.287C235.9 202.287 236.143 202.287 236.375 202.287C236.354 202.572 236.375 202.847 236.449 203.121C236.724 203.005 236.998 202.899 237.252 202.762C237.22 202.139 237.019 201.579 237.748 201.231C238.276 200.977 238.899 201.337 239.205 201.875ZM237.326 203.269C237.093 203.364 236.872 203.459 236.639 203.565C236.766 203.723 236.935 203.829 237.125 203.744C237.326 203.649 237.315 203.449 237.326 203.269ZM238.107 201.96C237.917 202.044 237.917 202.245 237.917 202.435C238.139 202.34 238.361 202.245 238.572 202.15C238.456 201.991 238.308 201.875 238.107 201.96Z" fill="#80D4A9"/>
<path d="M243.545 212.065C241.095 211.844 239.965 212.065 237.579 212.678C235.995 206.141 234.485 199.71 233.545 193.015C236.597 192.593 239.68 192.339 242.722 191.854C243.683 198.992 245.108 204.874 243.545 212.065Z" fill="#67B38B"/>
<path d="M238.064 210.608C236.111 205.603 235.836 199.995 234.865 194.736C235.351 194.61 235.583 194.303 235.562 193.807C237.378 193.606 239.194 193.427 241 193.184C241.127 193.659 241.444 193.902 241.94 193.892C242.901 199.267 244.337 204.589 243.07 210.038C242.574 210.038 242.32 210.323 242.162 210.766C240.958 210.587 240.039 210.735 238.909 211.189C238.772 210.777 238.508 210.524 238.064 210.608Z" fill="#80D4A9"/>
<path d="M242.827 202.054C243.059 203.765 241.813 205.043 240.166 205.254C238.518 205.455 237.051 204.525 236.829 202.846C236.607 201.167 237.674 199.689 239.363 199.457C241.053 199.214 242.595 200.344 242.827 202.054Z" fill="#67B38B"/>
<path d="M241.634 201.896C241.834 201.875 242.024 201.854 242.215 201.833C242.236 202.002 242.257 202.171 242.278 202.339C242.088 202.361 241.908 202.382 241.718 202.403C241.739 202.867 241.676 203.29 241.454 203.691C241.232 203.628 241.021 203.554 240.799 203.501C240.979 203.174 241.042 202.857 241.042 202.498C240.757 202.54 240.462 202.572 240.187 202.625C240.05 203.258 240.018 203.776 239.237 203.902C238.656 203.997 238.159 203.522 238.012 202.931C237.811 202.941 237.621 202.973 237.42 202.994C237.399 202.825 237.378 202.656 237.357 202.487C237.547 202.466 237.737 202.445 237.927 202.424C237.917 202.044 237.959 201.685 238.096 201.336C238.318 201.4 238.55 201.463 238.772 201.526C238.677 201.801 238.624 202.065 238.614 202.35C238.909 202.318 239.205 202.287 239.49 202.223C239.627 201.611 239.585 201.019 240.377 200.882C240.979 200.777 241.486 201.305 241.634 201.896ZM239.448 202.73C239.205 202.762 238.951 202.794 238.709 202.825C238.793 203.005 238.92 203.153 239.131 203.121C239.342 203.089 239.395 202.91 239.448 202.73ZM240.557 201.685C240.345 201.716 240.303 201.907 240.25 202.086C240.483 202.054 240.726 202.023 240.958 201.98C240.884 201.811 240.768 201.653 240.557 201.685Z" fill="#80D4A9"/>
<path d="M243.07 212.879C240.779 212.002 239.627 211.907 237.167 211.854C237.399 205.138 237.684 198.538 238.571 191.833C241.634 192.244 244.654 192.836 247.727 193.195C246.724 200.333 246.513 206.384 243.07 212.879Z" fill="#67B38B"/>
<path d="M238.191 209.996C237.663 204.652 238.91 199.172 239.385 193.85C239.881 193.86 240.187 193.617 240.314 193.142C242.12 193.438 243.915 193.755 245.721 194.008C245.71 194.504 245.953 194.821 246.428 194.937C245.9 200.376 245.858 205.888 243.165 210.788C242.69 210.651 242.363 210.862 242.088 211.242C240.979 210.746 240.05 210.64 238.846 210.777C238.825 210.355 238.635 210.038 238.191 209.996Z" fill="#80D4A9"/>
<path d="M245.076 203.047C244.833 204.748 243.302 205.656 241.655 205.413C240.007 205.17 238.856 203.871 239.099 202.192C239.342 200.524 240.768 199.383 242.457 199.615C244.136 199.837 245.309 201.347 245.076 203.047Z" fill="#67B38B"/>
<path d="M243.978 202.572C244.179 202.614 244.358 202.636 244.559 202.667C244.538 202.836 244.517 203.005 244.485 203.174C244.295 203.142 244.115 203.121 243.925 203.09C243.82 203.533 243.651 203.924 243.323 204.262C243.133 204.135 242.943 204.019 242.743 203.903C242.996 203.639 243.154 203.354 243.25 203.005C242.964 202.973 242.669 202.921 242.394 202.889C242.088 203.459 241.93 203.956 241.127 203.86C240.536 203.787 240.187 203.206 240.208 202.593C240.008 202.551 239.818 202.53 239.627 202.498C239.649 202.329 239.68 202.16 239.701 202.002C239.891 202.034 240.082 202.065 240.272 202.097C240.367 201.738 240.504 201.4 240.726 201.094C240.926 201.22 241.127 201.337 241.328 201.463C241.159 201.696 241.042 201.939 240.958 202.213C241.243 202.255 241.539 202.308 241.834 202.329C242.13 201.78 242.246 201.189 243.049 201.273C243.64 201.326 243.989 201.97 243.978 202.572ZM241.644 202.794C241.402 202.752 241.159 202.72 240.905 202.688C240.937 202.889 241.021 203.058 241.233 203.09C241.454 203.121 241.539 202.952 241.644 202.794ZM242.996 202.086C242.785 202.065 242.69 202.234 242.595 202.393C242.827 202.424 243.07 202.456 243.302 202.488C243.271 202.298 243.207 202.108 242.996 202.086Z" fill="#80D4A9"/>
<path d="M304.656 220.503C303.062 222.72 301.383 224.885 299.64 226.997C299.513 227.156 299.376 227.325 299.239 227.483C297.56 229.521 294.656 232.71 292.111 235.466C289.091 238.729 284.349 239.69 280.294 237.864C277.612 236.649 274.708 235.319 272.797 234.389C267.633 231.865 262.691 228.93 257.77 225.857C252.849 222.794 247.97 219.595 242.933 216.575C241.497 215.761 239.438 214.441 239.438 214.441C237.938 214.167 237.917 212.572 237.917 212.572C236.766 212.52 236.798 211.284 236.798 211.284C235.182 210.714 235.911 209.246 235.911 209.246C235.911 209.246 237.896 210.027 237.959 209.795C238.012 209.563 232.859 206.331 234.094 205.888C235.33 205.434 240.853 208.718 242.943 208.887C245.034 209.056 245.393 207.144 245.393 207.144L245.847 205.444C245.847 205.444 246.713 206.11 247.009 206.88C247.305 207.641 246.787 210.46 246.787 210.46C257.886 214.79 269.576 219.373 280.896 222.816C282.322 220.661 283.684 218.56 285.004 216.501C286.778 213.723 288.478 210.988 290.199 208.211C291.688 209.637 293.23 211.02 294.783 212.382C298.003 215.191 301.287 217.905 304.656 220.503Z" fill="#D4774C"/>
<path d="M304.656 220.503C303.062 222.72 301.383 224.885 299.64 226.997C292.85 225.487 287.781 220.154 284.994 216.501C286.768 213.723 288.468 210.988 290.189 208.211C291.678 209.637 293.22 211.02 294.772 212.382C298.004 215.191 301.288 217.905 304.656 220.503Z" fill="#BF6237"/>
<path d="M286.947 211.179L302.333 188.696C302.333 188.696 314.519 183.142 317.507 196.933L303.452 223.333C303.441 223.333 292.501 221.348 286.947 211.179Z" fill="#F5AD49"/>
<path d="M287.686 212.256C287.412 211.918 287.137 211.58 286.873 211.232L286.841 211.189L286.873 211.126C287.845 209.542 288.89 208 289.914 206.448C290.96 204.906 292.016 203.386 293.103 201.875C294.191 200.365 295.279 198.866 296.419 197.387C297.549 195.909 298.679 194.441 299.883 193.016C298.933 194.621 297.919 196.173 296.884 197.725C295.87 199.278 294.804 200.798 293.737 202.319C292.66 203.84 291.572 205.339 290.463 206.828C289.333 208.306 288.225 209.795 287.042 211.232V211.126C287.253 211.496 287.464 211.876 287.686 212.256Z" fill="#C2612D"/>
<path d="M302.565 223.333C303.03 223.545 303.505 223.756 303.969 223.988L303.853 224.03C304.804 221.844 305.828 219.69 306.831 217.525C307.856 215.371 308.901 213.238 309.968 211.105C311.045 208.982 312.111 206.849 313.241 204.748C314.36 202.646 315.49 200.545 316.684 198.475C315.754 200.672 314.762 202.847 313.748 205.001C312.755 207.166 311.699 209.31 310.643 211.443C309.587 213.576 308.5 215.698 307.401 217.81C306.272 219.912 305.173 222.024 303.991 224.104L303.948 224.189L303.874 224.146C303.441 223.872 302.998 223.597 302.565 223.333Z" fill="#C2612D"/>
<path d="M284.212 163.659C284.497 162.624 285.194 161.695 285.838 160.808C286.239 160.259 286.619 159.657 286.883 159.023C287.306 153.796 288.562 148.812 289.28 147.365C290.421 145.126 296.546 143.099 302.565 144.228C308.595 145.316 313.59 149.392 313.854 151.895C313.949 152.845 314.403 156.647 311.182 165.972C310.126 168.971 308.743 171.748 307 173.459C305.289 175.159 303.589 176.109 302.09 176.627C299.207 177.63 297.084 177.028 297.084 177.028L295.933 176.817C295.933 176.817 293.167 176.574 290.548 173.849C289.618 172.888 288.721 171.621 287.96 169.942C287.443 168.78 287.105 167.387 286.915 165.876C286.091 165.866 285.257 165.581 284.624 165.063C284.233 164.736 284.074 164.176 284.212 163.659Z" fill="#D4774C"/>
<path d="M306.831 163.332C306.979 162.952 307.021 162.561 307.032 162.16C307.053 161.769 307.032 161.378 306.905 161.061C306.662 160.417 305.828 160.354 305.258 160.745C304.656 161.125 304.096 161.727 303.79 162.392C303.484 163.078 303.41 163.881 303.315 164.694C303.188 163.902 303.083 163.068 303.357 162.234C303.642 161.399 304.212 160.745 304.952 160.248C305.332 160.016 305.828 159.879 306.303 159.974C306.789 160.058 307.233 160.46 307.338 160.924C307.465 161.378 307.402 161.811 307.317 162.213C307.211 162.593 307.095 163.015 306.831 163.332Z" fill="#BF6237"/>
<path d="M304.825 164.916C305.005 164.578 305.079 164.24 305.131 163.913C305.174 163.585 305.184 163.237 305.163 162.91C305.142 162.582 305.068 162.286 304.91 162.044C304.741 161.811 304.466 161.579 304.086 161.59C304.403 161.347 304.931 161.431 305.248 161.727C305.585 162.022 305.723 162.466 305.754 162.867C305.776 163.269 305.733 163.659 305.585 164.039C305.438 164.398 305.163 164.736 304.825 164.916Z" fill="#BF6237"/>
<path d="M291.815 167.841C291.646 168.137 291.361 168.337 291.076 168.485C290.769 168.612 290.442 168.707 290.104 168.633C290.4 168.464 290.674 168.358 290.949 168.21C291.234 168.105 291.498 167.957 291.815 167.841Z" fill="#BF6237"/>
<path d="M292.575 165.317C292.269 166.278 291.54 167.091 290.643 167.598C290.189 167.851 289.692 168.031 289.185 168.084C288.678 168.168 288.161 168.094 287.675 167.967C288.657 167.788 289.555 167.556 290.347 167.08C291.171 166.637 291.878 166.024 292.575 165.317Z" fill="#BF6237"/>
<path d="M289.418 165.19C289.365 165.465 289.27 165.581 289.154 165.665C289.027 165.739 288.89 165.771 288.615 165.708C288.583 165.422 288.7 165.275 288.837 165.169C288.985 165.085 289.175 165.042 289.418 165.19Z" fill="#BF6237"/>
<path d="M290.209 160.829C290.209 161.673 290.716 162.36 291.35 162.36C291.984 162.36 292.49 161.673 292.49 160.829C292.49 159.984 291.984 159.297 291.35 159.297C290.716 159.308 290.209 159.984 290.209 160.829Z" fill="#5E2B13"/>
<path d="M289.756 159.118C289.798 159.15 289.914 159.245 290.041 159.276C290.167 159.319 290.305 159.34 290.442 159.35C290.727 159.371 291.023 159.35 291.318 159.308C291.572 159.276 291.804 159.445 291.846 159.709C291.878 159.963 291.699 160.195 291.445 160.237C291.392 160.248 291.34 160.237 291.297 160.237C290.959 160.174 290.622 160.1 290.284 159.973C290.115 159.899 289.956 159.826 289.798 159.709C289.65 159.583 289.502 159.477 289.428 159.203C289.407 159.129 289.449 159.044 289.534 159.023C289.587 159.012 289.629 159.023 289.671 159.055L289.756 159.118Z" fill="#5E2B13"/>
<path d="M289.744 156.383C290.124 156.352 290.589 156.32 291.011 156.341C291.444 156.341 291.888 156.383 292.321 156.447C292.754 156.51 293.187 156.626 293.609 156.763C294.042 156.901 294.443 157.091 294.866 157.281L294.887 157.291C295.035 157.355 295.214 157.291 295.278 157.144C295.33 157.027 295.299 156.89 295.204 156.806C294.834 156.468 294.433 156.151 293.979 155.919C293.535 155.655 293.05 155.486 292.564 155.338C292.067 155.19 291.55 155.116 291.043 155.105C290.515 155.105 290.029 155.127 289.47 155.296C289.174 155.38 288.994 155.697 289.09 155.993C289.163 156.257 289.417 156.415 289.681 156.394L289.744 156.383Z" fill="#5E2B13"/>
<path d="M288.742 155.401C288.678 155.623 288.763 155.876 288.932 156.045C289.101 156.214 289.312 156.309 289.523 156.373H289.534C289.692 156.425 289.861 156.33 289.914 156.172C289.967 156.014 289.872 155.845 289.713 155.792C289.682 155.781 289.639 155.781 289.608 155.781C289.449 155.792 289.301 155.781 289.175 155.729C289.111 155.697 289.059 155.665 289.016 155.612C288.974 155.56 288.942 155.486 288.932 155.422V155.401C288.921 155.348 288.879 155.317 288.826 155.327C288.773 155.338 288.752 155.369 288.742 155.401Z" fill="#5E2B13"/>
<path d="M298.214 174.958C301.101 174.958 303.441 172.618 303.441 169.731C303.441 166.844 301.101 164.504 298.214 164.504C295.327 164.504 292.987 166.844 292.987 169.731C292.987 172.618 295.327 174.958 298.214 174.958Z" fill="#D46C46"/>
<path d="M295.965 176.827C295.965 176.827 293.199 176.574 290.58 173.86C289.883 173.142 289.196 172.234 288.573 171.114C289.914 176.046 291.889 180.798 294.434 185.233C296.388 183.892 297.845 183.691 298.162 183.66V177.197C297.496 177.155 297.116 177.038 297.116 177.038L295.965 176.827Z" fill="#1A223B"/>
<path d="M326.314 183.987C323.305 180.555 319.704 177.418 318.025 173.163C315.554 166.848 317.877 159.53 315.902 153.046C314.456 148.283 310.612 144.334 305.902 142.75C302.871 141.736 299.555 141.662 296.419 142.296C293.441 142.898 290.453 144.218 288.647 146.657C286.704 149.287 286.408 152.761 286.45 156.024C286.461 157.217 286.514 158.41 286.609 159.604C286.714 159.414 286.81 159.213 286.883 159.023C287.052 156.9 287.369 154.82 287.728 152.993C291.234 154.039 295.342 153.479 298.531 151.694C297.75 153.458 297.612 155.496 298.151 157.344C298.689 159.192 299.914 160.839 301.52 161.895C302.417 161.019 303.188 159.836 304.35 159.371C305.511 158.907 306.99 158.991 307.845 159.899C308.679 160.786 308.7 162.233 308.183 163.342C307.665 164.451 306.705 165.285 305.733 166.024C305.86 167.65 306.546 169.277 307.592 170.533C308.225 171.294 308.996 171.927 309.862 172.413V182.572C310.284 182.582 310.527 182.635 310.527 182.635C313.421 183.153 315.49 184.578 316.958 186.299C317.571 186.606 318.162 186.986 318.732 187.45L318.891 187.588C321.256 189.573 324.931 195.318 328.331 201.189C329.662 199.837 330.644 198.19 331.024 196.331C331.964 191.865 329.335 187.429 326.314 183.987Z" fill="#1A223B"/>
<path opacity="0.5" d="M233.017 428.947C233.017 431.461 208.887 433.499 179.129 433.499C149.371 433.499 125.242 431.461 125.242 428.947C125.242 426.434 149.371 424.396 179.129 424.396C208.887 424.396 233.017 426.434 233.017 428.947Z" fill="url(#paint2_radial)"/>
<path d="M214.104 418.197H196.099L161.727 317.55L163.321 254.095L185.085 247.252L192.34 289.978L214.104 418.197Z" fill="#1C2540"/>
<path opacity="0.5" d="M200.788 418.197H196.089L161.727 317.56L163.311 254.105L185.075 247.252L192.329 289.978C181.157 317.645 179.752 348.301 188.348 376.865L200.788 418.197Z" fill="#1C2540"/>
<path d="M197.388 419.517C197.388 419.517 195.001 423.276 197.388 428.345H226.312C226.312 428.345 227.252 426.708 226.312 425.864C225.372 425.019 215.794 424.755 211.528 418.187H197.187L197.388 419.517Z" fill="#E6E6E6"/>
<path d="M226.734 427.786H196.913V428.947H226.734V427.786Z" fill="#A9C0C4"/>
<path d="M145.686 249.036C145.686 249.036 142.645 260.99 144.862 270.199L145.591 342.366L140.131 418.197H157.101L180.027 271.36L185.085 247.241L145.686 249.036Z" fill="#28365D"/>
<path d="M141.715 419.517C141.715 419.517 139.329 423.276 141.715 428.345H170.639C170.639 428.345 171.579 426.708 170.639 425.864C169.699 425.019 160.122 424.755 155.855 418.187H141.515L141.715 419.517Z" fill="#E6E6E6"/>
<path d="M171.062 427.786H141.24V428.947H171.062V427.786Z" fill="#A9C0C4"/>
<path d="M165.581 189.647C168.612 192.202 172.72 195.782 176.806 196.384C178.929 196.701 180.502 196.067 181.717 194.885C181.822 194.61 181.928 194.325 182.033 194.05C181.474 193.206 180.872 192.297 180.249 191.294C178.57 188.591 177.186 186.489 174.948 185.264V166.373H163.754V183.913C162.698 183.976 161.579 184.082 160.396 184.219C161.917 186.151 163.564 187.947 165.581 189.647Z" fill="#EBAF7F"/>
<path d="M174.937 178.379V181.516C174.536 181.431 174.124 181.315 173.68 181.157C172.192 180.639 170.491 179.689 168.781 177.989C168.052 177.271 167.376 176.352 166.764 175.296C168.253 176.595 169.689 177.376 170.988 177.82C172.635 178.411 174.05 178.453 174.937 178.379Z" fill="#E48855"/>
<path d="M186.564 236.934C186.046 244.168 185.613 249.596 185.613 249.596C185.613 249.596 181.622 250.42 175.581 251.021C175.317 251.043 175.053 251.074 174.779 251.095C166.658 251.845 155.201 252.141 144.862 249.596L150.216 227.166L151.98 211.105L154.852 184.958C154.852 184.958 159.488 183.353 163.754 183.828C163.754 183.828 172.424 190.893 174.906 190.291C174.916 190.291 174.927 190.28 174.937 190.28C175.254 190.196 175.486 190.048 175.655 189.858C176.405 189.013 175.856 187.292 175.402 186.215C175.159 185.655 174.948 185.264 174.948 185.264C174.948 185.264 175.106 185.296 175.349 185.37C175.919 185.528 176.965 185.887 177.567 186.458C178.422 187.271 186.363 198.654 187.81 201.432C188.75 203.248 187.525 223.28 186.564 236.934Z" fill="#FF4846"/>
<path d="M163.406 184.135C163.406 184.135 162.814 178.791 163.458 178.738C164.103 178.686 172.984 182.403 173.628 183.733C174.272 185.064 175.222 190.164 175.222 190.164C175.222 190.164 172.498 192.16 163.406 184.135Z" fill="#FF814F"/>
<path d="M175.222 190.175L174.874 183.491L174.937 181.526C174.937 181.526 177.546 182.403 178.19 183.248C178.834 184.092 178.623 187.82 178.623 187.82C178.623 187.82 178.243 190.027 175.222 190.175Z" fill="#FF814F"/>
<path d="M175.581 251.021C175.317 251.043 175.053 251.074 174.779 251.095C177.556 236.121 175.74 202.921 174.906 190.291C174.916 190.291 174.927 190.28 174.937 190.28C175.254 190.196 175.486 190.048 175.655 189.858C176.468 202.139 178.348 235.678 175.581 251.021Z" fill="#FF814F"/>
<path opacity="0.5" d="M186.564 236.935C186.046 244.168 185.613 249.596 185.613 249.596C185.613 249.596 181.622 250.42 175.581 251.022C175.317 251.043 175.053 251.074 174.779 251.095C166.658 251.845 155.201 252.141 144.862 249.596L150.216 227.167L151.98 211.105C154.218 210.302 156.542 209.795 158.865 209.647C159.234 217.99 163.48 226.068 170.122 231.137C174.821 234.706 180.661 236.723 186.564 236.935Z" fill="#871A1A"/>
<path d="M231.422 225.159V229.014H173.944L183.269 225.867L185.349 225.159H231.422Z" fill="#C7762F"/>
<path d="M223.861 229.014H173.944V276.608H223.861V229.014Z" fill="#F5AD49"/>
<path d="M197.166 269.11H176.194V272.035H197.166V269.11Z" fill="#C7762F"/>
<path d="M190.27 265.721H176.194V267.843H190.27V265.721Z" fill="#C7762F"/>
<path d="M220.007 235.878C220.007 237.99 218.296 239.69 216.195 239.69C214.083 239.69 212.383 237.98 212.383 235.878C212.383 233.766 214.094 232.066 216.195 232.066C218.296 232.066 220.007 233.777 220.007 235.878Z" fill="#C7762F"/>
<path opacity="0.5" d="M173.946 276.602H176.195V229.008H173.946V276.602Z" fill="#F5AD49"/>
<path d="M231.422 225.16V272.226L223.861 276.608V229.015L225.878 227.99L231.422 225.16Z" fill="#E38C3B"/>
<path opacity="0.5" d="M231.422 263.398V272.226L223.861 276.608V229.015L225.878 227.99C225.688 235.234 225.994 242.479 226.818 249.67C227.209 253.06 227.726 256.492 229.099 259.617C229.712 260.959 230.482 262.257 231.422 263.398Z" fill="#E38C3B"/>
<path opacity="0.5" d="M231.422 225.16V225.688C209.806 228.465 191.548 226.913 183.258 225.857L185.339 225.149H231.422V225.16Z" fill="#C7762F"/>
<path d="M182.16 272.089C182.16 272.089 186.078 272.384 186.31 271.825C186.543 271.265 182.646 270.008 182.646 270.008L179.267 267.78C177.007 265.087 174.715 262.363 172.424 259.596C172.265 259.702 172.118 259.807 171.959 259.902C170.248 261.339 168.358 262.627 166.383 263.852C165.676 264.507 164.937 265.161 164.187 265.805C167.112 268.393 170.079 270.969 173.11 273.535C174.145 275.014 176.637 277.981 176.637 277.981C177.862 278.256 179.256 278.044 179.256 278.044C180.418 278.14 181.991 277.802 181.991 277.802C183.237 277.949 184.04 277.126 184.04 277.126C187.134 277.823 188.813 276.534 188.813 276.534H186.553L182.16 272.089Z" fill="#EBAF7F"/>
<path d="M179.129 265.014L177.45 266.418L171.516 271.35L170.111 272.511C170.111 272.511 137.555 243.482 136.171 238.519C135.591 236.459 135.96 232.436 136.583 228.434C137.534 222.415 139.054 216.49 141.008 210.714C143.553 203.174 147.83 191.368 150.765 187.662C150.903 187.493 151.029 187.334 151.156 187.207C151.314 187.049 151.483 186.891 151.642 186.743C157.788 181.22 167.471 186.511 166.721 194.726C166.563 196.469 166.172 197.535 166.172 197.535L165.401 199.943L165.38 199.996L163.627 205.455L155.127 234.548L179.129 265.014Z" fill="#FF4846"/>
<path opacity="0.5" d="M179.129 265.014L177.45 266.407L149.952 233.587L152.075 232.13L148.896 227.082L154.187 229.014L165.37 199.996L163.617 205.455L155.116 234.548L179.129 265.014Z" fill="#871A1A"/>
<path opacity="0.5" d="M171.516 271.339L170.111 272.501C170.111 272.501 137.555 243.471 136.171 238.508C135.591 236.449 135.96 232.425 136.583 228.423C137.534 222.404 139.054 216.48 141.008 210.703C143.553 203.164 147.83 191.357 150.765 187.651C147.956 196.342 136.108 233.471 137.365 237.61C138.642 241.887 166.479 266.84 171.516 271.339Z" fill="#FF7A46"/>
<path d="M168.58 251.624C167.165 250.103 165.824 248.519 164.483 246.935C163.142 245.351 161.843 243.735 160.555 242.12C159.277 240.493 157.999 238.857 156.764 237.188L154.916 234.685C154.324 233.83 153.712 232.996 153.131 232.13C153.849 232.89 154.514 233.672 155.211 234.453L157.228 236.819C158.569 238.403 159.868 240.018 161.156 241.634C162.434 243.26 163.712 244.897 164.947 246.565C166.194 248.234 167.419 249.902 168.58 251.624Z" fill="#911B1A"/>
<path d="M165.391 199.943C164.705 202.868 163.934 205.772 163.163 208.665C162.382 211.569 161.537 214.442 160.734 217.335C159.868 220.208 159.023 223.09 158.126 225.952L156.764 230.24C156.278 231.665 155.824 233.091 155.317 234.506C155.655 233.038 156.035 231.591 156.394 230.134L157.545 225.783C158.326 222.89 159.171 220.007 159.974 217.113C160.84 214.241 161.674 211.358 162.582 208.496C163.49 205.635 164.398 202.773 165.391 199.943Z" fill="#911B1A"/>
<path d="M188.876 164.852C188.591 163.817 187.894 162.888 187.25 162.001C186.849 161.452 186.469 160.85 186.205 160.216C185.782 154.989 184.526 150.005 183.807 148.558C182.667 146.319 176.542 144.292 170.523 145.422C164.493 146.509 159.498 150.586 159.234 153.088C159.139 154.039 158.685 157.84 161.906 167.165C162.962 170.164 164.345 172.941 166.088 174.652C167.798 176.352 169.499 177.302 170.998 177.82C173.881 178.823 176.004 178.221 176.004 178.221L177.155 178.01C177.155 178.01 179.921 177.767 182.54 175.043C183.47 174.082 184.367 172.814 185.127 171.135C185.645 169.974 185.983 168.58 186.173 167.07C186.997 167.059 187.831 166.774 188.464 166.257C188.855 165.929 189.024 165.37 188.876 164.852Z" fill="#EBAF7F"/>
<path d="M166.257 164.515C165.993 164.198 165.876 163.775 165.771 163.385C165.686 162.983 165.634 162.551 165.75 162.096C165.855 161.632 166.299 161.231 166.774 161.146C167.249 161.04 167.746 161.188 168.126 161.421C168.865 161.917 169.435 162.572 169.71 163.406C169.974 164.24 169.889 165.074 169.752 165.866C169.646 165.064 169.604 164.251 169.287 163.564C168.971 162.91 168.421 162.308 167.82 161.917C167.239 161.526 166.415 161.59 166.172 162.234C166.035 162.551 166.024 162.941 166.045 163.332C166.067 163.754 166.119 164.134 166.257 164.515Z" fill="#E48855"/>
<path d="M168.274 166.099C167.925 165.93 167.672 165.581 167.524 165.212C167.366 164.842 167.323 164.441 167.344 164.05C167.376 163.649 167.503 163.205 167.851 162.91C168.168 162.624 168.686 162.519 169.013 162.762C168.633 162.762 168.358 162.973 168.189 163.216C168.031 163.459 167.957 163.765 167.936 164.082C167.894 164.768 167.925 165.433 168.274 166.099Z" fill="#E48855"/>
<path d="M181.284 169.034C181.6 169.15 181.864 169.298 182.15 169.414C182.424 169.562 182.709 169.657 182.994 169.837C182.656 169.9 182.329 169.805 182.023 169.689C181.727 169.52 181.442 169.33 181.284 169.034Z" fill="#E48855"/>
<path d="M180.513 166.51C181.21 167.218 181.917 167.83 182.73 168.274C183.132 168.506 183.554 168.686 183.998 168.823C184.441 168.981 184.916 169.045 185.402 169.15C184.916 169.288 184.409 169.34 183.902 169.256C183.385 169.203 182.899 169.024 182.445 168.77C182.002 168.517 181.59 168.189 181.262 167.799C180.935 167.429 180.661 166.996 180.513 166.51Z" fill="#E48855"/>
<path d="M183.67 166.384C183.797 166.31 183.892 166.289 183.987 166.289C184.092 166.278 184.166 166.32 184.24 166.363C184.314 166.415 184.377 166.468 184.409 166.563C184.451 166.648 184.483 166.753 184.462 166.891C184.325 166.933 184.23 166.922 184.145 166.922C184.05 166.922 183.987 166.891 183.923 166.848C183.871 166.806 183.807 166.764 183.765 166.679C183.744 166.606 183.702 166.521 183.67 166.384Z" fill="#E48855"/>
<path d="M182.878 162.022C182.878 162.867 182.371 163.554 181.738 163.554C181.104 163.554 180.597 162.867 180.597 162.022C180.597 161.178 181.104 160.491 181.738 160.491C182.371 160.491 182.878 161.178 182.878 162.022Z" fill="#5E2B13"/>
<path d="M183.343 157.577C182.962 157.545 182.498 157.513 182.075 157.534C181.642 157.534 181.199 157.577 180.766 157.64C180.333 157.703 179.9 157.819 179.478 157.957C179.045 158.094 178.643 158.284 178.221 158.474L178.2 158.485C178.052 158.548 177.872 158.485 177.809 158.337C177.756 158.221 177.788 158.083 177.883 157.999C178.253 157.661 178.654 157.344 179.108 157.112C179.552 156.848 180.037 156.679 180.523 156.531C181.019 156.383 181.537 156.309 182.044 156.299C182.572 156.299 183.057 156.32 183.617 156.489C183.913 156.573 184.092 156.89 183.997 157.186C183.923 157.45 183.67 157.608 183.406 157.587L183.343 157.577Z" fill="#5E2B13"/>
<path d="M184.356 156.594C184.42 156.816 184.335 157.07 184.166 157.239C183.997 157.408 183.786 157.503 183.575 157.566H183.564C183.406 157.619 183.237 157.524 183.184 157.365C183.131 157.207 183.226 157.038 183.385 156.985C183.416 156.975 183.459 156.975 183.49 156.975C183.649 156.985 183.797 156.975 183.923 156.922C183.987 156.89 184.039 156.859 184.082 156.806C184.124 156.753 184.156 156.679 184.166 156.616V156.594C184.177 156.542 184.219 156.51 184.272 156.521C184.314 156.531 184.346 156.552 184.356 156.594Z" fill="#5E2B13"/>
<path d="M180.101 170.914C180.101 173.797 177.757 176.141 174.874 176.141C171.991 176.141 169.646 173.797 169.646 170.914C169.646 168.031 171.991 165.687 174.874 165.687C177.767 165.687 180.101 168.031 180.101 170.914Z" fill="#E9A770"/>
<path d="M173.891 154.208C174.272 157.746 173.184 161.42 170.935 164.187C170.723 162.54 169.456 161.072 167.872 160.555C167.091 160.301 166.172 160.301 165.528 160.797C164.736 161.399 164.588 162.55 164.778 163.522C165.106 165.211 166.278 166.711 167.83 167.429C167.587 168.496 166.985 169.636 166.51 170.618C166.024 171.6 165.296 172.498 164.303 172.963C161.399 169.488 159.731 165.138 159.91 160.618C160.005 158.242 159.34 155.655 160.29 153.469C161.241 151.283 162.93 149.467 164.915 148.157C166.901 146.848 169.171 146.013 171.484 145.475C172.202 145.306 172.941 145.169 173.67 145.211C174.409 145.253 175.148 145.496 175.676 146.013C176.352 146.668 176.584 147.661 176.595 148.611C176.648 150.882 175.676 152.793 173.891 154.208Z" fill="#5E2B13"/>
<path d="M166.563 144.471C166.563 144.471 165.623 143.88 166.425 143.215C167.238 142.549 168.759 142.697 168.527 143.743L166.563 144.471Z" fill="#FF814F"/>
<path d="M159.878 162.73C159.878 162.73 155.116 152.877 162.92 146.52C170.723 140.163 183.163 142.222 185.402 150.818L176.616 155.644L159.878 162.73Z" fill="#FF4846"/>
<path d="M167.83 143.785C167.83 143.785 177.144 148.664 176.405 155.707L187.271 151.24C187.271 151.24 182.477 138.663 167.83 143.785Z" fill="#C42C2B"/>
<path d="M158.569 157.988C158.569 157.988 159.245 157.354 160.174 157.808C160.691 158.062 161.04 158.569 161.188 159.118L161.473 160.206L159.287 161.166C159.287 161.177 158.548 159.318 158.569 157.988Z" fill="#5E2B13"/>
<path d="M170.512 158.231C170.512 158.231 186.342 151.779 186.352 149.466C186.352 149.466 193.839 146.425 196.427 149.698C199.003 152.972 168.316 159.16 168.316 159.16L170.512 158.231Z" fill="#FF814F"/>
<defs>
<linearGradient id="paint0_linear" x1="70.6731" y1="422.07" x2="70.9427" y2="457.93" gradientUnits="userSpaceOnUse">
<stop offset="0.2352" stop-color="#9C9C9C"/>
<stop offset="1" stop-color="white" stop-opacity="0"/>
</linearGradient>
<radialGradient id="paint1_radial" cx="0" cy="0" r="1" gradientUnits="userSpaceOnUse" gradientTransform="translate(328.627 430.109) scale(57.0552 5.00374)">
<stop offset="0.4081" stop-color="#9C9C9C"/>
<stop offset="1" stop-color="white" stop-opacity="0"/>
</radialGradient>
<radialGradient id="paint2_radial" cx="0" cy="0" r="1" gradientUnits="userSpaceOnUse" gradientTransform="translate(179.131 428.928) scale(54.9085 3.91498)">
<stop offset="0.4081" stop-color="#9C9C9C"/>
<stop offset="1" stop-color="white" stop-opacity="0"/>
</radialGradient>
</defs>
</svg>
