<svg width="455" height="419" viewBox="0 0 455 419" fill="none" xmlns="http://www.w3.org/2000/svg">
<path d="M403.97 418.965C432.112 418.965 454.925 415.955 454.925 412.243C454.925 408.53 432.112 405.521 403.97 405.521C375.828 405.521 353.015 408.53 353.015 412.243C353.015 415.955 375.828 418.965 403.97 418.965Z" fill="#D9EDFF"/>
<path d="M4.00065 334.464C31.9688 331.659 60.872 339.557 83.5045 356.209C40.9799 323.18 10.8194 274.578 0.0996094 221.817C33.3068 247.27 61.5974 279.124 82.9564 315.087C69.9476 281.767 67.046 244.578 74.7352 209.646C73.7197 214.289 88.0503 234.133 90.42 239.275C95.2237 249.705 99.4472 260.408 103.074 271.305C110.409 293.39 115.293 316.296 117.566 339.445C118.694 350.874 119.178 362.367 119.017 373.845C118.856 385.951 121.306 393.302 107.62 393.14C88.2277 392.899 68.8836 387.595 51.7642 378.584C32.3718 368.396 15.5103 353.195 4.00065 334.464Z" fill="#D9EDFF"/>
<path d="M397.7 322.809C362.493 319.279 326.111 329.225 297.594 350.181C351.129 308.591 389.092 247.399 402.6 180.969C360.785 213.015 325.16 253.106 298.271 298.403C314.649 256.459 318.309 209.63 308.62 165.655C309.91 171.506 291.856 196.476 288.873 202.957C282.812 216.094 277.509 229.555 272.947 243.273C263.71 271.08 257.552 299.918 254.699 329.079C253.28 343.475 252.668 357.934 252.861 372.394C253.071 387.643 249.976 396.896 267.224 396.687C291.646 396.397 315.987 389.707 337.556 378.374C361.978 365.511 383.208 346.376 397.7 322.809Z" fill="#D9EDFF"/>
<path d="M370.086 140.701C370.166 141.588 370.36 162.979 370.537 183.677H434.904C434.904 182.113 434.888 180.533 434.904 178.986C435.017 160.98 435.581 143.038 433.889 125.177C433.438 120.486 432.809 115.812 431.664 111.234C429.762 103.577 426.361 96.1291 420.799 90.5355C416.286 86.0057 409.29 81.9113 402.681 82.2337C400.246 82.3465 398.231 83.6039 395.926 84.2487C392.203 85.2803 388.447 85.5383 384.82 87.0374C368.877 93.6305 368.957 114.635 369.489 130.175C369.586 133.673 369.796 137.187 370.086 140.701Z" fill="#803838"/>
<path d="M381.499 169.346C381.434 169.411 381.37 169.475 381.321 169.54C379.032 172.006 377.372 174.94 375.534 177.745C374.422 179.454 373.229 181.114 371.972 182.742C365.749 190.738 360.14 199.281 355.642 208.389C354.723 210.259 353.821 212.209 353.708 214.289C353.418 219.318 357.899 223.622 362.767 224.912C370.182 226.863 375.292 223.719 378.919 217.239C380.854 213.789 381.982 209.953 382.982 206.116C384.884 198.733 386.302 191.237 387.205 183.677C387.656 179.889 387.802 176.085 388.188 172.28C388.446 169.669 389.881 167.444 390.058 164.865C386.802 164.849 383.643 167.09 381.499 169.346Z" fill="#2E3442"/>
<path d="M376.55 214.757C376.276 221.221 370.827 226.234 364.363 225.96C357.899 225.686 352.886 220.237 353.16 213.773C353.434 207.309 358.882 202.296 365.346 202.57C371.81 202.844 376.824 208.309 376.55 214.757Z" fill="#373E4F"/>
<path d="M318.501 208.083C318.727 208.986 319.001 209.888 319.501 210.694C320.001 211.5 320.565 212.274 321.194 212.983C321.822 213.709 322.564 214.321 323.337 214.885C324.095 215.45 324.933 215.982 325.836 216.32C326.432 216.546 327.126 216.127 327.351 215.579C327.593 214.998 327.384 214.289 326.819 213.967C326.094 213.547 325.352 213.209 324.659 212.725C324.498 212.613 324.321 212.484 324.176 212.371C324.385 212.532 324.095 212.306 324.079 212.29C323.998 212.226 323.902 212.145 323.821 212.081C323.515 211.823 323.208 211.549 322.918 211.258C322.628 210.968 322.354 210.678 322.08 210.372C322.016 210.291 321.935 210.211 321.871 210.114C321.854 210.098 321.677 209.872 321.758 209.969C321.822 210.049 321.645 209.808 321.613 209.775C321.564 209.695 321.5 209.63 321.451 209.55C320.919 208.776 320.484 208.276 320.001 207.454C319.533 206.648 318.276 207.18 318.501 208.083Z" fill="#FFA385"/>
<path d="M309.233 214.337C310.909 215.272 312.666 215.933 314.536 216.352C315.406 216.546 316.293 216.707 317.18 216.82C318.211 216.965 319.485 217.239 320.5 216.933C321.193 216.723 321.79 216.046 321.758 215.288C321.725 214.466 321.242 213.95 320.5 213.644C320.017 213.451 319.42 213.451 318.888 213.402C318.437 213.37 318.002 213.338 317.55 213.29C316.906 213.225 316.196 213.112 315.358 212.951C313.665 212.612 311.973 212.209 310.296 211.806C308.797 211.436 307.814 213.547 309.233 214.337Z" fill="#FFA385"/>
<path d="M306.976 221.672C308.588 222.704 310.329 223.365 312.231 223.542C313.102 223.623 313.988 223.623 314.859 223.542C315.939 223.429 317.132 223.332 318.002 222.623C318.453 222.252 318.518 221.495 318.308 220.995C318.067 220.399 317.567 220.157 316.954 220.076C316.471 220.012 315.971 220.221 315.503 220.318C315.31 220.366 315.133 220.399 314.939 220.431C314.826 220.447 314.73 220.463 314.617 220.479C314.762 220.463 314.73 220.463 314.536 220.495C313.779 220.576 313.005 220.592 312.247 220.544C311.425 220.495 310.974 220.415 310.184 220.286C309.378 220.157 308.588 219.963 307.814 219.689C307.314 219.512 306.734 219.85 306.541 220.318C306.331 220.834 306.509 221.366 306.976 221.672Z" fill="#FFA385"/>
<path d="M306.251 217.706C308.088 218.867 310.103 219.754 312.263 220.092C313.376 220.253 314.488 220.366 315.616 220.318C316.922 220.253 318.631 220.205 319.421 219.012C319.872 218.319 319.598 217.158 318.84 216.804C318.341 216.578 317.938 216.481 317.406 216.578C317.18 216.61 316.954 216.675 316.729 216.723C316.503 216.771 316.277 216.82 316.052 216.852C316.245 216.82 316.084 216.852 315.987 216.852C315.874 216.868 315.745 216.868 315.632 216.884C314.697 216.949 313.569 216.917 312.763 216.804C311.038 216.578 308.943 216.159 307.186 215.514C305.864 215.014 305.138 217.013 306.251 217.706Z" fill="#FFA385"/>
<path d="M309.975 226.653C312.054 226.766 314.134 226.605 316.149 226.024C317.164 225.734 318.164 225.283 319.098 224.799C320.13 224.267 321.355 223.687 321.807 222.559C322.129 221.769 321.323 220.85 320.533 220.882C319.469 220.93 318.534 221.801 317.632 222.284C316.874 222.704 316.116 223.042 315.326 223.348C313.618 224.042 311.812 224.59 309.991 224.767C308.798 224.912 308.749 226.588 309.975 226.653Z" fill="#FFA385"/>
<path d="M326.803 214.257L318.002 213.322L314.568 218.899L316.696 225.396L328.48 223.445L326.803 214.257Z" fill="#FFA385"/>
<path d="M325.74 213.886L362.348 206.842C365.008 206.439 369.473 210.066 369.715 214.837C369.957 219.657 365.846 223.671 363.138 223.671L326.723 223.526L325.74 213.886Z" fill="#FFA385"/>
<path d="M381.402 288.151C382.676 287.716 384.078 287.796 385.432 287.877C389.527 288.135 393.637 288.393 397.732 288.65C401.923 288.908 399.263 289.134 402.229 291.729V409.035C401.826 408.793 397.119 408.567 396.7 408.309C394.395 392.866 392.073 377.423 389.768 361.98C389.333 359.079 388.898 356.177 388.463 353.259C385.287 332.11 382.127 310.961 378.952 289.811C378.742 288.538 380.129 288.602 381.402 288.151Z" fill="#FFD0B6"/>
<path d="M381.402 288.151C382.676 287.716 384.078 287.796 385.432 287.877C389.527 288.135 393.637 288.393 397.732 288.65C401.923 288.908 399.263 289.134 402.229 291.729V331.723C394.814 331.643 390.123 330.385 384.384 326.129C382.579 314.023 380.757 301.933 378.952 289.827C378.742 288.538 380.129 288.602 381.402 288.151Z" fill="#FFA385"/>
<path d="M402.568 410.631C399.392 404.473 390.768 401.329 384.481 405.053C382.901 405.988 381.596 407.31 380.644 408.841C380.08 410.244 379.871 411.84 379.984 413.355C387.028 413.387 394.072 413.435 401.117 413.468C401.6 413.468 402.116 413.468 402.503 413.178C403.245 412.613 402.987 411.453 402.568 410.631Z" fill="#373E4F"/>
<path d="M426.393 288.151C425.119 287.716 423.717 287.796 422.363 287.877C418.268 288.135 414.158 288.393 410.063 288.65C405.872 288.908 408.532 289.134 405.566 291.729V409.035C405.969 408.793 410.676 408.567 411.095 408.309C413.4 392.866 415.721 377.423 418.027 361.98C418.462 359.079 418.897 356.177 419.332 353.259C422.508 332.11 425.668 310.961 428.843 289.811C429.053 288.538 427.682 288.602 426.393 288.151Z" fill="#FFD0B6"/>
<path d="M426.393 288.151C425.119 287.716 423.717 287.796 422.363 287.877C418.268 288.135 414.158 288.393 410.063 288.65C405.872 288.908 408.532 289.134 405.566 291.729V331.723C412.981 331.643 417.672 330.385 423.411 326.129C425.216 314.023 427.038 301.933 428.843 289.827C429.053 288.538 427.682 288.602 426.393 288.151Z" fill="#FFA385"/>
<path d="M405.227 410.631C408.403 404.473 417.027 401.329 423.314 405.053C424.894 405.988 426.199 407.31 427.151 408.841C427.715 410.244 427.924 411.84 427.811 413.355C420.767 413.387 413.723 413.435 406.678 413.468C406.194 413.468 405.679 413.468 405.292 413.178C404.55 412.613 404.808 411.453 405.227 410.631Z" fill="#373E4F"/>
<path d="M376.277 186.498C375.1 189.142 374.197 191.898 373.81 194.816C373.327 198.475 373.714 202.183 373.972 205.858C374.81 217.771 374.213 229.764 372.585 241.596C371.022 252.928 369.587 263.922 364.719 274.449C370.748 275.948 376.76 277.463 382.789 278.962C385.175 279.559 387.915 280.091 389.898 278.656C392.284 276.931 391.72 274.271 391.913 271.757C392.123 269.081 393.316 266.292 393.912 263.648C395.46 256.717 396.765 249.721 397.829 242.708C399.941 228.652 401.053 214.45 401.134 200.248C401.182 191.866 400.892 183.483 400.247 175.117C400.005 171.99 399.683 168.75 398.168 165.993C397.039 163.93 394.138 160.996 391.478 161.431C388.286 161.947 387.851 164.865 386.771 167.331C385.385 170.507 383.595 173.489 381.822 176.455C379.855 179.711 377.824 183.016 376.277 186.498Z" fill="#2E3442"/>
<path d="M382.853 237.034C384.384 229.168 384.529 221.22 381.289 213.467C378.855 207.631 374.857 202.086 375.067 195.767C375.196 191.447 377.324 187.465 379.387 183.661C382.111 178.647 384.836 173.65 387.576 168.637C389.881 164.413 390.864 159.787 395.813 158.836C401.246 157.804 407.71 156.724 413.787 157.208C418.704 159.69 423.121 163.059 427.441 166.461C426.667 180.002 425.877 193.526 425.103 207.067C424.587 216.126 424.055 225.267 425.281 234.261C426.602 244.046 441.127 294.244 447.381 305.512C443.786 308.043 439.901 310.38 435.823 312.218C433.228 313.395 430.536 314.346 427.795 315.039C420.3 316.893 412.53 317.521 404.824 317.296C397.038 317.022 389.14 315.539 381.724 313.282C374.873 311.202 369.602 308.059 363.541 304.448C370.328 291.826 381.579 243.563 382.853 237.034Z" fill="#F7365D"/>
<path d="M398.022 222.462C398.231 210.726 399.086 199.684 402.229 188.319C402.971 185.66 413.497 156.805 414.98 157.595C419.961 160.222 425.071 162.947 428.779 167.17C430.874 169.556 432.438 172.49 433.067 175.617C434.405 182.403 430.778 191.35 430.036 198.217C429.133 206.567 428.859 214.982 429.214 223.364C429.907 240.129 433.099 256.813 438.741 272.627C425.651 278.398 411.434 281.558 397.135 281.88C397.232 281.88 397.925 227.539 398.022 222.462Z" fill="#373E4F"/>
<path d="M418.22 184.805C411.095 196.911 404.631 209.372 398.038 221.752C398.038 221.994 398.022 222.22 398.022 222.462C397.973 224.735 397.812 236.889 397.635 249.624C413.11 251.026 417.946 233.665 420.977 221.511C423.056 213.177 425.087 204.826 427.038 196.46C428.343 190.883 429.681 185.353 431.261 179.857C431.793 178.003 432.293 176.149 432.728 174.279C432.019 171.845 430.745 169.572 429.133 167.621C425.361 173.263 421.67 178.938 418.22 184.805Z" fill="#2E3442"/>
<path d="M391.848 161.284C392.541 155.852 392.073 150.339 390.832 145.003C398.231 142.924 405.534 140.522 412.836 138.072C413.352 137.894 413.868 137.717 414.383 137.556V157.013C414.271 157.383 414.142 157.738 413.98 158.109C413.336 159.624 412.368 161.123 410.853 162.896C407.694 166.588 403.873 169.715 399.65 172.101C398.199 172.907 396.587 173.664 394.943 173.423C392.734 173.1 391.154 171.005 390.687 168.812C391.316 166.201 391.574 163.412 391.848 161.284Z" fill="#FFD0B6"/>
<path d="M390.831 145.021C398.23 142.942 405.532 140.54 412.834 138.09C413.802 137.767 414.753 137.445 415.72 137.122C416.735 136.768 417.138 136.478 417.574 137.687C417.59 137.751 417.606 137.799 417.622 137.864C416.51 140.185 416.091 142.909 415.849 145.602C411.513 155.467 401.841 159.755 391.894 160.722C392.491 155.483 392.023 150.163 390.831 145.021Z" fill="#FFA385"/>
<path d="M379.129 95.5961C381.499 91.1792 386.077 89.5027 391.171 89.3738C398.715 92.3076 405.26 97.1598 411.45 102.334C415.367 105.607 420.445 109.927 422.605 115.021C422.621 121.985 421.154 129.126 419.058 135.977C416.495 144.311 409.805 150.855 401.278 152.645C394.814 153.999 387.721 153.693 380.128 150.807C369.086 132.172 370.634 111.378 379.129 95.5961Z" fill="#FFD0B6"/>
<path d="M410.789 148.084C412.578 143.474 412.465 138.299 411.659 133.479C410.192 124.758 406.759 115.506 397.522 112.62C394.814 111.782 391.928 111.572 389.317 110.508C386.383 109.315 383.917 107.026 382.498 104.205C381.079 101.384 380.709 98.0314 381.499 94.9686C379.564 96.4033 378.258 98.7407 376.824 100.675C377.275 100.079 377.356 98.8052 377.726 98.0959C378.129 97.306 378.726 96.6451 379.129 95.8552C379.838 94.4367 380.66 93.2599 381.934 92.2444C384.545 90.181 387.947 89.4556 391.203 89.3589C398.747 92.2927 405.292 97.1448 411.482 102.319C415.399 105.592 420.477 109.912 422.637 115.006C422.653 121.97 421.186 129.111 419.09 135.962C417.591 140.846 414.657 145.118 410.772 148.165C410.756 148.165 410.772 148.132 410.789 148.084Z" fill="#FFA385"/>
<path d="M404.921 97.1772C407.162 98.8215 409.338 100.546 411.45 102.32C415.367 105.592 420.413 109.896 422.589 114.99C422.621 121.954 421.154 129.079 419.059 135.93C416.431 144.506 409.612 151.324 400.601 152.759C399.811 152.888 399.037 153.033 398.231 153.13C401.455 144.473 403.89 135.543 405.115 126.354C406.437 116.553 406.082 106.865 404.921 97.1772Z" fill="#FFA385"/>
<path d="M374.502 91.7447C378.291 85.4095 383.836 82.3306 390.622 79.3968C398.167 76.1244 412.578 77.817 418.736 83.3461C442.045 104.27 435.243 156.563 408.854 156.708C411.917 148.277 414.883 139.508 414.319 130.562C414.077 126.806 413.078 123.034 411.498 119.632C409.821 116.038 407.226 112.394 403.341 110.992C402.906 110.831 402.39 110.637 401.923 110.605C401.294 110.557 400.617 110.702 399.972 110.702C398.586 110.702 397.183 110.541 395.829 110.234C393.137 109.622 390.59 108.397 388.446 106.656C384.739 103.657 382.305 99.1276 381.837 94.3884C381.869 94.7269 380.676 95.8392 380.451 96.1293C377.485 99.982 375.663 104.786 374.245 109.396C373.632 111.395 373.165 113.426 372.778 115.473C372.455 117.118 371.81 119.133 372.391 120.777C369.538 112.652 369.344 103.448 372.633 95.5006C373.148 94.211 373.777 92.9537 374.502 91.7447Z" fill="#803838"/>
<path d="M398.666 124.694C399.797 124.694 400.714 123.777 400.714 122.647C400.714 121.516 399.797 120.599 398.666 120.599C397.536 120.599 396.619 121.516 396.619 122.647C396.619 123.777 397.536 124.694 398.666 124.694Z" fill="#803838"/>
<path d="M406.179 116.102C406.033 115.457 405.308 114.957 404.792 114.587C404.18 114.151 403.519 113.813 402.826 113.555C402.149 113.297 401.439 113.136 400.714 113.055C400.037 112.975 399.102 112.862 398.473 113.184C398.054 113.394 398.167 114.071 398.602 114.184C398.925 114.264 399.263 114.2 399.585 114.2C399.924 114.2 400.262 114.216 400.601 114.232C401.23 114.296 401.858 114.442 402.471 114.635C403.067 114.828 403.632 115.102 404.18 115.409C404.47 115.586 404.744 115.763 405.018 115.957C405.276 116.15 405.518 116.344 405.84 116.408C406.05 116.473 406.227 116.295 406.179 116.102Z" fill="#803838"/>
<path d="M406.742 132.867C405.517 131.432 404.276 129.981 403.051 128.547" stroke="#803838" stroke-width="0.3463" stroke-miterlimit="10" stroke-linecap="round"/>
<path d="M402.632 132.27C401.391 130.9 400.166 129.53 398.924 128.16" stroke="#803838" stroke-width="0.3463" stroke-miterlimit="10" stroke-linecap="round"/>
<path d="M398.151 131.384C397.167 130.159 396.168 128.917 395.185 127.692" stroke="#803838" stroke-width="0.3463" stroke-miterlimit="10" stroke-linecap="round"/>
<path d="M378.129 122.437C379.26 122.437 380.177 121.521 380.177 120.39C380.177 119.259 379.26 118.343 378.129 118.343C376.999 118.343 376.082 119.259 376.082 120.39C376.082 121.521 376.999 122.437 378.129 122.437Z" fill="#803838"/>
<path d="M375.937 112.217C376.776 111.943 377.565 111.54 378.452 111.379C379.306 111.218 380.129 111.266 380.983 111.427C381.305 111.492 381.66 111.33 381.741 110.992C381.837 110.67 381.628 110.315 381.305 110.234C380.322 109.944 379.161 109.976 378.162 110.234C377.195 110.492 376.163 110.96 375.615 111.83C375.518 112.024 375.712 112.298 375.937 112.217Z" fill="#803838"/>
<path d="M381.402 130.03C380.402 128.595 379.419 127.144 378.419 125.709" stroke="#803838" stroke-width="0.3463" stroke-miterlimit="10" stroke-linecap="round"/>
<path d="M378.726 129.433C377.743 128.063 376.743 126.693 375.76 125.323" stroke="#803838" stroke-width="0.3463" stroke-miterlimit="10" stroke-linecap="round"/>
<path d="M375.76 128.547C374.954 127.321 374.148 126.08 373.326 124.855" stroke="#803838" stroke-width="0.3463" stroke-miterlimit="10" stroke-linecap="round"/>
<path d="M384.609 138.509C384.416 138.734 384.335 139.041 384.48 139.315C385.173 140.685 386.124 143.28 388.172 142.571C388.961 142.297 389.413 141.459 389.364 140.637C389.3 139.637 388.655 139.089 387.914 138.509C387.801 138.428 387.688 138.396 387.575 138.396C387.575 138.331 387.591 138.267 387.559 138.202C387.043 137.187 386.189 136.413 385.431 135.559C384.964 135.027 384.19 135.252 384.029 135.929C383.803 136.881 384.077 137.767 384.609 138.509Z" fill="#F7365D"/>
<path d="M392.008 137.961C390.122 138.46 388.059 138.605 386.125 138.476C385.158 138.412 384.19 138.251 383.239 138.009C382.788 137.896 382.353 137.751 381.917 137.606C381.514 137.461 381.047 137.219 380.66 137.509C380.515 137.622 380.467 137.735 380.499 137.912C380.579 138.38 381.031 138.525 381.434 138.67C381.934 138.847 382.449 138.992 382.949 139.121C383.965 139.363 384.996 139.508 386.044 139.557C388.188 139.653 390.203 139.282 392.186 138.493C392.492 138.38 392.379 137.88 392.008 137.961Z" fill="#803838"/>
<path d="M387.108 122.776C386.85 124.355 386.592 125.951 386.334 127.531C385.754 127.128 385.141 126.693 384.432 126.564C382.643 126.241 382.24 127.821 382.756 129.143C383.368 130.658 384.916 131.948 386.367 132.609" stroke="#803838" stroke-width="0.6925" stroke-miterlimit="10" stroke-linecap="round"/>
<path d="M421.299 237.727C421.363 237.727 421.363 237.615 421.299 237.615C421.219 237.615 421.219 237.727 421.299 237.727Z" fill="#FFD0B6"/>
<path d="M341.344 213.838C341.344 213.838 340.264 217.013 341.311 221.543C341.924 224.187 348.404 226.282 348.437 232.472C348.469 237.921 344.616 243.676 344.616 243.676L362.525 243.563C362.525 243.563 366.056 238.082 364.653 232.247C363.702 228.297 357.448 226.395 356.11 221.543C355.513 219.334 355.191 215.482 355.191 215.482L341.344 213.838Z" fill="#70E3CE"/>
<path d="M342.037 214.901C342.037 214.901 341.376 217.658 342.488 221.43C343.149 223.639 350.113 226.508 350.161 231.763C350.21 236.373 346.905 242.273 346.905 242.273L362.122 242.306C362.122 242.306 364.814 236.809 363.605 231.876C362.783 228.523 356.416 226.105 355.255 221.978C354.723 220.108 354.643 216.256 354.643 216.256L342.037 214.901Z" fill="#278DA7"/>
<path d="M342.73 215.885C342.73 215.885 342.262 217.851 343.407 221.269C344.455 224.364 351.225 226.218 351.08 231.408C350.951 235.97 348.468 241.145 348.468 241.145L361.477 241.177C361.477 241.177 363.766 237.05 362.848 232.198C362.235 228.926 355.174 225.686 354.449 221.623C354.094 219.657 354.11 216.981 354.11 216.981L342.73 215.885Z" fill="#70E3CE"/>
<path d="M349.275 227.733C348.436 226.621 348.001 224.847 350.822 224.686C354.078 224.493 357.286 225.799 359.253 227.411C361.22 229.023 361.606 231.36 357.947 231.489C354.288 231.618 351.564 230.731 350.693 229.925C349.823 229.103 349.275 227.733 349.275 227.733Z" fill="#278DA7"/>
<path d="M351.128 220.834C351.032 221.317 350.484 221.624 349.919 221.511C349.339 221.398 348.952 220.914 349.049 220.415C349.146 219.931 349.694 219.625 350.258 219.738C350.838 219.866 351.225 220.35 351.128 220.834Z" fill="#278DA7"/>
<path d="M358.382 237.018C358.27 237.615 357.705 238.001 357.125 237.889C356.545 237.776 356.174 237.195 356.303 236.615C356.416 236.019 356.98 235.632 357.56 235.745C358.125 235.857 358.495 236.422 358.382 237.018Z" fill="#278DA7"/>
<path d="M357.835 227.846L358.383 227.83L357.883 227.088L357.27 227.137C356.948 226.83 356.593 226.556 356.319 226.427C355.594 226.073 353.627 225.605 353.66 226.572C353.692 227.411 354.852 228.668 353.321 228.539C352.596 228.474 351.741 227.427 351.983 226.943C352.16 226.588 352.563 226.524 352.563 226.524L352.289 225.782C352.289 225.782 350.339 225.96 350.935 227.652L350.291 227.701L350.742 228.41L351.354 228.394C351.983 229.168 353.047 229.732 353.966 229.764C355.03 229.796 355.352 228.845 355.078 228.233C354.804 227.62 354.433 226.911 355.03 226.862C355.642 226.814 356.497 227.153 356.771 227.733C357.061 228.313 356.432 228.668 356.432 228.668L357.045 229.458C357.045 229.458 358.028 229.28 358.06 228.555C358.06 228.313 357.964 228.088 357.835 227.846Z" fill="#70E3CE"/>
<path d="M335.573 218.013C335.573 218.013 335.138 221.333 337.072 225.573C338.201 228.039 344.971 228.797 346.245 234.858C347.357 240.178 344.729 246.61 344.729 246.61L362.252 242.934C362.252 242.934 364.605 236.857 362.074 231.425C360.366 227.749 353.837 227.137 351.564 222.639C350.533 220.608 349.453 216.884 349.453 216.884L335.573 218.013Z" fill="#70E3CE"/>
<path d="M336.46 218.915C336.46 218.915 336.363 221.753 338.201 225.218C339.281 227.249 346.68 228.668 347.776 233.81C348.743 238.324 346.68 244.756 346.68 244.756L361.591 241.757C361.591 241.757 363.138 235.841 360.962 231.231C359.479 228.12 352.773 227.008 350.807 223.203C349.92 221.478 349.066 217.723 349.066 217.723L336.46 218.915Z" fill="#278DA7"/>
<path d="M337.33 219.738C337.33 219.738 337.266 221.753 339.071 224.88C340.716 227.717 347.712 228.168 348.614 233.278C349.404 237.76 348.002 243.337 348.002 243.337L360.753 240.774C360.753 240.774 362.171 236.261 360.301 231.699C359.044 228.604 351.484 226.846 349.968 223.01C349.227 221.156 348.711 218.529 348.711 218.529L337.33 219.738Z" fill="#70E3CE"/>
<path d="M346.116 230.038C345.068 229.119 344.278 227.459 347.034 226.734C350.178 225.895 353.595 226.524 355.852 227.717C358.109 228.91 358.947 231.118 355.385 231.972C351.822 232.827 348.969 232.504 347.969 231.876C346.938 231.263 346.116 230.038 346.116 230.038Z" fill="#278DA7"/>
<path d="M346.551 222.913C346.551 223.413 346.083 223.816 345.503 223.816C344.923 223.816 344.439 223.413 344.439 222.913C344.439 222.413 344.906 222.01 345.487 222.01C346.067 222.01 346.551 222.413 346.551 222.913Z" fill="#278DA7"/>
<path d="M356.884 237.324C356.884 237.937 356.416 238.421 355.836 238.421C355.256 238.421 354.772 237.937 354.772 237.324C354.772 236.712 355.239 236.228 355.82 236.228C356.4 236.228 356.884 236.712 356.884 237.324Z" fill="#278DA7"/>
<path d="M354.53 228.442L355.062 228.313L354.418 227.685L353.821 227.862C353.45 227.62 353.047 227.427 352.741 227.346C351.967 227.137 349.936 227.072 350.162 228.023C350.355 228.845 351.742 229.845 350.226 230.022C349.501 230.103 348.469 229.248 348.598 228.716C348.695 228.329 349.082 228.184 349.082 228.184L348.663 227.507C348.663 227.507 346.777 228.072 347.712 229.619L347.083 229.796L347.679 230.393L348.276 230.248C349.05 230.876 350.21 231.215 351.113 231.054C352.161 230.876 352.29 229.877 351.903 229.329C351.516 228.781 351 228.152 351.58 227.991C352.161 227.814 353.08 227.991 353.466 228.491C353.853 228.99 353.321 229.474 353.321 229.474L354.079 230.135C354.079 230.135 354.998 229.764 354.885 229.039C354.837 228.861 354.708 228.652 354.53 228.442Z" fill="#70E3CE"/>
<path d="M433.453 179.437C433.147 182.21 432.148 184.838 431.164 187.449C426.135 200.635 420.831 213.709 415.238 226.669C413.174 231.457 411.868 238.856 406.436 240.693C401.955 242.225 396.7 240.774 393.04 237.969C385.722 232.343 384.964 225.186 388.462 216.981C390.332 212.596 410.708 172.184 413.626 168.428C419.235 161.19 428.005 164.93 430.1 167.896C432.325 171.039 433.872 175.472 433.469 179.357C433.453 179.373 433.453 179.405 433.453 179.437Z" fill="#373E4F"/>
<path d="M412.509 234.555C416.175 227.702 413.59 219.174 406.736 215.509C399.883 211.844 391.356 214.428 387.69 221.282C384.025 228.135 386.61 236.662 393.463 240.328C400.317 243.993 408.844 241.409 412.509 234.555Z" fill="#495269"/>
<path d="M353.288 221.43C353.514 222.333 353.788 223.236 354.288 224.042C354.788 224.848 355.352 225.621 355.98 226.331C356.609 227.056 357.351 227.669 358.124 228.233C358.882 228.797 359.72 229.329 360.623 229.667C361.219 229.893 361.913 229.474 362.138 228.926C362.38 228.346 362.17 227.636 361.606 227.314C360.881 226.895 360.139 226.556 359.446 226.073C359.285 225.96 359.108 225.831 358.963 225.718C359.172 225.879 358.882 225.654 358.866 225.637C358.785 225.573 358.689 225.492 358.608 225.428C358.302 225.17 357.995 224.896 357.705 224.606C357.415 224.316 357.141 224.025 356.867 223.719C356.802 223.639 356.722 223.558 356.657 223.461C356.641 223.445 356.464 223.219 356.545 223.316C356.609 223.397 356.432 223.155 356.4 223.123C356.351 223.042 356.287 222.978 356.238 222.897C355.706 222.123 355.271 221.624 354.788 220.801C354.304 219.995 353.047 220.527 353.288 221.43Z" fill="#FFD0B6"/>
<path d="M344.003 227.685C345.68 228.62 347.437 229.281 349.307 229.7C350.177 229.893 351.064 230.054 351.951 230.167C352.982 230.312 354.256 230.586 355.271 230.28C355.964 230.07 356.561 229.393 356.529 228.636C356.496 227.814 356.013 227.298 355.271 226.991C354.788 226.798 354.191 226.798 353.659 226.75C353.208 226.717 352.773 226.685 352.321 226.637C351.677 226.572 350.967 226.459 350.129 226.298C348.436 225.96 346.744 225.557 345.067 225.154C343.584 224.767 342.601 226.895 344.003 227.685Z" fill="#FFD0B6"/>
<path d="M344.713 233.52C344.922 234.294 345.293 235.035 345.825 235.632C346.309 236.164 347.099 236.567 347.792 236.728C348.453 236.889 349.162 236.905 349.839 236.841C350.597 236.76 351.403 236.664 352.112 236.389C352.499 236.244 352.821 236.051 353.031 235.68C353.224 235.342 353.305 234.858 353.192 234.487C352.918 233.649 352.144 233.23 351.29 233.407C350.726 233.536 350.161 233.714 349.597 233.826C349.549 233.843 349.484 233.843 349.436 233.859C349.13 233.907 349.823 233.826 349.533 233.843C349.404 233.859 349.275 233.859 349.146 233.875C349.017 233.875 348.888 233.875 348.775 233.875C348.694 233.875 348.63 233.875 348.549 233.859C348.485 233.859 348.259 233.826 348.533 233.859C348.839 233.907 348.42 233.843 348.34 233.826C348.227 233.81 348.114 233.778 348.001 233.746C347.953 233.73 347.888 233.714 347.84 233.698C347.582 233.617 348.162 233.859 347.921 233.73C347.808 233.665 347.711 233.617 347.598 233.552C347.485 233.488 347.389 233.44 347.276 233.375C347.26 233.359 347.05 233.214 347.227 233.343C347.405 233.472 347.211 233.327 347.179 233.295C347.066 233.198 346.97 233.069 346.857 232.972C346.744 232.859 347.018 233.198 346.841 232.956C346.792 232.875 346.728 232.795 346.679 232.714C346.389 232.263 345.841 232.053 345.341 232.279C344.858 232.456 344.568 233.004 344.713 233.52Z" fill="#FFD0B6"/>
<path d="M343.713 230.361C343.907 231.086 344.197 231.827 344.761 232.359C345.341 232.908 346.067 233.182 346.841 233.327C347.904 233.536 349.001 233.665 350.081 233.649C350.709 233.633 351.338 233.568 351.967 233.488C352.724 233.375 353.417 233.246 353.998 232.698C354.868 231.876 354.497 230.167 353.256 229.925C352.563 229.78 351.999 229.958 351.338 230.103C351.209 230.135 351.096 230.151 350.967 230.167C350.887 230.183 350.532 230.215 350.903 230.183C350.677 230.199 350.451 230.232 350.226 230.248C349.323 230.312 348.42 230.248 347.518 230.199C347.356 230.183 347.211 230.183 347.05 230.167C346.986 230.167 346.921 230.151 346.857 230.151C346.583 230.135 346.873 230.167 346.969 230.167C346.808 230.167 346.631 230.119 346.47 230.103C346.196 230.07 346.76 230.183 346.615 230.119C346.518 230.087 346.405 230.054 346.309 230.038C346.099 229.99 346.518 230.167 346.438 230.086C346.405 230.054 346.325 230.022 346.292 230.006C346.115 229.925 346.405 230.054 346.405 230.086C346.405 230.07 346.276 229.974 346.26 229.958C346.228 229.925 346.196 229.877 346.147 229.845C346.051 229.764 346.292 230.054 346.163 229.861C346.067 229.716 345.97 229.571 345.889 229.426C345.229 228.249 343.359 229.023 343.713 230.361Z" fill="#FFD0B6"/>
<path d="M345.502 236.083C345.551 236.341 345.502 235.97 345.519 236.18C345.519 236.277 345.535 236.39 345.551 236.486C345.583 236.728 345.599 236.97 345.631 237.212C345.696 237.744 345.76 238.292 345.97 238.791C346.212 239.404 346.599 239.871 347.26 240.033C347.872 240.178 348.501 240.065 349.097 239.92C350.29 239.63 351.467 239.227 352.595 238.759C353.288 238.469 353.949 238.147 354.594 237.776C355.465 237.292 356.577 236.664 356.609 235.551C356.625 234.971 356.206 234.487 355.674 234.31C354.804 234.036 354.03 234.665 353.321 235.1C352.756 235.455 352.176 235.777 351.58 236.067C350.983 236.357 350.645 236.486 350.016 236.728C349.629 236.873 349.258 237.034 348.872 237.196C348.452 237.357 348.033 237.502 347.598 237.615C347.469 237.647 347.292 237.599 347.598 237.631C347.372 237.615 347.856 237.728 347.888 237.728C348.162 237.873 347.888 237.776 347.937 237.744C347.953 237.727 348.066 237.953 347.937 237.695C347.808 237.421 348.001 237.905 347.904 237.599C347.872 237.502 347.84 237.405 347.808 237.292C347.743 237.083 347.679 236.873 347.63 236.664C347.534 236.309 347.453 235.938 347.34 235.584C346.921 234.423 345.293 234.906 345.502 236.083Z" fill="#FFD0B6"/>
<path d="M361.59 227.588L352.772 226.669L349.339 232.231L351.467 238.727L363.267 236.776L361.59 227.588Z" fill="#FFD0B6"/>
<path d="M360.51 227.233L397.119 220.189C399.779 219.786 404.244 223.413 404.486 228.184C404.727 233.004 400.617 237.018 397.909 237.018L361.494 236.873L360.51 227.233Z" fill="#FFD0B6"/>
<path d="M242.576 400.072H117.759C110.006 400.072 103.719 393.785 103.719 386.031V88.2143C103.719 80.4606 110.006 74.1738 117.759 74.1738H242.576C250.33 74.1738 256.617 80.4606 256.617 88.2143V386.047C256.617 393.785 250.33 400.072 242.576 400.072Z" fill="#91CCFF"/>
<path d="M242.576 400.072H117.759C110.006 400.072 103.719 393.785 103.719 386.031V88.2143C103.719 80.4606 110.006 74.1738 117.759 74.1738H242.576C250.33 74.1738 256.617 80.4606 256.617 88.2143V386.047C256.617 393.785 250.33 400.072 242.576 400.072Z" fill="#333333"/>
<path d="M253.7 94.9524H106.669V379.358H253.7V94.9524Z" fill="#FFBAD2"/>
<path d="M188.365 400.072L235.774 274.562C237.531 269.742 234.791 264.438 229.842 263.1L190.299 252.332C185.35 250.978 180.305 254.154 179.37 259.199L155.093 400.072H188.365Z" fill="#333333"/>
<path d="M270.706 234.568C275.348 232.166 277.17 226.46 274.768 221.801L244.882 163.93C242.48 159.288 236.773 157.466 232.115 159.868C227.472 162.27 225.651 167.976 228.052 172.635L257.939 230.506C260.357 235.148 266.063 236.97 270.706 234.568Z" fill="#FFD0B6"/>
<path d="M305.09 233.826C306.025 238.743 311.925 239.549 312.634 239.71C315.552 240.355 318.953 239.307 320.517 236.664C321.871 234.391 321.661 231.167 320.742 228.749C319.614 225.734 316.89 224.59 314.101 223.768C313.73 223.655 313.359 223.558 312.989 223.445C308.975 225.783 303.752 226.718 305.09 233.826Z" fill="#FFD0B6"/>
<path d="M313.617 218.577C313.472 218.867 313.327 219.173 313.166 219.463C313.005 219.754 312.811 220.028 312.666 220.318C312.36 220.979 312.183 221.72 311.973 222.43C311.796 223.042 311.602 223.639 311.425 224.251C311.328 224.574 311.231 224.912 311.135 225.234C311.006 225.67 310.828 226.121 310.877 226.589C310.925 227.008 311.006 227.362 311.28 227.717C311.522 228.023 311.86 228.297 312.247 228.378C312.569 228.458 312.908 228.458 313.23 228.378C313.73 228.265 314.052 227.91 314.343 227.524C314.617 227.169 314.697 226.685 314.81 226.25C314.891 225.911 314.987 225.589 315.068 225.251C315.229 224.638 315.374 224.025 315.535 223.397C315.713 222.688 315.971 221.946 316.019 221.221C316.067 220.56 316.051 219.899 316.1 219.238C316.213 217.948 314.198 217.416 313.617 218.577Z" fill="#FFD0B6"/>
<path d="M308.975 226.701L266.289 222.494C263.291 222.188 258.213 225.025 258.132 229.78C258.052 234.568 263.033 239.323 266.063 239.21L308.991 237.808L308.975 226.701Z" fill="#FFD0B6"/>
<path d="M237.369 197.234L226.763 176.697C223.587 170.555 226.005 163.011 232.13 159.852C238.272 156.676 245.816 159.094 248.976 165.22L262.146 190.738L237.369 197.234Z" fill="#333333"/>
<path d="M238.063 281.832L247.993 186.369C250.62 168.637 242.77 152.775 225.022 150.148C207.29 147.52 190.783 159.755 188.139 177.487L175.018 265.873C192.314 280.042 215.704 284.572 238.063 281.832Z" fill="#F7365D"/>
<path d="M242.867 235.648L214.302 233.649L212.126 205.794L211.755 201.006L214.995 200.007L213.19 176.955C212.658 170.072 206.629 164.929 199.746 165.461C194.604 165.864 192.508 164.414 191.105 170.297L189.945 205.133L193.217 205.229L195.925 241.935C196.183 245.207 198.005 247.641 200.552 248.641C201.535 249.302 202.664 249.672 203.856 249.608L241.561 248.044L242.867 235.648Z" fill="#A37C84"/>
<path d="M238.368 135.091C231.098 132.093 223.925 128.611 216.784 125.049C215.881 124.597 214.978 124.146 214.075 123.695C213.108 123.211 212.738 122.792 212.302 124.436C212.286 124.517 212.27 124.597 212.254 124.678C213.818 129.546 213.785 135.639 214.027 140.975C214.221 144.908 214.317 148.842 214.269 152.775C217.106 155.564 221.249 157.305 224.005 158.046C225.134 158.353 226.311 158.643 227.503 158.901L234.725 173.747C234.725 173.747 236.95 159.32 237.079 159.288C237.047 151.195 237.466 143.087 238.368 135.091Z" fill="#FFD0B6"/>
<path d="M237.096 156.112C237.176 149.067 237.579 142.039 238.353 135.091C231.083 132.093 223.91 128.611 216.768 125.049C215.866 124.597 214.963 124.146 214.06 123.695C213.093 123.211 212.722 122.792 212.287 124.436C212.271 124.517 212.255 124.597 212.239 124.678C213.254 127.837 213.593 131.529 213.77 135.172C217.832 149.051 227.375 154.919 237.096 156.112Z" fill="#FFA385"/>
<path d="M213.464 104.107C210.981 115.553 211.449 127.627 214.834 138.862C226.779 146.954 242.689 149.534 256.037 144.053C262.001 128.304 262.017 110.12 255.327 94.645C251.765 86.4077 239.917 86.714 231.196 89.0675C222.475 91.4049 215.221 98.4493 212.642 107.025" fill="#FFD0B6"/>
<path d="M226.602 127.66C226.07 114.538 228.649 101.401 232.228 88.7947C231.889 88.8753 231.534 88.9559 231.196 89.0526C223.071 91.2288 216.204 97.4995 213.238 105.285C211.03 116.392 211.562 128.015 214.818 138.863C219.203 141.829 224.119 144.054 229.245 145.408C227.359 139.637 226.827 133.157 226.602 127.66Z" fill="#FFA385"/>
<path d="M225.57 104.979C231.244 108.606 238.192 108.316 244.64 108.155C245.688 108.123 259.261 107.655 259.261 107.72C258.422 103.222 257.133 98.8213 255.327 94.6301C251.765 86.3928 239.917 86.6991 231.196 89.0526C225.812 90.5034 220.976 93.7435 217.478 98.0314C219.476 100.723 222.507 103.029 225.57 104.979Z" fill="#FFA385"/>
<path d="M269.98 95.3556C266.643 93.8565 263.548 91.7286 260.727 89.4074C256.23 85.7159 252.232 81.4441 247.686 77.8171C243.141 74.174 237.902 71.1273 232.131 70.4019C226.392 69.6926 220.395 71.4336 215.93 75.125C211.207 79.0422 207.725 85.6836 208.305 91.9382C206.532 90.568 203.775 91.3418 202.357 93.0666C200.922 94.7915 200.551 97.1288 200.439 99.3695C200.197 104.206 200.987 109.09 202.712 113.603C203.518 115.699 204.662 117.488 205.71 119.423C206.822 121.47 207.338 123.856 208.37 125.968C209.659 128.579 211.175 131.094 212.883 133.447C213.028 133.641 213.173 133.834 213.302 134.028C213.431 134.205 213.609 134.35 213.77 134.511C213.464 132.754 213.157 130.997 212.851 129.24C212.803 128.982 212.738 128.547 213.093 128.531C213.399 128.531 213.722 128.579 214.028 128.611C215.511 128.74 217.413 108.477 217.51 106.511C217.623 104.222 216.655 99.7564 218.799 98.2572C221.298 96.5163 226.182 97.2417 228.939 97.7575C237.224 99.3211 244.591 102.884 253.199 102.964C257.229 102.997 261.259 102.529 265.16 101.546C267.111 101.062 269.029 100.433 270.899 99.6919C271.947 99.2728 275.123 97.0643 276.106 97.2255C273.962 96.887 271.931 96.2261 269.98 95.3556Z" fill="#803838"/>
<path d="M211.384 111.234C209.418 110.766 207.145 111.395 205.936 112.991C204.872 114.409 204.743 116.312 204.985 118.069C205.678 123.082 209.208 127.612 213.915 129.546C214.721 129.868 215.672 130.126 216.414 129.691C217.268 129.191 217.429 128.031 217.494 127.047C217.897 121.051 218.461 113.684 211.384 111.234Z" fill="#FFA385"/>
<path d="M208.837 119.149C208.353 118.601 208.241 117.746 208.579 117.101C208.918 116.457 209.675 116.038 210.417 116.118C211.481 116.231 212.109 117.327 212.609 118.149C213.222 119.165 213.754 120.325 213.979 121.486C213.85 120.825 212.996 120.487 212.384 120.761C211.771 121.035 211.481 121.792 211.61 122.453C211.739 123.114 212.222 123.646 212.803 124.001C213.383 124.339 214.044 124.517 214.705 124.646" stroke="#803838" stroke-width="0.6557" stroke-miterlimit="10" stroke-linecap="round" stroke-linejoin="round"/>
<path d="M238.563 131.126C240.271 132.448 242.173 133.173 244.334 133.302C246.349 133.431 248.815 133.044 250.459 131.787C250.943 131.416 250.33 130.787 249.847 130.997C248.96 131.4 248.154 131.851 247.203 132.109C246.268 132.351 245.301 132.48 244.334 132.464C242.415 132.432 240.4 131.867 238.788 130.836C238.611 130.707 238.385 130.981 238.563 131.126Z" fill="#803838"/>
<path d="M240.481 136.236C241.448 136.832 242.576 137.3 243.705 137.381C244.769 137.445 246.203 137.381 246.993 136.575C247.17 136.397 247.041 136.075 246.784 136.075C246.284 136.075 245.784 136.204 245.284 136.317C244.769 136.429 244.253 136.462 243.737 136.446C242.673 136.413 241.657 136.284 240.69 135.817C240.448 135.704 240.223 136.075 240.481 136.236Z" fill="#803838"/>
<path d="M229.697 109.912C230.615 109.348 231.776 108.977 232.84 108.832C233.936 108.687 235.048 108.816 236.08 109.203C236.467 109.348 236.918 109.042 237.015 108.671C237.128 108.252 236.87 107.865 236.483 107.736C235.226 107.301 233.872 107.22 232.566 107.494C231.937 107.623 231.341 107.833 230.777 108.123C230.18 108.429 229.713 108.848 229.245 109.332C228.955 109.638 229.326 110.138 229.697 109.912Z" fill="#803838"/>
<path d="M237.257 116.699C237.144 117.988 235.999 118.939 234.694 118.826C233.388 118.714 232.437 117.569 232.55 116.279C232.662 114.99 233.807 114.039 235.113 114.152C236.418 114.264 237.37 115.409 237.257 116.699Z" fill="#803838"/>
<path d="M227.117 125.838C228.294 124.855 229.471 123.887 230.647 122.904C230.873 122.727 230.841 122.356 230.647 122.163C230.438 121.953 230.132 121.985 229.906 122.163C228.729 123.146 227.552 124.113 226.376 125.096C226.15 125.274 226.182 125.644 226.376 125.838C226.585 126.064 226.891 126.031 227.117 125.838Z" fill="#803838"/>
<path d="M231.324 125.677C232.275 124.71 233.226 123.759 234.178 122.792C234.371 122.598 234.387 122.244 234.178 122.05C233.968 121.857 233.646 121.841 233.436 122.05C232.485 123.018 231.534 123.969 230.583 124.936C230.389 125.129 230.373 125.484 230.583 125.677C230.792 125.871 231.115 125.887 231.324 125.677Z" fill="#803838"/>
<path d="M234.629 126.403C235.693 125.339 236.757 124.275 237.821 123.195C238.014 123.001 238.03 122.647 237.821 122.453C237.611 122.26 237.289 122.244 237.079 122.453C236.015 123.517 234.951 124.581 233.888 125.661C233.694 125.855 233.678 126.209 233.888 126.403C234.097 126.596 234.419 126.612 234.629 126.403Z" fill="#803838"/>
<path d="M258.244 108.348C257.873 107.978 257.487 107.623 257.003 107.381C256.535 107.139 256.02 106.93 255.488 106.817C254.472 106.591 253.263 106.527 252.247 106.849C251.828 106.978 251.57 107.413 251.683 107.849C251.812 108.3 252.247 108.494 252.683 108.413C253.199 108.316 253.408 108.252 253.908 108.252C254.134 108.252 254.359 108.252 254.601 108.284C254.778 108.3 254.875 108.316 255.117 108.365C255.987 108.542 256.793 108.832 257.535 109.283C258.115 109.622 258.728 108.816 258.244 108.348Z" fill="#803838"/>
<path d="M257.004 116.666C256.891 117.956 255.746 118.907 254.441 118.794C253.135 118.681 252.184 117.537 252.297 116.247C252.41 114.958 253.554 114.007 254.86 114.119C256.165 114.232 257.117 115.377 257.004 116.666Z" fill="#803838"/>
<path d="M252.216 124.92C253.296 123.824 254.376 122.727 255.44 121.631C255.633 121.438 255.649 121.083 255.44 120.89C255.23 120.696 254.908 120.68 254.698 120.89C253.618 121.986 252.538 123.082 251.474 124.178C251.281 124.372 251.265 124.726 251.474 124.92C251.684 125.113 252.006 125.129 252.216 124.92Z" fill="#803838"/>
<path d="M255.408 125.145C256.327 124.178 257.229 123.227 258.148 122.26C258.342 122.066 258.358 121.712 258.148 121.518C257.939 121.325 257.616 121.309 257.407 121.518C256.488 122.486 255.585 123.437 254.666 124.404C254.473 124.597 254.457 124.952 254.666 125.145C254.876 125.323 255.214 125.355 255.408 125.145Z" fill="#803838"/>
<path d="M258.213 125.387C259.035 124.597 259.857 123.823 260.679 123.034C260.872 122.84 260.888 122.485 260.679 122.292C260.469 122.099 260.147 122.082 259.937 122.292C259.115 123.082 258.293 123.856 257.471 124.646C257.278 124.839 257.261 125.194 257.471 125.387C257.681 125.597 258.003 125.597 258.213 125.387Z" fill="#803838"/>
<path d="M243.431 117.327C242.883 123.485 237.434 128.031 231.276 127.483C225.118 126.935 220.572 121.486 221.12 115.328C221.669 109.17 227.117 104.625 233.275 105.173C239.433 105.721 243.995 111.169 243.431 117.327Z" stroke="#803838" stroke-width="0.3278" stroke-miterlimit="10"/>
<path d="M270.109 117.907C269.561 124.065 264.113 128.611 257.955 128.063C251.797 127.515 247.251 122.066 247.799 115.909C248.347 109.751 253.796 105.205 259.954 105.753C266.111 106.317 270.657 111.75 270.109 117.907Z" stroke="#803838" stroke-width="0.3278" stroke-miterlimit="10"/>
<path d="M246.863 116.214C246.702 117.842 246.557 119.47 246.396 121.098C246.428 120.776 249.072 120.889 249.41 121.002C250.087 121.227 250.458 121.518 250.716 122.162C251.49 123.984 250.2 125.838 248.217 125.806C246.912 125.773 245.235 124.983 244.558 123.855" fill="#FFD0B6"/>
<path d="M246.574 116.134C246.316 117.779 246.139 119.439 245.945 121.099C245.881 121.631 246.703 121.696 246.848 121.228C246.719 121.664 246.542 121.406 246.8 121.406C246.848 121.406 246.913 121.389 246.961 121.389C247.17 121.373 247.38 121.373 247.606 121.373C248.057 121.373 248.492 121.389 248.944 121.438C249.911 121.535 250.523 122.405 250.427 123.421C250.314 124.597 249.25 125.323 248.122 125.258C247.493 125.226 246.864 125.016 246.316 124.71C245.736 124.404 245.365 123.953 244.898 123.533C244.575 123.243 244.027 123.517 244.156 123.969C244.511 125.21 246.187 125.984 247.348 126.225C248.605 126.5 249.959 126.242 250.797 125.194C251.62 124.194 251.7 122.776 251.071 121.647C250.54 120.712 249.605 120.455 248.605 120.406C248.057 120.39 247.509 120.374 246.977 120.438C246.606 120.487 246.107 120.535 245.978 120.97C246.284 121.019 246.574 121.051 246.88 121.099C247.009 119.471 247.138 117.859 247.187 116.215C247.187 115.876 246.622 115.78 246.574 116.134Z" fill="#803838"/>
<path d="M243.35 117.762C244.769 117.021 246.574 117.037 247.976 117.795" stroke="#803838" stroke-width="0.3278" stroke-miterlimit="10"/>
<path d="M213.947 111.653C214.802 111.734 215.64 111.863 216.494 111.943L221.491 112.395" stroke="#803838" stroke-width="0.3278" stroke-miterlimit="10"/>
<path d="M270.012 116.715L260.34 115.86" stroke="#803838" stroke-width="0.3278" stroke-miterlimit="10"/>
<path d="M235.323 254.931L312.215 255.326L312.569 186.51L235.677 186.115L235.323 254.931Z" fill="#E88935"/>
<path d="M298.316 196.753L310.39 196.815L310.422 190.561L298.348 190.499L298.316 196.753Z" fill="white"/>
<path d="M235.32 254.936L251.344 255.019L251.698 186.202L235.674 186.12L235.32 254.936Z" fill="#C7752D"/>
<path d="M277.258 255.308L284.834 255.347L285.189 186.402L277.612 186.363L277.258 255.308Z" fill="white"/>
<path d="M304.058 225.605C304.235 226.782 305.638 226.991 306.605 227.233C307.604 227.491 308.604 227.765 309.603 228.055C310.603 228.346 311.651 228.539 312.666 228.749C313.73 228.958 314.81 229.184 315.906 229.264C316.873 229.329 317.696 228.474 317.825 227.572C317.937 226.685 317.389 225.605 316.422 225.428C316.084 225.363 315.729 225.315 315.374 225.267C315.261 225.251 315.132 225.234 315.02 225.218C314.439 225.154 315.245 225.251 314.907 225.202C314.407 225.122 313.907 225.057 313.408 224.976C312.199 224.783 311.006 224.557 309.797 224.412C308.749 224.299 307.701 224.138 306.653 224.09C306.121 224.058 305.541 224.009 305.025 224.171C304.413 224.348 303.961 224.96 304.058 225.605Z" fill="#FFD0B6"/>
<path d="M303.075 228.845C303.397 229.184 303.703 229.506 303.994 229.861C304.38 230.328 304.8 230.651 305.332 230.941C306.315 231.441 307.314 231.828 308.394 232.053C310.635 232.537 312.86 232.553 315.1 232.069C316.309 231.811 317.131 230.328 316.761 229.152C316.374 227.943 315.133 227.137 313.843 227.491C313.375 227.62 312.924 227.733 312.44 227.814C312.231 227.846 312.038 227.878 311.828 227.927C311.232 228.023 312.102 227.91 311.634 227.959C310.732 228.023 309.845 228.055 308.942 227.975C308.862 227.975 308.104 227.862 308.588 227.943C308.41 227.91 308.233 227.878 308.056 227.846C307.588 227.765 307.105 227.701 306.637 227.588C306.138 227.475 305.67 227.411 305.17 227.411C304.751 227.411 304.429 227.346 304.01 227.233C303.059 226.943 302.414 228.152 303.075 228.845Z" fill="#FFD0B6"/>
<path d="M303.752 233.81C304.106 234.02 304.413 234.197 304.719 234.487C305.202 234.923 305.751 235.148 306.347 235.374C306.927 235.6 306.041 235.229 306.573 235.471C306.895 235.616 307.234 235.761 307.572 235.874C307.991 235.987 308.426 236.067 308.862 236.132C309.877 236.309 310.877 236.39 311.908 236.373C312.344 236.373 312.795 236.341 313.23 236.309C313.859 236.261 314.584 236.244 315.181 236.035C316.309 235.616 317.051 234.649 316.889 233.407C316.728 232.247 315.745 231.328 314.536 231.344C313.94 231.344 313.359 231.505 312.779 231.602C312.65 231.618 312.537 231.634 312.408 231.65C312.489 231.634 312.585 231.634 312.666 231.618C312.424 231.666 312.15 231.682 311.908 231.699C311.086 231.763 310.264 231.779 309.458 231.795C309.055 231.795 308.636 231.795 308.233 231.779C307.83 231.763 307.427 231.828 307.024 231.828C306.492 231.828 306.025 231.763 305.493 231.876C305.138 231.957 304.945 231.957 304.574 231.908C304.058 231.828 303.542 231.989 303.333 232.521C303.123 232.988 303.284 233.536 303.752 233.81Z" fill="#FFD0B6"/>
<path d="M306.927 239.243C307.556 239.533 308.185 239.92 308.878 240.033C309.329 240.097 309.764 240.162 310.216 240.21C310.732 240.258 311.215 240.178 311.715 240.097C313.262 239.839 314.762 239.323 316.116 238.501C317.163 237.872 317.631 236.389 316.954 235.325C316.309 234.31 314.858 233.778 313.778 234.487C313.23 234.842 312.666 235.18 312.102 235.487C311.796 235.648 311.489 235.809 311.167 235.954C310.796 236.131 311.602 235.793 311.199 235.938C311.038 236.002 310.877 236.067 310.699 236.131C310.296 236.277 309.893 236.422 309.507 236.615C309.361 236.68 309.2 236.76 309.055 236.825C308.878 236.905 308.91 236.889 309.12 236.792C309.039 236.825 308.958 236.857 308.878 236.889C308.523 237.034 308.169 237.163 307.846 237.357C307.556 237.534 307.427 237.598 307.121 237.711C306.798 237.824 306.573 238.05 306.524 238.404C306.492 238.711 306.621 239.098 306.927 239.243Z" fill="#FFD0B6"/>
<path d="M194.829 187.546L198.376 232.956C198.795 238.276 203.308 241.354 208.402 239.775C213.512 238.211 217.333 232.569 216.93 227.249L213.722 186.063C213.254 180.018 207.29 175.972 201.503 177.745C197.263 179.051 194.491 183.113 194.829 187.546Z" fill="#FFD0B6"/>
<path d="M214.56 196.799L213.721 186.063C213.254 180.018 207.29 175.972 201.502 177.745C197.263 179.051 194.506 183.113 194.845 187.53L196.006 202.489L214.56 196.799Z" fill="#FFA385"/>
<path d="M252.765 234.632C253.119 236.309 255.183 238.727 255.183 238.727L262.517 239.936C262.517 239.936 267.256 239.904 268.852 237.244C270.223 234.955 269.965 231.731 268.981 229.313C267.756 226.315 264.919 225.202 262.017 224.428C261.631 224.332 261.566 224.219 261.179 224.106C259.583 225.041 258.084 227.121 254.28 227.346C251.765 228.862 251.846 230.28 252.765 234.632Z" fill="#FFD0B6"/>
<path d="M260.357 228.297C261.099 228.136 261.84 227.943 262.582 227.765C263.436 227.556 264.306 227.104 265.096 226.685C265.902 226.266 266.612 225.734 267.321 225.154C268.03 224.574 268.739 223.929 269.142 223.107C269.578 222.204 269.578 221.027 268.788 220.302C268.498 220.028 268.143 219.834 267.772 219.705C267.273 219.544 266.434 219.625 265.983 219.931C265.564 220.237 265.161 220.544 264.822 220.914C264.58 221.188 264.306 221.446 264.049 221.688C263.533 222.172 262.968 222.623 262.42 223.074C262.291 223.187 262.146 223.3 262.017 223.397C261.808 223.574 262.404 223.107 262.179 223.268C262.098 223.332 262.017 223.381 261.937 223.445C261.534 223.735 261.131 224.009 260.76 224.348C260.486 224.59 260.212 224.832 259.922 225.073C259.89 225.106 259.68 225.267 259.857 225.122C260.051 224.96 259.777 225.186 259.728 225.218C259.567 225.347 259.39 225.46 259.229 225.589C258.632 226.024 258.326 226.701 258.632 227.411C258.922 228.136 259.632 228.459 260.357 228.297Z" fill="#FFD0B6"/>
<path d="M276.864 225.041C274.623 225.347 272.302 225.315 270.029 225.347C268.869 225.363 267.708 225.363 266.547 225.283C265.338 225.218 264.129 224.977 262.936 225.089C260.293 225.347 259.825 228.684 262.324 229.651C263.63 230.167 265.161 230.167 266.547 230.232C267.756 230.28 268.965 230.296 270.174 230.216C272.834 230.038 275.333 229.442 277.864 228.684C278.847 228.394 279.459 227.362 279.185 226.347C278.895 225.283 277.88 224.896 276.864 225.041Z" fill="#FFD0B6"/>
<path d="M279.121 230.619C277.621 230.715 276.106 230.731 274.607 230.715C273.93 230.699 273.253 230.667 272.592 230.619C272.27 230.603 271.947 230.57 271.609 230.538C271.447 230.522 271.286 230.506 271.125 230.49C271.464 230.522 271.061 230.474 270.932 230.457C269.626 230.248 268.336 229.909 267.063 229.506C265.467 228.974 263.952 228.201 262.259 228.023C260.325 227.83 259.132 230.715 260.631 231.957C262.033 233.117 263.903 233.698 265.628 234.213C267.16 234.665 268.707 234.971 270.287 235.164C273.479 235.551 276.541 235.035 279.62 234.246C281.587 233.73 281.232 230.474 279.121 230.619Z" fill="#FFD0B6"/>
<path d="M277.766 236.567C277.202 236.519 276.606 236.486 276.041 236.39C275.461 236.293 274.913 236.116 274.317 236.051C273.317 235.938 272.382 235.858 271.399 235.68C270.351 235.503 269.303 235.293 268.272 235.036C267.127 234.745 265.838 234.181 264.645 234.181C263.806 234.181 262.92 234.794 262.726 235.632C262.517 236.551 262.888 237.341 263.645 237.873C264.58 238.534 266.079 238.743 267.192 238.953C268.449 239.195 269.722 239.372 270.996 239.485C272.157 239.565 273.382 239.678 274.542 239.549C275.719 239.404 276.912 239.13 278.056 238.872C278.621 238.743 278.975 238.131 278.895 237.582C278.83 236.986 278.363 236.631 277.766 236.567Z" fill="#FFD0B6"/>
<path d="M272.447 241.161C271.48 240.871 270.609 240.532 269.707 240.049C268.82 239.565 267.837 239.211 266.918 238.711C266.015 238.211 265.113 237.679 264.258 237.099C263.823 236.809 263.404 236.502 262.985 236.196C263.162 236.325 262.646 235.922 262.598 235.874C262.517 235.809 261.727 235.181 261.985 235.39C261.211 234.794 260.083 234.584 259.342 235.39C258.681 236.099 258.568 237.325 259.342 238.034C261.115 239.646 263.307 240.871 265.516 241.79C266.579 242.225 267.708 242.676 268.852 242.821C269.949 242.967 271.045 243.112 272.157 243.208C273.366 243.305 273.527 241.483 272.447 241.161Z" fill="#FFD0B6"/>
<path d="M256.714 227.459L206.371 223.929C202.647 223.671 199.52 227.395 199.472 232.134C199.423 236.922 202.551 240.79 206.307 240.645L256.859 238.55L256.714 227.459Z" fill="#FFD0B6"/>
<path d="M217.429 191.012L215.624 167.96C215.092 161.077 209.063 155.935 202.18 156.467C195.297 156.998 190.154 163.027 190.686 169.911L192.927 198.54L217.429 191.012Z" fill="#333333"/>
<path d="M213.996 142.507L209.369 150.953L223.909 164.784L227.246 159.159L234.726 173.747L227.907 154.709L213.996 142.507Z" fill="#333333"/>
<path d="M234.726 173.747L237.096 155.048L237.241 149.503L244.318 163.172L238.659 159.852L234.726 173.747Z" fill="#333333"/>
<path d="M246.925 183.633L240.898 183.473L240.788 187.647L246.814 187.806L246.925 183.633Z" fill="white"/>
<path d="M126.416 135.527H74.0744C64.7248 135.527 57.1323 127.95 57.1323 118.585V66.2429C57.1323 56.8933 64.7087 49.3008 74.0744 49.3008H126.416C135.766 49.3008 143.358 56.8772 143.358 66.2429V118.585C143.342 127.95 135.766 135.527 126.416 135.527Z" fill="#F7365D"/>
<path d="M97.6261 79.8203C97.6261 78.7048 97.232 77.7651 96.4439 77.0013C95.6679 76.2374 94.3523 75.5463 92.4972 74.9279C89.9146 74.1398 88.0292 73.1152 86.8409 71.8542C85.6648 70.5811 85.0767 68.9685 85.0767 67.0164C85.0767 65.0279 85.6527 63.397 86.8045 62.1239C87.9685 60.8508 89.563 60.093 91.5878 59.8505V55.8674H94.2978V59.8687C96.3348 60.1476 97.9171 61.0024 99.0447 62.4331C100.184 63.8639 100.754 65.822 100.754 68.3077H97.4078C97.4078 66.598 97.0016 65.24 96.1893 64.2337C95.3769 63.2273 94.2796 62.7241 92.8973 62.7241C91.4545 62.7241 90.3511 63.1 89.5872 63.8517C88.8234 64.5914 88.4414 65.628 88.4414 66.9618C88.4414 68.1985 88.8415 69.1867 89.6418 69.9263C90.4542 70.6538 91.7818 71.3207 93.6248 71.927C95.48 72.5211 96.9228 73.1819 97.9535 73.9094C98.9962 74.6248 99.7601 75.4614 100.245 76.4193C100.742 77.3771 100.991 78.4987 100.991 79.784C100.991 81.8331 100.372 83.4821 99.1356 84.7309C97.911 85.9798 96.1893 86.7194 93.9704 86.9498V90.4236H91.2787V86.9498C89.0234 86.7437 87.2532 85.9434 85.9679 84.5491C84.6948 83.1426 84.0582 81.2389 84.0582 78.8382H87.4229C87.4229 80.5236 87.8655 81.8209 88.7506 82.7303C89.6357 83.6397 90.8907 84.0944 92.5154 84.0944C94.1038 84.0944 95.3527 83.7124 96.262 82.9486C97.1714 82.1847 97.6261 81.1419 97.6261 79.8203Z" fill="white"/>
<path d="M338.797 103.48H307.927C302.414 103.48 297.949 99.015 297.949 93.5019V62.6321C297.949 57.1191 302.414 52.6538 307.927 52.6538H338.797C344.31 52.6538 348.775 57.1191 348.775 62.6321V93.5019C348.775 99.015 344.31 103.48 338.797 103.48Z" fill="#3673F7"/>
<path d="M321.82 70.9924C321.82 70.3347 321.588 69.7806 321.123 69.3302C320.666 68.8798 319.89 68.4723 318.796 68.1077C317.273 67.643 316.162 67.0389 315.461 66.2953C314.768 65.5446 314.421 64.5938 314.421 63.4427C314.421 62.2703 314.76 61.3087 315.44 60.558C316.126 59.8073 317.066 59.3605 318.26 59.2175V56.8689H319.858V59.2282C321.059 59.3927 321.992 59.8967 322.657 60.7403C323.329 61.5839 323.665 62.7385 323.665 64.2041H321.692C321.692 63.1961 321.452 62.3954 320.973 61.802C320.494 61.2086 319.847 60.9119 319.032 60.9119C318.181 60.9119 317.531 61.1335 317.08 61.5768C316.63 62.0129 316.405 62.6241 316.405 63.4106C316.405 64.1398 316.641 64.7225 317.113 65.1586C317.592 65.5875 318.374 65.9808 319.461 66.3382C320.555 66.6885 321.406 67.0782 322.013 67.5071C322.628 67.9289 323.079 68.4222 323.365 68.987C323.658 69.5518 323.804 70.2131 323.804 70.971C323.804 72.1792 323.44 73.1515 322.71 73.8879C321.988 74.6243 320.973 75.0604 319.665 75.1962V77.2445H318.078V75.1962C316.748 75.0747 315.704 74.6028 314.946 73.7807C314.196 72.9513 313.82 71.8289 313.82 70.4133H315.804C315.804 71.4071 316.065 72.1721 316.587 72.7083C317.109 73.2445 317.849 73.5126 318.807 73.5126C319.743 73.5126 320.48 73.2874 321.016 72.8369C321.552 72.3865 321.82 71.7717 321.82 70.9924Z" fill="white"/>
<path d="M155.948 312.476H125.078C119.565 312.476 115.1 308.011 115.1 302.498V271.628C115.1 266.115 119.565 261.65 125.078 261.65H155.948C161.461 261.65 165.926 266.115 165.926 271.628V302.498C165.926 307.995 161.461 312.476 155.948 312.476Z" fill="white"/>
<path d="M138.967 279.985C138.967 279.328 138.735 278.774 138.27 278.323C137.813 277.873 137.037 277.465 135.943 277.101C134.42 276.636 133.309 276.032 132.608 275.288C131.915 274.538 131.568 273.587 131.568 272.436C131.568 271.263 131.907 270.302 132.587 269.551C133.273 268.8 134.213 268.353 135.407 268.21V265.862H137.005V268.221C138.206 268.386 139.139 268.89 139.804 269.733C140.476 270.577 140.812 271.731 140.812 273.197H138.839C138.839 272.189 138.599 271.388 138.12 270.795C137.641 270.202 136.994 269.905 136.179 269.905C135.328 269.905 134.678 270.126 134.227 270.57C133.777 271.006 133.552 271.617 133.552 272.403C133.552 273.133 133.788 273.715 134.259 274.151C134.739 274.58 135.521 274.974 136.608 275.331C137.702 275.681 138.553 276.071 139.16 276.5C139.775 276.922 140.226 277.415 140.512 277.98C140.805 278.545 140.951 279.206 140.951 279.964C140.951 281.172 140.587 282.144 139.857 282.881C139.135 283.617 138.12 284.053 136.812 284.189V286.237H135.225V284.189C133.895 284.068 132.851 283.596 132.093 282.774C131.343 281.944 130.967 280.822 130.967 279.406H132.951C132.951 280.4 133.212 281.165 133.734 281.701C134.256 282.237 134.996 282.505 135.954 282.505C136.89 282.505 137.627 282.28 138.163 281.83C138.699 281.379 138.967 280.765 138.967 279.985Z" fill="#FFBAD2"/>
<path d="M46.4932 281.413C47.3798 281.735 50.4103 287.474 62.1457 291.343C67.4169 293.084 77.7337 290.375 77.7337 290.375L94.8693 314.378C94.8693 314.378 89.8399 316.522 83.0372 316.877C67.1913 317.715 60.9528 312.831 60.9528 312.831L56.9389 309.188L46.4932 281.413Z" fill="#63C4AB"/>
<path d="M53.2471 288.78C53.2471 288.78 59.7434 292.922 64.5633 293.293C68.5127 293.599 77.2014 292.068 77.2014 292.068L91.9512 313.153C91.9512 313.153 80.5704 316.006 75.009 315.152C57.5995 312.476 57.003 308.768 57.003 308.768L56.197 307.221C56.197 307.221 63.8218 312.54 74.4771 313.459C82.7628 314.169 89.2269 311.96 89.2269 311.96L76.5727 293.632C76.5727 293.632 69.1897 295.05 64.8373 294.712C60.4849 294.357 53.2471 290.537 53.2471 290.537V288.78Z" fill="#258693"/>
<path d="M49.8296 289.392C52.1509 290.666 56.6 292.729 59.0663 295.631C60.7428 297.613 63.7089 303.336 63.2898 305.706C62.9996 307.318 61.5166 309.22 58.3087 307.688C55.1008 306.157 52.0541 304.061 52.0541 304.061L49.8296 289.392Z" fill="#258693"/>
<path d="M54.4398 294.244L54.1657 293.293L55.7455 293.728L56.0195 294.825C56.7449 295.195 57.4059 295.663 57.8089 296.082C58.8405 297.13 60.8072 300.289 59.0985 300.789C57.6315 301.208 54.7622 299.935 55.8906 302.514C56.4225 303.755 58.7277 304.609 59.437 303.9C59.9689 303.384 59.84 302.643 59.84 302.643L61.2908 302.707C61.2908 302.707 62.1129 306.205 58.8244 306.141C58.8244 306.141 58.8244 306.141 58.8083 306.141L59.0985 307.285L57.5993 306.898L57.2769 305.818C55.5682 305.174 53.9884 303.642 53.4081 302.079C52.7311 300.257 54.2141 299.145 55.4231 299.258C56.6321 299.37 58.099 299.628 57.8411 298.548C57.5832 297.468 56.487 296.179 55.3264 296.017C54.1657 295.856 53.8917 297.146 53.8917 297.146L52.1507 296.549C52.1507 296.549 51.8928 294.744 53.1502 294.277C53.5048 294.131 53.9562 294.148 54.4398 294.244Z" fill="#63C4AB"/>
<path d="M36.2083 255.04L58.2604 276.432C58.2604 276.432 54.6173 287.409 55.0364 293.374C56.1003 308.043 60.9686 312.863 60.9686 312.863C60.9686 312.863 55.3749 309.735 49.0881 301.063C39.5129 287.861 34.161 276.544 34.161 276.544C34.161 276.544 32.8231 272.128 33.1938 267.63C33.5807 263.133 36.2083 255.04 36.2083 255.04Z" fill="#70E3CE"/>
<path d="M58.1477 310.832C58.1477 310.832 53.9404 305.383 53.0376 296.163C52.5057 290.778 56.0037 277.447 56.0037 277.447L36.9821 258.087C36.9821 258.087 35.2251 264.035 34.6125 267.695C33.7098 273.24 34.9833 278.269 34.9833 278.269L36.4502 281.026C36.4502 281.026 35.3863 277.383 36.0794 270.129C36.3373 267.34 38.0622 261.601 38.1105 261.746C38.1589 261.891 54.0532 278.108 54.0532 278.108C54.0532 278.108 51.474 290.875 51.603 295.163C51.8448 303.481 55.9231 308.978 55.9231 308.978L58.1477 310.832Z" fill="#278DA7"/>
<path d="M52.3766 305.222C52.3766 305.222 51.7963 303.159 49.1687 297.662C47.1376 293.422 43.4622 289.682 42.4467 289.489C41.7857 289.36 41.5762 289.553 41.5117 289.698C43.6396 293.148 46.2026 297.065 49.1687 301.16C50.2649 302.675 51.3449 304.029 52.3766 305.222Z" fill="#278DA7"/>
<path d="M75.9603 305.738C75.106 306.334 73.7358 305.835 72.9137 304.626C72.0754 303.417 72.0915 301.966 72.9298 301.369C73.7841 300.773 75.1543 301.273 75.9764 302.482C76.8147 303.707 76.8147 305.157 75.9603 305.738Z" fill="#258693"/>
<path d="M45.7191 281.235C44.8648 281.977 43.3978 281.671 42.4306 280.574C41.4634 279.478 41.3828 277.963 42.2372 277.222C43.0916 276.48 44.5585 276.786 45.5257 277.882C46.4768 278.995 46.5735 280.494 45.7191 281.235Z" fill="#278DA7"/>
<path d="M235.452 311.138L265.016 300.563C265.016 300.563 267.256 303.965 269.014 304.98C272.689 307.14 288.986 312.54 295.337 316.409C307.75 323.969 319.292 334.963 319.292 334.963L302.14 343.7L277.106 343.055C277.106 343.055 268.901 331.626 262.114 326.871C252.845 320.407 241.755 319.004 239.885 317.586C235.887 314.588 235.452 311.138 235.452 311.138Z" fill="#70E3CE"/>
<path d="M292.533 317.183C286.875 313.83 272.689 308.736 269.223 307.253C266.95 306.286 264.693 302.61 264.693 302.61L239.014 312.105C239.014 312.105 238.805 314.587 244.14 317.183C245.994 318.085 255.666 319.617 263.904 325.227C269.949 329.337 280.346 342.314 280.346 342.314L298.9 342.749L315.729 334.334C315.729 334.334 303.559 323.727 292.533 317.183ZM296.627 341.459L282.925 341.782C282.925 341.782 273.43 330.143 267.385 326.033C259.148 320.423 251.153 317.634 249.154 317.183C242.029 315.571 241.384 312.766 241.384 312.766L264.258 304.561C264.258 304.561 267.063 308.333 272.786 310.38C277.477 312.057 287.084 315.345 292.968 319.117C304.736 326.677 312.28 333.899 312.28 333.899L296.627 341.459Z" fill="#278DA7"/>
<path d="M277.105 343.072C277.105 343.072 282.28 341.669 284.44 340.38C286.6 339.09 292.323 335.64 292.323 335.64C292.323 335.64 295.112 339.558 296.643 340.605C299.013 342.217 302.14 343.733 302.14 343.733L277.105 343.072Z" fill="#5BB08E"/>
<path d="M280.926 343.12C280.926 343.12 283.425 342.765 286.359 341.315C289.373 339.832 291.791 337.913 291.791 337.913C291.791 337.913 292.807 340.202 294.435 341.347C296.724 342.927 299.835 343.652 299.835 343.652L295.37 343.507C295.37 343.507 293.871 342.975 293.048 342.314C292.275 341.701 291.275 340.38 291.275 340.38C291.275 340.38 289.244 341.621 288.325 342.088C286.472 343.056 285.375 343.281 285.375 343.281L280.926 343.12Z" fill="#258693"/>
<path d="M286.923 315.249L284.231 313.959C280.894 312.669 275.494 312.444 269.771 315.571C265.306 318.021 261.147 321.181 264.919 325.066C269.336 329.612 274.817 329.934 281.313 326.678C289.292 322.68 290.808 316.538 286.923 315.249Z" fill="#278DA7"/>
<path d="M284.279 316.715L285.44 316.103L283.57 315.007L282.28 315.748C281.265 315.394 280.088 315.039 279.314 314.991C277.09 314.878 272.334 316.377 273.431 318.456C274.366 320.246 278.589 321.6 275.123 322.889C273.463 323.502 270.545 322.116 270.561 320.81C270.577 319.843 271.399 319.278 271.399 319.278L270.013 317.957C270.013 317.957 265.951 320.391 269.014 323.454C269.014 323.454 269.014 323.454 269.03 323.47L267.676 324.26L269.401 325.323L270.706 324.63C272.883 325.662 275.639 326.113 278.202 324.937C280.765 323.76 280.443 321.487 278.621 320.375C277.251 319.536 275.816 318.166 277.09 317.425C278.363 316.683 280.572 316.554 281.797 317.505C283.635 318.924 282.039 319.891 282.039 319.891L283.973 321.455C283.973 321.455 286.149 319.585 285.456 317.973C285.247 317.505 284.827 317.086 284.279 316.715Z" fill="#70E3CE"/>
<path d="M296.901 330.933C297.497 332.046 296.837 333.545 295.434 334.286C294.032 335.028 292.42 334.738 291.839 333.641C291.243 332.529 291.904 331.03 293.306 330.289C294.693 329.547 296.305 329.837 296.901 330.933Z" fill="#278DA7"/>
<path d="M263.113 311.38C263.468 312.186 262.759 313.266 261.55 313.798C260.341 314.33 259.067 314.088 258.713 313.282C258.358 312.476 259.067 311.396 260.276 310.864C261.501 310.332 262.759 310.574 263.113 311.38Z" fill="#278DA7"/>
<path d="M131.22 4.08416L104.251 1.87573L101.478 2.31098C96.6747 3.22982 92.8543 4.60002 87.4057 10.9997C82.1022 17.222 80.5225 32.536 80.5225 32.536C80.5225 32.536 87.0027 28.7639 97.2712 28.4737C107.54 28.1674 111.36 29.7794 111.36 29.7794C111.36 29.7794 110.893 19.5271 115.019 14.1914C120.145 7.51773 131.22 4.08416 131.22 4.08416Z" fill="#5BB08E"/>
<path d="M83.166 29.2959L83.3272 28.0708C83.3433 27.9741 83.6496 25.6367 84.4878 22.461C85.6162 18.1892 87.0993 14.6428 88.8725 11.9185C92.4834 6.40551 99.1087 2.97197 108.571 1.68237L108.797 2.76241C99.8502 3.97141 93.644 7.79183 90.3233 12.8535C87.1638 17.6734 85.7291 24.3309 85.2455 27.0552C87.5506 26.5716 92.5156 25.6044 95.659 25.3465C100.205 24.9596 105.879 25.685 108.071 26.0074C108.265 24.2181 108.829 20.2365 110.199 16.7707C111.763 12.8374 114.342 10.3872 116.228 9.03308C118.275 7.55004 119.968 7.01808 120.049 6.98584L120.564 8.64619C120.548 8.64619 119.017 9.14591 117.179 10.4839C114.729 12.2571 112.924 14.5783 111.811 17.4155C110.119 21.6873 109.716 27.023 109.7 27.0713L109.635 28.0224L108.7 27.8612C108.619 27.8451 101.237 26.62 95.8041 27.0713C91.7902 27.4099 84.4395 29.0057 84.375 29.0218L83.166 29.2959Z" fill="#258693"/>
<path d="M106.04 2.58496C103.316 3.03632 99.5277 8.09801 105.96 9.33926C112.94 10.6933 117.099 9.25866 119.307 8.21086C121.532 7.16306 112.553 3.03632 112.553 3.03632L106.04 2.58496Z" fill="#258693"/>
<path d="M101.462 2.311C101.462 2.311 107.685 1.10199 118.114 9.12975C124.772 14.2559 136.539 30.4565 136.539 30.4565C136.539 30.4565 139.312 25.8301 144.599 22.2998C153.208 16.5772 158.237 14.9813 158.237 14.9813C158.237 14.9813 152.192 6.80848 143.519 3.87464C122.612 -3.1698 101.462 2.311 101.462 2.311Z" fill="#70E3CE"/>
<path d="M154.868 14.6912L156.222 14.3204L155.223 13.3371C154.965 13.0953 148.92 7.22763 141.811 3.82631C140.779 3.32659 139.683 2.8591 138.554 2.42386C134.686 1.45666 130.865 0.860235 127.238 0.553955C130.865 1.18263 135.54 1.29546 141.73 5.09978C146.679 8.13034 151.112 11.8057 153.111 13.595C151.193 14.2882 147.453 15.8357 143.648 18.5761C140.618 20.7684 137.636 23.5411 136.346 24.7823C134.041 21.6711 125.272 10.0325 120.903 6.74403C117.034 3.82631 112.746 1.95638 109.829 0.892461C109.78 0.876341 109.796 0.89247 109.748 0.87635C108.362 1.03755 107.282 1.2471 106.202 1.42442C109.2 2.27878 114.89 4.22931 119.936 8.03363C124.691 11.6284 135.492 26.3298 135.605 26.4749L136.153 27.2325L136.814 26.5716C136.846 26.5394 140.731 22.6706 144.583 19.8818C149.693 16.1742 154.803 14.7073 154.868 14.6912Z" fill="#278DA7"/>
<path d="M109.716 0.860179C111.151 1.53722 119.517 4.01971 125.175 3.19759C130.833 2.37547 132.155 1.40827 129.85 0.924672C127.561 0.441074 125.223 0.0702993 120 0.102539C114.794 0.118659 109.716 0.860179 109.716 0.860179Z" fill="#278DA7"/>
<path d="M139.506 11.725C138.393 12.4021 137.104 12.3537 136.652 11.5961C136.201 10.8384 136.733 9.67777 137.845 9.00073C138.957 8.32368 140.247 8.37205 140.698 9.12969C141.166 9.88733 140.634 11.048 139.506 11.725Z" fill="#278DA7"/>
<path d="M100.608 19.0436C99.3024 18.9146 98.319 18.0925 98.3996 17.2221C98.4802 16.3516 99.6086 15.739 100.914 15.868C102.22 15.9969 103.203 16.819 103.123 17.6895C103.042 18.5761 101.914 19.1726 100.608 19.0436Z" fill="#258693"/>
<path d="M286.423 61.4713C281.297 59.0694 276.107 56.6514 271.931 54.4269L265.097 50.816L243.077 43.0784L261.453 60.2301C261.453 60.2301 271.093 64.5019 284.537 65.9527C293.774 66.9521 299.464 66.0171 299.464 66.0171C299.464 66.0171 291.308 63.7603 286.423 61.4713Z" fill="#5BB08E"/>
<path d="M280.926 64.7759C278.38 64.4374 275.542 63.9215 272.802 63.1961C266.773 61.6002 262.211 59.956 262.211 59.956C262.211 59.956 259.052 57.3284 257.44 55.8937C255.989 54.588 252.41 51.0094 252.297 50.8482L253.216 50.1873C253.248 50.2195 257.037 53.6208 258.391 54.8298C259.825 56.1194 262.405 58.2634 262.937 58.6986C263.662 58.9565 267.756 60.3751 273.189 61.8259C277.928 63.0833 285.198 64.0988 288.519 64.3567C285.102 63.4057 279.024 60.7136 276.816 59.6497C271.641 57.1833 262.775 51.6542 262.695 51.6058L263.436 50.4129C263.517 50.4613 272.318 55.9582 277.428 58.3762C281.088 60.1172 290.26 64.1149 290.357 64.1633L293.581 65.5657L290.067 65.5174C289.97 65.5335 285.988 65.469 280.926 64.7759Z" fill="#258693"/>
<path d="M253.039 50.8158C253.812 51.6218 256.343 52.976 259.1 53.0404C261.856 53.1049 265.322 52.4279 263.839 51.3639C262.356 50.2838 253.039 50.8158 253.039 50.8158Z" fill="#258693"/>
<path d="M202.357 44.8999C202.357 44.8999 212.997 40.1284 217.671 39.3224C231.438 36.9689 243.27 40.3057 244.495 40.483C248.412 41.015 272.044 54.4913 272.044 54.4913C272.044 54.4913 260.841 47.7693 244.624 53.4274C236.483 56.2645 229.084 59.6658 229.084 59.6658L202.357 44.8999Z" fill="#70E3CE"/>
<path d="M264.065 50.0423C262.807 49.3491 262.388 49.0912 261.002 48.3497C257.923 48.2046 252.362 47.8822 246.655 49.2685C240.965 50.6548 231.486 54.6042 229.455 55.4586L208.693 44.8355C209.853 44.3197 211.61 43.6104 213.706 42.9334C217.268 41.7728 222.894 40.2736 228.085 40.1285C236.225 39.9028 243.737 41.0796 249.46 42.5304C249.283 42.3531 248.896 42.1113 247.316 41.4181C241.432 40.0802 234.356 38.9195 227.875 38.984C222.411 39.0324 216.849 40.0802 213.158 41.3053C209.16 42.611 206.468 43.9651 206.355 44.0295L204.856 44.7872L229.391 57.3446L229.761 57.1834C229.874 57.1351 240.949 52.4119 247.058 50.9289C252.99 49.4781 257.713 49.4136 260.631 49.6071C262.082 49.7199 263.243 49.8972 264.065 50.0423Z" fill="#278DA7"/>
<path d="M248.315 41.9338C246.075 41.5953 243.286 41.4663 245.656 43.8037C249.363 47.463 258.052 49.075 260.309 49.2523C262.565 49.4296 263.549 49.6392 263.371 49.6231C263.194 49.6069 259.97 47.8499 256.295 45.851C252.603 43.8682 248.315 41.9338 248.315 41.9338Z" fill="#278DA7"/>
<path d="M230.068 44.8676C231.325 45.6414 232.051 46.7536 231.68 47.3501C231.309 47.9627 229.987 47.8176 228.73 47.0599C227.473 46.2862 226.747 45.1739 227.118 44.5774C227.505 43.9649 228.827 44.1099 230.068 44.8676Z" fill="#278DA7"/>
<path d="M268.595 57.6186C269.981 58.1021 271.013 58.7953 270.868 59.1983C270.739 59.5851 269.498 59.5207 268.095 59.0371C266.709 58.5535 265.677 57.8603 265.822 57.4574C265.967 57.0705 267.209 57.135 268.595 57.6186Z" fill="#258693"/>
<path d="M60.8237 221.769C60.8237 221.769 65.3212 215.288 73.3812 211.387C79.9259 208.228 99.6246 201.2 104.718 198.475C114.052 193.51 120.178 186.853 120.178 186.853L145.728 202.521C145.728 202.521 140.521 208.905 133.525 214.015C126.432 219.189 107.556 221.817 98.2221 229.329C92.1771 234.181 85.2616 246.948 85.2616 246.948L60.8237 221.769Z" fill="#70E3CE"/>
<path d="M84.2785 243.482L63.9512 221.72L64.2413 221.237C64.3703 221.027 67.4653 215.982 77.637 211.242C80.8288 209.759 85.4391 207.889 90.3235 205.907C96.7715 203.295 103.445 200.587 107.072 198.669C112.247 195.928 119.92 189.142 120 189.077L120.419 188.707L143.697 202.763L143.149 203.44C143.1 203.505 141.859 205.036 139.441 207.196C137.233 209.195 133.573 212.129 128.689 214.821C124.353 217.207 119.742 218.577 114.858 220.028C108.039 222.059 100.979 224.154 94.7565 229.297C90.0978 233.166 84.8266 242.515 84.7621 242.612L84.2785 243.482ZM65.8694 221.559L83.9722 240.952C85.4391 238.453 89.7432 231.457 93.8054 228.104C100.253 222.768 107.459 220.624 114.439 218.561C119.243 217.142 123.772 215.788 127.964 213.483C135.266 209.469 139.844 204.827 141.392 203.134L120.597 190.576C118.888 192.06 112.472 197.524 107.798 200.007C104.09 201.973 97.384 204.681 90.9038 207.325C86.0355 209.308 81.4252 211.162 78.2818 212.629C73.204 214.998 70.0123 217.416 68.223 219.044C66.9979 220.141 66.2563 221.043 65.8694 221.559Z" fill="#278DA7"/>
<path d="M94.8046 204.891C91.5806 206.471 89.485 210.452 93.9664 215.74C98.4638 221.027 107.04 222.123 110.796 220.818C114.552 219.512 115.632 212.774 111.972 209.114C108.313 205.455 102.107 201.296 94.8046 204.891Z" fill="#278DA7"/>
<path d="M85.1165 221.527C85.9064 222.51 85.9709 223.768 85.2616 224.316C84.5685 224.864 83.3595 224.525 82.5696 223.526C81.7797 222.543 81.7152 221.285 82.4245 220.737C83.1177 220.189 84.3267 220.544 85.1165 221.527Z" fill="#278DA7"/>
<path d="M125.497 200.426C126.416 201.28 126.674 202.505 126.061 203.166C125.449 203.827 124.208 203.65 123.289 202.795C122.37 201.941 122.112 200.716 122.725 200.055C123.337 199.394 124.578 199.571 125.497 200.426Z" fill="#278DA7"/>
<path d="M107.491 217.981L109.329 217.11L108.426 216.191C110.989 214.821 111.07 212.903 109.619 211.291C107.669 209.131 104.396 209.921 103.123 210.453C101.849 211.001 100.689 211.339 99.8181 210.823C99.1088 210.388 99.5602 209.131 100.656 208.47C102.268 207.519 102.833 208.244 102.833 208.244L104.912 207.422C104.912 207.422 102.816 205.439 100.141 206.729L99.27 206.052L97.9482 206.713L98.7219 207.438C97.1261 208.486 96.9326 210.694 97.658 211.694C99.3345 214.015 102.284 213.096 103.429 212.451C104.799 211.678 106.057 211.484 106.605 211.952C108.346 213.402 107.443 214.257 105.944 214.998C103.929 215.998 103.058 214.74 103.058 214.74L100.157 216.207C100.157 216.207 101.14 218.964 106.717 216.997L107.491 217.981Z" fill="#70E3CE"/>
<path d="M68.5935 177.052H51.3773C48.2984 177.052 45.8159 174.553 45.8159 171.49V154.29C45.8159 151.211 48.3145 148.729 51.3773 148.729H68.5774C71.6563 148.729 74.1387 151.227 74.1387 154.29V171.49C74.1549 174.553 71.6724 177.052 68.5935 177.052Z" fill="#3673F7"/>
</svg>
