<svg width="500" height="364" viewBox="0 0 500 364" fill="none" xmlns="http://www.w3.org/2000/svg">
<g clip-path="url(#clip0)">
<path opacity="0.42" d="M500 159.33V49.83H458.99V20.61H402.25V74.99H384.09V106H345.76V58.65H312.87V115.1H297.35V96.11H275.36V132.43H217.12V32.31L149.42 0V92.11H116.82V4.99H75.4V84.09H62.7V54.23H0V358.12H500V159.33Z" fill="#D1C4E9"/>
<path d="M397.17 323.27C387.66 314.21 373.46 305.9 374.41 290.84C374.46 290.14 373.56 290.02 373.25 290.49C373.15 290.46 373.03 290.48 372.96 290.58C372.95 290.59 372.94 290.59 372.93 290.61C371.93 292.42 371.21 294.32 370.78 296.26C370.78 296.28 370.78 296.29 370.77 296.29C368.69 305.27 372.06 315.19 377.3 322.55C381.28 328.12 386.37 332.75 391.74 336.95C394.76 339.3 397.91 341.49 400.93 343.84C403.78 346.05 406.2 348.68 408.85 351.07C408.96 351.17 409.07 351.29 409.19 351.39C409.22 352.05 409.24 352.7 409.24 353.36C409.24 353.86 409.98 353.88 410 353.4C410.01 353.29 410.01 353.17 410.01 353.06C410.01 353.06 410.02 353.05 410.02 353.04C410.03 352.73 410.04 352.42 410.04 352.11C410.16 352.21 410.27 352.31 410.38 352.4C410.72 352.68 411.25 352.37 411.03 351.93C410.73 351.36 410.39 350.8 410.03 350.27C410.01 349.8 410.02 349.39 409.98 348.93C409.98 348.9 409.97 348.88 409.96 348.86C409.27 338.98 404.43 330.19 397.17 323.27Z" fill="#0097A7"/>
<path d="M480.45 261.23C469.26 270.1 458.03 279.01 448.12 289.34C440.53 297.27 433.65 306.22 427.71 315.59C427.21 315.97 426.73 316.36 426.25 316.77C426.1 316.89 425.94 317.02 425.79 317.15C425.5 317.37 425.24 317.6 424.96 317.83C425.07 317.33 425.15 316.83 425.24 316.32C425.45 316.39 425.71 316.37 425.89 316.26C426.09 316.14 426.22 315.91 426.1 315.6C426.06 315.47 426 315.34 425.96 315.22L425.95 315.21C425.8 314.79 425.64 314.4 425.47 314C425.55 312.75 425.54 311.49 425.45 310.23C425.43 309.65 425.37 309.06 425.28 308.49C425.28 308.45 425.28 308.41 425.26 308.38C424.26 300.15 420.19 292.15 416.09 284.92C407.78 270.34 400.31 254.99 399.22 237.96C399.19 237.37 398.65 236.99 398.16 237.08L398.15 237.09C398.05 237.1 397.95 237.14 397.86 237.22C397.77 237.28 397.69 237.36 397.62 237.47C390.59 248.3 388.7 262.13 393.28 274.29C396.01 281.52 400.72 287.81 406.01 293.36C412.38 300.05 420.32 305.7 424.14 314.32C424.37 314.85 424.57 315.37 424.78 315.9C424.8 315.94 424.83 315.98 424.85 316.01C424.78 316.73 424.67 317.47 424.54 318.19L423.87 318.75C423.43 319.13 423.76 319.71 424.21 319.79C423.97 320.79 423.67 321.8 423.31 322.81C423.28 322.86 423.38 322.88 423.39 322.83C423.4 322.8 423.4 322.78 423.42 322.76C423.46 322.83 423.56 322.85 423.62 322.78C423.95 322.34 424.27 321.91 424.61 321.49C424.62 321.48 424.61 321.47 424.63 321.47L424.64 321.42C425.5 320.28 426.35 319.11 427.19 317.96C427.41 317.67 427.63 317.38 427.85 317.07C429.22 315.97 430.6 314.91 432.01 313.86C432.02 313.85 432.02 313.85 432.02 313.85C440.53 307.46 449.56 301.77 457.31 294.44C461.83 290.17 465.58 285.42 468.68 280.03C471.63 274.87 474.77 270.24 478.4 265.7V265.68C479.33 264.5 480.31 263.32 481.32 262.15C481.54 261.9 481.54 261.63 481.42 261.41L481.41 261.4C481.25 261.09 480.83 260.92 480.45 261.23ZM425.39 319.3C425.39 319.32 425.39 319.32 425.37 319.32V319.34L425.36 319.36C425.37 319.37 425.36 319.38 425.36 319.38C425.37 319.39 425.35 319.4 425.35 319.4C424.73 320.44 424.11 321.48 423.51 322.53C423.89 321.62 424.21 320.71 424.47 319.79C424.55 319.77 424.64 319.73 424.72 319.66C424.97 319.45 425.22 319.23 425.48 319.03C425.54 318.97 425.61 318.9 425.68 318.86C425.58 319.01 425.52 319.17 425.39 319.3Z" fill="#0097A7"/>
<path d="M440.741 194.72C440.571 194.93 440.401 195.14 440.241 195.35C435.221 201.61 430.731 207.5 427.971 215.21C425.241 222.83 424.121 231 424.821 239.06C425.601 247.91 428.791 256.38 430.711 265.01C431.931 270.47 432.631 275.84 432.691 281.3L432.701 281.31C432.721 283.58 432.631 285.85 432.421 288.17C433.731 284.28 435.061 280.38 436.361 276.49C436.361 276.47 436.361 276.47 436.371 276.46C439.971 265.55 443.221 254.54 444.871 243.12C447.131 227.41 445.651 212.23 441.621 197.06C441.611 197.05 441.611 197.05 441.611 197.05C441.391 196.15 441.141 195.25 440.881 194.36C440.871 194.47 440.841 194.59 440.741 194.72Z" fill="#0097A7"/>
<path d="M478.661 231.51C459.681 246.72 444.461 266.02 434.251 288.1C434.221 288.12 434.191 288.13 434.161 288.16L434.151 288.17C433.121 288.8 432.101 289.43 431.071 290.06C430.971 290.13 430.891 290.2 430.831 290.28C430.671 290.49 430.631 290.74 430.671 290.97L430.681 290.98C430.791 291.5 431.311 291.91 431.881 291.57C432.471 291.22 433.061 290.85 433.641 290.49C443.331 284.52 452.771 278.08 459.291 268.52C466.731 257.65 472.741 245.55 478.901 233.9C478.901 233.88 478.921 233.88 478.921 233.86C479.181 233.36 479.451 232.85 479.711 232.35C479.731 232.31 479.741 232.28 479.751 232.25C480.001 231.61 479.241 231.05 478.661 231.51Z" fill="#0097A7"/>
<path d="M406.17 305.79C398.36 293.12 384.94 284.49 382.41 268.94C382.33 268.44 381.77 268.49 381.55 268.82C381.5 268.88 381.46 268.95 381.44 269.04C381.08 271.2 380.83 273.32 380.74 275.4C380.62 277.37 380.62 279.31 380.76 281.21C381.3 289.4 384.08 297 389.73 303.93C397.95 313.99 409.14 321.44 415.63 332.82C415.84 333.9 415.95 335 415.87 336.04C415.87 336.04 415.88 336.05 415.87 336.06C415.87 336.06 415.88 336.07 415.87 336.08C415.81 337.01 415.62 337.87 415.21 338.69C414.98 339.17 415.67 339.63 415.93 339.14C416.61 337.92 416.88 336.6 416.91 335.26L417 335.44C417.02 335.48 417.05 335.53 417.08 335.57C417.16 335.66 417.26 335.73 417.37 335.75C417.83 335.88 418.43 335.39 418.16 334.82C417.85 334.18 417.53 333.55 417.2 332.95C416.98 332.54 416.75 332.14 416.52 331.75C415.99 329.38 415.05 327.03 414.41 324.92C412.35 318.29 409.83 311.71 406.17 305.79Z" fill="#0097A7"/>
<path d="M475.651 292.32C475.601 292.32 475.541 292.34 475.481 292.38C462.861 300.64 450.691 309.56 439.131 319.23C431.741 325.38 424.161 331.62 417.771 338.86C417.721 338.91 417.671 338.98 417.621 339.03C417.611 339.04 417.611 339.04 417.601 339.05C417.591 339.06 417.601 339.07 417.601 339.07C416.631 340.15 415.701 341.26 414.801 342.41C414.701 342.47 414.591 342.52 414.481 342.59C413.931 343.79 413.381 344.96 412.841 346.11C413.501 345.56 414.201 345.05 414.931 344.58C415.011 344.52 415.091 344.47 415.171 344.43C415.791 344.03 416.441 343.65 417.101 343.3L417.721 342.97C417.761 342.95 417.811 342.92 417.861 342.91C422.361 340.6 427.501 339.05 431.761 336.92C437.881 333.88 443.781 330.23 448.761 325.5C457.591 317.15 463.491 306.33 471.691 297.45C471.711 297.43 471.721 297.41 471.741 297.4C473.101 295.93 474.521 294.5 476.041 293.16C476.391 292.84 476.061 292.24 475.651 292.32Z" fill="#0097A7"/>
<path d="M405.64 363.01C407.18 360.28 408.78 357.32 410.41 354.15L410.4 354.14C410.73 353.52 411.05 352.88 411.38 352.23C412.28 350.45 413.18 348.61 414.09 346.72C414.28 346.32 414.46 345.93 414.65 345.52C414.83 345.17 414.99 344.8 415.17 344.44C415.21 344.34 415.27 344.24 415.31 344.12L415.32 344.11C415.47 343.8 415.61 343.5 415.75 343.18C416.36 341.85 416.97 340.49 417.6 339.08L417.59 339.07C417.59 339.07 417.58 339.06 417.59 339.05C417.59 339.03 417.59 339.03 417.61 339.03C417.65 338.93 417.7 338.82 417.75 338.71C420.03 333.5 422.36 327.73 424.6 321.46C424.61 321.45 424.6 321.44 424.62 321.44L424.63 321.39C424.87 320.73 425.11 320.06 425.34 319.37C425.34 319.37 425.35 319.36 425.34 319.35C425.34 319.35 425.35 319.34 425.34 319.33L425.35 319.31V319.29C425.36 319.28 425.36 319.28 425.37 319.27C425.4 319.17 425.44 319.07 425.47 318.98C425.73 318.23 425.99 317.5 426.24 316.73C428.97 308.66 431.52 299.86 433.62 290.46C433.73 290.03 433.82 289.6 433.91 289.16L433.92 289.15C433.95 288.97 433.99 288.8 434.03 288.62C434.06 288.45 434.1 288.29 434.14 288.13L434.15 288.12C434.96 284.32 435.7 280.42 436.35 276.44C436.35 276.42 436.35 276.42 436.36 276.41C438.2 265.15 439.33 253.19 439.37 240.74C439.37 239.97 438.74 239.34 437.97 239.34C437.2 239.34 436.58 239.97 436.58 240.74C436.57 244.46 436.46 248.15 436.26 251.77C436.26 251.79 436.26 251.8 436.27 251.81C435.7 262.08 434.44 271.94 432.69 281.27L432.7 281.28C432.13 284.33 431.51 287.32 430.83 290.26C430.79 290.48 430.72 290.72 430.67 290.95L430.68 290.96C429.17 297.56 427.44 303.86 425.59 309.79L425.47 310.19C425.23 310.95 424.99 311.7 424.75 312.44C424.54 313.06 424.34 313.68 424.15 314.28C421.92 321.02 419.55 327.26 417.19 332.93C417.11 333.13 417.02 333.34 416.93 333.54C416.86 333.7 416.8 333.85 416.73 334.01C416.44 334.7 416.15 335.38 415.86 336.03C415.86 336.03 415.87 336.04 415.86 336.05C415.86 336.05 415.87 336.06 415.86 336.07C414.97 338.14 414.09 340.13 413.22 342.02C412.67 343.21 412.13 344.37 411.58 345.51C411.04 346.64 410.5 347.76 409.96 348.84C409.66 349.46 409.35 350.08 409.05 350.67C408.98 350.8 408.93 350.92 408.86 351.05C406.65 355.43 404.48 359.42 402.44 362.99H405.64V363.01Z" fill="#22475C"/>
<path d="M462.55 253.11C454 266.14 443.81 277.93 432.14 288.26C430.87 289.38 432.61 291.35 433.87 290.23C445.7 279.76 456.07 267.78 464.73 254.57C465.65 253.16 463.47 251.7 462.55 253.11Z" fill="#22475C"/>
<path d="M456.571 286.57C445.421 297.25 434.271 307.93 423.121 318.61C421.901 319.78 423.631 321.75 424.851 320.58C436.001 309.9 447.151 299.22 458.301 288.54C459.521 287.37 457.791 285.4 456.571 286.57Z" fill="#22475C"/>
<path d="M453.951 311.97C439.621 321.65 425.931 332.23 412.951 343.66C411.681 344.78 413.421 346.74 414.681 345.63C427.661 334.2 441.351 323.62 455.681 313.94C457.081 312.99 455.331 311.03 453.951 311.97Z" fill="#22475C"/>
<path d="M426.27 316.5C425.44 307.01 420.37 298.92 415.03 291.3C408.6 282.12 402.83 273.32 401 262.04C400.73 260.37 398.16 260.92 398.44 262.59C400.07 272.63 404.67 281.07 410.45 289.31C416.39 297.8 422.79 306.38 423.72 317.05C423.85 318.73 426.41 318.17 426.27 316.5Z" fill="#22475C"/>
<path d="M418.461 335.52C415.421 326.97 410.561 319.35 405.321 312C399.481 303.8 393.471 295.72 387.531 287.58C386.531 286.21 384.581 287.96 385.561 289.31C391.271 297.14 397.041 304.93 402.681 312.8C408.041 320.26 413.011 327.99 416.111 336.7C416.691 338.29 419.021 337.09 418.461 335.52Z" fill="#22475C"/>
<path d="M410.82 351.38C406.92 342.32 400.65 335.35 393.56 328.63C386.47 321.91 379.2 315.1 375.84 305.67C375.27 304.08 372.94 305.28 373.5 306.85C376.65 315.68 383.2 322.4 389.87 328.73C397.38 335.86 404.33 342.9 408.48 352.56C409.14 354.11 411.48 352.92 410.82 351.38Z" fill="#22475C"/>
<path d="M92.2309 336.04C77.4709 334.47 59.0309 336.8 49.5109 322.67C49.0709 322.01 48.1809 322.52 48.2309 323.15C48.1209 323.19 48.0309 323.3 48.0309 323.43C48.0209 323.44 48.0209 323.45 48.0309 323.47C48.3809 325.78 49.0509 327.98 49.9909 330.01C50.0009 330.03 50.0109 330.03 50.0009 330.05C54.3109 339.53 64.1709 346.09 73.9409 349.08C81.3409 351.33 89.0909 351.97 96.7909 352.03C101.121 352.06 105.451 351.85 109.771 351.87C113.851 351.89 117.831 352.58 121.841 352.89C122.011 352.91 122.191 352.93 122.361 352.94C122.841 353.51 123.301 354.08 123.761 354.67C124.101 355.12 124.781 354.63 124.471 354.18C124.401 354.07 124.321 353.96 124.241 353.87C124.241 353.87 124.251 353.86 124.231 353.85C124.021 353.56 123.831 353.28 123.611 353.01C123.781 353.02 123.951 353.03 124.121 353.03C124.611 353.05 124.881 352.4 124.381 352.16C123.721 351.86 123.031 351.59 122.341 351.36C121.991 350.95 121.721 350.58 121.371 350.19C121.351 350.17 121.331 350.16 121.301 350.14C113.881 341.78 103.501 337.24 92.2309 336.04Z" fill="#0097A7"/>
<path d="M124.101 223.1C120.191 238.75 116.261 254.47 114.501 270.54C113.161 282.87 113.161 295.63 114.291 308.11C114.111 308.8 113.951 309.47 113.791 310.17C113.741 310.38 113.681 310.61 113.641 310.82C113.531 311.21 113.461 311.61 113.361 312.01C113.111 311.48 112.841 310.98 112.571 310.47C112.811 310.39 113.021 310.19 113.111 309.96C113.211 309.71 113.16 309.42 112.84 309.22C112.72 309.13 112.58 309.06 112.451 308.97L112.441 308.96C112.021 308.69 111.611 308.45 111.181 308.21C110.391 307.04 109.511 305.91 108.571 304.85C108.151 304.35 107.691 303.86 107.221 303.41C107.191 303.37 107.161 303.34 107.131 303.32C100.571 296.64 91.4105 292.27 82.7605 288.62C65.2705 281.29 48.0005 272.68 35.3005 258.18C34.8705 257.67 34.1205 257.7 33.7505 258.12L33.7405 258.13C33.6605 258.21 33.6005 258.32 33.5705 258.45C33.5305 258.57 33.5205 258.69 33.5205 258.84C34.6805 273.39 42.5105 287.07 54.9905 294.81C62.4105 299.4 70.9705 301.8 79.5305 303.12C89.8505 304.73 100.851 304.31 110.211 309.41C110.771 309.73 111.321 310.05 111.871 310.39C111.921 310.41 111.971 310.42 112.011 310.44C112.441 311.14 112.851 311.87 113.241 312.61L113.021 313.57C112.891 314.22 113.581 314.5 114.041 314.27C114.521 315.33 114.94 316.44 115.311 317.59C115.321 317.66 115.421 317.61 115.401 317.56C115.391 317.52 115.381 317.51 115.381 317.48C115.471 317.52 115.571 317.46 115.571 317.36C115.561 316.74 115.561 316.13 115.571 315.52C115.581 315.51 115.561 315.5 115.571 315.49L115.551 315.44C115.531 313.82 115.491 312.2 115.451 310.58C115.451 310.17 115.441 309.75 115.431 309.33C115.891 307.4 116.411 305.5 116.941 303.59C116.951 303.58 116.951 303.58 116.951 303.58C120.181 292 124.341 280.68 126.241 268.78C127.351 261.84 127.441 255 126.501 248.04C125.59 241.39 125.211 235.07 125.34 228.51L125.331 228.49C125.351 226.79 125.421 225.06 125.521 223.32C125.541 222.95 125.361 222.7 125.101 222.58L125.09 222.57C124.72 222.42 124.221 222.57 124.101 223.1ZM114.761 313.05C114.771 313.07 114.771 313.07 114.761 313.08L114.771 313.1L114.781 313.12C114.791 313.13 114.791 313.14 114.791 313.14C114.801 313.15 114.801 313.16 114.801 313.16C114.961 314.52 115.131 315.88 115.311 317.23C115.021 316.15 114.681 315.11 114.281 314.11C114.34 314.04 114.391 313.94 114.411 313.82C114.491 313.46 114.561 313.09 114.651 312.74C114.661 312.64 114.681 312.53 114.711 312.44C114.741 312.66 114.791 312.84 114.761 313.05Z" fill="#0097A7"/>
<path d="M42.7101 190.87C42.7001 191.18 42.7001 191.48 42.6901 191.78C42.5001 200.84 42.5401 209.21 45.3701 218.02C48.1701 226.73 52.8001 234.82 58.9701 241.56C65.7701 248.95 74.4501 254.34 82.1201 260.75C86.9701 264.81 91.3001 269.13 95.1101 273.98L95.1201 273.99C96.7101 276.01 98.1901 278.1 99.6001 280.32C98.1001 275.93 96.6001 271.52 95.0901 267.14C95.0801 267.12 95.0801 267.12 95.0801 267.1C90.7901 254.85 86.1201 242.75 79.7401 231.38C70.9401 215.74 59.1601 203.17 45.1001 192.35C45.0901 192.34 45.0901 192.34 45.0901 192.34C44.2701 191.68 43.4301 191.05 42.5801 190.43C42.6601 190.55 42.7201 190.68 42.7101 190.87Z" fill="#0097A7"/>
<path d="M102.031 197.71C95.5006 224.41 95.1506 252.18 101.221 278.99C101.201 279.03 101.191 279.06 101.181 279.11L101.171 279.12C100.681 280.39 100.201 281.66 99.7106 282.94C99.6706 283.07 99.6406 283.19 99.6506 283.31C99.6506 283.6 99.7806 283.86 99.9806 284.04L99.9906 284.05C100.451 284.44 101.191 284.45 101.471 283.75C101.761 283.02 102.031 282.29 102.301 281.56C106.861 269.54 110.891 257.27 110.151 244.22C109.321 229.36 106.381 214.38 103.881 199.7C103.871 199.68 103.881 199.67 103.871 199.65C103.761 199.02 103.651 198.38 103.541 197.76C103.531 197.71 103.521 197.68 103.511 197.64C103.291 196.88 102.231 196.9 102.031 197.71Z" fill="#0097A7"/>
<path d="M88.2409 314.18C72.5209 308.21 54.5509 309.72 41.5809 297.53C41.1709 297.14 40.6909 297.57 40.7309 298.01C40.7309 298.1 40.7409 298.19 40.7809 298.28C41.9409 300.46 43.1809 302.53 44.5309 304.46C45.7809 306.31 47.1209 308.04 48.5509 309.66C54.6709 316.63 62.4009 321.52 72.2309 323.84C86.5209 327.18 101.681 326.16 115.331 331.88C116.271 332.71 117.121 333.61 117.771 334.6C117.771 334.6 117.781 334.61 117.781 334.62C117.781 334.62 117.791 334.63 117.791 334.64C118.381 335.51 118.801 336.41 119.001 337.43C119.131 338.02 120.061 337.96 119.961 337.34C119.731 335.77 119.071 334.41 118.161 333.19L118.371 333.28C118.421 333.3 118.481 333.33 118.531 333.34C118.661 333.37 118.801 333.36 118.911 333.31C119.411 333.11 119.611 332.26 118.971 331.94C118.251 331.58 117.531 331.24 116.821 330.93C116.341 330.71 115.861 330.52 115.391 330.32C113.281 328.56 110.821 327.1 108.791 325.66C102.381 321.12 95.6009 316.97 88.2409 314.18Z" fill="#0097A7"/>
<path d="M141.211 254.26C141.161 254.3 141.121 254.35 141.101 254.43C135.481 270.52 130.721 286.89 127.031 303.52C124.651 314.12 122.161 324.93 121.421 335.82C121.411 335.9 121.411 335.99 121.411 336.08C121.401 336.09 121.401 336.09 121.411 336.11C121.401 336.12 121.421 336.13 121.421 336.13C121.291 337.77 121.231 339.41 121.211 341.05C121.151 341.17 121.101 341.29 121.051 341.43C121.391 342.88 121.701 344.31 122.001 345.72C122.211 344.77 122.491 343.83 122.821 342.91C122.851 342.81 122.881 342.7 122.931 342.61C123.211 341.82 123.531 341.04 123.881 340.27L124.211 339.55C124.231 339.5 124.261 339.44 124.291 339.4C126.731 334.23 130.261 329.3 132.621 324.46C136.001 317.52 138.781 310.19 139.991 302.52C142.151 288.96 139.991 275.2 141.211 261.59C141.211 261.56 141.211 261.53 141.221 261.51C141.421 259.26 141.711 257 142.151 254.75C142.231 254.22 141.521 253.91 141.211 254.26Z" fill="#0097A7"/>
<path d="M78.0107 245.09C78.0207 245.11 78.0307 245.11 78.0407 245.12C84.6007 254.71 90.2607 264.41 95.1207 273.98L95.1306 273.99C96.7106 277.12 98.2206 280.22 99.6406 283.32C99.7607 283.55 99.8607 283.8 99.9707 284.05L99.9807 284.06C103.171 291.02 105.961 297.85 108.391 304.43L108.561 304.87C108.871 305.72 109.171 306.55 109.471 307.38C109.711 308.08 109.961 308.77 110.201 309.44C112.841 317.02 115.021 324.24 116.811 330.94C116.881 331.18 116.941 331.43 117.001 331.66C117.051 331.84 117.101 332.03 117.151 332.21C117.371 333.03 117.581 333.83 117.771 334.62C117.771 334.62 117.781 334.63 117.781 334.64C117.781 334.64 117.791 334.65 117.791 334.66C118.421 337.13 119.001 339.52 119.521 341.81C119.851 343.26 120.161 344.67 120.461 346.07C120.761 347.46 121.051 348.83 121.311 350.17C121.461 350.93 121.621 351.7 121.751 352.44C121.781 352.6 121.821 352.75 121.851 352.91C122.521 356.45 123.101 359.83 123.591 363.03H126.781C126.371 360.34 125.901 357.53 125.371 354.61L125.361 354.6C125.231 353.82 125.071 353.02 124.931 352.22C124.511 350.01 124.051 347.73 123.561 345.41C123.461 344.92 123.351 344.44 123.241 343.95C123.161 343.51 123.051 343.07 122.961 342.63C122.931 342.51 122.911 342.39 122.871 342.25L122.881 342.24C122.801 341.86 122.721 341.49 122.631 341.11C122.261 339.5 121.871 337.86 121.461 336.17L121.451 336.16C121.451 336.16 121.441 336.15 121.441 336.14C121.431 336.12 121.431 336.12 121.441 336.11C121.411 335.99 121.381 335.86 121.351 335.73C119.811 329.49 117.921 322.72 115.611 315.56C115.621 315.55 115.601 315.54 115.611 315.53L115.591 315.48C115.351 314.72 115.101 313.96 114.831 313.19C114.831 313.19 114.841 313.18 114.821 313.17C114.821 313.17 114.831 313.16 114.811 313.15L114.801 313.13L114.791 313.11C114.801 313.1 114.801 313.1 114.791 313.08C114.751 312.97 114.721 312.85 114.681 312.75C114.401 311.9 114.121 311.06 113.821 310.2C110.711 301.1 106.931 291.45 102.341 281.58C102.141 281.12 101.931 280.67 101.711 280.21L101.721 280.2C101.621 280.02 101.541 279.84 101.451 279.65C101.371 279.48 101.281 279.31 101.211 279.14L101.221 279.13C99.3207 275.17 97.3106 271.17 95.1406 267.15C95.1306 267.13 95.1306 267.13 95.1306 267.11C89.0306 255.75 81.7907 244.26 73.2507 233.08C72.7207 232.39 71.7206 232.26 71.0306 232.79C70.3406 233.32 70.2207 234.31 70.7507 235C73.2607 238.32 75.7007 241.7 78.0107 245.09Z" fill="#22475C"/>
<path d="M102.47 228.16C103.79 245.72 102.77 263.3 99.4302 280.6C99.0702 282.48 101.98 283.04 102.34 281.17C105.73 263.64 106.77 245.77 105.43 227.97C105.28 226.06 102.32 226.26 102.47 228.16Z" fill="#22475C"/>
<path d="M120.151 262.25C117.521 279.5 114.881 296.74 112.251 313.99C111.961 315.87 114.871 316.44 115.161 314.56C117.791 297.31 120.431 280.07 123.061 262.82C123.351 260.94 120.441 260.37 120.151 262.25Z" fill="#22475C"/>
<path d="M135.301 286.81C129.131 305.35 124.151 324.26 120.401 343.44C120.031 345.31 122.941 345.88 123.311 344.01C127.061 324.83 132.041 305.92 138.211 287.38C138.811 285.57 135.901 285.02 135.301 286.81Z" fill="#22475C"/>
<path d="M113.62 309.94C106.34 302.01 96.2204 298.26 86.1904 295.1C74.1104 291.3 62.8804 287.39 53.4704 278.55C52.0804 277.24 50.1604 279.5 51.5504 280.81C59.9304 288.68 69.8604 293.07 80.7104 296.48C91.8804 299.99 103.52 303.28 111.7 312.19C112.99 313.6 114.9 311.33 113.62 309.94Z" fill="#22475C"/>
<path d="M119.731 332.35C111.121 326.78 101.511 323.31 91.7609 320.32C80.8809 317 69.9309 313.89 59.0109 310.7C57.1809 310.16 56.6309 313.08 58.4409 313.61C68.9509 316.69 79.4809 319.7 89.9609 322.86C99.9009 325.86 109.681 329.35 118.451 335.02C120.051 336.05 121.321 333.37 119.731 332.35Z" fill="#22475C"/>
<path d="M123.801 351.82C114.071 346.38 103.651 344.46 92.6707 343.32C81.6907 342.18 70.4907 341.09 60.9807 334.96C59.3807 333.93 58.1107 336.61 59.6907 337.63C68.6007 343.37 79.0907 344.88 89.4307 345.96C101.071 347.17 112.141 348.7 122.511 354.49C124.191 355.42 125.461 352.75 123.801 351.82Z" fill="#22475C"/>
<path d="M209.56 344.6C212.59 347.69 215.79 350.61 218.83 353.69C221.69 356.59 224.01 359.9 226.62 362.97C226.63 362.98 226.64 362.99 226.64 363H228.4C228.29 362.75 228.17 362.5 228.05 362.25C228.1 361.72 228.17 361.26 228.19 360.74C228.19 360.71 228.18 360.69 228.17 360.66C228.88 349.5 224.78 338.94 217.68 330.1C208.38 318.53 193.73 307.09 197.04 290.37C197.2 289.6 196.21 289.32 195.8 289.8C195.7 289.75 195.56 289.76 195.46 289.85C195.45 289.85 195.43 289.86 195.43 289.88C194.04 291.76 192.95 293.78 192.17 295.88C192.16 295.9 192.17 295.91 192.15 295.91C188.47 305.65 190.77 317.27 195.53 326.3C199.16 333.15 204.17 339.1 209.56 344.6Z" fill="#0097A7"/>
<path d="M320.25 273.08C306.39 281.34 292.47 289.64 279.83 299.72C270.14 307.46 261.1 316.46 253.04 326.06C252.43 326.42 251.83 326.78 251.23 327.16C251.04 327.27 250.84 327.39 250.66 327.51C250.31 327.71 249.97 327.94 249.62 328.15C249.82 327.6 249.99 327.05 250.16 326.51C250.39 326.63 250.68 326.63 250.9 326.54C251.15 326.43 251.32 326.2 251.24 325.83C251.21 325.68 251.17 325.53 251.14 325.38V325.37C251.03 324.88 250.92 324.42 250.78 323.94C251.05 322.55 251.23 321.14 251.32 319.72C251.38 319.07 251.4 318.4 251.39 317.75C251.4 317.7 251.4 317.66 251.39 317.62C251.5 308.26 248.14 298.68 244.63 289.97C237.51 272.39 231.44 254.08 232.76 234.85C232.81 234.19 232.27 233.67 231.71 233.71H231.7C231.59 233.71 231.47 233.74 231.35 233.81C231.24 233.86 231.14 233.94 231.04 234.05C221.55 245.13 217.36 260.33 220.67 274.64C222.65 283.14 226.98 290.9 232.08 297.9C238.22 306.35 246.26 313.86 249.25 324.09C249.42 324.71 249.58 325.33 249.73 325.96C249.75 326.01 249.78 326.06 249.79 326.09C249.6 326.89 249.37 327.69 249.12 328.49L248.28 329.01C247.73 329.37 248.01 330.07 248.5 330.23C248.09 331.31 247.6 332.4 247.04 333.48C247 333.54 247.1 333.57 247.13 333.52C247.15 333.49 247.15 333.47 247.17 333.45C247.2 333.54 247.31 333.57 247.39 333.5C247.83 333.05 248.25 332.62 248.7 332.2C248.71 332.2 248.71 332.18 248.72 332.18L248.74 332.13C249.87 330.98 251 329.8 252.11 328.63C252.4 328.34 252.69 328.04 252.98 327.73C254.67 326.7 256.39 325.72 258.12 324.75C258.13 324.75 258.13 324.75 258.13 324.75C268.62 318.87 279.58 313.85 289.36 306.8C295.07 302.69 299.98 297.94 304.25 292.36C308.33 287.02 312.53 282.3 317.28 277.76L317.29 277.74C318.51 276.56 319.78 275.38 321.08 274.23C321.36 273.98 321.41 273.68 321.31 273.42V273.41C321.16 273.04 320.71 272.79 320.25 273.08ZM249.88 329.88C249.87 329.9 249.87 329.9 249.86 329.9L249.85 329.92L249.84 329.94C249.84 329.95 249.83 329.96 249.83 329.96C249.83 329.97 249.82 329.98 249.82 329.98C248.97 331.05 248.12 332.13 247.29 333.21C247.85 332.24 248.35 331.27 248.78 330.28C248.88 330.27 248.98 330.24 249.08 330.17C249.39 329.97 249.7 329.77 250.02 329.58C250.1 329.52 250.19 329.46 250.27 329.41C250.14 329.58 250.05 329.75 249.88 329.88Z" fill="#0097A7"/>
<path d="M285.72 192.64C285.5 192.85 285.28 193.06 285.07 193.27C278.51 199.52 272.61 205.45 268.35 213.67C264.15 221.8 261.68 230.78 261.25 239.91C260.8 249.94 263.1 259.9 263.97 269.86C264.51 276.16 264.5 282.28 263.75 288.4V288.41C263.44 290.96 263 293.49 262.41 296.05C264.46 291.9 266.54 287.72 268.57 283.55C268.58 283.53 268.58 283.53 268.59 283.52C274.26 271.84 279.55 260 283.1 247.45C287.99 230.19 288.59 212.97 286.35 195.37C286.35 195.36 286.35 195.36 286.35 195.36C286.23 194.31 286.09 193.28 285.94 192.23C285.91 192.38 285.86 192.51 285.72 192.64Z" fill="#0097A7"/>
<path d="M322.69 239.52C299.15 253.72 279.21 273.05 264.48 296.26C264.44 296.27 264.4 296.29 264.37 296.31H264.36C263.12 296.86 261.88 297.42 260.62 297.97C260.5 298.03 260.39 298.1 260.31 298.18C260.1 298.39 260.02 298.66 260.03 298.93V298.94C260.08 299.54 260.59 300.08 261.29 299.78C262.01 299.47 262.72 299.15 263.43 298.83C275.17 293.59 286.71 287.79 295.45 278.07C305.41 267 313.95 254.36 322.6 242.23C322.61 242.21 322.62 242.21 322.63 242.19C323 241.67 323.37 241.14 323.74 240.62C323.77 240.58 323.78 240.55 323.8 240.51C324.17 239.84 323.41 239.1 322.69 239.52Z" fill="#0097A7"/>
<path d="M230.381 311.87C223.531 296.51 209.791 284.84 209.281 267.04C209.271 266.47 208.631 266.44 208.341 266.77C208.281 266.84 208.221 266.9 208.181 267C207.451 269.36 206.861 271.7 206.441 274.02C206.011 276.21 205.721 278.38 205.591 280.54C204.971 289.79 206.941 298.72 212.231 307.33C219.931 319.82 231.351 329.85 236.921 343.57C237.001 344.82 236.961 346.06 236.711 347.21C236.711 347.21 236.711 347.22 236.701 347.23C236.701 347.23 236.701 347.24 236.691 347.25C236.491 348.29 236.141 349.21 235.561 350.07C235.231 350.58 235.931 351.19 236.301 350.68C237.251 349.41 237.751 347.98 237.981 346.48L238.061 346.69C238.081 346.74 238.101 346.8 238.131 346.85C238.201 346.97 238.311 347.06 238.421 347.1C238.921 347.32 239.661 346.85 239.441 346.18C239.191 345.42 238.921 344.67 238.641 343.94C238.461 343.45 238.251 342.97 238.061 342.49C237.821 339.76 237.121 336.98 236.711 334.53C235.431 326.79 233.591 319.05 230.381 311.87Z" fill="#0097A7"/>
<path d="M310.22 307.18C310.16 307.17 310.09 307.18 310.02 307.22C294.65 314.58 279.69 322.75 265.28 331.86C256.09 337.65 246.66 343.5 238.42 350.65C238.35 350.7 238.29 350.77 238.23 350.82C238.22 350.82 238.22 350.82 238.21 350.84C238.2 350.84 238.2 350.86 238.2 350.86C236.95 351.93 235.74 353.03 234.56 354.18C234.43 354.23 234.31 354.27 234.17 354.34C233.38 355.61 232.59 356.83 231.8 358.04C232.62 357.52 233.48 357.06 234.37 356.64C234.47 356.59 234.56 356.54 234.66 356.5C235.42 356.15 236.2 355.82 236.99 355.52L237.73 355.24C237.78 355.22 237.84 355.2 237.9 355.19C243.29 353.28 249.27 352.31 254.36 350.56C261.67 348.07 268.83 344.87 275.11 340.32C286.25 332.29 294.48 321.05 304.99 312.33C305.01 312.31 305.03 312.29 305.06 312.28C306.8 310.83 308.61 309.45 310.51 308.17C310.97 307.88 310.68 307.15 310.22 307.18Z" fill="#0097A7"/>
<path d="M230.401 363.01C231.311 361.67 232.221 360.31 233.131 358.9C233.401 358.48 233.671 358.07 233.941 357.64C234.191 357.27 234.431 356.88 234.681 356.51C234.741 356.4 234.821 356.3 234.891 356.18H234.901C235.111 355.86 235.321 355.54 235.531 355.2C236.411 353.8 237.301 352.37 238.211 350.88V350.87C238.211 350.87 238.211 350.86 238.221 350.85C238.231 350.83 238.231 350.83 238.241 350.83C238.301 350.72 238.371 350.61 238.451 350.5C241.781 345.01 245.261 338.9 248.711 332.21C248.721 332.21 248.721 332.19 248.731 332.19L248.751 332.14C249.121 331.43 249.481 330.72 249.841 329.99C249.841 329.99 249.851 329.99 249.851 329.97C249.851 329.97 249.861 329.97 249.861 329.95L249.871 329.93L249.881 329.91C249.891 329.91 249.891 329.91 249.901 329.89C249.951 329.79 250.011 329.68 250.061 329.57C250.471 328.77 250.861 327.98 251.261 327.16C255.521 318.53 259.701 309.05 263.461 298.84C263.641 298.37 263.821 297.91 263.981 297.43H263.991C264.051 297.24 264.121 297.05 264.191 296.85C264.251 296.67 264.311 296.49 264.381 296.32H264.391C265.861 292.18 267.281 287.93 268.601 283.56C268.611 283.54 268.611 283.54 268.621 283.53C272.371 271.2 275.421 257.96 277.331 244.02C277.451 243.15 276.841 242.35 275.971 242.24C275.111 242.13 274.321 242.73 274.201 243.6C273.631 247.77 272.961 251.88 272.191 255.91C272.181 255.93 272.191 255.94 272.191 255.95C270.021 267.36 267.131 278.22 263.771 288.41V288.42C262.671 291.75 261.531 295.01 260.341 298.2C260.261 298.44 260.151 298.7 260.061 298.95V298.96C257.381 306.13 254.501 312.92 251.541 319.29L251.341 319.72C250.961 320.54 250.581 321.33 250.201 322.13C249.871 322.8 249.561 323.46 249.251 324.1C245.741 331.32 242.161 337.96 238.671 343.95C238.551 344.17 238.421 344.39 238.291 344.59C238.191 344.75 238.101 344.92 238.001 345.08C237.571 345.81 237.151 346.53 236.731 347.21C236.731 347.21 236.731 347.22 236.721 347.23C236.721 347.23 236.721 347.24 236.711 347.25C235.401 349.44 234.121 351.53 232.861 353.52C232.061 354.77 231.291 355.99 230.501 357.19C229.721 358.38 228.961 359.55 228.191 360.68C227.761 361.33 227.321 361.97 226.891 362.59C226.801 362.72 226.721 362.85 226.621 362.99C226.611 363 226.611 363.01 226.601 363.02H230.401V363.01Z" fill="#22475C"/>
<path d="M301.41 261.31C289.89 274.63 276.7 286.3 262.08 296.13C260.49 297.2 262.14 299.66 263.73 298.59C278.55 288.63 291.95 276.77 303.63 263.27C304.88 261.82 302.65 259.87 301.41 261.31Z" fill="#22475C"/>
<path d="M289.7 297.89C275.61 308.18 261.53 318.47 247.44 328.77C245.9 329.89 247.55 332.36 249.09 331.23C263.18 320.94 277.26 310.65 291.35 300.35C292.89 299.23 291.24 296.76 289.7 297.89Z" fill="#22475C"/>
<path d="M282.97 325.94C265.47 334.64 248.56 344.44 232.31 355.3C230.72 356.36 232.37 358.82 233.96 357.76C250.21 346.9 267.12 337.1 284.62 328.4C286.33 327.55 284.66 325.1 282.97 325.94Z" fill="#22475C"/>
<path d="M251.28 326.88C251.77 316.13 247.3 306.3 242.46 296.97C236.63 285.73 231.49 275.01 231.12 262.1C231.07 260.19 228.11 260.42 228.17 262.33C228.5 273.82 232.39 283.96 237.62 294.06C243 304.45 248.88 315.03 248.33 327.11C248.24 329.01 251.2 328.77 251.28 326.88Z" fill="#22475C"/>
<path d="M239.7 347.01C237.58 336.98 233.27 327.71 228.51 318.7C223.2 308.64 217.67 298.69 212.24 288.69C211.33 287.01 208.87 288.68 209.78 290.34C215.01 299.96 220.3 309.55 225.44 319.21C230.32 328.37 234.74 337.77 236.9 347.98C237.29 349.84 240.09 348.86 239.7 347.01Z" fill="#22475C"/>
<path d="M208.69 335.12C215.69 343.8 222.12 352.32 225.48 363.01H228.57C225.51 352.56 219.63 343.98 212.83 335.56C205.9 326.97 198.77 318.25 196.42 307.19C196.02 305.33 193.23 306.32 193.62 308.16C195.83 318.53 202.16 327.03 208.69 335.12Z" fill="#22475C"/>
<path d="M127.27 358.9H231.5C239.46 358.9 244.2 352.45 242.1 344.5L162.88 44.18C160.78 36.22 152.63 29.78 144.68 29.78H40.4501C32.4901 29.78 27.7501 36.23 29.8501 44.18L109.07 344.49C111.17 352.45 119.32 358.9 127.27 358.9Z" fill="#3B474E"/>
<path d="M128.25 346.82H228.31C236.27 346.82 241.01 340.37 238.91 332.42L162.88 44.18C160.78 36.22 152.63 29.78 144.68 29.78H44.62C36.66 29.78 31.92 36.23 34.02 44.18L110.05 332.41C112.15 340.37 120.3 346.82 128.25 346.82Z" fill="#667A84"/>
<path d="M47.1303 35.46H150.41C154.96 35.46 159.62 39.15 160.82 43.7L240.3 344.99C241.5 349.54 238.79 353.23 234.24 353.23H130.96C126.41 353.23 121.75 349.54 120.55 344.99L41.0703 43.7C39.8703 39.15 42.5803 35.46 47.1303 35.46Z" fill="#EAEDEF"/>
<path d="M107.53 38.2601C103.5 38.3301 106.51 46.8901 110.54 46.8201C114.58 46.7401 111.57 38.1801 107.53 38.2601Z" fill="#3B474E"/>
<path d="M500 358.12H0V363.91H500V358.12Z" fill="#3B474E"/>
<path d="M374.94 151.24L367.94 170.15L341.38 164.84L340.16 169.5L339.79 170.93L368.16 183.28C373.8 185.73 379.91 180.96 378.89 174.9L374.94 151.24Z" fill="#FFC9B9"/>
<path d="M378.9 174.89L374.95 151.24L371.55 160.42C373.39 166.51 374.72 172.62 373.49 179.15C374.11 179.06 374.74 178.95 375.37 178.8C374.74 178.95 374.11 179.06 373.49 179.15C373.45 179.37 373.41 179.58 373.37 179.8C373.42 179.58 373.45 179.36 373.49 179.15C361.62 180.89 351.24 173.43 340.17 169.5L339.8 170.93L368.17 183.28C373.8 185.73 379.91 180.95 378.9 174.89Z" fill="#FDA98F"/>
<path d="M330.42 159.5L325.28 162.76L330.42 169.45L334.66 171.37L339.79 170.93L341.38 164.84L330.42 159.5Z" fill="#FDA98F"/>
<path d="M340.16 169.5L337.16 168.17C335.21 167.14 333.72 165.41 332.99 163.33L332.41 161.66L326.61 158.97C326.23 158.79 326.03 158.37 326.14 157.97C326.26 157.5 326.75 157.23 327.21 157.37L334.9 158.42C336.78 158.68 338.43 159.78 339.39 161.42L341.39 164.84L340.16 169.5Z" fill="#FFC9B9"/>
<path d="M352.43 84.99C351.84 91.81 356.33 98.75 362.8 101.02C366.03 102.15 369.92 102.4 372.05 105.08C374.06 107.6 373.62 111.19 373.42 114.41C373.22 117.63 373.71 121.48 376.56 122.97C380.17 124.86 384.59 121.52 388.55 122.49C392.45 123.45 394.15 128.1 394.33 132.12C394.52 136.14 393.9 140.41 395.75 143.98C397.55 147.47 401.44 149.51 405.34 149.99C409.23 150.48 413.17 149.63 416.95 148.58C421.57 147.3 426.18 145.67 430.08 142.88C433.98 140.08 437.13 135.97 437.89 131.24C438.65 126.5 436.62 121.2 432.42 118.89C429.96 117.54 426.76 117.09 425.24 114.73C423.63 112.23 424.76 108.95 425.87 106.19C426.98 103.43 427.97 100.05 426.17 97.69C422.9 93.39 414.55 97.32 411.28 93.01C410.01 91.34 410.09 89.06 409.97 86.97C409.39 76.83 402.25 67.36 392.66 64.02C386.3 61.81 379.11 62.38 373.04 65.22C369.94 66.67 367.84 69.24 364.98 70.88C362.24 72.45 359.53 72.92 357.15 75.27C354.53 77.85 352.75 81.32 352.43 84.99Z" fill="#BF360C"/>
<path d="M432.42 118.9C429.96 117.55 426.76 117.1 425.24 114.74C423.63 112.24 424.76 108.96 425.87 106.2C426.98 103.44 427.97 100.06 426.17 97.7001C422.9 93.4001 414.55 97.3301 411.28 93.0201C410.01 91.3501 410.09 89.0701 409.97 86.9801C409.4 76.8901 402.33 67.4801 392.81 64.0901C399.09 68.1301 403.86 74.7301 405.54 81.9801C406.11 84.4501 406.25 86.9901 406.2 89.5201C406.12 93.0701 403.88 97.5401 408.42 99.2001C411.62 100.36 415.1 99.9401 417.56 102.83C419 104.52 418.97 106.56 418.34 108.58C417.73 110.55 417.34 112.26 418.06 114.28C418.75 116.23 420.13 117.98 421.51 119.49C422.78 120.88 424.03 122.32 424.09 124.3C424.15 126.23 423.14 128.19 421.84 129.56C419.39 132.16 415.47 133.41 412.02 133.93C408.78 134.42 405.56 134.07 403.02 131.84C400.65 129.76 399.44 126.59 398.31 123.73C397.67 122.1 397.11 120.5 395.77 119.31C394.61 118.27 393.13 117.73 391.64 117.36C388.14 116.49 384.08 116.88 380.83 115.23C377.92 113.75 377.41 110.63 377.54 107.67C377.67 104.84 378.33 101.38 375.77 99.3901C374.41 98.3301 372.67 97.9101 371.03 97.5601C369.31 97.1901 367.59 96.7801 365.92 96.2401C362.26 95.0601 358.78 93.2201 356.45 90.0801C354.39 87.2901 353.77 83.8701 354.01 80.4601C354.03 80.1201 354.07 79.7701 354.11 79.4301C353.2 81.1701 352.6 83.0701 352.43 85.0401C351.84 91.8601 356.33 98.8001 362.8 101.07C366.03 102.2 369.92 102.45 372.05 105.13C374.06 107.65 373.62 111.24 373.42 114.46C373.22 117.68 373.71 121.53 376.56 123.02C380.17 124.91 384.59 121.57 388.55 122.54C392.45 123.5 394.15 128.15 394.33 132.17C394.52 136.19 393.9 140.46 395.75 144.03C397.55 147.52 401.44 149.56 405.34 150.04C409.23 150.53 413.17 149.68 416.95 148.63C421.57 147.35 426.18 145.72 430.08 142.93C433.98 140.13 437.13 136.02 437.89 131.29C438.65 126.51 436.63 121.21 432.42 118.9Z" fill="#92360C"/>
<path d="M414.951 349.24L408.091 350.59L405.301 330.99L416.951 329.29L414.951 349.24Z" fill="#FFC9B9"/>
<path d="M384.07 204.19L413.69 202.7L415.82 226.4L412.09 268.82L418.71 282.82L416.95 329.29L405.3 330.99L396.35 277.48L384.07 204.19Z" fill="#263238"/>
<path d="M415.561 347.42L418.891 357.5L385.311 358L385.611 355.77L406.611 346.24L409.441 348.46L415.561 347.42Z" fill="white"/>
<path d="M432.72 348.69L425.43 350.12L422.13 329.29L434.22 328.24L432.72 348.69Z" fill="#FFC9B9"/>
<path d="M429.47 203.18C420.22 203.93 411 204.96 401.82 206.3L412.71 273.03L422.13 329.3L434.22 328.25L435.71 294.4C436.21 284.26 433.2 274.26 427.2 266.07L434.53 241.71C436 239.21 438.57 224.05 436.9 209.34C436.48 205.6 433.21 202.88 429.47 203.18Z" fill="#37474F"/>
<path d="M433.38 346.76L436.91 357.47L401.21 358L401.54 355.63L423.86 345.5L426.87 347.85L433.38 346.76Z" fill="white"/>
<path d="M429 253.29C426.24 260.8 423.48 268.31 420.73 275.81C420.27 277.05 422.21 277.41 422.66 276.18C425.42 268.67 428.18 261.16 430.93 253.66C431.38 252.42 429.45 252.06 429 253.29Z" fill="#263238"/>
<path d="M428.2 269.93C427.65 269.78 427.14 270.07 426.9 270.59L424.03 276.64C423.8 277.13 424.11 277.76 424.59 277.89C425.14 278.04 425.65 277.75 425.89 277.23C426.85 275.21 427.8 273.19 428.76 271.18C429 270.69 428.69 270.06 428.2 269.93Z" fill="#263238"/>
<path d="M432.191 210.23C419.701 219.79 403.051 223.48 387.691 220.09C386.441 219.81 385.841 221.72 387.101 222C403.191 225.55 420.441 221.74 433.531 211.72C434.551 210.94 433.211 209.46 432.191 210.23Z" fill="#CFD8DC"/>
<path d="M394.721 161.91C393.901 159.55 392.541 157.4 390.671 155.73C390.281 155.38 389.671 155.25 389.261 155.65C388.911 156 388.771 156.69 389.181 157.06C389.601 157.44 390.001 157.84 390.371 158.26C390.561 158.47 390.731 158.69 390.911 158.91C391.001 159.02 391.081 159.13 391.161 159.25C391.201 159.3 391.231 159.35 391.271 159.4C391.281 159.41 391.281 159.41 391.281 159.41C391.291 159.42 391.291 159.43 391.311 159.45C391.611 159.91 391.891 160.38 392.141 160.87C392.271 161.12 392.391 161.38 392.501 161.64C392.561 161.77 392.611 161.9 392.661 162.03C392.681 162.09 392.711 162.15 392.731 162.21C392.741 162.24 392.751 162.26 392.751 162.27C392.761 162.28 392.761 162.3 392.771 162.32C392.941 162.81 393.391 163.23 393.961 163.08C394.421 162.98 394.901 162.44 394.721 161.91Z" fill="#CFD8DC"/>
<path d="M384.69 118.81C387.96 119.66 397.76 111.47 401.21 111.55C404.65 111.64 413.69 111.1 416.29 119.58C418.49 126.77 414.33 135.7 412.1 143.03C410.92 146.9 409.47 150.76 409.14 154.73C408.64 160.83 410.89 166.68 414.26 171.5C417.63 176.3 432.45 190.14 437.82 209.56C425.88 223.51 400.71 227.68 384.08 222.91C383.06 209.76 375.94 172.74 375.68 159.3C375.66 158.5 375.35 157.95 374.86 157.51C370.51 153.61 368.17 147.94 369.64 142.28C371.95 133.26 375.95 128.46 384.69 118.81Z" fill="white"/>
<path opacity="0.63" d="M374.851 157.51C375.351 157.95 375.661 158.5 375.671 159.3C375.761 164.06 376.481 169.83 377.411 175.87C378.741 176.25 380.111 176.58 381.501 176.88C383.511 175.94 385.501 174.95 387.431 173.92C391.191 171.9 394.731 169.48 397.941 166.66C401.231 163.76 403.781 160.45 406.171 156.79C407.321 155.03 408.451 153.25 409.641 151.53C410.251 148.68 411.251 145.86 412.111 143.04L412.151 142.92C413.041 139.98 409.441 137.77 407.181 139.84C397.501 148.71 384.251 153.57 370.431 151.43C371.391 153.7 372.921 155.78 374.851 157.51Z" fill="#CFD8DC"/>
<path d="M399.691 116.63C398.701 118.99 396.811 120.96 394.421 121.93C391.741 123.02 388.671 122.8 386.131 121.43C385.561 121.12 385.091 122.01 385.661 122.31C388.411 123.8 391.801 124.07 394.721 122.88C397.341 121.81 399.471 119.71 400.571 117.1C400.821 116.51 399.941 116.03 399.691 116.63Z" fill="#CFD8DC"/>
<path d="M341.384 148.042L329.668 125.301L317.498 131.571L329.213 154.312L341.384 148.042Z" fill="#7CB342"/>
<path d="M339.325 147.02L329.309 127.578L319.565 132.597L329.582 152.04L339.325 147.02Z" stroke="#F2E0BE" stroke-miterlimit="10"/>
<path d="M326.461 141.17C325.601 139.5 326.261 137.45 327.921 136.59C329.591 135.73 331.641 136.39 332.501 138.06C333.361 139.73 332.701 141.78 331.031 142.64C329.371 143.5 327.321 142.84 326.461 141.17Z" fill="#F2E0BE"/>
<path d="M342.91 143.47L342.7 143.37C342.7 143.37 340.24 142.22 338.3 141.3C337.3 140.83 336.12 141.4 335.88 142.48C335.66 143.45 335.38 144.43 335.34 144.71C334.95 147.52 335.05 150.36 335.7 153.12C336.05 154.62 336.39 156.61 337.96 157.29C338.21 157.4 341.15 158.6 341.13 158.67L341.64 156.87L342.94 152.33L342.91 143.47Z" fill="#FFC9B9"/>
<path d="M363.43 154.59L341.97 151.06L341.13 158.67L377.92 170.93L379.07 163.14L379.93 157.31L363.43 154.59Z" fill="#FFC9B9"/>
<path d="M379.931 157.31L363.431 154.6L341.971 151.07L341.311 157.09C353.481 160.68 365.671 166.33 378.531 166.85L379.081 163.14L379.931 157.31Z" fill="#FFC9B9"/>
<path d="M382.33 166.84C390.92 158.31 399.44 150.56 406.16 140.11C403.12 138.22 400.57 135.35 397.53 133.47L379.94 157.31L378.53 166.85C379.79 166.9 381.05 166.89 382.33 166.84Z" fill="#FFC9B9"/>
<path d="M398.611 132.01L397.531 133.47C400.571 135.35 403.121 138.22 406.161 140.11C399.441 150.56 390.921 158.31 382.331 166.84C381.061 166.89 379.791 166.9 378.531 166.85C365.671 166.33 355.121 162.76 342.951 159.17L341.141 158.69L377.931 170.94C389.931 174.94 410.161 139.8 410.161 139.8L398.611 132.01Z" fill="#FDA98F"/>
<path d="M410.911 139.12C406.901 136.46 402.891 133.8 398.881 131.14C398.431 130.84 397.761 131.11 397.531 131.55C397.261 132.07 397.491 132.6 397.941 132.9L409.971 140.88C410.421 141.18 411.091 140.91 411.321 140.47C411.601 139.96 411.361 139.42 410.911 139.12Z" fill="#CFD8DC"/>
<path d="M373.39 84.1001C379.06 86.9001 386.97 91.3201 392.98 87.3101C394.06 86.5901 394.85 85.7201 395.4 84.7801C396.08 84.7201 396.77 84.8701 397.48 85.3701C399.37 86.7101 400.18 89.4101 399.43 91.5901C398.63 93.9101 396.77 94.7101 394.33 95.0401C394.79 101.72 396.67 106.74 398.69 113.49C397.95 116.93 396.7 118.93 393.96 120.23C391.22 121.53 390.56 121.49 387.71 120.46C387.09 117.09 386.33 112.51 385.18 109.28C383.04 110.7 377.97 112.26 375.66 112.19C374.79 112.17 365.59 98.0401 365.49 78.5801C367.77 80.8001 370.44 82.6501 373.39 84.1001Z" fill="#FFC9B9"/>
<path d="M380.221 111.37C382.131 110.8 384.051 110.02 385.171 109.28C386.171 112.09 386.871 115.91 387.451 119.08L387.181 106.93L380.221 111.37Z" fill="#FDA98F"/>
<path d="M393.39 88.1C394.03 87.29 394.84 86.7 395.74 86.33C396.23 86.13 396.48 86.98 396 87.2C395.2 87.55 394.52 88.11 393.97 88.84C393.71 89.19 393.49 89.57 393.31 89.98C393.15 90.35 393.1 90.65 392.8 90.91C392.64 91.05 392.38 90.93 392.32 90.72C392.09 89.85 392.91 88.72 393.39 88.1Z" fill="#FDA98F"/>
<path d="M378.05 90.3801C377.97 90.0001 377.86 89.6201 377.97 89.2401C378.12 88.6901 378.78 88.4801 379.21 88.8701C379.51 89.1301 379.63 89.5101 379.77 89.8701C379.9 90.2001 380 90.5101 380.07 90.8601C380.29 92.0001 378.79 92.4601 378.35 91.3801C378.21 91.0401 378.12 90.7201 378.05 90.3801Z" fill="#472C1F"/>
<path d="M368.41 91.5301C368.35 91.1501 368.25 90.7601 368.37 90.3901C368.54 89.8501 369.21 89.6601 369.62 90.0601C369.91 90.3301 370.01 90.7101 370.15 91.0801C370.27 91.4101 370.36 91.7301 370.41 92.0801C370.59 93.2301 369.08 93.6401 368.67 92.5401C368.55 92.2001 368.47 91.8801 368.41 91.5301Z" fill="#472C1F"/>
<path d="M375.561 103.74C377.961 102.9 380.221 101.68 382.251 100.16C380.711 102.27 378.401 103.44 375.981 104.23C375.851 104.06 375.711 103.89 375.561 103.74Z" fill="white"/>
<path d="M382.25 100.16C382.35 100.08 382.46 100.01 382.56 99.9301C382.59 100.4 382.58 100.89 382.52 101.36C382.38 102.44 382 103.49 381.3 104.31C380.3 105.49 378.83 106.27 377.29 106.41C377.03 105.93 376.77 105.44 376.49 104.97C376.34 104.72 376.17 104.47 375.99 104.23C378.4 103.44 380.71 102.27 382.25 100.16Z" fill="#B51C1C"/>
<path d="M374.93 83.1601C377.4 82.4501 379.91 82.6701 382.23 83.8001C382.78 84.0701 382.34 84.9101 381.79 84.6401C379.71 83.6201 377.46 83.4201 375.23 84.0601C374.63 84.2401 374.34 83.3301 374.93 83.1601Z" fill="#BF360C"/>
<path d="M366.5 86.5501C366.98 85.5901 367.8 84.8801 368.81 84.5301C369.39 84.3301 369.68 85.2401 369.1 85.4401C368.31 85.7101 367.71 86.2601 367.34 87.0001C367.07 87.5401 366.22 87.1001 366.5 86.5501Z" fill="#BF360C"/>
<path d="M374.151 100.93C373.591 100.59 372.881 100.66 372.251 100.57C371.891 100.52 371.371 100.38 371.211 100.01C371.111 99.7701 371.261 99.4901 371.341 99.2701C371.471 98.9401 371.611 98.6101 371.741 98.2701C372.001 97.6001 372.281 96.9501 372.471 96.2501C372.601 95.7801 371.921 95.5101 371.691 95.9301C371.291 96.6401 370.991 97.4101 370.681 98.1601C370.391 98.8501 369.941 99.6201 370.261 100.37C370.511 100.96 371.101 101.31 371.691 101.47C372.041 101.56 372.411 101.58 372.761 101.6C373.111 101.63 373.441 101.7 373.781 101.79C374.331 101.96 374.621 101.22 374.151 100.93Z" fill="#472C1F"/>
<path d="M342.37 142.69C338.85 140.31 334.9 138.61 330.76 137.67C329.5 137.38 329.05 139.33 330.3 139.62C334.28 140.52 338.04 142.17 341.42 144.46C341.87 144.76 342.54 144.49 342.77 144.05C343.06 143.52 342.82 142.99 342.37 142.69Z" fill="#FFC9B9"/>
<path d="M337.45 143.48C335.56 141.8 333.17 140.68 330.65 140.37C330.13 140.31 329.55 140.55 329.45 141.12C329.36 141.6 329.64 142.25 330.2 142.32C330.76 142.39 331.31 142.49 331.86 142.64C332.47 142.81 332.81 142.93 333.35 143.17C334.43 143.66 335.26 144.2 336.09 144.95C336.48 145.3 337.15 145.31 337.5 144.89C337.85 144.49 337.87 143.85 337.45 143.48Z" fill="#FFC9B9"/>
<path d="M336.73 146.3C335.09 144.74 333.05 143.62 330.85 143.08C330.34 142.95 329.75 143.3 329.65 143.83C329.55 144.37 329.85 144.9 330.4 145.03C330.65 145.09 330.9 145.16 331.14 145.24C331.26 145.28 331.37 145.31 331.48 145.35C331.54 145.37 331.59 145.39 331.65 145.41C331.66 145.41 331.65 145.41 331.66 145.41C332.14 145.61 332.6 145.82 333.06 146.06C333.27 146.18 333.48 146.3 333.69 146.43C333.79 146.49 333.89 146.56 333.99 146.63C334.04 146.67 334.1 146.7 334.15 146.74C334.16 146.75 334.17 146.75 334.19 146.77C334.6 147.08 335 147.41 335.37 147.76C335.75 148.12 336.44 148.11 336.78 147.7C337.14 147.29 337.13 146.68 336.73 146.3Z" fill="#FFC9B9"/>
<path d="M337.33 150.78C335.65 148.76 333.53 147.26 331.06 146.36C330.57 146.18 329.95 146.62 329.86 147.11C329.75 147.7 330.08 148.12 330.61 148.31C330.64 148.32 330.65 148.32 330.66 148.33C330.66 148.33 330.66 148.33 330.67 148.34C330.73 148.36 330.78 148.38 330.84 148.41C330.97 148.46 331.1 148.52 331.22 148.57C331.47 148.68 331.72 148.8 331.97 148.93C332.47 149.19 332.96 149.49 333.42 149.82C333.42 149.82 333.42 149.82 333.43 149.82C333.44 149.82 333.43 149.82 333.44 149.83C333.5 149.88 333.56 149.92 333.62 149.97C333.73 150.05 333.84 150.14 333.95 150.23C334.16 150.4 334.37 150.58 334.58 150.77C334.78 150.96 334.98 151.15 335.17 151.35C335.27 151.45 335.36 151.55 335.45 151.65C335.49 151.7 335.53 151.74 335.57 151.79C335.58 151.8 335.77 152.03 335.64 151.87C335.97 152.27 336.54 152.51 337.02 152.18C337.42 151.88 337.69 151.21 337.33 150.78Z" fill="#FFC9B9"/>
<path d="M296.79 168.43L309.54 169.26L317.2 163.35H319.3L314.71 158L308.69 156.99L296.79 165.23V168.43Z" fill="#FDA98F"/>
<path d="M296.79 165.23L301.18 164.22C304.11 163.55 306.69 161.79 308.38 159.31L309.74 157.32L318.33 155.82C318.89 155.72 319.3 155.24 319.3 154.67C319.3 154.01 318.76 153.48 318.1 153.5L307.6 152.17C305.04 151.85 302.47 152.72 300.63 154.54L296.79 158.35V165.23Z" fill="#FFC9B9"/>
<path d="M240.74 344.13H227.78L227.7 339.43H240.84L240.74 344.13Z" fill="#FFC9B9"/>
<path d="M263.211 353.91L241.081 344.13H226.781L224.431 356.21H264.511L263.211 353.91Z" fill="#FF1744"/>
<path d="M224.431 356.21L224.061 358.12H265.591L264.511 356.21H224.431Z" fill="white"/>
<path d="M178.12 251.61V199.4L185.02 202.05C189.24 203.67 191.36 208.39 189.77 212.61C188.68 215.51 189.59 218.79 192.02 220.72L244.57 262.36C246.97 264.26 248.3 267.22 248.12 270.28L244.14 339.44H222.9L220.65 280.14L178.12 251.61Z" fill="#263238"/>
<path d="M180.03 202.7L180.21 220.85L213.61 258.25C216.12 261.06 217.48 264.71 217.41 268.47C217.28 276.38 212.44 283.45 205.11 286.43L152.84 307.67L145.65 284.87L189.66 267.96L166.04 258.3C147.69 250.8 135.7 232.94 135.7 213.12L180.03 202.7Z" fill="#37474F"/>
<path d="M202.951 268.82C195.441 268.26 188.111 266.11 181.471 262.58C180.331 261.98 179.421 263.76 180.561 264.36C187.541 268.06 195.191 270.23 203.071 270.81C204.341 270.91 204.221 268.92 202.951 268.82Z" fill="#263238"/>
<path d="M195.74 272.1L190.73 269.02C190.28 268.75 189.62 268.86 189.35 269.34C189.08 269.81 189.19 270.43 189.67 270.72L194.68 273.8C195.13 274.07 195.79 273.96 196.06 273.48C196.32 273.01 196.21 272.39 195.74 272.1Z" fill="#263238"/>
<path d="M216.86 145.72C219.54 141.14 222.23 136.83 226.83 139.61C233.98 143.95 240.58 146.94 249.04 150.11L240.64 168.46C232.21 166.22 222.42 164.94 214.76 160.29C210.19 157.52 214.13 150.4 216.86 145.72Z" fill="#FF1744"/>
<path d="M258.38 155.4L249.42 151.24C247.44 157.3 244.52 162.84 240.4 167.59L257.48 172.92L296.78 168.43V158.35L258.38 155.4Z" fill="#FFC9B9"/>
<path d="M255.821 169.54L296.791 165.63V158.36L258.391 155.4L250.301 151.64C250.021 157 248.511 161.75 245.761 165.88L255.821 169.54Z" fill="#FFC9B9"/>
<path d="M255.82 169.54L245.76 165.88C248.51 161.75 250.02 157 250.3 151.64L249.05 151.06L248.66 150.89C247.28 156.86 244.92 162.78 240.54 167.62L257.49 172.91L296.79 168.42V165.61L255.82 169.54Z" fill="#FDA98F"/>
<path d="M248.351 150.18C246.501 156.32 243.681 162.1 240.001 167.35C239.261 168.4 240.941 169.48 241.681 168.43C245.461 163.05 248.361 157.07 250.261 150.77C250.631 149.54 248.731 148.94 248.351 150.18Z" fill="#D50000"/>
<path d="M190.84 207.77C191.4 203.77 192.69 199.89 194.18 196.14C200.16 181.05 208.7 166.41 219.79 154.51C223.38 150.65 227.31 147.14 231.55 144.05C220.22 132.39 201.93 122.12 184.03 118.26C176.59 116.66 169.11 120.78 166.46 127.91L152.85 144.74C133.48 168.7 127.82 200.95 137.87 230.08C160.83 214.46 185.56 212.4 190.83 214.2C190.45 212.09 190.54 209.89 190.84 207.77Z" fill="#FF1744"/>
<path d="M169.35 202.89C161.12 203.81 153.03 205.83 145.43 209.29C138.56 178.36 155.31 150.38 174.75 127.26C177.53 123.96 172.76 119.53 169.77 122.64C168.35 124.12 167.21 125.9 166.45 127.92L152.84 144.75C133.47 168.71 127.81 200.96 137.86 230.09C139.9 228.7 141.95 227.43 144.01 226.25C144.45 223.87 145.21 221.54 146.43 219.3C150.72 210.01 160.62 208.38 169.94 206.02C171.84 205.52 171.31 202.67 169.35 202.89Z" fill="#D31744"/>
<path d="M187.14 207.34C180.89 207.02 174.68 208.09 168.88 210.42C167.69 210.9 168.65 212.65 169.84 212.18C175.31 209.99 181.21 209.04 187.09 209.34C188.37 209.41 188.43 207.41 187.14 207.34Z" fill="#D31744"/>
<path d="M214.24 159.72C203.67 171.21 195.88 185.16 191.67 200.2C190.47 204.48 189.58 208.84 188.97 213.24C188.79 214.51 190.79 214.59 190.97 213.32C193.07 198.28 198.79 183.81 207.46 171.35C209.94 167.79 212.65 164.41 215.59 161.21C216.44 160.27 215.11 158.78 214.24 159.72Z" fill="#D50000"/>
<path d="M150.08 189.43C150.08 189.43 156.71 192.38 161.15 194.79C162.53 199.76 158.86 204.48 154.76 206.6C151.44 208.32 147.2 208.12 144.06 206.1C140.91 204.08 138.98 200.31 139.16 196.57L150.08 189.43Z" fill="#FFC9B9"/>
<path d="M170.02 208.16C169.12 202.37 165.59 197.38 160.51 194.49C158.44 193.31 156.55 196.5 158.63 197.68C162.96 200.14 165.68 204.22 166.45 209.13C166.81 211.48 170.38 210.5 170.02 208.16Z" fill="#FFC9B9"/>
<path d="M165.79 210.99C164.89 205.2 161.36 200.21 156.28 197.32C154.21 196.14 152.32 199.33 154.4 200.51C158.73 202.97 161.45 207.05 162.22 211.96C162.58 214.3 166.16 213.32 165.79 210.99Z" fill="#FFC9B9"/>
<path d="M160.44 212.48C159.54 206.69 156.01 201.7 150.93 198.81C148.86 197.63 146.97 200.82 149.05 202C153.38 204.46 156.1 208.54 156.87 213.45C157.23 215.8 160.8 214.82 160.44 212.48Z" fill="#FFC9B9"/>
<path d="M154.86 212.46C153.96 206.67 150.43 201.68 145.35 198.79C143.28 197.61 141.39 200.8 143.47 201.98C147.8 204.44 150.52 208.52 151.29 213.43C151.65 215.78 155.22 214.8 154.86 212.46Z" fill="#FFC9B9"/>
<path d="M150.08 189.43L136.57 150.72L175.35 136.91L167.2 119.58L117.08 136.08C113.97 137.1 112.47 140.62 113.88 143.58L139.16 196.57L150.08 189.43Z" fill="#FFC9B9"/>
<path d="M175.35 136.91L167.2 119.58L153.18 124.19C152.78 129.71 152.59 135.18 154.14 140.22C147.11 144.12 138.69 147.08 131.15 149.25C134.18 151.31 136.55 153.74 138.57 156.45L136.57 150.72L175.35 136.91Z" fill="#FDA98F"/>
<path d="M131.15 149.25C138.68 147.08 147.11 144.12 154.14 140.22C152.6 135.18 152.78 129.71 153.18 124.19L117.08 136.07C113.97 137.09 112.47 140.61 113.88 143.57L139.16 196.56L150.08 189.42L138.57 156.45C136.55 153.74 134.18 151.31 131.15 149.25Z" fill="#FFC9B9"/>
<path d="M147.77 146.86C156.65 143.43 164.99 141.17 174.67 139.27C179.97 138.23 184.37 132.99 183.11 127.17C181.93 121.69 186.18 118.35 180.41 117.91C165.79 116.79 151.07 122.68 141.5 126.25C142.07 133.26 144.22 140.47 147.77 146.86Z" fill="#FF1744"/>
<path d="M141.13 126.66C141.85 133.77 144.08 140.62 147.7 146.78C148.35 147.89 150.04 146.81 149.38 145.7C145.95 139.84 143.81 133.31 143.13 126.55C143 125.28 141 125.37 141.13 126.66Z" fill="#D50000"/>
<path d="M224.2 99.48C227.92 97.8 229.99 93.72 229.6 89.9C229.21 86.09 226.67 82.64 223.31 80.39C219.96 78.14 215.86 76.99 211.76 76.47C208.3 76.03 204.74 76.02 201.36 76.84C199.65 77.26 197.87 77.98 197 79.4C196.13 80.82 196.72 83.05 198.45 83.41C197.01 83.18 195.44 83.92 194.81 85.14C194.18 86.36 194.53 87.96 195.63 88.85C193.96 88.69 192.24 89.61 191.55 91.03C190.87 92.45 191.28 94.25 192.53 95.28C190.83 95.84 190.13 97.84 190.51 99.47C190.89 101.1 192.06 102.47 193.12 103.82C195.8 107.24 198.02 110.98 199.69 114.92C202.16 114.04 204.49 112.81 206.56 111.29" fill="#3F2500"/>
<path d="M225.76 90.26C223.6 89.84 221.43 89.98 219.24 90.24C217.38 90.46 211.68 91.69 211.68 91.69C210.32 95.65 209.66 98.29 206.46 100.99C206.16 101.25 205.82 101.51 205.42 101.52C204.89 101.53 204.3 101.13 203.79 100.98C203.07 100.77 202.37 100.5 201.67 100.23C199.48 99.38 197.1 98.19 194.96 99.79C193.18 101.12 192.71 103.82 193.71 105.8C194.72 107.78 196.98 108.97 199.2 108.96C200.09 115.27 199.91 117.59 198.95 123.89C200.05 126.88 202.87 130.62 205.49 131.44C208.11 132.26 211.07 132.28 213.5 131C213.64 127.9 213.93 124.87 214.56 121.84C216.62 122.19 218.83 122.29 220.88 121.94C221.66 121.81 222.49 121.6 223.01 121C223.4 120.55 223.56 119.96 223.71 119.38C226.13 110.2 226.72 99.95 225.76 90.26Z" fill="#FFC9B9"/>
<path d="M213.53 131.01C213.67 127.91 213.96 124.88 214.59 121.85C215.74 122.04 216.94 122.16 218.13 122.16C215.45 121.67 213.59 120.64 211.41 120.02C211.77 124.04 212.94 131.32 213.53 131.01Z" fill="#FDA98F"/>
<path d="M198.77 102.73C198.1 102.09 197.3 101.66 196.45 101.43C195.99 101.31 195.87 102.11 196.32 102.24C197.08 102.46 197.76 102.87 198.35 103.46C198.63 103.74 198.87 104.06 199.08 104.4C199.27 104.71 199.35 104.98 199.65 105.17C199.81 105.27 200.03 105.14 200.06 104.94C200.16 104.13 199.29 103.22 198.77 102.73Z" fill="#FDA98F"/>
<path d="M215.24 99.67C215.26 99.32 215.31 98.97 215.17 98.64C214.97 98.17 214.35 98.07 214.01 98.46C213.78 98.73 213.72 99.09 213.63 99.42C213.55 99.73 213.5 100.02 213.49 100.34C213.44 101.39 214.84 101.61 215.1 100.59C215.18 100.29 215.22 100 215.24 99.67Z" fill="#472C1F"/>
<path d="M225.24 98.85C225.17 98.51 225.13 98.15 224.91 97.87C224.59 97.46 223.97 97.52 223.74 97.99C223.58 98.31 223.61 98.67 223.62 99.02C223.62 99.34 223.65 99.64 223.72 99.95C223.93 100.98 225.35 100.84 225.34 99.78C225.34 99.46 225.3 99.16 225.24 98.85Z" fill="#472C1F"/>
<path d="M214.24 115.6C215.98 115.75 217.58 116.35 219.01 117.36C219.39 117.63 218.93 118.19 218.56 117.92C217.23 116.98 215.75 116.45 214.14 116.31C213.67 116.28 213.78 115.56 214.24 115.6Z" fill="#FDA98F"/>
<path d="M222.69 92.29C223.93 91.48 226.18 92.71 226.8 93.87C227.02 94.27 226.55 94.87 226.1 94.74C225.5 94.56 224.98 94.22 224.39 94.01C223.82 93.81 223.1 93.81 222.65 93.38C222.36 93.1 222.29 92.55 222.69 92.29Z" fill="#3F2500"/>
<path d="M211.91 93.62C213.1 92.19 215.76 91.81 217.51 91.93C218.34 91.99 218.24 93.22 217.48 93.34C216.56 93.49 215.67 93.6 214.77 93.89C214.01 94.13 213.24 94.52 212.44 94.6C211.94 94.65 211.57 94.03 211.91 93.62Z" fill="#3F2500"/>
<path d="M212.83 107.5C215.73 109.16 218.91 110.35 222.19 111.01C221.81 111.53 221.52 112.1 221.27 112.7C218.33 112.12 215.51 111.01 213.14 109.27C212.98 108.69 212.87 108.09 212.83 107.5Z" fill="#F3F3F3"/>
<path d="M221.26 112.7C220.99 113.34 220.76 114 220.52 114.63C218.58 114.73 216.62 114.02 215.17 112.72C214.16 111.82 213.5 110.59 213.14 109.27C215.5 111.01 218.32 112.12 221.26 112.7Z" fill="#B51C1C"/>
<path d="M199.04 123.25C200.23 130.01 206.9 133.57 213.21 130.91C214.27 130.46 214.73 132.19 213.69 132.64C206.51 135.66 198.67 131.39 197.32 123.73C197.12 122.6 198.84 122.11 199.04 123.25Z" fill="#D50000"/>
<path d="M230.27 74.12C227.84 75.41 225.43 76.75 223.06 78.16C222.93 78.04 222.8 77.92 222.67 77.79C217.97 73.28 210.99 71.29 204.62 72.66C198.26 74.02 192.7 78.69 190.26 84.73C188.07 90.16 188.15 97.13 191.45 101.85C191.33 101.95 191.22 102.06 191.1 102.17C190.16 103.06 191.53 104.52 192.47 103.63C198.36 98.07 204.62 92.92 211.2 88.24C215.51 85.16 219.95 82.29 224.52 79.62C226.73 78.32 228.96 77.08 231.23 75.88C232.37 75.28 231.41 73.52 230.27 74.12Z" fill="#FF1744"/>
<path d="M223.93 107.59C223.11 104.66 222.29 101.74 221.47 98.81C221.3 98.19 220.32 98.4 220.49 99.02C221.26 101.78 222.04 104.55 222.81 107.31C222.08 107.46 221.35 107.61 220.63 107.76C220 107.89 220.21 108.87 220.84 108.74C221.74 108.56 222.64 108.37 223.54 108.19C223.8 108.14 224 107.85 223.93 107.59Z" fill="#472C1F"/>
<path d="M219.77 77.96C210.59 85.01 201.41 92.07 192.24 99.12C191.22 99.91 192.56 101.39 193.58 100.61C202.76 93.56 211.94 86.5 221.11 79.45C222.12 78.66 220.78 77.18 219.77 77.96Z" fill="#D50000"/>
<path d="M279.79 176.2H358.81L356.07 223.46H282.53L279.79 176.2Z" fill="#D31744"/>
<path d="M356.07 223.46L358.81 237.05H279.79L282.53 223.46H356.07Z" fill="#FF1744"/>
<path d="M330.5 182.66V172.51C330.5 166.68 326.18 161.58 320.38 161.04C313.72 160.41 308.11 165.65 308.11 172.18V182.66C308.11 183.16 307.7 183.57 307.2 183.57C306.7 183.57 306.29 183.16 306.29 182.66V172.56C306.29 165.56 311.66 159.52 318.66 159.18C326.14 158.81 332.34 164.79 332.34 172.19V182.67C332.34 183.17 331.93 183.58 331.43 183.58C330.9 183.57 330.5 183.16 330.5 182.66Z" fill="#263238"/>
<path d="M324.35 164.07C324.02 163.58 324.15 162.92 324.64 162.6L328.77 159.81C329.26 159.48 329.92 159.61 330.24 160.1C330.57 160.59 330.44 161.25 329.95 161.57L325.82 164.36C325.34 164.68 324.68 164.55 324.35 164.07Z" fill="#FFC9B9"/>
<path d="M325.69 165.98C325.36 165.49 325.49 164.83 325.98 164.51L330.11 161.72C330.6 161.39 331.26 161.52 331.58 162.01C331.91 162.5 331.78 163.16 331.29 163.48L327.16 166.27C326.68 166.59 326.02 166.46 325.69 165.98Z" fill="#FFC9B9"/>
<path d="M327.48 168.07C327.15 167.58 327.28 166.92 327.77 166.6L331.9 163.81C332.39 163.48 333.05 163.61 333.37 164.1C333.7 164.59 333.57 165.25 333.08 165.57L328.95 168.36C328.47 168.69 327.81 168.56 327.48 168.07Z" fill="#FFC9B9"/>
<path d="M328.81 169.86C328.48 169.37 328.61 168.71 329.1 168.39L332.69 165.96C333.18 165.63 333.84 165.76 334.16 166.25C334.49 166.74 334.36 167.4 333.87 167.72L330.28 170.15C329.8 170.47 329.14 170.34 328.81 169.86Z" fill="#FFC9B9"/>
<path d="M160.321 323.16C154.181 304.22 148.041 285.28 141.901 266.34C141.111 263.91 137.221 264.83 138.011 267.29C144.151 286.23 150.291 305.17 156.431 324.11C157.221 326.53 161.121 325.61 160.321 323.16Z" fill="#00CFA1"/>
<path d="M139.2 256.33C138.34 253.95 137.49 251.57 136.63 249.19C136.45 248.68 136.22 248.26 135.75 247.97C135.33 247.71 134.7 247.58 134.22 247.72C133.27 248 132.37 249.08 132.75 250.14C133.61 252.52 134.46 254.9 135.32 257.28C135.5 257.79 135.73 258.21 136.2 258.5C136.62 258.76 137.25 258.89 137.73 258.75C138.68 258.48 139.58 257.39 139.2 256.33Z" fill="#00CFA1"/>
<path d="M120.77 197.13C118.37 189.14 115.97 181.14 113.56 173.15C112.82 170.7 108.93 171.62 109.67 174.1C112.07 182.09 114.47 190.09 116.88 198.08C117.62 200.53 121.52 199.6 120.77 197.13Z" fill="#00CFA1"/>
<path d="M320.73 163.51C321.33 162.99 321.4 162.07 320.87 161.47L316.42 156.34C315.9 155.74 314.98 155.67 314.38 156.2C313.78 156.72 313.71 157.64 314.24 158.24L318.69 163.37C319.21 163.97 320.13 164.03 320.73 163.51Z" fill="#FFC9B9"/>
<path d="M317.051 165.39C317.651 164.87 317.721 163.95 317.191 163.35L312.741 158.22C312.221 157.62 311.301 157.55 310.701 158.08C310.101 158.6 310.031 159.52 310.561 160.12L315.011 165.25C315.541 165.85 316.451 165.91 317.051 165.39Z" fill="#FFC9B9"/>
<path d="M313.96 167.52C314.56 167 314.63 166.08 314.1 165.48L309.65 160.35C309.13 159.75 308.21 159.68 307.61 160.21C307.01 160.73 306.94 161.65 307.47 162.25L311.92 167.38C312.44 167.98 313.36 168.04 313.96 167.52Z" fill="#FFC9B9"/>
<path d="M311.58 169.4C312.18 168.88 312.25 167.96 311.72 167.36L307.84 162.9C307.32 162.3 306.4 162.23 305.8 162.76C305.2 163.28 305.13 164.2 305.66 164.8L309.54 169.26C310.06 169.86 310.98 169.93 311.58 169.4Z" fill="#FFC9B9"/>
</g>
<defs>
<clipPath id="clip0">
<rect width="500" height="363.91" fill="white"/>
</clipPath>
</defs>
</svg>
