<svg width="19" height="19" viewBox="0 0 19 19" fill="none" xmlns="http://www.w3.org/2000/svg">
<path d="M3.91602 15.583C3.91602 15.583 6.83268 14.333 7.66602 13.4997C8.49935 12.6663 5.99935 12.6663 5.99935 8.49967C5.99935 4.33301 9.33268 4.33301 9.33268 4.33301C9.33268 4.33301 12.666 4.33301 12.666 8.49967C12.666 12.6663 10.166 12.6663 10.9993 13.4997C11.8327 14.333 14.7493 15.583 14.7493 15.583" stroke="#A0A0A0" stroke-linecap="round"/>
<path fill-rule="evenodd" clip-rule="evenodd" d="M9.33333 17.6667C13.9357 17.6667 17.6667 13.9357 17.6667 9.33333C17.6667 4.73096 13.9357 1 9.33333 1C4.73096 1 1 4.73096 1 9.33333C1 13.9357 4.73096 17.6667 9.33333 17.6667Z" stroke="#A0A0A0"/>
</svg>
