<svg width="480" height="446" viewBox="0 0 480 446" fill="none" xmlns="http://www.w3.org/2000/svg">
<g clip-path="url(#clip0)">
<path d="M187.88 387.211C177.507 383.526 167.408 379.293 157.697 374.59C95.3185 344.383 44.6056 288.306 25.6197 221.015C9.63033 164.377 19.9239 88.1611 81.5137 63.5263C96.5994 57.4964 113.344 55.7228 129.379 58.2744C146.043 60.929 160.694 70.1856 177.484 72.7486C236.821 81.8107 276.737 21.4882 334.266 20.0923C356.706 19.543 383.778 26.1108 401.174 41.0084C423.569 60.1738 437.488 88.6874 449.131 115.199C461.483 143.312 470.519 173.095 473.321 203.772C480.149 278.282 443.916 348.445 377.225 383.172C319.249 413.344 247.995 408.573 187.88 387.211Z" fill="#E7E7E7"/>
<path d="M371.023 36.1408C372.685 26.2702 366.034 16.9207 356.167 15.258C346.301 13.5954 336.955 20.2493 335.293 30.1199C333.631 39.9905 340.283 49.34 350.149 51.0026C360.016 52.6652 369.361 46.0114 371.023 36.1408Z" fill="#76B9CF"/>
<path d="M353.641 3.98193H352.669V33.1249H353.641V3.98193Z" fill="#76B9CF"/>
<path d="M357.129 3.98184C357.129 6.17871 355.345 7.96367 353.149 7.96367C350.953 7.96367 349.169 6.17871 349.169 3.98184C349.169 1.78496 350.953 0 353.149 0C355.345 0 357.129 1.78496 357.129 3.98184Z" fill="#76B9CF"/>
<path d="M339.001 7.64556L338.159 8.13184L352.725 33.3696L353.566 32.8833L339.001 7.64556Z" fill="#76B9CF"/>
<path d="M342.032 5.89252C343.13 7.7919 342.478 10.2291 340.579 11.3275C338.681 12.4259 336.245 11.7737 335.147 9.87435C334.049 7.97497 334.701 5.53781 336.599 4.43938C338.498 3.34094 340.934 3.99314 342.032 5.89252Z" fill="#76B9CF"/>
<path d="M328.171 18.1407L327.685 18.9829L352.912 33.5544L353.398 32.7121L328.171 18.1407Z" fill="#76B9CF"/>
<path d="M329.92 15.1034C331.818 16.2019 332.47 18.639 331.372 20.5384C330.274 22.4378 327.838 23.09 325.94 21.9916C324.041 20.8931 323.389 18.456 324.487 16.5566C325.585 14.6572 328.01 14.005 329.92 15.1034Z" fill="#76B9CF"/>
<path d="M353.149 32.6328H324.018V33.6054H353.149V32.6328Z" fill="#76B9CF"/>
<path d="M324.018 37.1067C326.216 37.1067 327.998 35.324 327.998 33.1249C327.998 30.9258 326.216 29.1431 324.018 29.1431C321.82 29.1431 320.038 30.9258 320.038 33.1249C320.038 35.324 321.82 37.1067 324.018 37.1067Z" fill="#76B9CF"/>
<path d="M352.919 32.7078L327.689 47.2764L328.175 48.1187L353.405 33.5502L352.919 32.7078Z" fill="#76B9CF"/>
<path d="M325.94 44.246C327.838 43.1476 330.274 43.7998 331.372 45.6992C332.47 47.5985 331.818 50.0357 329.92 51.1341C328.021 52.2326 325.585 51.5804 324.487 49.681C323.389 47.7816 324.03 45.3445 325.94 44.246Z" fill="#76B9CF"/>
<path d="M352.728 32.8867L338.163 58.1245L339.005 58.6108L353.57 33.373L352.728 32.8867Z" fill="#76B9CF"/>
<path d="M335.135 56.3632C336.233 54.4638 338.67 53.8116 340.568 54.9101C342.467 56.0085 343.119 58.4457 342.021 60.3451C340.923 62.2444 338.487 62.8966 336.588 61.7982C334.689 60.7112 334.037 58.274 335.135 56.3632Z" fill="#76B9CF"/>
<path d="M353.641 33.125H352.669V62.2679H353.641V33.125Z" fill="#76B9CF"/>
<path d="M353.149 66.2498C355.347 66.2498 357.129 64.4671 357.129 62.268C357.129 60.0689 355.347 58.2861 353.149 58.2861C350.951 58.2861 349.169 60.0689 349.169 62.268C349.169 64.4671 350.951 66.2498 353.149 66.2498Z" fill="#76B9CF"/>
<path d="M353.558 32.8794L352.716 33.3657L367.282 58.6035L368.124 58.1172L353.558 32.8794Z" fill="#76B9CF"/>
<path d="M364.266 60.3455C363.168 58.4462 363.82 56.009 365.719 54.9106C367.617 53.8121 370.054 54.4643 371.152 56.3637C372.25 58.2631 371.598 60.7002 369.699 61.7987C367.8 62.9086 365.364 62.2564 364.266 60.3455Z" fill="#76B9CF"/>
<path d="M353.389 32.7149L352.903 33.5571L378.13 48.1286L378.616 47.2863L353.389 32.7149Z" fill="#76B9CF"/>
<path d="M376.39 51.1459C374.491 50.0474 373.839 47.6103 374.937 45.7109C376.035 43.8115 378.471 43.1593 380.37 44.2577C382.269 45.3562 382.92 47.7933 381.822 49.6927C380.724 51.5921 378.288 52.2443 376.39 51.1459Z" fill="#76B9CF"/>
<path d="M382.28 32.6328H353.149V33.6054H382.28V32.6328Z" fill="#76B9CF"/>
<path d="M382.28 37.1067C380.084 37.1067 378.3 35.3218 378.3 33.1249C378.3 30.928 380.084 29.1431 382.28 29.1431C384.476 29.1431 386.26 30.928 386.26 33.1249C386.26 35.3218 384.476 37.1067 382.28 37.1067Z" fill="#76B9CF"/>
<path d="M378.126 18.118L352.898 32.6895L353.385 33.5317L378.612 18.9602L378.126 18.118Z" fill="#76B9CF"/>
<path d="M380.37 22.0033C378.471 23.1017 376.035 22.4495 374.937 20.5501C373.839 18.6508 374.491 16.2136 376.39 15.1152C378.288 14.0167 380.724 14.6689 381.822 16.5683C382.92 18.4677 382.269 20.9048 380.37 22.0033Z" fill="#76B9CF"/>
<path d="M367.288 7.62308L352.725 32.8638L353.567 33.35L368.13 8.10927L367.288 7.62308Z" fill="#76B9CF"/>
<path d="M371.163 9.87435C370.065 11.7737 367.629 12.4259 365.73 11.3275C363.831 10.2291 363.18 7.7919 364.278 5.89252C365.376 3.99314 367.812 3.34094 369.71 4.43938C371.609 5.53781 372.261 7.97497 371.163 9.87435Z" fill="#76B9CF"/>
<path d="M470.496 314.554C468.368 320.206 462.078 323.055 456.428 320.927C450.778 318.799 447.93 312.505 450.057 306.853C452.184 301.201 458.475 298.352 464.125 300.48C469.775 302.597 472.623 308.901 470.496 314.554Z" fill="#76B9CF"/>
<path d="M466.166 294.16L459.982 310.598L460.539 310.807L466.722 294.369L466.166 294.16Z" fill="#76B9CF"/>
<path d="M468.712 295.102C468.243 296.337 466.859 296.967 465.623 296.498C464.388 296.029 463.759 294.644 464.228 293.408C464.697 292.173 466.081 291.543 467.316 292.012C468.551 292.481 469.169 293.866 468.712 295.102Z" fill="#76B9CF"/>
<path d="M457.7 293.314L457.113 293.411L459.975 310.739L460.562 310.642L457.7 293.314Z" fill="#76B9CF"/>
<path d="M459.779 292.974C459.997 294.278 459.116 295.514 457.801 295.731C456.497 295.949 455.261 295.068 455.044 293.752C454.827 292.447 455.708 291.212 457.023 290.994C458.338 290.788 459.573 291.669 459.779 292.974Z" fill="#76B9CF"/>
<path d="M449.357 296.914L448.897 297.292L460.036 310.867L460.496 310.489L449.357 296.914Z" fill="#76B9CF"/>
<path d="M450.995 295.605C451.841 296.635 451.693 298.145 450.663 298.981C449.634 299.827 448.124 299.679 447.289 298.649C446.443 297.619 446.592 296.109 447.621 295.273C448.639 294.427 450.149 294.575 450.995 295.605Z" fill="#76B9CF"/>
<path d="M443.918 304.24L443.709 304.797L460.14 310.981L460.349 310.424L443.918 304.24Z" fill="#76B9CF"/>
<path d="M444.693 302.265C445.928 302.734 446.557 304.118 446.089 305.354C445.62 306.59 444.236 307.219 443 306.75C441.765 306.281 441.136 304.896 441.605 303.661C442.063 302.425 443.447 301.807 444.693 302.265Z" fill="#76B9CF"/>
<path d="M460.251 310.408L442.929 313.265L443.025 313.852L460.348 310.995L460.251 310.408Z" fill="#76B9CF"/>
<path d="M442.566 311.201C443.87 310.984 445.105 311.865 445.322 313.18C445.54 314.485 444.659 315.721 443.344 315.938C442.04 316.155 440.805 315.274 440.587 313.958C440.37 312.643 441.262 311.407 442.566 311.201Z" fill="#76B9CF"/>
<path d="M460.093 310.476L446.522 321.619L446.9 322.079L460.471 310.936L460.093 310.476Z" fill="#76B9CF"/>
<path d="M445.185 319.988C446.214 319.142 447.724 319.302 448.559 320.32C449.405 321.35 449.257 322.86 448.227 323.696C447.198 324.542 445.688 324.394 444.853 323.364C444.007 322.346 444.156 320.835 445.185 319.988Z" fill="#76B9CF"/>
<path d="M460.008 310.626L453.824 327.064L454.381 327.274L460.564 310.836L460.008 310.626Z" fill="#76B9CF"/>
<path d="M451.853 326.293C452.322 325.057 453.706 324.428 454.941 324.897C456.176 325.366 456.805 326.751 456.337 327.986C455.868 329.222 454.484 329.852 453.248 329.382C452.013 328.925 451.384 327.54 451.853 326.293Z" fill="#76B9CF"/>
<path d="M460.555 310.659L459.968 310.756L462.83 328.085L463.417 327.988L460.555 310.659Z" fill="#76B9CF"/>
<path d="M460.774 328.421C460.557 327.117 461.438 325.881 462.753 325.664C464.057 325.446 465.292 326.327 465.509 327.643C465.726 328.948 464.846 330.183 463.531 330.401C462.227 330.618 460.991 329.726 460.774 328.421Z" fill="#76B9CF"/>
<path d="M460.5 310.494L460.04 310.872L471.179 324.446L471.639 324.069L460.5 310.494Z" fill="#76B9CF"/>
<path d="M469.57 325.801C468.723 324.771 468.872 323.261 469.901 322.426C470.931 321.579 472.44 321.728 473.275 322.758C474.122 323.787 473.973 325.298 472.944 326.133C471.914 326.98 470.404 326.831 469.57 325.801Z" fill="#76B9CF"/>
<path d="M460.352 310.437L460.143 310.994L476.573 317.178L476.783 316.621L460.352 310.437Z" fill="#76B9CF"/>
<path d="M475.872 319.13C474.636 318.661 474.007 317.276 474.476 316.041C474.945 314.805 476.329 314.176 477.564 314.645C478.799 315.114 479.429 316.498 478.96 317.734C478.491 318.97 477.107 319.599 475.872 319.13Z" fill="#76B9CF"/>
<path d="M477.548 307.527L460.227 310.392L460.324 310.979L477.645 308.114L477.548 307.527Z" fill="#76B9CF"/>
<path d="M477.999 310.205C476.695 310.423 475.46 309.542 475.242 308.226C475.025 306.922 475.906 305.686 477.221 305.468C478.525 305.251 479.76 306.132 479.977 307.448C480.183 308.752 479.303 309.988 477.999 310.205Z" fill="#76B9CF"/>
<path d="M473.637 299.337L460.069 310.483L460.447 310.943L474.014 299.797L473.637 299.337Z" fill="#76B9CF"/>
<path d="M475.368 301.406C474.339 302.253 472.829 302.104 471.994 301.075C471.148 300.045 471.296 298.534 472.326 297.699C473.355 296.852 474.865 297.001 475.7 298.031C476.546 299.061 476.397 300.571 475.368 301.406Z" fill="#76B9CF"/>
<path d="M214.54 62.2108C212.413 67.8631 206.123 70.7122 200.473 68.584C194.823 66.4558 191.975 60.1626 194.102 54.5103C196.229 48.8579 202.52 46.0088 208.17 48.137C213.809 50.2538 216.668 56.5584 214.54 62.2108Z" fill="#76B9CF"/>
<path d="M210.219 41.8211L204.036 58.2588L204.593 58.4683L210.776 42.0306L210.219 41.8211Z" fill="#76B9CF"/>
<path d="M212.756 42.759C212.288 43.9947 210.904 44.624 209.668 44.1549C208.433 43.6858 207.804 42.3013 208.273 41.0655C208.742 39.8298 210.126 39.2005 211.361 39.6696C212.596 40.1387 213.214 41.5232 212.756 42.759Z" fill="#76B9CF"/>
<path d="M201.753 40.9743L201.167 41.0713L204.028 58.3995L204.615 58.3025L201.753 40.9743Z" fill="#76B9CF"/>
<path d="M203.824 40.6309C204.041 41.9353 203.16 43.1711 201.845 43.3885C200.541 43.6058 199.306 42.7248 199.089 41.409C198.871 40.1046 199.752 38.8688 201.067 38.6514C202.371 38.4455 203.606 39.3265 203.824 40.6309Z" fill="#76B9CF"/>
<path d="M193.406 44.582L192.946 44.9595L204.086 58.5343L204.545 58.1568L193.406 44.582Z" fill="#76B9CF"/>
<path d="M195.04 43.2625C195.886 44.2922 195.726 45.8026 194.708 46.6379C193.679 47.4846 192.169 47.3358 191.334 46.306C190.488 45.2763 190.648 43.7659 191.666 42.9306C192.684 42.0839 194.194 42.2327 195.04 43.2625Z" fill="#76B9CF"/>
<path d="M187.978 51.9026L187.769 52.4595L204.199 58.6436L204.409 58.0867L187.978 51.9026Z" fill="#76B9CF"/>
<path d="M188.738 49.9218C189.973 50.3909 190.602 51.7754 190.133 53.0112C189.664 54.2469 188.281 54.8762 187.045 54.4071C185.81 53.938 185.181 52.5535 185.65 51.3177C186.107 50.082 187.491 49.4641 188.738 49.9218Z" fill="#76B9CF"/>
<path d="M204.285 58.0767L186.962 60.936L187.059 61.5231L204.381 58.6638L204.285 58.0767Z" fill="#76B9CF"/>
<path d="M186.611 58.8581C187.915 58.6407 189.15 59.5218 189.367 60.8376C189.584 62.142 188.704 63.3778 187.388 63.5952C186.085 63.8126 184.849 62.9315 184.632 61.6157C184.415 60.3113 185.295 59.0755 186.611 58.8581Z" fill="#76B9CF"/>
<path d="M204.134 58.1333L190.565 69.2773L190.942 69.7372L204.512 58.5931L204.134 58.1333Z" fill="#76B9CF"/>
<path d="M189.23 67.6457C190.259 66.799 191.769 66.9592 192.604 67.9775C193.45 69.0073 193.302 70.5177 192.272 71.3529C191.243 72.1996 189.733 72.0509 188.898 71.0211C188.052 70.0028 188.2 68.4924 189.23 67.6457Z" fill="#76B9CF"/>
<path d="M204.051 58.2644L197.868 74.7021L198.424 74.9117L204.608 58.474L204.051 58.2644Z" fill="#76B9CF"/>
<path d="M195.898 73.9503C196.367 72.7146 197.751 72.0852 198.986 72.5544C200.221 73.0235 200.85 74.408 200.381 75.6437C199.913 76.8795 198.529 77.5088 197.293 77.0397C196.058 76.582 195.429 75.1975 195.898 73.9503Z" fill="#76B9CF"/>
<path d="M204.613 58.3127L204.026 58.4097L206.888 75.7379L207.474 75.6409L204.613 58.3127Z" fill="#76B9CF"/>
<path d="M204.819 76.0786C204.602 74.7742 205.482 73.5384 206.798 73.321C208.102 73.1036 209.337 73.9847 209.554 75.3005C209.771 76.6049 208.891 77.8406 207.575 78.058C206.272 78.2754 205.036 77.3944 204.819 76.0786Z" fill="#76B9CF"/>
<path d="M204.549 58.162L204.089 58.5396L215.228 72.1144L215.688 71.7369L204.549 58.162Z" fill="#76B9CF"/>
<path d="M213.614 73.4581C212.768 72.4283 212.917 70.918 213.946 70.0827C214.976 69.236 216.485 69.3962 217.32 70.4145C218.167 71.4443 218.018 72.9547 216.988 73.7899C215.959 74.6367 214.449 74.4879 213.614 73.4581Z" fill="#76B9CF"/>
<path d="M204.416 58.0896L204.207 58.6465L220.637 64.8306L220.847 64.2738L204.416 58.0896Z" fill="#76B9CF"/>
<path d="M222.909 65.6205C223.506 64.4356 223.03 62.9906 221.846 62.3931C220.661 61.7955 219.217 62.2716 218.62 63.4566C218.022 64.6415 218.498 66.0865 219.683 66.684C220.867 67.2816 222.311 66.8055 222.909 65.6205Z" fill="#76B9CF"/>
<path d="M221.586 55.2202L204.265 58.083L204.362 58.67L221.683 55.8072L221.586 55.2202Z" fill="#76B9CF"/>
<path d="M222.043 57.8627C220.739 58.0801 219.504 57.1991 219.287 55.8833C219.07 54.5789 219.95 53.3431 221.265 53.1257C222.569 52.9083 223.805 53.7894 224.022 55.1052C224.228 56.4096 223.347 57.6453 222.043 57.8627Z" fill="#76B9CF"/>
<path d="M217.703 46.9961L204.133 58.1401L204.511 58.6L218.08 47.4559L217.703 46.9961Z" fill="#76B9CF"/>
<path d="M219.413 49.0636C218.383 49.8989 216.874 49.7502 216.039 48.7318C215.192 47.702 215.341 46.1917 216.37 45.3564C217.4 44.5097 218.91 44.6584 219.744 45.6882C220.591 46.718 220.442 48.2284 219.413 49.0636Z" fill="#76B9CF"/>
<path d="M243.683 446.012C308.965 446.012 361.887 442.277 361.887 437.67C361.887 433.064 308.965 429.329 243.683 429.329C178.4 429.329 125.479 433.064 125.479 437.67C125.479 442.277 178.4 446.012 243.683 446.012Z" fill="#9DBDCF"/>
<path d="M387.873 446.012C427.863 446.012 460.282 442.277 460.282 437.67C460.282 433.064 427.863 429.329 387.873 429.329C347.882 429.329 315.463 433.064 315.463 437.67C315.463 442.277 347.882 446.012 387.873 446.012Z" fill="#9DBDCF"/>
<path d="M130.545 437.258L46.3325 440.245C39.0813 440.245 33.031 435.45 32.4362 429.226L0.0458241 94.5113C-0.628976 87.5088 5.78734 81.4902 13.9421 81.4902L98.1549 84.4766C105.406 84.4766 111.456 89.2708 112.051 95.4953L144.43 424.237C145.128 431.251 138.7 437.258 130.545 437.258Z" fill="#516A7D"/>
<path d="M142.303 437.258L58.0901 440.245C50.8388 440.245 44.7885 435.45 44.1938 429.226L11.8034 94.5113C11.1286 87.5088 17.5449 81.4902 25.6997 81.4902L109.912 84.4766C117.164 84.4766 123.214 89.2708 123.809 95.4953L156.188 424.237C156.885 431.251 150.469 437.258 142.303 437.258Z" fill="#8BA7BA"/>
<path d="M144.613 437.258L60.4002 440.245C53.1489 440.245 47.0986 435.45 46.5039 429.226L14.1249 94.5113C13.4501 87.5088 19.8664 81.4902 28.0212 81.4902L112.234 84.4766C119.485 84.4766 125.536 89.2708 126.13 95.4953L158.509 424.237C159.195 431.251 152.779 437.258 144.613 437.258Z" fill="#2A3942"/>
<path d="M149.771 429.329C148.422 430.599 146.592 431.285 144.613 431.285L60.4002 434.272C56.7861 434.272 53.7209 431.835 53.4121 428.734L48.7113 380.105L21.0445 94.0077C20.873 92.3029 21.5249 90.6781 22.8631 89.4195C24.2127 88.1494 26.0426 87.4629 28.0213 87.4629L112.234 90.4493C115.848 90.4493 118.913 92.8864 119.222 95.9872L135.246 258.728L151.601 424.729C151.761 426.445 151.121 428.07 149.771 429.329Z" fill="#70E3CE"/>
<path d="M133.599 239.665L44.1597 333.044L39.0815 280.456L131.609 221.747L133.599 239.665Z" fill="#FFF74D"/>
<path d="M149.771 429.329C148.422 430.599 146.592 431.285 144.613 431.285L60.4003 434.272C56.7862 434.272 53.721 431.835 53.4122 428.734L48.7114 380.105C68.8639 351.408 111.434 291.955 135.246 258.75L151.601 424.752C151.761 426.445 151.121 428.07 149.771 429.329Z" fill="#FCCA81"/>
<path d="M50.1753 87.4746L54.5443 94.214C55.4136 95.1637 56.6374 95.7015 57.9183 95.7243L93.2939 96.1706C94.7235 96.1935 96.0846 95.5527 96.9881 94.4314L100.98 87.4861H50.1753V87.4746Z" fill="#2A3942"/>
<path d="M72.302 394.435C77.8554 393.989 81.7581 386.157 81.0188 376.941C80.2795 367.726 75.1782 360.616 69.6247 361.062C64.0713 361.508 60.1687 369.34 60.908 378.556C61.6473 387.771 66.7485 394.88 72.302 394.435Z" fill="#48B59D"/>
<path d="M101.271 391.997C106.825 391.551 110.727 383.719 109.988 374.504C109.249 365.288 104.147 358.179 98.594 358.625C93.0405 359.071 89.1379 366.903 89.8772 376.118C90.6165 385.334 95.7178 392.443 101.271 391.997Z" fill="#48B59D"/>
<path d="M138.174 371.764C138.917 380.975 135.006 388.812 129.459 389.259C123.9 389.705 118.799 382.599 118.067 373.377C117.324 364.166 121.235 356.328 126.782 355.882C132.33 355.436 137.442 362.542 138.174 371.764Z" fill="#48B59D"/>
<path d="M88.3902 267.153C107.71 265.628 121.32 238.402 118.79 206.343C116.261 174.283 98.5482 149.531 79.2289 151.057C59.9095 152.583 46.2989 179.809 48.8287 211.868C51.3586 243.927 69.0709 268.679 88.3902 267.153Z" fill="#EFFFFB"/>
<path d="M64.2889 218.738L81.1131 238.144C83.6522 241.073 88.3872 240.272 89.8169 236.679L108.151 190.785C108.654 189.526 108.643 188.119 108.117 186.86L108.082 186.792C106.287 182.524 100.225 182.581 98.5092 186.883L83.0918 225.489L72.192 212.09C69.2412 208.463 63.3739 210.305 63.0308 214.962C62.9393 216.335 63.3853 217.697 64.2889 218.738Z" fill="#48B59D"/>
<path d="M57.6327 304.713C56.3174 304.713 55.2194 303.683 55.1508 302.356C55.0707 300.983 56.1229 299.804 57.4954 299.736L129.219 295.754C130.591 295.662 131.769 296.727 131.838 298.1C131.918 299.473 130.866 300.651 129.493 300.72L57.7699 304.702C57.7242 304.713 57.6784 304.713 57.6327 304.713Z" fill="#EFFFFB"/>
<path d="M111.434 125.405C111.411 125.405 111.388 125.405 111.365 125.405L39.6418 123.414C38.2693 123.38 37.1828 122.224 37.2171 120.851C37.2514 119.478 38.4066 118.402 39.779 118.425L111.502 120.416C112.875 120.45 113.961 121.606 113.927 122.979C113.893 124.341 112.783 125.405 111.434 125.405Z" fill="#EFFFFB"/>
<path d="M57.6326 323.902C56.3402 323.902 55.2422 322.895 55.1507 321.579C55.0592 320.206 56.0885 319.016 57.461 318.924L129.184 313.947C130.568 313.856 131.746 314.885 131.838 316.258C131.929 317.631 130.9 318.821 129.527 318.913L57.8041 323.89C57.7469 323.902 57.6898 323.902 57.6326 323.902Z" fill="#EFFFFB"/>
<path d="M152.974 153.827C152.974 153.827 148.285 137.683 148.01 135.074C147.736 132.465 146.272 123.986 150.492 121.504C154.712 119.009 152.219 111.537 156.702 110.039C161.609 108.402 167.739 108.688 172.829 108.86C179.131 109.077 187.286 111.961 189.962 118.391C191.941 123.14 189.516 131.756 188.441 136.676L152.974 153.827Z" fill="#4D3426"/>
<path opacity="0.52" d="M152.162 135.074C151.887 132.465 150.423 123.986 154.644 121.503C158.864 119.009 156.371 111.537 160.854 110.038C163.496 109.157 166.481 108.837 169.478 108.757C165.2 108.654 160.568 108.745 156.702 110.038C152.219 111.537 154.712 119.009 150.492 121.503C146.272 123.998 147.736 132.465 148.01 135.074C148.285 137.682 152.974 153.827 152.974 153.827L156.622 152.065C155.399 147.809 152.379 137.156 152.162 135.074Z" fill="#FFF200"/>
<path d="M185.822 153.576C185.33 155.853 184.381 157.214 183.191 158.084C179.326 160.91 172.898 158.439 171.079 164.171C170.69 165.418 169.901 167.146 169.524 168.839C169.215 170.201 169.192 171.551 169.844 172.604C170.153 173.084 170.736 173.588 170.599 174.217C170.462 174.835 169.707 175.201 169.169 175.396C168.071 175.796 166.802 175.762 165.647 175.67C160.637 175.293 150.87 172.981 149.509 167.032C149.143 165.441 149.623 163.793 150.092 162.226C151.865 156.299 155.788 148.232 154.85 141.973C154.861 142.019 152.791 140.761 152.574 140.475C151.899 139.628 151.602 138.564 151.647 137.5C151.75 135.246 153.752 132.923 155.742 131.985C159.356 130.291 160.763 135.097 161.941 137.648C162.353 138.552 162.856 139.697 164.011 139.216C165.326 138.69 166.413 137.648 166.367 136.195C166.321 135.051 166.013 133.941 166.436 132.82C167.431 130.234 170.576 129.033 172.257 126.973C173.504 125.44 173.435 124.067 173.493 122.259C173.538 120.897 175.025 120.394 176.112 119.97C178.125 119.204 181.625 117.957 183.683 119.272C184.987 120.119 185.433 121.973 185.959 123.334C186.554 124.89 187.355 126.378 187.812 127.968C189.688 134.811 187.309 146.791 185.822 153.576Z" fill="#FFB980"/>
<path opacity="0.52" d="M158.064 145.647C158.453 140.418 158.887 136.264 158.99 135.154C159.116 133.781 159.185 132.236 158.27 131.207C155.902 128.564 151.739 135.658 151.647 137.488C151.602 138.552 151.911 139.617 152.574 140.463C152.791 140.749 154.861 141.997 154.85 141.962C155.788 148.221 151.876 156.288 150.092 162.215C149.623 163.782 149.154 165.43 149.509 167.02C150.447 171.151 155.422 173.519 160.065 174.709C156.531 173.805 157.195 157.134 158.064 145.647Z" fill="#FFF200"/>
<path d="M187.801 127.968C187.343 126.367 186.543 124.89 185.948 123.334C185.422 121.973 184.976 120.119 183.672 119.272C181.739 118.037 178.548 119.066 176.489 119.822C176.752 128.701 177.987 137.58 171.64 143.919C169.65 146.905 162.673 142.923 161.678 145.91C158.19 154.892 157.446 165.361 160.065 174.709C162.124 175.236 164.103 175.544 165.647 175.659C166.802 175.75 168.071 175.796 169.169 175.384C169.707 175.178 170.462 174.824 170.599 174.206C170.736 173.576 170.153 173.073 169.844 172.592C169.181 171.54 169.215 170.19 169.524 168.828C169.901 167.135 170.69 165.418 171.079 164.16C172.898 158.416 179.314 160.887 183.191 158.072C184.392 157.214 185.33 155.841 185.822 153.564C187.309 146.791 189.688 134.811 187.801 127.968Z" fill="#FFB980"/>
<path d="M181.796 158.358C181.887 158.358 181.968 158.358 182.059 158.37C180.149 159.686 177.827 159.617 175.631 160.2C173.447 160.784 171.788 161.94 171.079 164.182C170.599 165.727 170.004 167.375 169.467 168.828C168.163 167.718 168.06 165.475 167.74 163.908C167.442 162.443 167.282 160.956 167.248 159.457C167.156 155.12 170.908 156.848 173.71 157.329C176.34 157.763 179.108 158.29 181.796 158.358Z" fill="#FF7657"/>
<path d="M184.781 141.012C180.972 140.486 172.635 141.642 169.398 142.134C169.444 141.985 169.432 141.825 169.295 141.71C167.98 140.509 166.664 139.182 165.246 138.106C163.771 136.996 162.066 136.092 160.511 135.108C161.232 136.813 162.272 137.26 163.622 138.358C165.257 139.685 166.904 140.99 168.574 142.271C168.254 142.317 168.071 142.351 168.071 142.351C167.076 144.422 166.813 146.756 166.916 149.033C166.962 150.097 167.099 151.162 167.305 152.214C167.453 153.004 168.071 154.034 167.717 154.823C166.447 154.354 165.109 153.015 164.045 152.157C160.225 149.068 156.84 145.452 154.015 141.424C154.575 142.225 154.667 143.255 155.124 144.102C155.662 145.109 156.531 145.99 157.274 146.848C158.452 148.21 159.733 149.445 160.934 150.773C161.781 151.699 162.615 152.58 163.656 153.301C164.4 153.816 165.177 154.297 165.989 154.709C166.333 154.88 168.094 155.361 168.197 155.67C168.391 156.253 168.529 156.608 168.529 156.608C168.529 156.608 174.419 163.519 182.059 158.393C189.699 153.267 188.509 143.667 188.509 143.667C188.509 143.667 189.573 141.676 184.781 141.012Z" fill="#48B59D"/>
<path opacity="0.52" d="M171.285 141.859C170.553 141.962 169.912 142.054 169.398 142.134C169.444 141.985 169.432 141.825 169.295 141.71C167.98 140.509 166.664 139.182 165.246 138.106C163.771 136.996 162.066 136.092 160.511 135.108C161.232 136.813 162.272 137.26 163.622 138.358C165.257 139.685 166.904 140.99 168.574 142.271C168.254 142.317 168.071 142.351 168.071 142.351C167.076 144.422 166.813 146.756 166.916 149.033C166.962 150.097 167.099 151.162 167.305 152.214C167.453 153.004 168.071 154.034 167.717 154.823C166.447 154.354 165.109 153.015 164.045 152.157C160.225 149.068 156.84 145.452 154.015 141.424C154.575 142.225 154.667 143.255 155.124 144.102C155.662 145.109 156.531 145.99 157.274 146.848C158.452 148.21 159.733 149.445 160.934 150.773C161.781 151.699 162.615 152.58 163.656 153.301C164.4 153.816 165.177 154.297 165.989 154.709C166.333 154.88 168.094 155.361 168.197 155.67C168.391 156.253 168.529 156.608 168.529 156.608C168.529 156.608 171.262 159.823 175.425 160.235C172.074 155.018 170.53 148.587 171.285 141.859Z" fill="#FFF200"/>
<path d="M173.938 173.05C172.852 174.743 170.496 176.208 168.46 175.59C167.556 175.315 166.767 174.72 166.012 174.205C164.64 173.279 163.256 172.363 161.838 171.505C159.207 169.915 156.462 168.37 153.534 167.397C152.265 166.974 150.938 166.791 149.634 166.482C148.708 166.265 147.999 165.921 148.022 164.857C148.044 163.679 148.479 162.42 148.776 161.287C148.994 160.441 149.257 159.468 149.989 158.93C151.407 157.878 153.774 159.079 155.101 159.708C158.132 161.139 160.9 163.061 163.759 164.789C166.184 166.253 168.654 167.214 171.342 168.107C172.863 168.61 174.682 169.308 174.567 171.231C174.522 171.883 174.282 172.501 173.938 173.05Z" fill="#EF5B51"/>
<path d="M119.897 427.727C116.203 425.29 116.569 420.244 114.956 416.651C112.989 412.269 109.043 408.161 104.926 405.77C100.214 403.035 92.9281 401.765 88.0902 404.981C84.2358 407.544 79.4779 414.397 83.7897 418.436C92.7108 426.881 105.555 435.004 117.335 438.62C119.874 439.398 124.781 441.927 126.588 438.769C127.697 436.824 128.635 433.792 127.286 431.572C125.707 428.986 122.253 429.283 119.897 427.727Z" fill="#3C464F"/>
<path opacity="0.52" d="M90.183 421.011C85.8826 416.972 90.629 410.118 94.4834 407.555C97.5715 405.507 101.666 405.289 105.44 406.102C105.269 405.999 105.109 405.884 104.937 405.781C100.225 403.047 92.9394 401.777 88.1014 404.992C84.247 407.555 79.4891 414.409 83.801 418.448C92.2417 426.446 104.217 434.146 115.459 438.014C106.218 433.791 97.0339 427.498 90.183 421.011Z" fill="#FFF200"/>
<path d="M170.782 335.413C169.352 341.397 169.386 347.587 164.903 352.484C163.805 353.686 162.524 354.704 161.209 355.677C160.282 356.363 159.333 357.027 158.429 357.714C156.291 359.327 154.22 361.066 152.265 362.931C148.479 366.512 145.242 370.552 142.143 374.739C138.528 379.636 135.063 384.751 130.911 389.236C128.99 391.307 126.84 393.138 124.678 394.957C123.294 396.136 121.796 397.314 120.812 398.859C120.012 400.095 119.714 401.559 118.971 402.818C118.033 404.374 116.226 405.038 115.094 406.411C114.03 407.692 113.469 409.329 113.721 410.988C113.961 412.498 115.048 414.42 113.366 415.45C111.845 416.377 109.798 416.503 108.117 416.88C105.223 417.533 102.695 418.173 99.9162 416.823C96.7138 415.244 94.941 412.613 93.0081 409.741C92.2189 408.539 91.1896 407.853 90.103 406.937C89.0165 406.022 88.5704 404.809 88.5018 403.425C88.3874 401.216 89.1652 399.065 90.5033 397.326C92.116 395.198 94.3234 393.504 96.3249 391.742C98.4065 389.923 100.477 388.058 102.467 386.113C106.516 382.131 110.095 377.794 113.321 373.103C116.615 368.332 119.611 363.343 122.928 358.583C126.13 354.006 129.699 349.899 133.954 346.249C137.808 342.953 142.634 339.841 144.968 335.173C146.008 333.125 146.512 330.813 147.244 328.651C149.989 320.63 147.804 311.476 147.129 303.101C146.569 296.144 146.237 288.398 150.686 283.008C152.276 283.397 153.889 283.775 155.479 284.164C156.908 283.866 158.464 284.004 159.87 284.484C160.866 284.828 161.781 285.308 162.65 285.903C164.32 286.315 165.989 286.716 167.659 287.116L166.504 289.313C170.702 293.81 173.767 299.393 175.414 305.332C176.031 307.529 176.455 309.771 176.649 312.014C177.415 320.561 172.749 327.22 170.782 335.413Z" fill="#345480"/>
<path opacity="0.52" d="M98.9786 415.702C98.1894 414.5 97.16 413.814 96.0735 412.898C94.987 411.983 94.5409 410.77 94.4723 409.386C94.3579 407.177 95.1356 405.026 96.4738 403.287C98.0865 401.159 100.294 399.465 102.295 397.703C104.377 395.884 106.447 394.019 108.437 392.074C112.486 388.092 116.066 383.755 119.291 379.064C122.585 374.293 125.582 369.304 128.898 364.544C132.101 359.967 135.669 355.86 139.924 352.21C143.778 348.914 148.605 345.802 150.938 341.134C151.979 339.086 152.482 336.774 153.214 334.612C155.959 326.591 153.775 317.437 153.1 309.062C152.539 302.105 152.208 294.359 156.657 288.969C158.247 289.358 159.859 289.736 161.449 290.125C162.879 289.827 164.434 289.965 165.841 290.445C166.836 290.789 167.751 291.269 168.62 291.864C168.632 291.864 168.643 291.876 168.666 291.876C167.98 290.983 167.259 290.125 166.493 289.301L167.648 287.104C165.978 286.692 164.308 286.292 162.638 285.891C161.769 285.308 160.854 284.816 159.859 284.473C158.452 283.992 156.897 283.855 155.467 284.152C153.878 283.763 152.265 283.386 150.675 282.997C146.237 288.386 146.558 296.132 147.118 303.089C147.781 311.464 149.977 320.618 147.232 328.639C146.5 330.802 145.986 333.113 144.956 335.161C142.612 339.829 137.797 342.942 133.942 346.237C129.688 349.887 126.108 353.995 122.917 358.571C119.6 363.331 116.603 368.32 113.309 373.091C110.084 377.771 106.493 382.108 102.456 386.101C100.477 388.046 98.4067 389.911 96.3137 391.73C94.3122 393.493 92.1048 395.175 90.4921 397.314C89.1539 399.053 88.3762 401.205 88.4906 403.413C88.5592 404.797 89.0052 406.01 90.0918 406.926C91.1783 407.841 92.2191 408.527 92.9969 409.729C94.8611 412.509 96.5996 415.061 99.6076 416.64C99.4017 416.331 99.1844 416.022 98.9786 415.702Z" fill="#FFF200"/>
<path d="M170.782 335.413C169.352 341.397 169.387 347.587 164.903 352.485C163.805 353.686 162.524 354.704 161.209 355.677C159.894 346.695 163.862 340.985 163.782 332.186C163.702 323.25 155.902 319.188 154.884 311.476C154.552 308.993 154.255 306.51 153.958 304.027C153.226 297.814 152.288 290.4 160.283 293.26C161.403 293.661 162.524 294.176 163.622 294.794C168.083 297.265 172.223 301.281 175.403 305.332C176.02 307.529 176.443 309.771 176.638 312.014C177.416 320.561 172.749 327.221 170.782 335.413Z" fill="#294873"/>
<path d="M149.909 285.022C150.172 287.825 150.755 290.594 152.082 293.089C153.168 295.125 154.724 296.876 156.336 298.489C158.567 300.698 161.049 302.643 163.233 304.897C165.338 307.06 166.95 309.6 168.426 312.208C171.777 318.147 174.888 324.257 178.811 329.864C180.572 332.358 182.825 334.452 184.609 336.923C185.627 338.342 185.799 340.081 186.657 341.569C187.686 343.331 189.287 344.555 189.825 346.603C190.191 348.022 190.168 349.532 189.71 350.928C189.299 352.187 188.658 353.366 188.224 354.636C187.743 355.986 187.389 357.393 187.126 358.801C186.645 361.375 186.359 363.972 186.096 366.57C185.284 374.327 184.461 382.074 183.694 389.843C183.363 393.138 183.065 396.456 182.917 399.775C182.802 402.257 182.642 404.912 183.191 407.361C183.614 409.283 184.632 410.61 183.923 412.624C183.317 414.306 182.082 415.599 181.304 417.189C180.298 419.283 180.115 421.755 179.829 424.02C179.646 425.439 179.12 427.693 179.966 429.055C180.869 430.496 183.271 430.05 184.655 429.833C187.64 429.375 190.637 428.689 193.485 427.659C196.024 426.743 198.414 425.485 200.679 424.032C202.749 422.704 205.38 421.125 206.615 418.917C207.633 417.098 207.461 414.798 207.541 412.796C207.644 409.969 208.582 407.383 208.982 404.603C209.909 398.344 208.868 391.925 209.726 385.644C210.172 382.348 211.052 379.133 211.613 375.861C212.15 372.76 212.036 369.67 212.105 366.524C212.15 364.224 212.448 362.039 213.283 359.876C214.152 357.633 215.524 355.505 215.787 353.057C216.062 350.276 215.582 347.313 215.261 344.567C214.907 341.477 214.461 338.331 213.489 335.367C212.482 332.301 210.686 329.566 209.508 326.568C208.159 323.159 207.118 319.611 205.963 316.122C203.858 309.691 201.205 303.455 198.746 297.162C197.568 294.141 196.55 291.052 195.303 288.043C194.617 286.384 193.885 284.885 192.57 283.649C191.449 282.585 190.74 281.544 190.156 280.102" fill="#40628F"/>
<path opacity="0.52" d="M190.591 424.009C190.877 421.743 191.06 419.272 192.067 417.178C192.844 415.587 194.079 414.294 194.686 412.612C195.406 410.599 194.388 409.271 193.954 407.349C193.393 404.912 193.565 402.257 193.679 399.763C193.828 396.445 194.114 393.127 194.457 389.831C195.235 382.062 196.058 374.304 196.859 366.558C197.122 363.961 197.408 361.364 197.888 358.789C198.151 357.382 198.506 355.974 198.986 354.624C199.421 353.365 200.061 352.187 200.473 350.917C200.93 349.521 200.953 348.011 200.587 346.592C200.038 344.544 198.449 343.319 197.419 341.557C196.561 340.081 196.39 338.342 195.372 336.912C193.588 334.44 191.335 332.346 189.573 329.852C185.65 324.245 182.539 318.135 179.188 312.197C177.713 309.577 176.1 307.048 173.996 304.885C171.811 302.631 169.329 300.686 167.099 298.478C165.475 296.853 163.931 295.114 162.844 293.077C161.518 290.583 160.934 287.814 160.671 285.011L190.763 281.326C190.545 280.937 190.339 280.537 190.156 280.079L149.909 285.011C150.172 287.814 150.755 290.583 152.082 293.077C153.168 295.114 154.724 296.865 156.336 298.478C158.567 300.686 161.049 302.631 163.233 304.885C165.338 307.048 166.95 309.588 168.426 312.197C171.777 318.135 174.888 324.245 178.811 329.852C180.572 332.346 182.825 334.44 184.609 336.912C185.627 338.331 185.799 340.07 186.657 341.557C187.686 343.319 189.287 344.544 189.825 346.592C190.191 348.011 190.168 349.521 189.71 350.917C189.299 352.176 188.658 353.354 188.224 354.624C187.743 355.974 187.389 357.382 187.126 358.789C186.645 361.364 186.359 363.961 186.096 366.558C185.284 374.316 184.461 382.062 183.694 389.831C183.363 393.127 183.065 396.445 182.917 399.763C182.802 402.246 182.642 404.901 183.191 407.349C183.614 409.271 184.632 410.599 183.923 412.612C183.317 414.294 182.082 415.587 181.304 417.178C180.298 419.272 180.115 421.743 179.829 424.009C179.646 425.428 179.12 427.682 179.966 429.043C180.869 430.485 183.271 430.039 184.655 429.821C186.622 429.512 188.59 429.1 190.522 428.574C190.008 427.201 190.431 425.279 190.591 424.009Z" fill="#FFF200"/>
<path d="M148.01 165.109C146.912 166.219 145.837 167.341 144.808 168.508C140.45 173.496 137.568 179.343 136.447 185.888C135.326 192.376 136.161 198.852 137.419 205.26C138.769 212.148 140.29 219.013 141.605 225.912C142.841 232.4 143.744 238.945 144.408 245.536C145.082 252.309 143.664 258.385 143.71 265.147C143.744 269.839 141.708 274.164 142.029 278.821C142.246 282.093 142.692 286.956 145.826 288.718C147.507 289.656 149.474 289.908 151.384 290.148C161.689 291.407 167.179 292.929 177.13 289.393C181.807 287.745 187.206 287.471 191.621 285.125C193.256 284.256 194.274 283.809 194.72 281.944C194.903 281.178 194.48 277.413 193.233 277.436C195.098 277.39 196.138 274.976 195.532 273.202C194.64 270.617 192.65 269.747 191.941 267.035C191.026 263.568 191.175 259.506 190.831 255.936L189.23 238.911C188.087 229.997 187 221.061 185.662 212.171C184.312 203.143 183.226 193.875 180.526 185.122C179.131 180.568 176.912 176.734 173.939 173.039L148.01 165.109Z" fill="#EF5B51"/>
<path opacity="0.52" d="M160.213 290.136C158.303 289.908 156.336 289.656 154.655 288.706C151.521 286.944 151.087 282.081 150.858 278.809C150.549 274.163 152.573 269.827 152.539 265.136C152.493 258.373 153.912 252.298 153.237 245.524C152.573 238.933 151.67 232.4 150.435 225.901C149.119 219.001 147.598 212.136 146.249 205.248C144.99 198.84 144.156 192.364 145.276 185.876C146.397 179.32 149.279 173.485 153.637 168.496C154.026 168.05 154.426 167.626 154.827 167.192L147.976 165.098C146.878 166.208 145.803 167.329 144.773 168.496C140.416 173.485 137.533 179.332 136.412 185.876C135.292 192.364 136.127 198.84 137.385 205.248C138.734 212.136 140.255 219.001 141.571 225.901C142.806 232.388 143.709 238.933 144.373 245.524C145.048 252.298 143.629 258.373 143.675 265.136C143.709 269.827 141.674 274.152 141.994 278.809C142.211 282.081 142.657 286.944 145.791 288.706C147.472 289.644 149.44 289.896 151.35 290.136C158.681 291.029 163.587 292.059 169.386 291.292C166.641 291.018 163.702 290.571 160.213 290.136Z" fill="#FFF200"/>
<path d="M146.603 233.899C147.736 239.185 149.028 244.78 152.825 248.625C155.65 251.485 159.527 253.007 163.279 254.46C171.925 257.79 180.572 261.131 189.219 264.461C188.967 258.843 188.715 253.225 188.452 247.607C177.781 243.59 168.002 237.286 159.848 229.322C155.742 225.317 152.047 220.878 148.856 216.107C147.232 213.681 143.275 204.859 142.486 212.319C141.788 218.979 145.208 227.388 146.603 233.899Z" fill="#D64238"/>
<path d="M172.12 206.655C173.538 216.552 170.69 226.85 173.115 236.553C172.715 234.94 169.581 232.411 168.552 230.935C167.122 228.887 165.852 226.736 164.743 224.505C162.478 219.962 160.889 215.088 159.997 210.099C159.105 205.11 158.91 199.984 159.482 194.95C159.814 191.975 161.289 182.318 165.235 187.993C168.815 193.142 171.239 200.499 172.12 206.655Z" fill="#D64238"/>
<path d="M181.064 429.879C180.32 432.762 180.194 436.378 181.029 439.261C181.841 442.053 184.758 442.03 187.171 442.133C195.898 442.522 204.659 442.339 213.397 442.282C218.155 442.247 222.924 442.305 227.671 442.053C229.832 441.939 233.698 442.144 235.105 439.993C236.294 438.163 235.7 435.108 235.059 433.22C234.624 431.915 233.95 431.091 232.589 430.748C230.782 430.291 228.826 430.279 226.984 430.073C223.873 429.741 220.911 429.055 218.303 427.247C215.238 425.107 212.894 422.201 209.543 420.427C208.57 419.913 207.587 419.443 206.603 418.963" fill="#3C464F"/>
<path d="M260.484 202.296C260.53 202.525 260.461 202.834 260.496 203.188C260.541 203.875 260.576 204.55 260.621 205.225L261.914 226.736C262.165 230.935 262.417 235.146 262.669 239.345C263.08 246.096 263.469 252.835 263.87 259.586C263.961 261.131 264.053 262.687 264.144 264.232C254.136 264.827 244.117 265.422 234.11 266.017C232.714 266.097 231.331 266.177 229.935 266.268L212.356 267.321C205.414 267.733 198.46 268.145 191.517 268.568L190.888 268.603C189.87 268.66 188.841 268.729 187.812 268.786C187.4 261.772 186.977 254.758 186.565 247.755C185.902 236.576 185.238 225.397 184.563 214.219C184.403 211.644 184.255 209.081 184.106 206.507C184.175 206.644 186.142 206.381 186.313 206.381C188.326 206.255 190.351 206.14 192.352 206.026C198.837 205.637 205.322 205.259 211.796 204.87C219.481 204.413 227.167 203.955 234.853 203.497C241.087 203.131 247.331 202.754 253.565 202.387C255.349 202.273 257.133 202.182 258.917 202.067C259.249 202.044 259.855 201.895 260.175 201.987C260.37 202.033 260.461 202.147 260.484 202.296Z" fill="#D49F55"/>
<path d="M261.779 202.465L184.819 206.296L187.867 267.575L264.827 263.743L261.779 202.465Z" fill="#D49F55"/>
<path d="M228.754 204.104L217.845 204.647L219.729 242.521L230.638 241.978L228.754 204.104Z" fill="#F0CD9C"/>
<path d="M261.616 202.65C261.662 202.879 261.593 203.188 261.628 203.543C261.674 204.229 261.708 204.905 261.754 205.58L263.046 227.091C263.298 231.29 263.549 235.501 263.801 239.7C264.213 246.451 264.601 253.19 265.002 259.941C265.093 261.485 265.185 263.042 265.276 264.586C255.269 265.181 245.25 265.776 235.242 266.371C233.847 266.451 232.463 266.531 231.067 266.623L213.488 267.676C206.546 268.088 199.592 268.499 192.649 268.923L187.812 268.786L255.555 257.984L260.049 202.41L261.616 202.65Z" fill="#D1773B"/>
<path d="M259.413 246.82L247.704 247.403L248.287 259.117L259.996 258.534L259.413 246.82Z" fill="#4A6570"/>
<path d="M244.038 249.97L232.329 250.553L232.419 252.37L244.128 251.787L244.038 249.97Z" fill="#4A6570"/>
<path d="M244.253 254.229L232.544 254.812L232.634 256.629L244.343 256.046L244.253 254.229Z" fill="#4A6570"/>
<path d="M224.651 251.542C223.004 251.577 221.369 252.091 219.688 252.137C215.833 252.229 212.436 250.101 209.085 248.476C197.637 242.926 185.49 237.675 174.842 230.672C172.177 228.921 163.645 209.527 165.086 209.252C158.67 210.442 152.242 211.632 145.826 212.822C148.491 221.804 149.428 238.784 159.573 243.007C167.534 246.325 175.402 250.066 183.477 253.076C192.032 256.256 201.171 257.412 209.749 260.501C216.462 262.927 221.621 270.01 229.078 270.09C230.542 270.101 232.006 269.895 233.447 269.689C234.979 269.472 236.512 269.255 238.033 269.037C238.822 268.923 239.646 268.808 240.332 268.396C241.03 267.996 241.579 267.229 241.487 266.44C240.744 266.554 238.651 264.243 237.656 263.9C235.448 263.145 233.584 262.401 232.772 260.17C233.904 263.568 238.536 262.447 240.892 261.417C237.095 258.202 231.388 253.098 226.516 251.76C225.887 251.588 225.269 251.531 224.651 251.542Z" fill="#FFB980"/>
<g opacity="0.52">
<path opacity="0.52" d="M238.845 260.833C239.063 261.245 239.326 261.588 239.623 261.886C239.68 261.863 239.737 261.851 239.794 261.828C239.429 261.588 239.097 261.256 238.845 260.833Z" fill="#FFF200"/>
<path opacity="0.52" d="M225.463 252.137C226.035 252.126 226.596 252.046 227.145 251.966C226.927 251.897 226.722 251.817 226.504 251.76C225.875 251.588 225.258 251.531 224.64 251.542C223.919 251.554 223.21 251.668 222.49 251.783C223.462 252.023 224.446 252.16 225.463 252.137Z" fill="#FFF200"/>
<path opacity="0.52" d="M215.525 260.501C206.947 257.401 197.797 256.256 189.253 253.076C181.178 250.066 173.309 246.325 165.349 243.007C155.204 238.784 154.266 221.804 151.602 212.822C156.073 211.999 160.545 211.163 165.017 210.339C164.88 209.687 164.892 209.298 165.086 209.252C158.67 210.442 152.242 211.632 145.826 212.822C148.491 221.804 149.428 238.784 159.573 243.007C167.534 246.325 175.403 250.066 183.477 253.076C192.032 256.256 201.171 257.412 209.749 260.501C216.462 262.927 221.621 270.01 229.078 270.09C230.233 270.101 231.377 269.975 232.532 269.827C226.264 268.522 221.506 262.664 215.525 260.501Z" fill="#FFF200"/>
</g>
<path d="M167.122 187.73C167.293 188.543 167.453 189.344 167.614 190.145C168.734 195.934 167.556 201.804 167.591 207.617C167.602 209.207 167.762 210.775 167.911 212.354C167.98 213.109 168.094 213.91 167.98 214.653C167.682 216.599 165.315 215.969 163.954 215.74C158.807 214.871 153.511 214.962 148.696 217.228C147.713 217.686 146.683 218.452 145.597 218.658C144.636 218.853 144.35 218.132 144.156 217.319C143.561 214.791 143.344 212.216 142.669 209.688C141.823 206.53 140.793 203.429 139.924 200.282C139.135 197.422 138.78 194.561 138.494 191.621C137.785 184.378 137.602 175.35 146.375 172.89C153.763 170.83 165.589 180.59 167.122 187.73Z" fill="#EF5B51"/>
<g opacity="0.52">
<path opacity="0.52" d="M148.376 217.342C147.781 214.814 147.564 212.239 146.889 209.71C146.043 206.552 145.014 203.452 144.144 200.305C143.355 197.444 143.001 194.584 142.715 191.643C142.006 184.401 141.823 175.373 150.595 172.913C150.652 172.901 150.709 172.89 150.767 172.878C149.211 172.558 147.724 172.535 146.375 172.913C137.602 175.373 137.785 184.412 138.494 191.643C138.78 194.584 139.146 197.444 139.924 200.305C140.793 203.452 141.823 206.552 142.669 209.71C143.355 212.239 143.572 214.814 144.156 217.342C144.35 218.166 144.636 218.887 145.597 218.681C146.569 218.498 147.495 217.869 148.388 217.411C148.388 217.388 148.376 217.365 148.376 217.342Z" fill="#FFF200"/>
</g>
<path d="M148.605 131.069C151.338 129.925 158.075 128.586 158.955 128.746C160.9 129.101 162.856 129.89 164.8 129.536C166.527 129.227 168.14 127.899 169.775 127.224C172.383 126.16 175.048 125.806 177.816 125.371C181.555 124.787 184.907 124.593 188.544 126.011C189.081 126.217 189.653 126.458 190.202 126.309C192.009 125.817 191.472 120.92 191.071 119.684C190.236 117.064 187.789 114.272 185.97 112.281C182.047 107.956 176.775 104.821 170.804 104.821C164.731 104.821 157.972 106.491 153.397 110.954C148.628 115.611 144.682 125.565 147.472 131.984C147.358 131.71 147.815 131.401 148.605 131.069Z" fill="#EF5B51"/>
<path d="M166.676 128.746C166.23 128.666 164.263 128.975 162.078 129.444C162.982 129.616 163.885 129.707 164.789 129.536C165.486 129.41 166.161 129.124 166.825 128.769C166.779 128.769 166.733 128.757 166.676 128.746Z" fill="#D64238"/>
<path opacity="0.52" d="M161.117 110.942C164.571 107.567 169.306 105.793 174.03 105.13C172.978 104.924 171.891 104.821 170.793 104.821C164.72 104.821 157.961 106.491 153.386 110.954C148.616 115.611 144.67 125.565 147.461 131.984C147.347 131.733 147.804 131.412 148.593 131.092C149.954 130.52 152.322 129.902 154.449 129.444C153.397 123.151 156.943 115.016 161.117 110.942Z" fill="#FFF200"/>
<path d="M186.108 125.291C186.909 125.462 187.721 125.691 188.533 126.011C189.07 126.217 189.642 126.458 190.191 126.309C190.717 126.16 191.037 125.645 191.232 124.959C189.551 124.879 187.869 125.027 186.108 125.291Z" fill="#D64238"/>
<path d="M176.695 109.444C180.366 108.631 184.117 111.171 185.936 114.467C187.755 117.762 188.075 121.641 188.349 125.394C188.281 124.524 171.273 126.87 170.153 126.961C167.991 121.458 169.844 110.954 176.695 109.444Z" fill="white"/>
<path d="M166.058 129.627C165.658 129.616 165.257 129.581 164.88 129.513C163.668 129.307 162.489 128.38 162.409 127.156C162.158 123.071 173.469 121.332 176.077 121.011C182.505 120.199 188.921 120.988 195.177 122.567C196.55 122.911 197.991 123.414 198.791 124.581C201.754 128.895 193.622 128.243 191.723 128.174C186.302 128.002 180.881 127.979 175.459 128.288C172.577 128.46 169.054 129.707 166.058 129.627Z" fill="#EF5B51"/>
<path d="M191.723 125.874C186.302 125.703 180.881 125.68 175.46 125.989C170.622 126.263 165.932 127.98 161.334 129.33C166.195 129.353 170.679 128.517 175.46 128.3C180.881 127.991 186.302 128.014 191.723 128.186C193.576 128.243 201.331 128.861 198.997 124.913C197.568 126.263 193.073 125.92 191.723 125.874Z" fill="#D64238"/>
<path d="M152.894 284.736C163.588 287.939 175.311 287.642 185.833 283.9C189.413 282.584 191.083 280.571 193.657 277.779C188.475 279.426 183.043 281.36 177.713 282.401C170.976 283.729 159.631 286.749 152.894 284.736Z" fill="#D64238"/>
<path d="M238.376 267.447C236.203 266.703 233.961 265.971 231.719 265.479C231.159 265.353 230.702 266.222 231.296 266.474C233.458 267.39 235.757 268.11 238.01 268.774C238.868 269.026 239.211 267.733 238.376 267.447Z" fill="#FF7657"/>
<path d="M233.332 269.506C231.308 268.648 229.021 268.179 226.882 267.687C226.39 267.573 226.219 268.259 226.676 268.431C228.689 269.186 230.816 270.056 232.932 270.445C233.47 270.548 233.916 269.747 233.332 269.506Z" fill="#FF7657"/>
<path d="M360.526 206.06C358.765 209.699 356.969 213.429 356.443 217.434C355.905 221.45 356.843 225.878 359.817 228.613C364.724 233.144 373.164 231.118 377.648 226.164C382.131 221.221 383.687 214.356 385.071 207.822C387.255 197.57 389.428 187.318 391.613 177.055C392.791 171.517 398.052 160.83 389.417 160.979C382.291 161.104 378.071 169.869 375.555 175.041C370.522 185.362 365.536 195.717 360.526 206.06Z" fill="#398F7C"/>
<path d="M362.882 210.66C361.613 210.076 360.343 209.492 359.108 208.863C353.218 205.842 347.842 201.964 342.055 198.771C338.349 196.838 334.712 194.767 331.041 192.787C328.296 191.311 324.979 188.256 321.937 187.638C321.296 189.972 322.36 192.272 323.709 194.114C318.242 194.858 312.787 195.911 307.228 196.506C306.393 198.794 307.285 201.483 309.013 203.188C310.751 204.893 313.199 205.728 315.623 205.945C321.937 206.518 328.616 203.634 334.781 205.82C338.91 207.273 342.272 211.861 345.452 214.825C350.061 219.104 354.647 223.292 359.542 227.251C363.042 226.278 364.495 224.196 365.273 220.637C366.062 217.067 366.199 212.181 362.882 210.66Z" fill="#A8652D"/>
<path d="M415.7 407.429C417.701 411.434 424.872 425.507 420.023 429.1C419.337 429.615 418.525 429.901 417.713 430.199C415.94 430.839 414.156 431.48 412.383 432.121C401.62 436.011 392.082 437.51 380.713 438.414C379.626 438.505 378.414 438.551 377.556 437.865C373.656 434.718 381.536 433.929 382.783 433.322C386.283 431.617 389.668 427.372 392.253 424.535C395.684 420.759 398.807 417.143 401.231 412.635C402.775 409.763 401.769 409.855 404.342 408.081C405.017 407.612 414.487 405.095 414.533 405.175C414.91 405.884 415.311 406.639 415.7 407.429Z" fill="#3D535C"/>
<path d="M371.415 278.077C371.438 277.035 371.449 275.983 371.472 274.942L405.372 245.249C406.161 246.474 406.905 247.744 407.579 249.037C410.37 254.38 411.903 260.261 412.086 266.28C412.246 271.749 411.308 277.161 409.947 282.448C408.392 288.523 406.653 294.542 405.372 300.686C404 307.357 402.844 314.153 400.877 320.698C399.322 325.859 397.034 330.733 397.297 336.26C397.4 338.571 397.64 341.019 398.464 343.193C399.287 345.379 400.797 347.232 402.193 349.075C405.589 353.571 408.769 358.114 411.079 363.274C413.504 368.663 414.533 374.224 415.014 380.083C415.528 386.307 415.7 392.703 417.141 398.802C417.633 400.884 418.674 402.749 419.211 404.809C419.657 406.491 419.577 408.287 419.36 410.004L404.629 413.436C403.965 411.88 403.451 410.255 403.188 408.585C402.867 406.525 403.016 404.431 402.742 402.36C402.124 397.646 400.328 393.424 398.155 389.236C395.616 384.339 393.1 379.43 390.881 374.373C388.857 369.762 387.141 364.922 384.522 360.608C382.017 356.466 378.369 353.354 375.246 349.715C373.359 347.519 371.987 345.173 371.689 342.255C371.426 339.829 371.712 337.358 371.815 334.921C371.918 332.85 371.884 330.767 371.815 328.685C371.621 322.712 371.415 316.751 371.323 310.778C371.129 299.393 372.879 286.693 371.049 275.594C369.31 265.021 367.366 255.971 375.75 247.16C383.424 239.094 396.623 236.977 406.436 242.229C407.168 244.14 406.39 246.508 404.663 247.606" fill="#59889C"/>
<path d="M398.807 414.798C399.882 419.146 403.793 434.444 398.281 436.892C397.503 437.235 396.634 437.35 395.787 437.453C393.912 437.682 392.036 437.922 390.16 438.151C380.061 439.409 370.271 439.741 360.126 439.844C355.414 439.902 348.975 437.441 356.843 434.547C362.23 432.567 367.491 429.615 372.181 426.32C376.355 423.391 380.198 420.542 383.549 416.674C385.677 414.214 384.682 414.077 387.575 412.91C388.342 412.601 398.132 412.212 398.155 412.315C398.384 413.116 398.601 413.939 398.807 414.798Z" fill="#4A6570"/>
<path d="M392.013 245.844C398.681 241.393 411.88 239.185 418.708 244.814C425.765 250.638 421.167 259.609 419.394 268.465C414.625 292.31 403.233 310.675 395.067 332.689C390.732 344.36 397.915 353.205 400.351 364.155C403.714 379.224 399.23 394.167 399.779 409.179C399.848 410.918 399.379 412.658 398.784 414.282L383.664 414.397C383.367 412.738 383.206 411.033 383.321 409.351C383.458 407.269 384.064 405.255 384.247 403.184C384.67 398.447 383.858 393.927 382.657 389.373C380.21 380.059 378.151 369.041 374.972 359.326C371.472 348.674 367.892 342.941 369.104 331.488C371.014 313.421 377.545 296.418 380.404 278.58C382.326 266.543 380.473 253.556 392.013 245.844Z" fill="#729CAD"/>
<path d="M375.818 260.387C380.473 265.662 386.661 269.667 393.511 271.257C400.362 272.847 407.854 271.909 413.87 268.259C416.112 266.898 418.205 265.09 419.188 262.664C420.172 260.238 419.783 257.115 417.747 255.478C416.169 254.208 414.007 254.037 411.983 253.922C398.269 253.144 384.556 252.355 370.843 251.577C371.357 258.476 377.019 264.643 383.847 265.765" fill="#59889C"/>
<path d="M382.166 148.358C387.839 151.562 394.804 149.021 401.152 148.495C402.307 148.358 401.003 142.454 400.797 141.847C399.081 136.653 397.32 131.343 394.026 126.973C391.396 123.494 389.257 119.787 385.837 116.938C384.945 116.194 373.839 110.221 373.794 110.999C373.451 117.487 374.377 123.677 375.189 130.153C375.829 135.348 375.463 142.225 379.512 146.333C380.359 147.168 381.251 147.831 382.166 148.358Z" fill="#4D3426"/>
<path d="M384.659 96.5367C391.064 93.6876 399.082 93.3444 404.56 95.896C415.128 100.827 416.146 111.022 417.713 121.183C418.456 125.989 423.603 141.001 419.875 144.879C418.937 145.852 417.553 146.23 416.249 146.55C412.52 147.488 408.792 148.426 405.075 149.365C402.421 150.028 399.665 150.703 396.966 150.269C390.572 149.239 390.183 144.227 387.976 139.536C385.391 134.032 381.125 129.204 378.46 123.62C375.669 117.762 372.467 109.558 376.264 103.413C378.117 100.416 381.148 98.0928 384.659 96.5367Z" fill="#4D3426"/>
<path d="M418.81 231.359C418.822 232.732 418.845 234.105 418.925 235.478C419.371 244.174 426.645 251.005 417.838 258.694C413.538 262.447 407.59 263.671 401.895 263.923C385.368 264.632 359.783 259.632 367 239.048C370.419 229.299 371.815 216.244 370.991 205.957C370.557 200.557 369.436 195.213 369.241 189.79C368.875 179.469 374.091 175.018 378.791 166.848C382.794 159.892 387.369 154.399 395.501 152.443C399.836 151.402 404.743 151.562 409.169 151.447C413.504 151.344 416.672 152.695 419.497 156.001C423.671 160.876 421.487 165.956 420.938 172.135C419.691 185.968 419.634 199.87 419.359 213.749C419.245 219.55 418.788 225.5 418.81 231.359Z" fill="#48B59D"/>
<path d="M402.524 196.208C403.222 199.012 404.812 201.495 406.39 203.909C411.811 212.273 417.244 220.637 422.665 229.013C423.1 215.786 422.345 202.513 420.412 189.423C419.943 186.219 419.348 182.901 417.507 180.235C408.757 167.592 400.706 188.851 402.524 196.208Z" fill="#398F7C"/>
<path d="M410.987 232.697C410.393 233.967 409.798 235.226 409.146 236.45C406.493 241.553 403.13 246.325 399.504 250.776C392.791 258.968 385.654 266.989 381.559 276.623C381.193 277.481 385.7 275.88 385.94 275.731C387.552 274.758 388.753 272.115 389.817 270.639C388.891 276.864 386.443 282.413 384.304 288.317C383.732 289.896 394.323 285.708 395.57 284.141C398.887 279.953 400.785 273.511 402.169 268.431C402.684 266.52 403.05 264.609 404.034 262.859C406.721 258.064 411.228 254.105 414.968 250.146C419.291 245.581 423.523 241.027 427.514 236.176C426.576 232.663 424.506 231.187 420.961 230.386C417.415 229.585 412.531 229.402 410.987 232.697Z" fill="#A8652D"/>
<path d="M414.785 205.477C415.402 208.188 416.18 210.866 416.935 213.543C417.358 215.077 417.93 216.69 417.998 218.292C418.056 220.1 416.649 222.091 415.802 223.601C414.647 225.661 413.286 227.526 411.948 229.459C411.388 230.26 409.752 232.263 411.319 232.823C412.863 233.384 415.082 232.789 416.626 232.663C419.314 232.434 422.413 232.194 424.769 233.784C425.158 234.048 425.536 234.368 425.89 234.7C426.371 235.135 427.217 236.347 427.983 236.359C428.589 236.359 428.955 235.661 429.23 235.226C429.928 234.139 430.568 233.018 431.243 231.919C433.061 229.013 435.04 225.992 435.566 222.537C436.207 218.258 435.349 213.589 434.926 209.321C434.388 204.035 433.908 198.726 432.924 193.497C432.478 191.163 431.929 188.829 431.849 186.449C431.769 184.023 431.986 181.597 431.883 179.171C431.712 175.167 430.591 171.414 428.738 167.855C426.759 164.068 424.106 160.258 420.515 157.855C418.959 156.814 417.232 155.978 415.459 155.361C414.499 155.029 413.309 154.651 412.291 154.903C410.633 155.315 410.656 157.592 410.438 158.93C409.889 162.26 407.911 164.674 407.087 167.787C405.566 173.576 405.806 179.252 408.414 184.538C411.879 191.483 413.08 197.971 414.785 205.477Z" fill="#48B59D"/>
<path d="M377.408 137.477C377.876 139.605 378.757 140.886 379.878 141.699C383.504 144.342 389.52 142.031 391.212 147.397C391.578 148.564 392.322 150.177 392.676 151.768C392.962 153.038 392.997 154.308 392.379 155.292C392.093 155.75 391.544 156.207 391.67 156.802C391.796 157.386 392.505 157.718 393.008 157.912C394.037 158.29 395.215 158.255 396.302 158.164C402.764 157.638 407.682 154.285 413.355 151.882C411.697 149.445 408.357 148.289 406.687 145.681C403.919 141.344 403.759 134.959 404.354 130.005C404.834 126 408.231 122.602 406.79 118.62C405.772 115.805 402.981 116.561 401.632 118.643C400.843 119.867 400.385 121.263 399.779 122.568C399.39 123.414 398.921 124.478 397.846 124.044C394.049 122.533 395.867 115.233 394.163 111.995C392.55 108.94 389.645 107.212 386.523 106.022C384.636 105.302 381.365 104.134 379.443 105.37C378.22 106.16 377.808 107.899 377.316 109.169C376.767 110.634 376.012 112.018 375.578 113.517C373.782 119.913 376.012 131.126 377.408 137.477Z" fill="#A8652D"/>
<path d="M395.112 95.4956C401.471 97.7725 406.561 103.7 408.494 110.519C410.232 116.629 409.455 121.08 408.105 127.133C406.916 123.586 405.715 120.027 404.525 116.48C402.981 116.824 400.877 116.732 400.396 118.414C399.996 119.799 400.648 121.229 400.042 122.751C397.88 121.366 394.918 119.364 394.106 116.778C393.362 114.432 393.282 111.446 392.928 108.997C393.202 110.885 392.013 113.093 391.99 115.027C390.537 114.833 389.062 115.13 387.609 115.222C381.113 115.656 383.069 110.919 381.879 106.823C381.799 107.453 381.308 114.318 381.182 114.318C378.677 114.398 376.172 114.478 373.667 114.558C372.547 111.595 372.638 109.478 373.873 106.48C375.783 101.834 376.664 99.1113 381.079 96.7084C385.928 94.0653 390.812 93.9509 395.112 95.4956Z" fill="#4D3426"/>
<path d="M381.182 141.95C381.102 141.95 381.022 141.95 380.942 141.95C382.726 143.175 384.911 143.117 386.958 143.667C389.005 144.216 390.561 145.291 391.224 147.397C391.67 148.838 392.231 150.383 392.734 151.745C393.958 150.703 394.049 148.61 394.358 147.145C394.644 145.772 394.792 144.376 394.815 142.98C394.907 138.918 391.396 140.543 388.765 140.978C386.283 141.401 383.698 141.893 381.182 141.95Z" fill="#96431F"/>
<path d="M378.391 125.714C381.96 125.222 389.76 126.309 392.802 126.767C392.756 126.629 392.779 126.481 392.894 126.366C395.067 124.387 397.297 122.465 399.573 120.611C400.133 120.153 400.945 120.943 400.385 121.423C398.166 123.3 395.89 125.131 393.568 126.893C393.877 126.938 394.037 126.973 394.037 126.973C395.97 130.989 394.918 136.069 394.163 138.644C396.336 137.431 398.383 136.55 400.122 134.605C402.135 132.362 402.672 129.948 403.679 127.247C403.828 126.858 404.399 126.904 404.411 127.35C404.594 132.373 398.898 138.907 393.912 139.433C393.729 139.982 393.603 140.303 393.603 140.303C393.603 140.303 388.09 146.779 380.93 141.973C373.77 137.168 374.891 128.186 374.891 128.186C374.891 128.186 373.908 126.332 378.391 125.714Z" fill="white"/>
<path d="M323.081 202.445C322.6 201.312 321.548 200.339 320.759 199.389C319.867 198.325 318.975 197.25 318.082 196.186C317.648 195.671 316.927 196.403 317.35 196.918C317.43 197.021 317.522 197.124 317.602 197.227C314.068 197.296 310.385 198.085 306.977 198.817C306.531 198.909 306.622 199.653 307.08 199.618C310.728 199.344 314.708 199.058 318.243 198.016C318.826 198.726 319.409 199.447 319.992 200.156C320.782 201.117 321.514 202.284 322.543 202.982C322.909 203.223 323.218 202.765 323.081 202.445Z" fill="#96431F"/>
<path d="M319.707 200.202C316.172 200.236 312.535 201.209 309.07 201.792C308.429 201.907 308.704 202.856 309.333 202.765C312.776 202.238 316.481 202.021 319.809 200.968C320.21 200.842 320.153 200.202 319.707 200.202Z" fill="#96431F"/>
<path d="M321.548 202.296C320.313 202.33 319.1 202.856 317.934 203.234C316.607 203.657 315.28 204.092 313.953 204.515C313.336 204.71 313.599 205.682 314.228 205.499C315.566 205.099 316.904 204.698 318.231 204.309C319.409 203.955 320.713 203.703 321.742 203.039C322.062 202.845 321.96 202.284 321.548 202.296Z" fill="#96431F"/>
<path d="M392.642 276.394C391.487 276.509 390.057 280.227 387.324 287.699C387.164 288.134 387.85 288.409 388.067 288.02C390.012 284.53 392.242 280.559 393.34 276.703C393.477 276.257 393.065 276.36 392.642 276.394Z" fill="#96431F"/>
<path d="M395.741 277.31C394.655 280.925 393.786 284.049 391.121 286.887C390.709 287.333 391.361 287.985 391.796 287.562C394.38 285.01 396.725 281.177 396.45 277.401C396.428 277.001 395.867 276.898 395.741 277.31Z" fill="#96431F"/>
</g>
<defs>
<clipPath id="clip0">
<rect width="480" height="446" fill="white"/>
</clipPath>
</defs>
</svg>
