<svg width="440" height="443" viewBox="0 0 440 443" fill="none" xmlns="http://www.w3.org/2000/svg">
<path opacity="0.3" d="M389.926 374.159C381.054 383.498 372.657 389.539 366.034 394.296C288.083 450.266 195.84 433.951 176.226 429.971C147.264 424.089 91.3193 412.72 50.8544 365.105C-10.35 293.073 -0.827922 179.578 46.6558 104.676C55.3381 90.9767 101.206 14.917 194.446 2.72396C250.866 -4.66479 316.649 10.2237 364.275 50.1642C464.265 133.993 457.151 303.332 389.926 374.159Z" fill="url(#paint0_linear)"/>
<path d="M3.18271 49.4051C2.46974 47.7561 4.67202 46.1706 6.38315 47.1061C23.6687 56.5719 66.526 86.5391 69.1878 152.134C72.5308 234.425 97.1995 260.159 124.546 273.62C124.546 273.62 89.9589 271.274 63.7375 245.365C-0.65148 181.768 15.9686 78.7223 3.18271 49.4051Z" fill="url(#paint1_linear)"/>
<path d="M19.215 72.3786C22.7323 80.9724 26.0437 89.6138 28.9906 98.3819C31.9851 107.118 34.6627 115.966 37.0234 124.861C39.3366 133.772 41.4596 142.746 43.1391 151.784C44.866 160.822 46.1335 169.939 47.3852 179.087C48.6844 188.236 49.936 197.448 52.2809 206.533C54.6099 215.603 58.2382 224.514 63.6567 232.505C65.0034 234.503 66.4135 236.469 67.9345 238.34C69.4238 240.243 71.0082 242.082 72.6243 243.905C75.8881 247.52 79.4529 250.945 83.3188 254.101C91.0505 260.411 99.923 265.628 109.398 269.687C110.396 270.115 111.647 269.734 112.186 268.846C112.725 267.974 112.376 266.928 111.41 266.484C109.144 265.437 106.894 264.375 104.708 263.218C103.599 262.663 102.537 262.044 101.444 261.458C100.383 260.839 99.3051 260.253 98.2753 259.602C94.1084 257.066 90.1474 254.259 86.4717 251.199C79.0885 245.126 72.7669 238.023 67.586 230.396C65.0351 226.559 62.8328 222.548 60.995 218.378C59.1571 214.208 57.6995 209.911 56.527 205.503C54.1663 196.703 52.8513 187.586 51.4729 178.453C50.0786 169.32 48.6052 160.156 46.7039 151.086C45.7691 146.551 44.7393 142.033 43.6144 137.53C43.0599 135.278 42.4736 133.042 41.8716 130.791C41.2537 128.555 40.6199 126.32 39.9703 124.1C37.3403 115.205 34.3933 106.389 31.1137 97.7002C27.8023 89.0112 24.2058 80.4333 20.2449 71.9822C20.134 71.7444 19.8171 71.6334 19.5319 71.7444C19.2626 71.8554 19.12 72.1408 19.215 72.3786Z" fill="white"/>
<path d="M77.2504 234.298C75.7611 236.597 72.4181 236.629 70.8496 234.377C62.2464 221.962 41.1109 184.654 55.6237 134.565C67.8868 92.2625 70.5168 68.1619 70.9605 57.1422C71.0555 54.8114 74.0658 53.9552 75.3809 55.8896C89.8145 77.1679 131.167 151.04 77.2504 234.298Z" fill="url(#paint2_linear)"/>
<path d="M73.6393 233.473C73.5759 233.505 73.5125 233.52 73.4333 233.52C72.8471 233.616 72.3084 233.219 72.1975 232.648C72.0866 231.982 61.3445 165.943 75.7465 106.358C75.8891 105.787 76.4595 105.438 77.0298 105.565C77.6002 105.708 77.9488 106.279 77.822 106.849C63.531 166.007 74.1938 231.618 74.3047 232.284C74.3998 232.823 74.0987 233.298 73.6393 233.473Z" fill="white"/>
<path d="M85.0317 78.3069C85.0317 63.2281 97.2473 51.0034 112.315 51.0034H344.394C357.196 51.0034 367.748 61.0401 368.413 73.8356L385.54 410.562C386.047 420.583 378.173 429.018 368.16 429.209L102.175 434.045C92.7635 434.219 85.0317 426.624 85.0317 417.206V78.3069Z" fill="url(#paint3_linear)"/>
<path d="M141.039 428.306L111.269 427.926C101.319 427.799 93.2227 419.586 93.2227 409.628V364.662C93.2227 364.313 93.5078 364.027 93.8564 364.027C94.205 364.027 94.4902 364.313 94.4902 364.662V409.628C94.4902 418.888 102.016 426.531 111.285 426.657L141.039 427.038C141.388 427.038 141.673 427.323 141.673 427.688C141.673 428.037 141.388 428.306 141.039 428.306Z" fill="white"/>
<path d="M93.8564 351.359C93.5078 351.359 93.2227 351.074 93.2227 350.725V343.447C93.2227 343.099 93.5078 342.813 93.8564 342.813C94.205 342.813 94.4902 343.099 94.4902 343.447V350.725C94.4902 351.074 94.205 351.359 93.8564 351.359Z" fill="white"/>
<path d="M104.043 56.1728C104.011 51.3527 108.258 47.6107 113.027 48.2608C144.714 52.5577 253.703 65.8606 343.807 58.9475C347.91 58.6304 351.475 61.754 351.697 65.8606L369.664 404.078C369.917 408.708 366.368 412.688 361.742 412.957C323.843 415.209 167.783 423.882 112.108 418.047C108.717 417.698 106.15 414.844 106.135 411.435L104.043 56.1728Z" fill="url(#paint4_linear)"/>
<path opacity="0.6" d="M107.767 64.6582C107.736 60.0125 111.823 56.4133 116.418 57.0475C146.917 61.1858 251.787 73.9814 338.5 67.322C342.461 67.0207 345.883 70.0175 346.089 73.9814L363.374 399.467C363.612 403.922 360.206 407.743 355.753 408.013C319.281 410.169 169.098 418.525 115.515 412.912C112.251 412.564 109.779 409.821 109.764 406.538L107.767 64.6582Z" fill="white"/>
<path opacity="0.52" d="M136.002 89.7406L139.234 159.521C139.345 161.836 141.215 163.691 143.544 163.755C156.456 164.12 196.7 165.103 219.42 163.913C221.986 163.787 224.03 161.694 224.109 159.125C224.537 146.044 225.488 107.943 222.509 92.0238C222.034 89.4552 219.816 87.5684 217.201 87.4733L140.866 84.8095C138.125 84.7144 135.875 86.9976 136.002 89.7406Z" fill="white"/>
<g opacity="0.6">
<path opacity="0.6" d="M328.978 95.8291C329.374 95.8291 329.691 95.512 329.675 95.1156L329.58 91.8652C329.564 91.4688 329.231 91.1359 328.835 91.1359L241.124 89.5662C240.728 89.5662 240.506 89.8516 240.649 90.2321L242.376 95.1473C242.503 95.512 242.93 95.8291 243.326 95.8291H328.978Z" fill="white"/>
</g>
<g opacity="0.6">
<path opacity="0.6" d="M241.14 106.785C240.744 106.785 240.522 107.07 240.664 107.451L242.391 112.366C242.518 112.731 242.946 113.048 243.342 113.048H328.978C329.374 113.048 329.691 112.731 329.675 112.334L329.58 109.084C329.564 108.687 329.231 108.354 328.835 108.354L241.14 106.785Z" fill="white"/>
</g>
<g opacity="0.6">
<path opacity="0.6" d="M241.14 124.782C240.744 124.782 240.522 125.068 240.664 125.448L242.391 130.363C242.518 130.728 242.946 131.045 243.342 131.045H328.978C329.374 131.045 329.691 130.728 329.675 130.332L329.58 127.081C329.564 126.685 329.231 126.352 328.835 126.352L241.14 124.782Z" fill="white"/>
</g>
<g opacity="0.6">
<path opacity="0.6" d="M337.105 185.683C337.501 185.683 337.802 185.366 337.77 184.969L337.548 181.719C337.517 181.323 337.184 181.006 336.788 180.99L136.697 179.404C136.301 179.404 136.175 179.658 136.428 179.959L140.532 185.112C140.785 185.413 141.308 185.667 141.704 185.667H337.105V185.683Z" fill="white"/>
</g>
<g opacity="0.6">
<path opacity="0.6" d="M136.697 192.422C136.301 192.422 136.175 192.675 136.428 192.977L140.532 198.13C140.785 198.431 141.308 198.685 141.704 198.685H337.121C337.517 198.685 337.818 198.368 337.786 197.971L337.565 194.721C337.533 194.324 337.2 194.007 336.804 193.991L136.697 192.422Z" fill="white"/>
</g>
<path opacity="0.6" d="M137.822 214.16C142.543 213.795 151.368 213.637 156.232 213.557C158.292 213.526 160.098 214.921 160.573 216.935C161.508 220.819 162.807 227.59 162.649 234.74C162.601 236.881 160.843 238.593 158.704 238.578L140.769 238.387C138.566 238.371 136.728 236.675 136.522 234.471L134.938 217.585C134.78 215.841 136.063 214.287 137.822 214.16Z" fill="white"/>
<g opacity="0.6">
<path opacity="0.6" d="M168.988 221.009C168.592 220.994 168.322 221.295 168.37 221.691L169.4 228.541C169.463 228.937 169.827 229.254 170.223 229.254H217.786C218.182 229.254 218.499 228.937 218.499 228.541L218.436 223.8C218.436 223.404 218.103 223.071 217.707 223.055L168.988 221.009Z" fill="white"/>
</g>
<path opacity="0.6" d="M235.531 214.16C240.252 213.795 249.077 213.637 253.941 213.557C256.001 213.526 257.807 214.921 258.282 216.935C259.217 220.819 260.516 227.59 260.358 234.74C260.31 236.881 258.552 238.593 256.413 238.578L238.478 238.387C236.275 238.371 234.437 236.675 234.231 234.471L232.647 217.585C232.489 215.841 233.772 214.287 235.531 214.16Z" fill="white"/>
<g opacity="0.6">
<path opacity="0.6" d="M266.696 221.009C266.3 220.994 266.03 221.295 266.078 221.691L267.108 228.541C267.171 228.937 267.535 229.254 267.931 229.254H315.494C315.89 229.254 316.207 228.937 316.207 228.541L316.144 223.8C316.144 223.404 315.811 223.071 315.415 223.055L266.696 221.009Z" fill="white"/>
</g>
<g opacity="0.6">
<path opacity="0.6" d="M132.436 271.923C133.054 273.746 135.162 274.999 137.57 274.983L333.921 273.683C336.14 273.667 337.914 272.24 337.866 270.512C337.819 268.831 336.06 267.483 333.906 267.467L137.554 266.77C134.1 266.754 131.565 269.307 132.436 271.923Z" fill="white"/>
</g>
<g opacity="0.6">
<path opacity="0.6" d="M132.435 307.423C133.053 309.247 135.161 310.499 137.569 310.484L333.92 309.183C336.139 309.168 337.913 307.741 337.865 306.012C337.818 304.332 336.059 302.984 333.905 302.968L137.553 302.27C134.099 302.239 131.564 304.807 132.435 307.423Z" fill="white"/>
</g>
<g opacity="0.6">
<path opacity="0.6" d="M132.435 342.908C133.053 344.732 135.161 345.984 137.569 345.968L333.92 344.668C336.139 344.652 337.913 343.225 337.865 341.497C337.818 339.816 336.059 338.469 333.905 338.453L137.553 337.755C134.099 337.739 131.564 340.292 132.435 342.908Z" fill="white"/>
</g>
<g opacity="0.6">
<path opacity="0.6" d="M132.435 378.409C133.053 380.232 135.161 381.485 137.569 381.469L333.92 380.169C336.139 380.153 337.913 378.726 337.865 376.998C337.818 375.317 336.059 373.969 333.905 373.953L137.553 373.256C134.099 373.24 131.564 375.793 132.435 378.409Z" fill="white"/>
</g>
<path d="M213.525 104.059C213.145 103.583 212.543 103.393 211.893 103.409L153.636 104.63L152.162 99.9524C151.956 99.3024 151.339 98.8901 150.657 98.906L142.656 99.1121C141.801 99.1279 141.104 99.7305 141.104 100.587C141.104 101.443 141.801 101.998 142.656 101.982L149.485 101.823L161.859 141.367C162.065 142.033 162.699 142.493 163.396 142.493L204.288 143.048C205.255 143.064 206.031 142.461 206.031 141.558C206.031 140.654 205.255 140.036 204.288 140.02L164.6 139.592L161.415 129.317L205.033 129.381C205.92 129.381 206.713 128.794 206.966 127.985L213.858 105.708C214.032 105.137 213.906 104.535 213.525 104.059Z" fill="url(#paint5_linear)"/>
<path d="M169.382 144.951C166.023 144.904 163.298 147.52 163.298 150.786C163.298 154.052 166.023 156.795 169.382 156.875C172.772 156.97 175.529 154.338 175.529 151.04C175.545 147.742 172.772 144.999 169.382 144.951ZM169.382 153.703C167.813 153.672 166.53 152.387 166.53 150.865C166.53 149.327 167.813 148.106 169.382 148.138C170.966 148.17 172.25 149.438 172.25 150.976C172.25 152.514 170.966 153.735 169.382 153.703Z" fill="url(#paint6_linear)"/>
<path d="M196.65 145.378C193.117 145.331 190.265 148.01 190.265 151.356C190.265 154.701 193.117 157.508 196.65 157.603C200.199 157.698 203.114 155.019 203.114 151.625C203.098 148.232 200.199 145.426 196.65 145.378ZM196.65 154.337C195.002 154.305 193.655 152.989 193.655 151.419C193.655 149.85 195.002 148.597 196.65 148.629C198.297 148.66 199.66 149.961 199.66 151.546C199.644 153.132 198.297 154.384 196.65 154.337Z" fill="url(#paint7_linear)"/>
<path d="M242.755 5.08709C234.373 -0.747796 227.069 -0.636806 221.952 0.885339C217.278 2.26478 214.236 6.78365 214.68 11.6513L216.898 35.8154L243.23 38.1462C243.214 38.162 259.185 16.5349 242.755 5.08709ZM231.173 24.5896C227.545 24.5896 224.614 21.6404 224.614 18.0253C224.614 14.3944 227.561 11.4611 231.173 11.4611C234.801 11.4611 237.732 14.4102 237.732 18.0253C237.732 21.6404 234.801 24.5896 231.173 24.5896Z" fill="url(#paint8_linear)"/>
<path d="M219.528 25.6502C219.195 25.6502 218.925 25.3965 218.894 25.0794L218.545 21.2265C218.514 20.8776 218.767 20.5605 219.116 20.5288C219.464 20.4971 219.781 20.7508 219.813 21.0996L220.161 24.9526C220.193 25.3014 219.939 25.6185 219.591 25.6502C219.559 25.6502 219.543 25.6502 219.528 25.6502ZM218.83 18.1029C218.498 18.1029 218.228 17.8492 218.197 17.5321L217.927 14.6146C217.5 9.98479 220.415 5.67205 224.851 4.35603C227.988 3.42054 231.236 3.2937 234.468 3.95963C234.817 4.02306 235.039 4.37188 234.959 4.70485C234.896 5.05368 234.563 5.27566 234.215 5.19638C231.173 4.57801 228.147 4.70485 225.2 5.56106C221.35 6.70267 218.815 10.4605 219.179 14.4878L219.448 17.4053C219.48 17.7541 219.226 18.0712 218.878 18.1029C218.862 18.1029 218.846 18.1029 218.83 18.1029Z" fill="white"/>
<path d="M180.95 51.4324V39.2869C180.95 35.0852 184.42 31.7396 188.619 31.8823L272.337 34.7522C276.06 34.8791 279.055 37.8124 279.276 41.5226L279.974 53.1924L180.95 51.4324Z" fill="url(#paint9_linear)"/>
<path d="M212.176 36.4504H208.579C208.231 36.4504 207.945 36.1649 207.945 35.8161C207.945 35.4673 208.231 35.1819 208.579 35.1819H212.176C212.524 35.1819 212.809 35.4673 212.809 35.8161C212.809 36.1649 212.524 36.4504 212.176 36.4504Z" fill="white"/>
<path d="M185.48 47.6276C185.132 47.6276 184.847 47.3422 184.847 46.9934V42.0781C184.847 38.2728 187.936 35.1968 191.723 35.1968H204.952C205.301 35.1968 205.586 35.4822 205.586 35.831C205.586 36.1798 205.301 36.4652 204.952 36.4652H191.723C188.633 36.4652 186.114 38.9863 186.114 42.0781V46.9934C186.114 47.3422 185.829 47.6276 185.48 47.6276Z" fill="white"/>
<path d="M146.836 54.508C147.042 50.3063 150.512 46.9924 154.71 46.9924H301.122C306.383 46.9924 310.882 50.7819 311.785 55.9826L311.912 56.6961C312.894 62.3883 308.522 67.589 302.754 67.589H152.556C149.102 67.589 146.361 64.7032 146.519 61.2467L146.836 54.508Z" fill="url(#paint10_linear)"/>
<path d="M210.276 422.488V332.443C210.276 320.615 200.77 310.991 188.95 310.864C153.476 310.483 80.2937 310.452 20.436 315.51C12.2607 316.191 5.90733 322.898 5.62215 331.096L0.0134609 418.143C-0.398476 429.655 8.69583 439.279 20.2142 439.501L189.679 442.72C200.975 442.942 210.276 433.825 210.276 422.488Z" fill="url(#paint11_linear)"/>
<path d="M189.727 342.194C189.885 349.853 189.648 362.014 189.458 369.863C189.363 373.953 185.782 377.061 181.726 376.585L152.526 373.161C148.644 372.701 145.903 369.117 146.474 365.249L150.054 341.322C150.561 337.929 153.477 335.408 156.915 335.408H182.787C186.558 335.408 189.648 338.421 189.727 342.194Z" fill="white"/>
<path opacity="0.37" d="M113.422 387.526L89.0699 390.158C85.6635 390.523 82.7482 387.716 83.0017 384.291L88.3252 311.783C98.5286 311.466 108.605 311.228 118.317 311.054V382.056C118.317 384.878 116.21 387.225 113.422 387.526Z" fill="white"/>
<path d="M103.44 374.968C103.361 376.268 102.284 377.283 101 377.283C100.953 377.283 100.905 377.283 100.858 377.283C99.5111 377.204 98.4812 376.046 98.5604 374.698L102.236 311.418C103.884 311.371 105.516 311.339 107.148 311.307L103.44 374.968Z" fill="white"/>
<path d="M176.226 365.026C176.654 365.026 177.018 364.693 177.034 364.265L178.302 344.335C178.333 343.891 177.985 343.494 177.541 343.463C177.066 343.431 176.702 343.78 176.67 344.224L175.402 364.154C175.371 364.598 175.719 364.995 176.163 365.026C176.179 365.026 176.21 365.026 176.226 365.026Z" fill="url(#paint12_linear)"/>
<path d="M173.612 365.027C174.056 365.027 174.42 364.679 174.436 364.235L175.102 343.923C175.117 343.479 174.769 343.099 174.309 343.083C173.787 343.051 173.486 343.416 173.47 343.876L172.804 364.187C172.788 364.631 173.137 365.012 173.596 365.027H173.612Z" fill="url(#paint13_linear)"/>
<path d="M170.095 365.026C169.652 365.01 169.303 364.63 169.319 364.17C169.636 357.352 170.254 344.335 170.27 343.891C170.27 343.447 170.634 343.082 171.093 343.082C171.537 343.082 171.917 343.447 171.917 343.907C171.917 344.24 171.125 360.92 170.967 364.265C170.951 364.709 170.586 365.042 170.159 365.042C170.127 365.026 170.111 365.026 170.095 365.026ZM170.254 343.891H170.27H170.254Z" fill="url(#paint14_linear)"/>
<path d="M164.693 365.851C165.565 365.851 166.294 365.154 166.325 364.282C167.023 344.605 166.896 344.161 166.817 343.86C166.579 342.988 165.676 342.48 164.804 342.718C164.012 342.94 163.505 343.717 163.616 344.51C163.664 345.699 163.299 357.147 163.062 364.171C163.03 365.074 163.727 365.835 164.63 365.867C164.646 365.851 164.678 365.851 164.693 365.851Z" fill="url(#paint15_linear)"/>
<path d="M161.144 365.027C161.588 365.027 161.968 364.663 161.968 364.203V344.272C161.968 343.828 161.604 343.448 161.144 343.448C160.701 343.448 160.32 343.812 160.32 344.272V364.203C160.336 364.663 160.701 365.027 161.144 365.027Z" fill="url(#paint16_linear)"/>
<path d="M158.294 365.027C158.737 365.027 159.102 364.678 159.118 364.234C159.276 357.305 159.64 346 159.973 344.636C160.116 344.383 160.116 344.05 159.941 343.796C159.688 343.416 159.181 343.32 158.817 343.558C158.373 343.844 157.945 344.129 157.501 364.202C157.486 364.646 157.85 365.027 158.294 365.043V365.027Z" fill="url(#paint17_linear)"/>
<path d="M180.616 366.85C181.471 366.85 182.2 366.168 182.248 365.296L183.341 344.366C183.388 343.463 182.691 342.702 181.788 342.654C180.933 342.591 180.124 343.304 180.077 344.208L178.984 365.137C178.936 366.041 179.633 366.802 180.536 366.85C180.552 366.85 180.584 366.85 180.616 366.85Z" fill="url(#paint18_linear)"/>
<path d="M181.819 299.163V235.93C181.819 227.622 175.149 220.867 166.847 220.772C141.924 220.502 90.5431 220.487 48.4938 224.038C42.7583 224.53 38.2904 229.223 38.0844 234.995L34.1552 296.134C33.87 304.221 40.255 310.975 48.3353 311.134L167.338 313.401C175.307 313.528 181.819 307.122 181.819 299.163Z" fill="url(#paint19_linear)"/>
<path d="M167.402 242.764C167.513 248.139 167.355 256.685 167.212 262.203C167.149 265.073 164.63 267.261 161.778 266.928L141.276 264.518C138.551 264.2 136.618 261.679 137.03 258.952L139.549 242.145C139.914 239.767 141.957 237.991 144.366 237.991H162.538C165.168 238.007 167.339 240.116 167.402 242.764Z" fill="white"/>
<path opacity="0.37" d="M113.804 274.618L96.6927 276.457C94.3003 276.711 92.2565 274.745 92.4308 272.335L96.1699 221.422C103.347 221.2 110.413 221.026 117.242 220.915V270.781C117.258 272.747 115.769 274.396 113.804 274.618Z" fill="white"/>
<path d="M106.801 265.786C106.753 266.706 105.993 267.404 105.089 267.404C105.058 267.404 105.026 267.404 104.994 267.404C104.044 267.356 103.315 266.532 103.378 265.58L105.961 221.137C107.117 221.105 108.258 221.089 109.415 221.057L106.801 265.786Z" fill="white"/>
<path d="M157.913 258.809C158.214 258.809 158.467 258.571 158.483 258.27L159.371 244.27C159.386 243.952 159.149 243.683 158.832 243.667C158.499 243.635 158.246 243.889 158.23 244.206L157.343 258.207C157.327 258.524 157.564 258.793 157.881 258.809C157.897 258.809 157.897 258.809 157.913 258.809Z" fill="url(#paint20_linear)"/>
<path d="M156.089 258.809C156.39 258.809 156.659 258.571 156.659 258.254L157.119 243.984C157.134 243.667 156.881 243.398 156.564 243.398C156.2 243.382 155.978 243.635 155.978 243.953L155.518 258.223C155.502 258.54 155.756 258.809 156.073 258.809H156.089Z" fill="url(#paint21_linear)"/>
<path d="M153.619 258.809C153.302 258.793 153.064 258.524 153.08 258.207C153.302 253.418 153.745 244.27 153.745 243.968C153.745 243.651 153.999 243.397 154.316 243.397C154.633 243.397 154.886 243.651 154.886 243.968C154.886 244.206 154.332 255.923 154.221 258.254C154.205 258.555 153.951 258.793 153.65 258.793C153.634 258.809 153.619 258.809 153.619 258.809Z" fill="url(#paint22_linear)"/>
<path d="M149.815 259.38C150.433 259.38 150.94 258.889 150.956 258.27C151.447 244.444 151.352 244.143 151.304 243.937C151.146 243.318 150.496 242.97 149.894 243.128C149.34 243.287 148.975 243.826 149.055 244.381C149.086 245.205 148.833 253.26 148.659 258.191C148.643 258.825 149.134 259.364 149.768 259.38C149.783 259.38 149.799 259.38 149.815 259.38Z" fill="url(#paint23_linear)"/>
<path d="M147.327 258.809C147.644 258.809 147.898 258.556 147.898 258.238V244.238C147.898 243.921 147.644 243.667 147.327 243.667C147.01 243.667 146.757 243.921 146.757 244.238V258.238C146.757 258.556 147.01 258.809 147.327 258.809Z" fill="url(#paint24_linear)"/>
<path d="M145.317 258.81C145.634 258.81 145.888 258.556 145.888 258.255C145.999 253.387 146.252 245.443 146.49 244.492C146.585 244.317 146.585 244.08 146.474 243.889C146.3 243.62 145.951 243.556 145.682 243.731C145.365 243.937 145.08 244.127 144.747 258.223C144.747 258.54 145.001 258.81 145.317 258.81Z" fill="url(#paint25_linear)"/>
<path d="M161.001 260.077C161.603 260.077 162.11 259.601 162.142 258.983L162.902 244.285C162.934 243.651 162.443 243.111 161.809 243.08C161.207 243.032 160.636 243.54 160.605 244.174L159.844 258.872C159.813 259.506 160.304 260.045 160.937 260.077C160.953 260.077 160.985 260.077 161.001 260.077Z" fill="url(#paint26_linear)"/>
<path d="M356.593 97.3824L404.568 59.8203C404.742 59.6776 404.869 59.5032 404.932 59.2812L407.911 49.5458C407.99 49.2763 408.164 49.0543 408.402 48.9275L410.335 47.8334C410.525 47.7224 410.747 47.6749 410.968 47.6907L416.973 48.2774C417.464 48.3249 417.845 48.6896 417.924 49.1812L418.383 51.9876C418.431 52.2572 418.367 52.5426 418.209 52.7645L417.401 53.9379C417.163 54.2708 417.147 54.7148 417.338 55.0636C417.559 55.46 417.512 55.9515 417.195 56.3004C416.197 57.4103 413.694 59.8679 409.685 61.5803C409.542 61.6437 409.416 61.723 409.321 61.834L363.358 110.241C362.962 110.701 356.07 97.7788 356.593 97.3824Z" fill="url(#paint27_linear)"/>
<path d="M411.618 56.2068C411.57 56.2068 411.539 56.1909 411.491 56.1751C411.364 56.1116 411.333 55.9531 411.396 55.8421C411.459 55.7311 412.869 53.1942 414.66 53.7333C416.054 54.1614 416.45 54.0028 416.45 54.0028C416.561 53.9236 416.703 53.9711 416.783 54.0821C416.862 54.1931 416.814 54.3517 416.703 54.4309C416.593 54.5102 416.101 54.7005 414.517 54.209C413.107 53.7809 411.84 56.0482 411.824 56.0799C411.776 56.1592 411.697 56.2068 411.618 56.2068Z" fill="url(#paint28_linear)"/>
<path d="M356.719 97.2715L335.045 115.442L341.747 130.965L366.099 108.418C361.409 105.183 358.145 101.505 356.719 97.2715Z" fill="url(#paint29_linear)"/>
<path d="M214.915 284.576C215.121 281.833 216.024 279.898 216.975 278.582C214.931 279.248 214.155 280.77 213.679 284.845C213.109 289.681 212.095 302.794 211.826 305.696C211.556 308.597 212.76 310.008 213.679 310.96C213.98 311.277 214.456 311.134 215.026 310.69C213.869 309.216 213.41 307.725 213.188 306.488C212.824 304.506 214.44 290.982 214.915 284.576Z" fill="url(#paint30_linear)"/>
<path d="M228.288 280.77L224.739 276.156C224.739 276.156 221.332 277.79 218.275 278.265C217.783 278.344 217.356 278.44 216.975 278.566C216.025 279.882 215.122 281.817 214.916 284.56C214.44 290.966 212.824 304.506 213.189 306.441C213.426 307.677 213.87 309.168 215.027 310.642C216.167 309.739 217.673 307.582 218.813 305.378C220.509 302.096 226.276 292.266 227.638 288.603C228.985 284.956 228.288 280.77 228.288 280.77Z" fill="url(#paint31_linear)"/>
<path d="M276.658 238.879C277.308 236.2 278.512 234.44 279.685 233.298C277.562 233.615 276.548 234.995 275.407 238.927C274.044 243.604 270.875 256.368 270.131 259.174C269.386 261.997 270.337 263.582 271.081 264.676C271.335 265.025 271.826 264.978 272.444 264.629C271.557 262.996 271.351 261.426 271.319 260.173C271.303 258.191 275.122 245.11 276.658 238.879Z" fill="url(#paint32_linear)"/>
<path d="M290.475 237.341L287.734 232.204C287.734 232.204 284.106 233.25 281.017 233.218C280.525 233.218 280.082 233.234 279.686 233.298C278.529 234.439 277.325 236.199 276.66 238.879C275.139 245.11 271.304 258.191 271.336 260.173C271.352 261.426 271.558 262.98 272.461 264.628C273.744 263.931 275.582 262.06 277.072 260.078C279.29 257.129 286.609 248.376 288.542 244.983C290.475 241.59 290.475 237.341 290.475 237.341Z" fill="url(#paint33_linear)"/>
<path d="M228.289 269.544C227.671 270.369 223.124 278.629 222.141 280.421C221.983 280.722 221.872 281.055 221.825 281.388C221.714 282.324 221.809 284.1 223.758 285.4C224.962 286.193 226.562 285.923 227.433 284.781L235.688 273.904L228.289 269.544Z" fill="url(#paint34_linear)"/>
<path d="M292.328 226.275C291.583 226.972 285.737 234.377 284.469 235.978C284.263 236.248 284.089 236.549 283.994 236.882C283.725 237.786 283.535 239.546 285.246 241.163C286.291 242.146 287.923 242.146 288.969 241.163L297.842 230.92L292.328 226.275Z" fill="url(#paint35_linear)"/>
<path d="M303.45 187.3C303.45 185.001 316.6 185.826 328.134 184.494C334.187 183.796 337.783 191.09 333.537 195.466L298.602 231.538C297.873 232.299 296.78 232.584 295.781 232.251C294.403 231.807 292.422 230.983 290.664 229.588C289.634 228.779 289.444 227.273 290.204 226.21L306.254 203.331L291.599 207.564L236.019 276.378C235.1 277.519 233.484 277.789 232.248 277.012C230.616 275.981 228.43 274.443 226.988 272.731C226.227 271.827 226.18 270.527 226.829 269.544C232.961 260.173 266.28 209.086 267.865 203.775C269.607 197.924 276.008 187.221 281.981 186.841C287.97 186.413 303.45 187.3 303.45 187.3Z" fill="url(#paint36_linear)"/>
<path d="M307.143 203.014C306.984 203.014 306.826 202.903 306.778 202.744C306.731 202.538 306.842 202.348 307.048 202.284L320.23 198.78C320.436 198.733 320.626 198.844 320.689 199.05C320.737 199.256 320.626 199.446 320.42 199.51L307.238 203.014C307.206 202.998 307.175 203.014 307.143 203.014Z" fill="url(#paint37_linear)"/>
<path d="M292.93 206.582C292.835 206.582 292.756 206.55 292.677 206.487C292.518 206.344 292.518 206.106 292.661 205.963L295.956 202.396C296.099 202.237 296.336 202.237 296.479 202.38C296.638 202.523 296.638 202.761 296.495 202.903L293.199 206.471C293.12 206.534 293.025 206.582 292.93 206.582Z" fill="url(#paint38_linear)"/>
<path d="M341.76 114.792C341.76 114.792 348.715 121.911 347.527 134.184C347.179 137.799 345.769 141.223 343.535 144.093L308.393 189.472C307.585 190.519 306.397 191.201 305.082 191.359C299.917 191.993 286.164 193.23 276.436 190.011C275.66 189.758 275.327 188.838 275.723 188.14L307.68 131.869L327.041 109.338C327.025 109.338 336.246 106.167 341.76 114.792Z" fill="url(#paint39_linear)"/>
<path d="M240.741 165.625C240.551 165.625 240.361 165.53 240.266 165.34C240.124 165.086 240.219 164.753 240.488 164.611C240.631 164.531 254.098 157.19 256.966 154.828C257.187 154.637 257.536 154.669 257.71 154.891C257.9 155.113 257.869 155.462 257.647 155.636C254.716 158.062 241.565 165.229 240.995 165.546C240.916 165.61 240.821 165.625 240.741 165.625Z" fill="url(#paint40_linear)"/>
<path d="M343.443 93.6255L332.938 108.466C332.257 109.434 332.352 110.734 333.16 111.606C334.57 113.112 336.963 115.253 339.529 115.728C340.321 115.887 341.145 115.538 341.589 114.856L347.182 106.278C347.182 106.278 348.243 92.801 343.443 93.6255Z" fill="url(#paint41_linear)"/>
<path d="M346.422 81.2275C346.628 81.4336 355.389 98.6211 355.389 98.6211L345.471 103.41L334.761 88.3467C334.745 88.3467 342.857 77.8661 346.422 81.2275Z" fill="url(#paint42_linear)"/>
<path d="M339.258 90.154L344.202 98.399C344.281 98.5258 344.36 98.6368 344.471 98.7319C345.057 99.2869 347.069 100.872 348.638 98.7002C349.969 96.8451 351.205 95.1644 352.551 94.4668C353.328 94.0545 354.294 94.3875 354.69 95.1644C355.498 96.7817 357.083 100.08 358.081 103.203C358.334 103.98 357.922 104.821 357.162 105.138C355.15 105.946 351.189 107.421 347.672 107.912C347.085 107.992 346.515 107.754 346.182 107.278C344.661 105.201 340.399 99.3979 338.942 97.9392C337.595 96.5914 335.092 97.0988 333.967 97.4159C333.539 97.5428 333.079 97.4794 332.699 97.2574C331.558 96.5756 329.562 94.8473 331.384 91.9457C331.844 91.2164 331.606 90.265 330.893 89.7893C329.61 88.949 328.231 87.3793 329.546 84.8265C330.877 82.242 333.27 82.0042 334.886 82.2103C335.599 82.3054 336.327 81.9249 336.613 81.259C336.898 80.5772 337.642 80.8467 338.007 80.3869C338.324 79.9747 338.245 79.7051 338.435 79.3404C339.084 78.183 339.037 77.2475 340.542 76.5974C341.698 76.09 343.029 76.0742 344.281 76.2803C344.978 76.3913 345.675 76.5815 346.246 77.0096C346.753 77.3902 347.101 77.9134 347.45 78.4525C348.179 79.5466 348.923 80.8626 348.448 82.0835C347.735 83.9227 344.677 84.2557 343.061 84.8265C341.049 85.54 339.924 86.7768 339.148 88.7904C338.957 89.2185 339.005 89.7259 339.258 90.154Z" fill="url(#paint43_linear)"/>
<path d="M340.762 100.984C340.762 100.984 338.861 95.4186 336.421 95.6247C333.981 95.8309 332.064 98.2568 335.09 100.984C338.845 104.377 340.762 100.984 340.762 100.984Z" fill="url(#paint44_linear)"/>
<path d="M378.613 180.291V143.268C378.613 138.401 374.715 134.453 369.851 134.389C355.275 134.231 325.204 134.215 300.583 136.292C297.224 136.577 294.609 139.336 294.499 142.698L292.201 178.484C292.027 183.209 295.766 187.173 300.503 187.268L370.152 188.6C374.795 188.695 378.613 184.937 378.613 180.291Z" fill="url(#paint45_linear)"/>
<path d="M370.169 147.28C370.232 150.435 370.137 155.43 370.058 158.648C370.01 160.329 368.537 161.613 366.873 161.407L354.88 159.996C353.279 159.806 352.154 158.331 352.392 156.746L353.866 146.915C354.071 145.52 355.276 144.489 356.686 144.489H367.317C368.87 144.489 370.137 145.726 370.169 147.28Z" fill="white"/>
<path opacity="0.37" d="M338.797 165.912L328.784 166.99C327.389 167.149 326.185 165.991 326.296 164.58L328.483 134.787C332.681 134.66 336.816 134.55 340.809 134.486V163.676C340.825 164.818 339.953 165.801 338.797 165.912Z" fill="white"/>
<path d="M334.693 160.757C334.662 161.296 334.218 161.709 333.695 161.709C333.679 161.709 333.664 161.709 333.632 161.709C333.077 161.677 332.65 161.201 332.681 160.646L334.186 134.643C334.868 134.627 335.533 134.611 336.199 134.595L334.693 160.757Z" fill="white"/>
<path d="M364.623 156.668C364.797 156.668 364.94 156.526 364.956 156.351L365.479 148.154C365.494 147.963 365.352 147.805 365.162 147.805C364.972 147.789 364.813 147.932 364.813 148.122L364.29 156.319C364.274 156.51 364.417 156.668 364.607 156.668C364.607 156.668 364.607 156.668 364.623 156.668Z" fill="url(#paint46_linear)"/>
<path d="M363.545 156.666C363.719 156.666 363.877 156.523 363.877 156.348L364.147 147.993C364.147 147.802 364.004 147.644 363.83 147.644C363.624 147.628 363.497 147.786 363.481 147.961L363.212 156.317C363.212 156.507 363.355 156.666 363.545 156.666C363.529 156.666 363.545 156.666 363.545 156.666Z" fill="url(#paint47_linear)"/>
<path d="M362.105 156.666C361.915 156.65 361.772 156.507 361.788 156.317C361.915 153.51 362.169 148.167 362.184 147.977C362.184 147.786 362.343 147.644 362.517 147.644C362.707 147.644 362.85 147.786 362.85 147.977C362.85 148.119 362.517 154.969 362.454 156.349C362.438 156.523 362.295 156.666 362.105 156.666Z" fill="url(#paint48_linear)"/>
<path d="M359.869 157C360.234 157 360.535 156.715 360.535 156.35C360.82 148.263 360.772 148.073 360.741 147.962C360.645 147.597 360.265 147.391 359.917 147.487C359.584 147.582 359.378 147.899 359.426 148.232C359.441 148.723 359.299 153.417 359.204 156.318C359.188 156.683 359.473 157 359.853 157.016C359.853 157 359.869 157 359.869 157Z" fill="url(#paint49_linear)"/>
<path d="M358.429 156.667C358.619 156.667 358.761 156.525 358.761 156.334V148.137C358.761 147.947 358.619 147.804 358.429 147.804C358.238 147.804 358.096 147.947 358.096 148.137V156.334C358.08 156.525 358.238 156.667 358.429 156.667Z" fill="url(#paint50_linear)"/>
<path d="M357.24 156.672C357.43 156.672 357.573 156.53 357.573 156.339C357.636 153.485 357.794 148.84 357.921 148.285C357.985 148.174 357.985 148.047 357.905 147.936C357.81 147.777 357.588 147.746 357.446 147.841C357.256 147.968 357.081 148.079 356.907 156.324C356.907 156.514 357.05 156.672 357.24 156.672Z" fill="url(#paint51_linear)"/>
<path d="M366.428 157.412C366.777 157.412 367.078 157.127 367.094 156.778L367.537 148.169C367.553 147.804 367.268 147.487 366.903 147.455C366.555 147.423 366.222 147.725 366.19 148.089L365.747 156.699C365.731 157.064 366.016 157.381 366.381 157.412C366.396 157.412 366.412 157.412 366.428 157.412Z" fill="url(#paint52_linear)"/>
<path d="M350.349 81.7962C341.936 65.8771 320.103 80.3375 330.259 93.7514C337.817 88.7251 346.341 81.2571 350.349 81.7962Z" fill="url(#paint53_linear)"/>
<path d="M333.538 133.408L314.621 123.705C314.621 123.705 301.122 137.023 297.668 155.131C301.645 155.416 308.854 156.462 315.936 160.03C317.488 151.5 333.538 133.408 333.538 133.408Z" fill="url(#paint54_linear)"/>
<path d="M349.111 165.055C349.111 165.055 325.52 178.39 317.566 167.005C315.919 164.643 315.523 162.296 315.919 160.045C308.852 156.477 301.628 155.447 297.651 155.145C296.605 160.6 297.16 166.419 300.36 172.285C314.303 197.797 352.201 170.874 352.201 170.874L349.111 165.055Z" fill="url(#paint55_linear)"/>
<path d="M350.238 171.841C348.733 172.238 347.212 171.255 346.911 169.732C346.436 167.338 345.865 163.676 346.325 161.979C347.053 159.363 348.448 156.001 353.122 156.747C357.795 157.492 363.309 159.458 363.309 159.458C363.309 159.458 363.024 162.867 359.475 161.773L361.677 163.485C361.677 163.485 361.36 166.212 358.366 164.754L360.41 167.021C360.41 167.021 359.126 169.257 356.908 167.83C355.086 166.625 354.056 170.827 350.238 171.841Z" fill="url(#paint56_linear)"/>
<path d="M231.266 168.514C230.442 168.672 229.999 169.576 230.379 170.321C232.09 173.762 237.097 181.341 247.443 178.947C260.688 175.886 301.089 145.317 310.247 136.977C319.389 128.621 331.51 118.219 337.435 119.678C343.361 121.137 339.78 117.696 335.676 114.937C331.573 112.178 330.052 108.135 333.11 108.88C333.11 108.88 325.742 106.486 314.477 112.702C303.482 118.774 249.756 139.514 231.757 133.504C231.092 133.282 230.395 133.71 230.268 134.408C229.555 138.515 228.462 151.342 238.982 165.786C238.982 165.771 234.878 167.816 231.266 168.514Z" fill="url(#paint57_linear)"/>
<path d="M337.197 88.5347L352.312 88.0591C352.693 88.0432 353.041 87.8371 353.231 87.5041C354.578 85.0623 356.574 83.4926 359.046 82.6364C359.363 82.5254 359.299 82.0656 358.967 82.0498L349.698 81.4155C349.682 81.4155 349.682 81.4155 349.666 81.4155C345.04 81.7644 340.952 84.555 337.055 88.2018C336.928 88.3286 337.007 88.5347 337.197 88.5347Z" fill="url(#paint58_linear)"/>
<defs>
<linearGradient id="paint0_linear" x1="496.173" y1="563.468" x2="109.601" y2="83.732" gradientUnits="userSpaceOnUse">
<stop stop-color="#B37CFF"/>
<stop offset="1" stop-color="#F895E7"/>
</linearGradient>
<linearGradient id="paint1_linear" x1="-17.1771" y1="142.833" x2="145.128" y2="177.668" gradientUnits="userSpaceOnUse">
<stop stop-color="#A737D5"/>
<stop offset="1" stop-color="#EF497A"/>
</linearGradient>
<linearGradient id="paint2_linear" x1="35.8796" y1="215.621" x2="112.604" y2="76.0167" gradientUnits="userSpaceOnUse">
<stop stop-color="#CE1567"/>
<stop offset="1" stop-color="#7A1DBC"/>
</linearGradient>
<linearGradient id="paint3_linear" x1="235.197" y1="411.415" x2="213.82" y2="-220.87" gradientUnits="userSpaceOnUse">
<stop stop-color="#2B3582"/>
<stop offset="1" stop-color="#150E42"/>
</linearGradient>
<linearGradient id="paint4_linear" x1="325.314" y1="18.2559" x2="88.4106" y2="585.521" gradientUnits="userSpaceOnUse">
<stop stop-color="#53D8FF"/>
<stop offset="1" stop-color="#3840F7"/>
</linearGradient>
<linearGradient id="paint5_linear" x1="220.969" y1="19.8053" x2="154.246" y2="162.16" gradientUnits="userSpaceOnUse">
<stop stop-color="#A737D5"/>
<stop offset="1" stop-color="#EF497A"/>
</linearGradient>
<linearGradient id="paint6_linear" x1="229.018" y1="23.5792" x2="162.294" y2="165.935" gradientUnits="userSpaceOnUse">
<stop stop-color="#A737D5"/>
<stop offset="1" stop-color="#EF497A"/>
</linearGradient>
<linearGradient id="paint7_linear" x1="251.593" y1="34.1594" x2="184.87" y2="176.514" gradientUnits="userSpaceOnUse">
<stop stop-color="#A737D5"/>
<stop offset="1" stop-color="#EF497A"/>
</linearGradient>
<linearGradient id="paint8_linear" x1="268.642" y1="-29.5832" x2="161.793" y2="110.868" gradientUnits="userSpaceOnUse">
<stop stop-color="#2B3582"/>
<stop offset="1" stop-color="#150E42"/>
</linearGradient>
<linearGradient id="paint9_linear" x1="280.353" y1="-20.6764" x2="173.504" y2="119.775" gradientUnits="userSpaceOnUse">
<stop stop-color="#2B3582"/>
<stop offset="1" stop-color="#150E42"/>
</linearGradient>
<linearGradient id="paint10_linear" x1="266.899" y1="-12.0808" x2="193.106" y2="123.315" gradientUnits="userSpaceOnUse">
<stop stop-color="#53D8FF"/>
<stop offset="1" stop-color="#3840F7"/>
</linearGradient>
<linearGradient id="paint11_linear" x1="276.372" y1="260.522" x2="-144.295" y2="553.79" gradientUnits="userSpaceOnUse">
<stop stop-color="#FDF53F"/>
<stop offset="1" stop-color="#D93C65"/>
</linearGradient>
<linearGradient id="paint12_linear" x1="166.977" y1="339.886" x2="219.296" y2="415.855" gradientUnits="userSpaceOnUse">
<stop stop-color="#2B3582"/>
<stop offset="1" stop-color="#150E42"/>
</linearGradient>
<linearGradient id="paint13_linear" x1="165.098" y1="341.182" x2="217.418" y2="417.15" gradientUnits="userSpaceOnUse">
<stop stop-color="#2B3582"/>
<stop offset="1" stop-color="#150E42"/>
</linearGradient>
<linearGradient id="paint14_linear" x1="162.831" y1="342.743" x2="215.149" y2="418.711" gradientUnits="userSpaceOnUse">
<stop stop-color="#2B3582"/>
<stop offset="1" stop-color="#150E42"/>
</linearGradient>
<linearGradient id="paint15_linear" x1="158.91" y1="345.444" x2="211.228" y2="421.412" gradientUnits="userSpaceOnUse">
<stop stop-color="#2B3582"/>
<stop offset="1" stop-color="#150E42"/>
</linearGradient>
<linearGradient id="paint16_linear" x1="156.323" y1="347.225" x2="208.643" y2="423.194" gradientUnits="userSpaceOnUse">
<stop stop-color="#2B3582"/>
<stop offset="1" stop-color="#150E42"/>
</linearGradient>
<linearGradient id="paint17_linear" x1="154.719" y1="348.331" x2="207.037" y2="424.299" gradientUnits="userSpaceOnUse">
<stop stop-color="#2B3582"/>
<stop offset="1" stop-color="#150E42"/>
</linearGradient>
<linearGradient id="paint18_linear" x1="169.667" y1="338.035" x2="221.986" y2="414.003" gradientUnits="userSpaceOnUse">
<stop stop-color="#2B3582"/>
<stop offset="1" stop-color="#150E42"/>
</linearGradient>
<linearGradient id="paint19_linear" x1="228.247" y1="185.417" x2="-67.1779" y2="391.372" gradientUnits="userSpaceOnUse">
<stop stop-color="#FDF53F"/>
<stop offset="1" stop-color="#D93C65"/>
</linearGradient>
<linearGradient id="paint20_linear" x1="151.424" y1="241.153" x2="188.166" y2="294.504" gradientUnits="userSpaceOnUse">
<stop stop-color="#2B3582"/>
<stop offset="1" stop-color="#150E42"/>
</linearGradient>
<linearGradient id="paint21_linear" x1="150.102" y1="242.062" x2="186.844" y2="295.413" gradientUnits="userSpaceOnUse">
<stop stop-color="#2B3582"/>
<stop offset="1" stop-color="#150E42"/>
</linearGradient>
<linearGradient id="paint22_linear" x1="148.511" y1="243.159" x2="185.254" y2="296.509" gradientUnits="userSpaceOnUse">
<stop stop-color="#2B3582"/>
<stop offset="1" stop-color="#150E42"/>
</linearGradient>
<linearGradient id="paint23_linear" x1="145.756" y1="245.056" x2="182.498" y2="298.406" gradientUnits="userSpaceOnUse">
<stop stop-color="#2B3582"/>
<stop offset="1" stop-color="#150E42"/>
</linearGradient>
<linearGradient id="paint24_linear" x1="143.94" y1="246.306" x2="180.682" y2="299.656" gradientUnits="userSpaceOnUse">
<stop stop-color="#2B3582"/>
<stop offset="1" stop-color="#150E42"/>
</linearGradient>
<linearGradient id="paint25_linear" x1="142.814" y1="247.083" x2="179.557" y2="300.433" gradientUnits="userSpaceOnUse">
<stop stop-color="#2B3582"/>
<stop offset="1" stop-color="#150E42"/>
</linearGradient>
<linearGradient id="paint26_linear" x1="153.311" y1="239.852" x2="190.054" y2="293.202" gradientUnits="userSpaceOnUse">
<stop stop-color="#2B3582"/>
<stop offset="1" stop-color="#150E42"/>
</linearGradient>
<linearGradient id="paint27_linear" x1="356.563" y1="78.9892" x2="418.399" y2="78.9892" gradientUnits="userSpaceOnUse">
<stop stop-color="#F9B776"/>
<stop offset="1" stop-color="#F47960"/>
</linearGradient>
<linearGradient id="paint28_linear" x1="411.362" y1="54.9284" x2="416.825" y2="54.9284" gradientUnits="userSpaceOnUse">
<stop stop-color="#F9B776"/>
<stop offset="1" stop-color="#F47960"/>
</linearGradient>
<linearGradient id="paint29_linear" x1="384.866" y1="54.8083" x2="355.828" y2="103.119" gradientUnits="userSpaceOnUse">
<stop stop-color="#FDF53F"/>
<stop offset="1" stop-color="#D93C65"/>
</linearGradient>
<linearGradient id="paint30_linear" x1="211.795" y1="294.836" x2="216.974" y2="294.836" gradientUnits="userSpaceOnUse">
<stop stop-color="#53D8FF"/>
<stop offset="1" stop-color="#3840F7"/>
</linearGradient>
<linearGradient id="paint31_linear" x1="213.135" y1="293.411" x2="228.472" y2="293.411" gradientUnits="userSpaceOnUse">
<stop stop-color="#2B3582"/>
<stop offset="1" stop-color="#150E42"/>
</linearGradient>
<linearGradient id="paint32_linear" x1="269.857" y1="249.107" x2="279.679" y2="249.107" gradientUnits="userSpaceOnUse">
<stop stop-color="#53D8FF"/>
<stop offset="1" stop-color="#3840F7"/>
</linearGradient>
<linearGradient id="paint33_linear" x1="271.333" y1="248.418" x2="290.479" y2="248.418" gradientUnits="userSpaceOnUse">
<stop stop-color="#2B3582"/>
<stop offset="1" stop-color="#150E42"/>
</linearGradient>
<linearGradient id="paint34_linear" x1="221.801" y1="277.703" x2="235.698" y2="277.703" gradientUnits="userSpaceOnUse">
<stop stop-color="#F9B776"/>
<stop offset="1" stop-color="#F47960"/>
</linearGradient>
<linearGradient id="paint35_linear" x1="283.826" y1="234.089" x2="297.853" y2="234.089" gradientUnits="userSpaceOnUse">
<stop stop-color="#F9B776"/>
<stop offset="1" stop-color="#F47960"/>
</linearGradient>
<linearGradient id="paint36_linear" x1="360.708" y1="139.776" x2="269.882" y2="227.558" gradientUnits="userSpaceOnUse">
<stop stop-color="#2B3582"/>
<stop offset="1" stop-color="#150E42"/>
</linearGradient>
<linearGradient id="paint37_linear" x1="313.139" y1="201.401" x2="298.498" y2="214.047" gradientUnits="userSpaceOnUse">
<stop stop-color="#2B3582"/>
<stop offset="1" stop-color="#150E42"/>
</linearGradient>
<linearGradient id="paint38_linear" x1="296.104" y1="202.226" x2="288.243" y2="213.472" gradientUnits="userSpaceOnUse">
<stop stop-color="#2B3582"/>
<stop offset="1" stop-color="#150E42"/>
</linearGradient>
<linearGradient id="paint39_linear" x1="466.164" y1="-33.8782" x2="324.54" y2="140.094" gradientUnits="userSpaceOnUse">
<stop stop-color="#FDF53F"/>
<stop offset="1" stop-color="#D93C65"/>
</linearGradient>
<linearGradient id="paint40_linear" x1="255.021" y1="152.722" x2="243.006" y2="167.61" gradientUnits="userSpaceOnUse">
<stop stop-color="#F9C200"/>
<stop offset="0.9964" stop-color="#9B1E5F"/>
</linearGradient>
<linearGradient id="paint41_linear" x1="327.975" y1="112.803" x2="349.641" y2="100.259" gradientUnits="userSpaceOnUse">
<stop stop-color="#F9B776"/>
<stop offset="1" stop-color="#F47960"/>
</linearGradient>
<linearGradient id="paint42_linear" x1="343.532" y1="84.4732" x2="349.687" y2="120.662" gradientUnits="userSpaceOnUse">
<stop stop-color="#F9B776"/>
<stop offset="1" stop-color="#F47960"/>
</linearGradient>
<linearGradient id="paint43_linear" x1="337.068" y1="101.603" x2="353.67" y2="83.9807" gradientUnits="userSpaceOnUse">
<stop stop-color="#2B3582"/>
<stop offset="1" stop-color="#150E42"/>
</linearGradient>
<linearGradient id="paint44_linear" x1="338.197" y1="123.976" x2="337.102" y2="98.5622" gradientUnits="userSpaceOnUse">
<stop stop-color="#F9B776"/>
<stop offset="1" stop-color="#F47960"/>
</linearGradient>
<linearGradient id="paint45_linear" x1="376.327" y1="134.278" x2="203.432" y2="254.811" gradientUnits="userSpaceOnUse">
<stop stop-color="#FDF53F"/>
<stop offset="1" stop-color="#D93C65"/>
</linearGradient>
<linearGradient id="paint46_linear" x1="360.817" y1="146.336" x2="382.32" y2="177.559" gradientUnits="userSpaceOnUse">
<stop stop-color="#2B3582"/>
<stop offset="1" stop-color="#150E42"/>
</linearGradient>
<linearGradient id="paint47_linear" x1="360.044" y1="146.865" x2="381.547" y2="178.088" gradientUnits="userSpaceOnUse">
<stop stop-color="#2B3582"/>
<stop offset="1" stop-color="#150E42"/>
</linearGradient>
<linearGradient id="paint48_linear" x1="359.114" y1="147.507" x2="380.617" y2="178.73" gradientUnits="userSpaceOnUse">
<stop stop-color="#2B3582"/>
<stop offset="1" stop-color="#150E42"/>
</linearGradient>
<linearGradient id="paint49_linear" x1="357.5" y1="148.619" x2="379.004" y2="179.841" gradientUnits="userSpaceOnUse">
<stop stop-color="#2B3582"/>
<stop offset="1" stop-color="#150E42"/>
</linearGradient>
<linearGradient id="paint50_linear" x1="356.438" y1="149.351" x2="377.941" y2="180.575" gradientUnits="userSpaceOnUse">
<stop stop-color="#2B3582"/>
<stop offset="1" stop-color="#150E42"/>
</linearGradient>
<linearGradient id="paint51_linear" x1="355.778" y1="149.811" x2="377.282" y2="181.032" gradientUnits="userSpaceOnUse">
<stop stop-color="#2B3582"/>
<stop offset="1" stop-color="#150E42"/>
</linearGradient>
<linearGradient id="paint52_linear" x1="361.921" y1="145.574" x2="383.424" y2="176.798" gradientUnits="userSpaceOnUse">
<stop stop-color="#2B3582"/>
<stop offset="1" stop-color="#150E42"/>
</linearGradient>
<linearGradient id="paint53_linear" x1="579.166" y1="18.7269" x2="520.097" y2="34.5178" gradientUnits="userSpaceOnUse">
<stop stop-color="#FDF53F"/>
<stop offset="1" stop-color="#D93C65"/>
</linearGradient>
<linearGradient id="paint54_linear" x1="256.099" y1="191.074" x2="321.638" y2="136.675" gradientUnits="userSpaceOnUse">
<stop stop-color="#FDF53F"/>
<stop offset="1" stop-color="#D93C65"/>
</linearGradient>
<linearGradient id="paint55_linear" x1="246.517" y1="150.633" x2="358.216" y2="181.176" gradientUnits="userSpaceOnUse">
<stop stop-color="#F9B776"/>
<stop offset="1" stop-color="#F47960"/>
</linearGradient>
<linearGradient id="paint56_linear" x1="519.048" y1="118.12" x2="407.349" y2="148.663" gradientUnits="userSpaceOnUse">
<stop stop-color="#F9B776"/>
<stop offset="1" stop-color="#F47960"/>
</linearGradient>
<linearGradient id="paint57_linear" x1="443.155" y1="9.47229" x2="268.981" y2="138.889" gradientUnits="userSpaceOnUse">
<stop stop-color="#FDF53F"/>
<stop offset="1" stop-color="#D93C65"/>
</linearGradient>
<linearGradient id="paint58_linear" x1="125.314" y1="25.6535" x2="179.709" y2="40.1949" gradientUnits="userSpaceOnUse">
<stop stop-color="#FDF53F"/>
<stop offset="1" stop-color="#D93C65"/>
</linearGradient>
</defs>
</svg>
