<svg width="525" height="292" viewBox="0 0 525 292" fill="none" xmlns="http://www.w3.org/2000/svg">
<path d="M516 73.1739C507.915 60.9849 494.463 51.7819 479.96 52.4081C467.153 52.9618 455.995 60.7217 444.465 66.3397C432.944 71.9577 418.269 75.2705 407.972 67.6194C400.956 62.4098 397.965 53.5517 393.877 45.819C379.683 18.9723 348.764 3.37979 318.426 3.00768C288.088 2.63556 258.711 15.8229 235.062 34.8461C211.405 53.8693 192.868 78.4743 176.054 103.76C163.237 123.037 147.683 145.092 124.578 146.226C103.993 147.234 86.3812 130.643 65.905 128.347C41.1777 125.578 19.5413 143.712 1.29492 160.648C-1.09805 191.579 -0.100981 224.343 3.67882 256H515.991V73.1739H516Z" fill="#F0CD95"/>
<path d="M431.542 154.102H439.271L399.969 107.733L380.029 131.256V123.107H371.302V141.552L360.667 154.102H368.395V179.203H364.316V184.437H368.395V234.357H431.542V184.437H436.785V179.203H431.542V154.102Z" fill="#FEECCB"/>
<path d="M397.195 135.773H389.846V143.121H397.195V135.773Z" fill="#F0CD95"/>
<path d="M405.963 135.773H398.615V143.121H405.963V135.773Z" fill="#F0CD95"/>
<path d="M397.195 144.467H389.846V151.816H397.195V144.467Z" fill="#F0CD95"/>
<path d="M405.963 144.467H398.615V151.816H405.963V144.467Z" fill="#F0CD95"/>
<path d="M386.601 193.809H379.253V201.158H386.601V193.809Z" fill="#F0CD95"/>
<path d="M395.37 193.809H388.022V201.158H395.37V193.809Z" fill="#F0CD95"/>
<path d="M386.601 202.503H379.253V209.852H386.601V202.503Z" fill="#F0CD95"/>
<path d="M395.37 202.503H388.022V209.852H395.37V202.503Z" fill="#F0CD95"/>
<path d="M414.385 193.809H407.037V201.158H414.385V193.809Z" fill="#F0CD95"/>
<path d="M423.146 193.809H415.797V201.158H423.146V193.809Z" fill="#F0CD95"/>
<path d="M414.385 202.503H407.037V209.852H414.385V202.503Z" fill="#F0CD95"/>
<path d="M423.146 202.503H415.797V209.852H423.146V202.503Z" fill="#F0CD95"/>
<path d="M247.204 173.811H253.041L223.383 138.828L208.339 156.579V150.42H201.759V164.341L193.733 173.811H199.563V192.744H196.491V196.699H199.563V234.357H247.204V196.699H251.159V192.744H247.204V173.811Z" fill="#FEECCB"/>
<path d="M221.294 159.981H215.746V165.53H221.294V159.981Z" fill="#F0CD95"/>
<path d="M227.908 159.981H222.359V165.53H227.908V159.981Z" fill="#F0CD95"/>
<path d="M221.294 166.537H215.746V172.085H221.294V166.537Z" fill="#F0CD95"/>
<path d="M227.908 166.537H222.359V172.086H227.908V166.537Z" fill="#F0CD95"/>
<path d="M213.302 203.767H207.753V209.315H213.302V203.767Z" fill="#F0CD95"/>
<path d="M219.915 203.767H214.367V209.315H219.915V203.767Z" fill="#F0CD95"/>
<path d="M213.302 210.322H207.753V215.871H213.302V210.322Z" fill="#F0CD95"/>
<path d="M219.915 210.322H214.367V215.871H219.915V210.322Z" fill="#F0CD95"/>
<path d="M234.266 203.767H228.717V209.315H234.266V203.767Z" fill="#F0CD95"/>
<path d="M240.871 203.767H235.323V209.315H240.871V203.767Z" fill="#F0CD95"/>
<path d="M234.266 210.322H228.717V215.871H234.266V210.322Z" fill="#F0CD95"/>
<path d="M240.871 210.322H235.323V215.871H240.871V210.322Z" fill="#F0CD95"/>
<path d="M342.965 167.049H349.958L314.422 125.122L296.389 146.391V139.018H288.504V155.696L278.885 167.049H285.87V195.171H283.013V198.862H285.87V238.61H342.965V198.862H345.467V195.171H342.965V167.049Z" fill="#FEECCB"/>
<path d="M295.456 168.923H289.659V174.72H295.456V168.923Z" fill="#F0CD95"/>
<path d="M302.366 168.923H296.57V174.72H302.366V168.923Z" fill="#F0CD95"/>
<path d="M295.456 175.777H289.659V181.574H295.456V175.777Z" fill="#F0CD95"/>
<path d="M302.366 175.777H296.57V181.573H302.366V175.777Z" fill="#F0CD95"/>
<path d="M313.563 168.923H307.767V174.72H313.563V168.923Z" fill="#F0CD95"/>
<path d="M320.474 168.923H314.677V174.719H320.474V168.923Z" fill="#F0CD95"/>
<path d="M313.563 175.777H307.766V181.573H313.563V175.777Z" fill="#F0CD95"/>
<path d="M320.473 175.776H314.677V181.573H320.473V175.776Z" fill="#F0CD95"/>
<path d="M331.661 168.923H325.865V174.72H331.661V168.923Z" fill="#F0CD95"/>
<path d="M338.58 168.923H332.784V174.719H338.58V168.923Z" fill="#F0CD95"/>
<path d="M331.661 175.777H325.865V181.573H331.661V175.777Z" fill="#F0CD95"/>
<path d="M338.58 175.776H332.784V181.573H338.58V175.776Z" fill="#F0CD95"/>
<path d="M298.544 213.047H292.888V212.99C292.888 209.893 295.398 207.392 298.486 207.392H298.544V213.047Z" fill="#F0CD95"/>
<path d="M305.29 213.047H299.634V207.391H299.692C302.788 207.391 305.29 209.901 305.29 212.989V213.047Z" fill="#F0CD95"/>
<path d="M298.535 214.087H292.88V219.743H298.535V214.087Z" fill="#F0CD95"/>
<path d="M305.281 214.087H299.625V219.743H305.281V214.087Z" fill="#F0CD95"/>
<path d="M328.781 213.047H323.125V212.99C323.125 209.893 325.635 207.392 328.723 207.392H328.781V213.047Z" fill="#F0CD95"/>
<path d="M335.525 213.047H329.87V207.391H329.927C333.024 207.391 335.525 209.901 335.525 212.989V213.047Z" fill="#F0CD95"/>
<path d="M328.772 214.087H323.116V219.743H328.772V214.087Z" fill="#F0CD95"/>
<path d="M335.517 214.087H329.862V219.743H335.517V214.087Z" fill="#F0CD95"/>
<path d="M524.661 0H412.238V262.323H524.661V0Z" fill="#FEECCB"/>
<path d="M525 73.3442H428.884V256.246H525V73.3442Z" fill="#3AC1B0"/>
<path d="M519.782 78.3804H433.813V256.32H519.782V78.3804Z" fill="#14345A"/>
<path d="M519.782 79.8008H450.847V256.32H519.782V79.8008Z" fill="#1E81AD"/>
<path d="M524.917 256.593H420.933V262.818H524.917V256.593Z" fill="#F0CD95"/>
<path d="M516.619 262.554H412.635V268.78H516.619V262.554Z" fill="#F0CD95"/>
<path d="M446.413 146.597C446.413 148.067 445.224 149.256 443.754 149.256C442.284 149.256 441.095 148.067 441.095 146.597C441.095 145.127 442.284 143.938 443.754 143.938C445.224 143.938 446.413 145.127 446.413 146.597Z" fill="#FEECCB"/>
<path d="M456.535 58.2177C456.535 41.6631 442.606 28.3699 425.829 29.4102C410.992 30.3349 399.119 42.7447 398.813 57.6067C398.656 65.1533 401.397 72.0559 406.005 77.2824C411.817 83.8795 417.399 90.6747 422.262 97.9984L427.678 106.156L431.534 100.343C436.769 92.4582 442.367 84.796 448.815 77.8604C453.604 72.7082 456.535 65.8056 456.535 58.2177Z" fill="#F4424F"/>
<path d="M427.67 73.7486C436.248 73.7486 443.201 66.7952 443.201 58.2178C443.201 49.6404 436.248 42.687 427.67 42.687C419.093 42.687 412.139 49.6404 412.139 58.2178C412.139 66.7952 419.093 73.7486 427.67 73.7486Z" fill="white"/>
<path d="M428.207 179.64H424.656V182.051H428.207V179.64Z" fill="#F4424F"/>
<path d="M430.634 198.243H422.204V184.174C422.204 182.275 423.74 180.739 425.639 180.739H427.191C429.09 180.739 430.626 182.275 430.626 184.174V198.243H430.634Z" fill="#F4424F"/>
<path d="M433.532 189.516H420.569V193.669H433.532V189.516Z" fill="#14345A"/>
<path d="M423.5 176.8V177.931H420.999C420.999 177.931 419.578 178.071 419.578 179.78H420.503C420.503 179.78 420.429 178.823 421.139 178.682C421.543 178.6 422.633 178.93 423.5 179.219V180.35H429.115V176.808H423.5V176.8Z" fill="#3AC1B0"/>
<path d="M480.092 214.343H429.272V256.642H480.092V214.343Z" fill="#14345A"/>
<path d="M471.579 214.343H420.759V256.642H471.579V214.343Z" fill="#3AC1B0"/>
<path d="M457.171 238.511L444.819 223.996L432.459 238.511H438.858V242.945H450.781V238.511H457.171Z" fill="#F0CD95"/>
<path d="M375.851 116.782C371.583 115.321 370.674 114.181 367.851 110.664L361.006 120.96C364.82 124.676 368.313 127.194 373.226 129.597C372.615 124.981 373.292 119.845 375.851 116.782Z" fill="#F9867D"/>
<path d="M373.25 123.339C373.614 120.812 374.439 118.484 375.851 116.783C372.02 115.478 370.889 114.421 368.668 111.672C367.652 116.576 369.758 120.54 373.25 123.339Z" fill="#14345A"/>
<path d="M383.687 104.785C383.563 103.159 382.424 101.739 381.02 100.905C379.616 100.063 377.982 99.7241 376.371 99.4847C374.291 99.1792 371.987 99.0636 370.253 100.269C369.114 101.062 368.387 102.317 367.908 103.621C366.538 107.345 367.033 111.672 369.031 115.098C371.029 118.533 373.721 121.34 377.494 122.05C378.84 119.581 379.98 118.079 381.012 115.172C381.235 114.537 380.896 113.835 381.012 113.488C381.152 113.067 381.92 112.638 382.06 112.216C382.663 110.317 382.886 109.145 383.373 107.205C383.563 106.412 383.753 105.595 383.687 104.785Z" fill="#F9867D"/>
<path d="M374.018 109.665C374.225 109.087 374.836 108.609 375.422 108.774C376.008 108.939 376.429 109.608 376.38 110.21C376.314 111.053 376.231 111.631 376.471 112.019C377.214 110.417 378.155 108.914 379.286 107.56C376.107 106.049 372.929 104.538 369.741 103.027C369.494 102.911 369.246 102.796 368.974 102.796C368.734 102.796 368.511 102.895 368.305 103.019C367.372 103.58 366.86 104.654 366.686 105.727C366.505 106.8 366.604 107.89 366.612 108.98C366.62 110.07 366.521 111.193 365.985 112.142C367.859 112.324 369.783 111.994 371.492 111.209C372.21 110.879 373.019 110.466 373.746 110.714C373.812 110.326 373.911 109.954 374.018 109.665Z" fill="#14345A"/>
<path d="M371.929 98.7746C373.614 98.2874 375.422 98.5764 377.123 98.9892C379.055 99.4599 380.987 100.12 382.572 101.309C383.101 101.706 383.604 102.193 383.811 102.82C383.959 103.283 383.926 103.786 383.893 104.274C383.835 105.058 383.786 105.851 383.728 106.635C383.695 107.114 383.637 107.634 383.282 107.956C382.911 108.286 382.349 108.27 381.854 108.228C379.195 108.022 376.471 107.799 374.035 106.709C372.441 105.999 370.988 104.934 369.279 104.546C368.891 104.455 368.462 104.397 368.173 104.117C367.727 103.687 367.818 102.944 368.04 102.366C368.684 100.657 370.171 99.2865 371.929 98.7746Z" fill="#14345A"/>
<path d="M377.693 98.5764C379.501 99.2204 381.26 100.021 382.927 100.979C383.547 101.334 384.191 101.755 384.447 102.424C384.653 102.977 384.554 103.588 384.438 104.158C384.075 105.941 383.563 107.7 382.919 109.409C378.246 109.252 373.614 107.956 369.527 105.669C368.553 105.124 367.496 104.331 367.504 103.217C367.504 102.672 367.768 102.176 368.024 101.697C368.569 100.682 369.139 99.6497 370.022 98.9149C371.054 98.0645 372.441 97.7177 373.779 97.7424C375.117 97.759 376.429 98.1305 377.693 98.5764Z" fill="#F4424F"/>
<path d="M383.77 105.512C384.001 104.678 384.232 103.786 383.993 102.944C383.745 102.102 383.051 101.449 382.283 101.028C381.516 100.599 380.665 100.351 379.848 100.021C380.244 100.549 380.393 101.235 380.376 101.887C380.36 102.548 380.186 103.192 379.996 103.819C379.46 105.553 378.733 107.221 377.833 108.79C378.56 108.955 379.286 109.12 380.029 109.136C380.772 109.145 381.532 108.988 382.135 108.55C383.084 107.873 383.456 106.643 383.77 105.512Z" fill="#F2D525"/>
<path d="M383.175 108.129C384.183 108.17 384.257 108.839 387.733 110.045C385.793 111.225 384.001 111.704 381.862 110.944C379.724 110.177 377.792 109.334 375.761 108.286C378.18 108.856 380.698 108.03 383.175 108.129Z" fill="#F4424F"/>
<path d="M369.675 101.466C369.659 101.318 369.527 101.202 369.411 101.111C369.279 101.012 369.13 100.905 368.974 100.938C368.817 100.971 368.718 101.119 368.635 101.26C368.437 101.59 368.23 101.945 368.206 102.333C368.181 102.721 368.412 103.151 368.792 103.225C369.056 102.746 369.32 102.267 369.585 101.788C369.626 101.689 369.684 101.582 369.675 101.466Z" fill="#14345A"/>
<path d="M381.557 115.94C381.45 115.527 381.425 114.982 381.053 114.768C380.756 114.594 380.393 114.578 380.046 114.578C378.312 114.586 378.097 114.759 376.363 114.792C375.744 116.402 374.109 117.385 373.226 118.863C373.812 119.523 373.977 120.977 374.786 121.323C375.604 121.67 376.462 121.901 377.321 122.124C377.602 122.199 377.907 122.265 378.163 122.149C378.312 122.083 378.428 121.951 378.535 121.835C378.923 121.406 379.146 121.051 379.534 120.622C380.137 119.953 380.913 119.193 381.334 118.4C381.763 117.608 381.788 116.815 381.557 115.94Z" fill="white"/>
<path d="M374.159 119.697C374.134 119.697 374.109 119.697 374.076 119.689C373.498 119.532 373.11 118.979 372.92 118.046C372.384 115.387 372.574 112.629 373.482 110.07C373.54 109.904 373.713 109.822 373.878 109.88C374.035 109.938 374.126 110.111 374.068 110.276C373.201 112.728 373.011 115.37 373.523 117.922C373.663 118.607 373.903 119.003 374.233 119.094C374.398 119.135 374.497 119.309 374.456 119.474C374.423 119.606 374.291 119.697 374.159 119.697Z" fill="white"/>
<path d="M377.049 116.022C376.941 116.022 376.842 115.965 376.785 115.865C375.926 114.404 375.769 112.579 376.363 110.986C376.421 110.829 376.603 110.746 376.76 110.804C376.917 110.862 376.999 111.044 376.941 111.2C376.413 112.621 376.553 114.239 377.313 115.552C377.404 115.7 377.346 115.89 377.206 115.973C377.156 116.006 377.098 116.022 377.049 116.022Z" fill="white"/>
<path d="M410.637 168.948C409.638 167.966 408.763 166.868 408.028 165.679C407.871 165.431 407.722 165.167 407.665 164.886C407.599 164.597 407.64 164.275 407.83 164.052C408.086 163.747 408.532 163.705 408.92 163.598C409.324 163.482 409.721 163.251 409.943 162.888C410.166 162.525 410.175 162.021 409.894 161.699C408.457 162.417 406.69 161.748 405.13 162.145C404.395 162.335 403.743 162.739 403.074 163.086C401.885 162.681 400.745 162.17 399.664 161.534C399.656 161.55 399.647 161.567 399.639 161.583C387.097 153.624 373.713 134.989 368.189 126.682C361.658 123.421 357.687 125.543 358.397 131.793C362.278 154.425 382.754 165.059 396.667 168.073C396.617 168.172 396.576 168.271 396.526 168.37C397.707 168.659 398.863 169.023 400.011 169.419C401.059 170.443 402.256 171.318 403.569 171.97C404.065 172.218 404.634 172.441 405.171 172.292C405.666 172.152 406.046 171.706 406.55 171.623C406.946 171.557 407.359 171.731 407.747 171.648C408.383 171.524 408.754 170.823 409.365 170.608C409.679 170.501 410.018 170.525 410.348 170.476C410.678 170.426 411.025 170.253 411.108 169.931C411.223 169.567 410.909 169.221 410.637 168.948Z" fill="#14345A"/>
<path d="M434.309 158.701H399.177V164.522H434.309V158.701Z" fill="#F4424F"/>
<path d="M434.309 163.102H399.177V164.522H434.309V163.102Z" fill="#14345A"/>
<path d="M439.494 153.021H404.362V158.841H439.494V153.021Z" fill="#F4424F"/>
<path d="M439.494 157.248H404.362V158.841H439.494V157.248Z" fill="#14345A"/>
<path d="M435.977 164.093H400.844V169.914H435.977V164.093Z" fill="#F4424F"/>
<path d="M373.093 276.243C373.052 275.831 373.003 275.418 372.961 275.013C367.636 275.41 362.285 275.533 356.952 275.36C356.588 275.352 356.217 275.335 355.862 275.426C355.507 275.517 355.275 275.319 355.094 275.665C354.92 276.012 354.846 276.904 355.127 277.152C357.959 277.598 360.84 277.416 363.697 277.573C365.307 277.664 366.917 277.862 368.527 277.771C370.146 277.664 371.789 277.259 373.093 276.243Z" fill="white"/>
<path d="M364.639 276.871C367.537 276.995 370.592 277.044 373.143 275.665C373.143 274.534 372.309 273.543 371.31 273.007C370.319 272.47 369.172 272.297 368.057 272.09C366.942 271.884 365.803 271.636 364.886 270.967C363.97 270.307 363.326 269.134 363.615 268.044C361.047 268.317 358.454 268.399 355.87 268.267C355.143 270.885 354.83 273.618 354.945 276.334C358.182 276.557 361.41 276.73 364.639 276.871Z" fill="#14345A"/>
<path d="M363.136 270.744C363.268 270.703 363.408 270.777 363.532 270.843C365.481 271.966 367.694 272.627 369.931 272.751C369.568 273.213 368.957 273.436 368.362 273.461C367.768 273.486 367.19 273.337 366.612 273.197C365.341 272.875 363.978 272.495 363.144 271.487C363.053 271.372 362.963 271.248 362.946 271.108C362.93 270.951 362.996 270.786 363.136 270.744Z" fill="#D62D41"/>
<path d="M364.011 272.916C363.929 272.924 363.854 272.899 363.78 272.85C363.631 272.743 363.598 272.528 363.706 272.379C364.077 271.876 364.498 271.397 364.961 270.967C365.093 270.844 365.307 270.844 365.439 270.984C365.563 271.116 365.563 271.331 365.423 271.463C364.994 271.867 364.597 272.305 364.251 272.784C364.193 272.866 364.102 272.908 364.011 272.916Z" fill="white"/>
<path d="M365.431 273.469C365.365 273.477 365.291 273.461 365.225 273.419C365.068 273.32 365.019 273.114 365.118 272.957C365.415 272.478 365.778 272.032 366.191 271.644C366.323 271.52 366.538 271.52 366.67 271.661C366.794 271.793 366.794 272.007 366.653 272.14C366.282 272.486 365.96 272.883 365.687 273.312C365.63 273.411 365.53 273.461 365.431 273.469Z" fill="white"/>
<path d="M367.149 273.675C367.091 273.684 367.025 273.667 366.967 273.642C366.802 273.56 366.736 273.353 366.819 273.188C367.033 272.767 367.297 272.387 367.619 272.049C367.752 271.917 367.958 271.908 368.098 272.032C368.23 272.156 368.239 272.371 368.115 272.511C367.842 272.8 367.611 273.13 367.43 273.494C367.363 273.601 367.256 273.667 367.149 273.675Z" fill="white"/>
<path d="M355.598 271.455H366.761C365.993 239.65 367.042 207.804 369.428 176.098C363.078 176.478 356.646 175.198 350.801 172.391L345.789 172.094C341.107 190.002 343.617 209.249 347.358 227.438C350.363 242.044 354.145 256.617 355.598 271.455Z" fill="#14345A"/>
<path d="M366.761 277.507C366.711 277.094 366.67 276.681 366.62 276.277C360.882 276.673 355.127 276.797 349.38 276.624C348.992 276.615 348.588 276.599 348.208 276.69C347.828 276.781 347.572 276.582 347.382 276.929C347.192 277.276 347.11 278.168 347.415 278.415C350.462 278.861 353.567 278.68 356.646 278.836C358.38 278.927 360.114 279.125 361.848 279.035C363.582 278.927 365.349 278.514 366.761 277.507Z" fill="white"/>
<path d="M357.671 277.944C360.767 278.076 364.02 278.126 366.753 276.665C366.753 275.459 365.861 274.402 364.796 273.824C363.731 273.246 362.517 273.065 361.328 272.842C360.139 272.627 358.926 272.355 357.943 271.644C356.961 270.943 356.284 269.688 356.589 268.523C353.848 268.821 351.082 268.895 348.324 268.763C347.548 271.562 347.209 274.477 347.333 277.375C350.776 277.614 354.219 277.804 357.671 277.944Z" fill="#14345A"/>
<path d="M356.415 270.662C356.547 270.629 356.688 270.712 356.803 270.794C358.653 272.074 360.8 272.916 363.021 273.23C362.616 273.668 361.989 273.833 361.402 273.808C360.808 273.783 360.246 273.585 359.685 273.395C358.446 272.966 357.117 272.479 356.374 271.397C356.291 271.282 356.217 271.141 356.209 271.001C356.192 270.86 356.275 270.704 356.415 270.662Z" fill="#D62D41"/>
<path d="M357.109 272.908C357.026 272.908 356.952 272.883 356.886 272.825C356.746 272.701 356.729 272.487 356.853 272.346C357.266 271.876 357.728 271.438 358.224 271.05C358.372 270.935 358.579 270.959 358.694 271.108C358.81 271.257 358.785 271.463 358.636 271.579C358.174 271.942 357.745 272.355 357.357 272.792C357.299 272.867 357.2 272.908 357.109 272.908Z" fill="white"/>
<path d="M358.479 273.577C358.413 273.577 358.339 273.552 358.281 273.511C358.133 273.404 358.1 273.189 358.215 273.04C358.554 272.586 358.95 272.173 359.396 271.826C359.545 271.711 359.751 271.736 359.867 271.884C359.982 272.033 359.957 272.239 359.809 272.355C359.412 272.669 359.049 273.04 358.752 273.445C358.686 273.536 358.579 273.577 358.479 273.577Z" fill="white"/>
<path d="M360.172 273.923C360.114 273.923 360.048 273.907 359.999 273.874C359.842 273.775 359.792 273.568 359.891 273.411C360.139 273.015 360.436 272.652 360.783 272.346C360.923 272.223 361.13 272.231 361.262 272.371C361.386 272.511 361.377 272.726 361.237 272.85C360.94 273.114 360.684 273.428 360.469 273.775C360.395 273.866 360.279 273.923 360.172 273.923Z" fill="white"/>
<path d="M347.027 271.455H360.189C359.594 239.311 364.581 207.804 366.967 176.098C360.618 176.478 354.186 175.198 348.34 172.391L343.328 172.094C338.647 190.002 341.157 209.249 344.897 227.438C347.894 242.044 346.73 256.056 347.027 271.455Z" fill="#F4424F"/>
<path d="M366.967 176.098C364.119 176.271 361.254 176.09 358.438 175.603C355.945 207.234 353.146 239.724 356.902 271.454H360.188C359.586 239.303 364.581 207.804 366.967 176.098Z" fill="#D62D41"/>
<path d="M368.486 178.749H342.618V181.737H368.486V178.749Z" fill="#14345A"/>
<path d="M350.916 178.229H349.645V182.266H350.916V178.229Z" fill="#F4424F"/>
<path d="M363.887 178.229H362.616V182.266H363.887V178.229Z" fill="#F4424F"/>
<path d="M360.56 120.077C351.792 128.441 347.779 135.839 344.427 147.489C341.487 157.711 340.257 166.314 339.151 176.412C338.911 178.609 340.785 180.466 342.982 180.202C351.536 179.203 358.529 178.782 367 180.483C368.734 180.83 370.32 179.492 370.32 177.717C370.303 165.604 377.016 152.229 376.793 146.424C376.586 141.189 375.62 138.911 374.687 133.75C374.464 132.52 374.225 131.149 374.035 129.704C369.114 127.302 364.581 123.512 360.767 119.796L360.56 120.077Z" fill="#F4424F"/>
<path d="M374.687 133.758C374.465 132.528 374.225 131.157 374.035 129.712C369.981 127.731 366.191 124.808 362.847 121.761C354.904 130.208 363.607 141.701 361.13 151.593C359.429 159.255 354.318 165.216 356.019 172.887C356.019 173.737 356.87 176.297 356.87 177.147C356.052 177.964 355.177 178.683 354.252 179.335C358.389 179.269 362.484 179.574 366.992 180.474C368.726 180.821 370.311 179.484 370.311 177.708C370.295 165.596 377.008 152.22 376.785 146.416C376.595 141.189 375.62 138.919 374.687 133.758Z" fill="#D62D41"/>
<path d="M356.473 136.78C357.827 146.63 363.5 155.803 371.707 161.418C372.466 158.99 373.226 156.563 373.986 154.135C365.729 147.992 360.238 138.266 359.231 128.028C357.803 128.82 356.894 130.331 356.515 131.917C356.143 133.502 356.25 135.162 356.473 136.78Z" fill="#14345A"/>
<path d="M362.013 118.574C361.122 119.359 360.238 120.143 359.346 120.919C363.879 124.527 368.189 128.424 372.235 132.569C372.442 131.281 372.648 130.175 373.705 129.423C373.986 129.911 374.027 131.537 374.316 132.024C374.96 130.819 375.373 128.045 374.555 126.946C373.738 125.848 372.549 125.105 371.385 124.379C368.264 122.447 365.134 120.506 362.013 118.574Z" fill="white"/>
<path d="M353.749 130.53C353.633 130.117 353.294 130.026 352.997 130.167C352.7 130.315 352.419 130.654 352.155 131C349.422 134.576 347.209 139.447 345.954 144.649C345.855 145.07 345.756 145.499 345.773 145.912C345.789 146.325 345.938 146.696 346.185 146.696C346.425 146.705 346.656 146.383 346.862 146.085C349.538 142.13 351.825 137.366 353.526 132.231C353.699 131.678 353.889 131.009 353.749 130.53Z" fill="#F2D525"/>
<path d="M366.959 127.615C360.428 124.354 356.456 126.476 357.166 132.726C361.427 157.57 385.677 167.957 399.3 169.674C401.711 169.551 402.644 166.413 403.107 164.985C389.376 159.436 373.176 136.97 366.959 127.615Z" fill="#F4424F"/>
<path d="M409.398 169.881C408.399 168.898 407.524 167.8 406.789 166.611C406.632 166.363 406.484 166.099 406.426 165.819C406.36 165.53 406.401 165.208 406.591 164.985C406.847 164.679 407.293 164.638 407.681 164.53C408.086 164.415 408.482 164.184 408.705 163.82C408.928 163.457 408.936 162.953 408.655 162.631C407.219 163.35 405.452 162.681 403.891 163.077C403.156 163.267 402.504 163.672 401.835 164.019C400.646 163.614 399.507 163.102 398.425 162.466C397.385 164.745 396.336 167.032 395.296 169.311C396.477 169.6 397.633 169.963 398.78 170.36C399.829 171.384 401.026 172.259 402.339 172.911C402.834 173.159 403.404 173.382 403.941 173.233C404.436 173.093 404.816 172.647 405.32 172.564C405.716 172.498 406.129 172.672 406.517 172.589C407.153 172.465 407.524 171.763 408.135 171.549C408.449 171.441 408.787 171.466 409.118 171.417C409.448 171.367 409.795 171.194 409.877 170.872C409.985 170.492 409.671 170.153 409.398 169.881Z" fill="white"/>
<path d="M360.213 135.079C360.057 135.789 360.081 136.532 360.337 137.259C360.94 138.976 362.715 140.165 364.532 139.959C366.167 139.777 367.62 138.539 368.099 136.962C368.569 135.385 368.057 133.568 366.844 132.454C366.01 131.694 364.829 131.256 363.731 131.504C361.989 131.9 360.585 133.378 360.213 135.079Z" fill="#F2D525"/>
<path d="M89.9387 265.246L29.6318 291.139C23.2246 293.698 18.056 289.95 19.1458 284.228V51.2991C19.1458 45.8992 24.6696 42.258 29.6318 44.3882L89.9387 70.2812C92.0194 71.1729 93.3735 73.2288 93.3735 75.4911V260.028C93.3735 262.298 92.0276 264.354 89.9387 265.246Z" fill="#14345A"/>
<path d="M89.4019 262.785L30.1602 288.505C28.0878 289.405 25.7842 287.869 25.7842 285.59V50.5477C25.7842 48.2688 30.4905 46.9725 32.5547 47.8725L89.3937 73.3526C89.9551 73.6003 90.3184 74.1535 90.3184 74.781V261.365C90.3267 261.985 89.9634 262.546 89.4019 262.785Z" fill="#1E81AD"/>
<path d="M90.3929 261.373L31.1512 286.804C29.0788 287.696 26.7751 286.177 26.7751 283.922V51.5136C26.7751 49.2595 31.4815 47.9797 33.5456 48.8714L90.3929 74.0626C90.9544 74.302 91.3176 74.8552 91.3176 75.4745V259.97C91.3176 260.581 90.9544 261.134 90.3929 261.373Z" fill="white"/>
<path d="M90.8635 258.632L34.363 283.667C32.3896 284.542 30.1934 283.047 30.1934 280.826V52.0586C30.1934 49.8375 32.3896 48.3431 34.363 49.2183L90.8635 74.2525C91.4002 74.492 91.747 75.0369 91.747 75.6396V257.245C91.747 257.848 91.4002 258.393 90.8635 258.632Z" fill="#3AC1B0"/>
<path d="M86.3799 250.4L40.8113 264.23V139.315L86.3799 147.77V250.4Z" fill="#FEECCB"/>
<path d="M68.7932 148.076V252.333L84.9846 247.412V151.081L68.7932 148.076Z" fill="#14345A"/>
<path d="M67.2987 147.803L42.2148 143.146V260.399L67.2987 252.778V147.803Z" fill="#14345A"/>
<path d="M41.4637 177.568H41.3234L41.1665 176.776L61.4614 168.395L61.7834 169.163L41.4803 177.535L41.4637 177.494V177.568Z" fill="#FEECCB"/>
<path d="M72.3767 173.564L62.3035 174.257L40.283 138.539L50.8102 139.934L72.3767 173.564Z" fill="#F2D525"/>
<path d="M80.6003 173.002L71.6087 173.622L50.001 139.827L59.4879 141.082L80.6003 173.002Z" fill="#F4424F"/>
<path d="M87.9818 172.499L79.9068 173.052L58.7532 140.983L67.3401 142.122L87.9818 172.499Z" fill="#F2D525"/>
<path d="M94.6531 172.044L87.3624 172.548L66.6711 142.031L74.482 143.063L94.6531 172.044Z" fill="#F4424F"/>
<path d="M100.705 171.632L94.0915 172.086L73.8792 142.989L81.0129 143.931L100.705 171.632Z" fill="#F2D525"/>
<path d="M106.229 171.26L100.193 171.673L80.46 143.856L87.0075 144.723L106.229 171.26Z" fill="#F4424F"/>
<path d="M81.1535 129.019L41.348 122.249C39.7793 121.984 38.6316 120.622 38.6316 119.028V100.038C38.6316 97.9409 40.5719 96.3886 42.6196 96.851L82.3755 105.876C83.8617 106.214 84.9103 107.527 84.9186 109.046L84.9681 125.782C84.9681 127.822 83.1434 129.358 81.1535 129.019Z" fill="#FEECCB"/>
<path d="M47.7394 116.181C46.8463 116.029 46.0392 115.697 45.3181 115.184C44.6053 114.672 44.044 114.041 43.6343 113.29C43.2328 112.532 43.0321 111.725 43.0321 110.868C43.0321 110.012 43.2328 109.278 43.6343 108.664C44.044 108.044 44.6053 107.599 45.3181 107.33C46.0392 107.061 46.8463 107.003 47.7394 107.155C48.6325 107.307 49.4355 107.638 50.1484 108.15C50.8612 108.662 51.4225 109.297 51.8322 110.056C52.2419 110.807 52.4467 111.611 52.4467 112.467C52.4467 113.323 52.2419 114.061 51.8322 114.682C51.4225 115.293 50.8612 115.734 50.1484 116.004C49.4355 116.273 48.6325 116.332 47.7394 116.181ZM47.7394 114.46C48.2474 114.547 48.7063 114.508 49.1159 114.345C49.5256 114.174 49.8452 113.895 50.0746 113.51C50.3122 113.127 50.431 112.665 50.431 112.125C50.431 111.585 50.3122 111.082 50.0746 110.618C49.8452 110.155 49.5256 109.773 49.1159 109.471C48.7063 109.16 48.2474 108.962 47.7394 108.875C47.2314 108.789 46.7725 108.832 46.3628 109.003C45.9531 109.166 45.6295 109.44 45.3919 109.823C45.1624 110.208 45.0477 110.671 45.0477 111.211C45.0477 111.751 45.1624 112.252 45.3919 112.715C45.6295 113.18 45.9531 113.567 46.3628 113.877C46.7725 114.18 47.2314 114.374 47.7394 114.46ZM59.4247 118.015L57.7655 115.303L57.6672 115.286L55.9342 114.992V117.423L53.9431 117.084V108.358L57.6672 108.99C58.4292 109.12 59.0888 109.36 59.646 109.713C60.2113 110.066 60.6456 110.506 60.9488 111.031C61.2519 111.556 61.4035 112.143 61.4035 112.791C61.4035 113.439 61.2478 113.974 60.9365 114.395C60.6333 114.809 60.199 115.092 59.6337 115.246L61.5633 118.378L59.4247 118.015ZM59.3879 112.449C59.3879 111.959 59.2322 111.558 58.9208 111.248C58.6094 110.929 58.1547 110.719 57.5565 110.617L55.9342 110.342V113.383L57.5565 113.659C58.1547 113.76 58.6094 113.705 58.9208 113.492C59.2322 113.279 59.3879 112.931 59.3879 112.449ZM62.981 109.893L66.8895 110.556C67.8236 110.715 68.647 111.037 69.3599 111.524C70.0809 112.004 70.6381 112.606 71.0314 113.329C71.4329 114.054 71.6337 114.852 71.6337 115.725C71.6337 116.598 71.4329 117.328 71.0314 117.917C70.6381 118.506 70.0809 118.923 69.3599 119.166C68.647 119.403 67.8236 119.441 66.8895 119.283L62.981 118.619V109.893ZM66.7911 117.608C67.6515 117.754 68.3357 117.629 68.8437 117.233C69.3599 116.831 69.618 116.214 69.618 115.383C69.618 114.552 69.3599 113.851 68.8437 113.282C68.3357 112.705 67.6515 112.344 66.7911 112.198L64.9721 111.889V117.299L66.7911 117.608ZM79.7968 119.854V121.474L73.1352 120.343V111.617L79.637 112.721V114.341L75.114 113.573V115.468L79.1085 116.147V117.717L75.114 117.039V119.059L79.7968 119.854ZM49.0545 131.254L47.3953 128.542L47.2969 128.525L45.5639 128.231V130.662L43.5729 130.324V121.597L47.2969 122.229C48.0589 122.359 48.7185 122.6 49.2757 122.952C49.8411 123.305 50.2754 123.745 50.5785 124.27C50.8817 124.795 51.0333 125.382 51.0333 126.03C51.0333 126.679 50.8776 127.213 50.5662 127.634C50.2631 128.048 49.8288 128.332 49.2634 128.485L51.1931 131.618L49.0545 131.254ZM49.0176 125.688C49.0176 125.198 48.8619 124.797 48.5506 124.487C48.2392 124.168 47.7845 123.958 47.1863 123.856L45.5639 123.581V126.623L47.1863 126.898C47.7845 127 48.2392 126.944 48.5506 126.731C48.8619 126.518 49.0176 126.17 49.0176 125.688Z" fill="#14345A"/>
<path d="M81.7481 74.1372V75.0785L80.9802 74.7977L80.9885 77.2747L81.7481 77.5555V78.4967L89.1626 81.2214L89.1543 76.8619L81.7481 74.1372Z" fill="#14345A"/>
<path d="M35.6509 60.9842L34.2307 60.5384V58.5815L35.6509 59.0357V60.9842Z" fill="#14345A"/>
<path d="M37.9958 61.7192L36.5756 61.2733L36.5674 58.2349L37.9875 58.6807L37.9958 61.7192Z" fill="#14345A"/>
<path d="M40.3322 62.4624L38.9121 62.0165L38.9038 57.5166L40.324 57.9707L40.3322 62.4624Z" fill="#14345A"/>
<path d="M42.6774 63.197L41.2572 62.7512L41.2407 57.1201L42.6691 57.5742L42.6774 63.197Z" fill="#14345A"/>
<path d="M75.3489 66.6724C69.5693 64.3606 63.9052 61.5946 58.1255 59.2827C59.4466 61.5203 60.7594 63.7496 62.0804 65.9871L72.4756 69.4797C73.5985 68.5302 74.4242 67.8284 75.3489 66.6724Z" fill="#14345A"/>
<path d="M24.3889 110.689V87.0089C24.3889 86.3071 23.8191 85.7456 23.1256 85.7456C22.4238 85.7456 21.8623 86.3153 21.8623 87.0089V110.689H24.3889Z" fill="#1E81AD"/>
<path d="M21.854 114.198V139.051C21.854 139.753 22.4237 140.314 23.1173 140.314C23.8191 140.314 24.3805 139.744 24.3805 139.051V114.198H21.854Z" fill="#1E81AD"/>
<path d="M22.7953 77.613C23.9718 77.613 24.9255 76.6593 24.9255 75.4828C24.9255 74.3063 23.9718 73.3525 22.7953 73.3525C21.6188 73.3525 20.665 74.3063 20.665 75.4828C20.665 76.6593 21.6188 77.613 22.7953 77.613Z" fill="#1E81AD"/>
<path d="M173.339 245.157C170.838 245.157 168.311 245.157 165.768 245.157C112.958 245.157 70.1472 245.694 70.1472 246.354C70.1472 247.015 112.958 247.552 165.768 247.552C168.319 247.552 170.846 247.552 173.339 247.552V245.157Z" fill="#F4424F"/>
<path d="M177.592 237.767C176.683 237.767 175.759 237.767 174.834 237.767C155.588 237.767 139.982 238.18 139.982 238.692C139.982 239.204 155.588 239.617 174.834 239.617C175.767 239.617 176.683 239.617 177.592 239.617V237.767Z" fill="#F4424F"/>
<path d="M174.19 216.787C172.869 216.787 171.531 216.787 170.177 216.787C142.212 216.787 119.539 217.126 119.539 217.538C119.539 217.951 142.212 218.29 170.177 218.29C171.531 218.29 172.869 218.29 174.19 218.29V216.787Z" fill="#F4424F"/>
<path d="M189.159 267.235C200.559 267.235 209.801 257.993 209.801 246.593C209.801 235.193 200.559 225.952 189.159 225.952C177.759 225.952 168.517 235.193 168.517 246.593C168.517 257.993 177.759 267.235 189.159 267.235Z" fill="#14345A"/>
<path d="M189.159 259.978C196.551 259.978 202.543 253.985 202.543 246.594C202.543 239.202 196.551 233.209 189.159 233.209C181.767 233.209 175.775 239.202 175.775 246.594C175.775 253.985 181.767 259.978 189.159 259.978Z" fill="#3AC1B0"/>
<path d="M261.966 245.875C264.311 243.34 265.096 239.608 266.326 236.264C268.737 229.7 273.237 224.094 278.86 220.626C280.362 219.701 281.948 218.917 283.31 217.769C284.672 216.613 285.828 215.011 286.035 213.137C286.2 211.676 285.77 210.214 285.349 208.811C282.608 199.654 279.867 190.489 276.572 181.547C275.722 179.235 274.55 176.659 272.337 176.065C270.867 175.668 269.34 176.304 267.936 176.94C263.618 178.888 259.052 181.209 256.69 185.626C255.006 188.78 254.692 192.586 254.8 196.236C255.039 204.212 257.078 211.981 257.978 219.891C258.878 227.809 258.49 236.371 254.387 242.96C253.479 244.413 252.413 245.743 251.423 247.13C254.651 249.351 259.25 248.814 261.966 245.875Z" fill="#14345A"/>
<path d="M221.013 204.592C224.514 204.996 228.419 206.095 229.666 208.679C230.707 210.834 229.509 213.195 228.659 215.4C226.941 219.867 226.686 224.672 227.916 229.238C228.799 232.508 230.649 235.86 234.298 237.619C237.527 239.171 241.539 239.196 245.329 239.179C250.779 239.154 256.699 238.989 260.893 236.281C262.693 240.459 259.258 245.132 254.436 247.427C249.614 249.723 243.76 250.177 238.129 250.499C217.578 251.663 196.928 251.737 176.345 251.036C172.976 250.92 169.302 250.689 166.825 248.905C163.778 246.717 163.654 243.068 163.745 239.84C163.951 232.433 164.315 224.598 169.483 218.38C172.67 214.549 177.484 211.651 182.752 209.653C188.011 207.647 193.733 206.483 199.48 205.591C206.564 204.484 213.863 203.766 221.013 204.592Z" fill="#F4424F"/>
<path d="M239.285 248.294C243.471 248.063 247.748 247.807 251.637 246.23C255.526 244.653 259.019 241.474 259.828 237.363C259.977 236.587 259.894 235.563 259.143 235.323C257.739 238.775 254.089 240.855 250.44 241.615C246.791 242.374 243.017 242.052 239.285 242.151C235.561 242.251 231.656 242.837 228.692 245.099C228.172 245.495 227.668 245.958 227.42 246.561C227.173 247.163 227.214 247.931 227.685 248.394C228.188 248.881 228.981 248.872 229.683 248.839C232.878 248.649 236.082 248.476 239.285 248.294Z" fill="#14345A"/>
<path d="M187.763 212.089C197.465 208.547 207.984 207.506 218.288 208.332C220.526 208.514 223.135 209.042 224.06 211.081C224.679 212.452 224.299 214.029 224.002 215.499C222.565 222.583 223.292 230.088 226.074 236.76C226.768 238.428 227.594 240.079 227.874 241.862C228.155 243.646 227.784 245.669 226.413 246.849C225.009 248.071 222.962 248.121 221.104 248.104C209.305 248.03 197.432 247.947 185.807 245.916C182.273 245.305 178.475 244.323 176.311 241.466C174.198 238.667 174.239 234.844 174.495 231.352C174.842 226.513 175.544 221.386 178.673 217.679C180.993 214.937 184.378 213.319 187.763 212.089Z" fill="#D62D41"/>
<path d="M278.925 161.087C280.139 163.894 280.139 167.056 280.081 170.12C279.503 170.169 278.934 170.227 278.356 170.276C277.563 166.321 276.382 162.433 274.847 158.701C275.615 158.255 276.638 158.428 277.365 158.948C278.092 159.468 278.57 160.269 278.925 161.087Z" fill="white"/>
<path d="M279.619 172.11C279.652 168.295 278.843 164.473 277.258 160.996C276.432 159.188 275.095 157.273 273.105 157.141C272.056 157.075 271.057 157.537 270.124 158.008C268.283 158.941 266.458 160.006 265.054 161.517C262.693 164.068 261.768 167.594 260.934 170.962C260.778 171.606 260.621 172.316 260.918 172.911C261.306 173.687 262.206 173.893 263.122 173.893C263.477 175.033 263.833 176.18 264.188 177.32C264.245 177.502 264.311 177.691 264.477 177.791C264.642 177.881 264.848 177.84 265.038 177.791C266.425 177.436 267.82 177.072 269.208 176.717C269.868 176.544 270.562 176.362 271.049 175.875C271.453 175.47 271.652 174.909 271.883 174.381C272.114 173.86 272.386 173.357 272.692 172.878C275.004 172.622 277.316 172.366 279.619 172.11Z" fill="#F4424F"/>
<path d="M268.423 164.48C266.978 164.249 265.401 164.53 264.311 165.496C263.222 166.47 262.784 168.204 263.535 169.459C264.27 170.673 265.93 171.11 267.284 170.681C268.63 170.243 269.662 169.096 270.248 167.808C270.554 167.139 270.743 166.346 270.43 165.686C270.083 164.943 269.224 164.604 268.423 164.48Z" fill="#14345A"/>
<path d="M290.51 267.235C301.91 267.235 311.151 257.993 311.151 246.593C311.151 235.193 301.91 225.952 290.51 225.952C279.11 225.952 269.868 235.193 269.868 246.593C269.868 257.993 279.11 267.235 290.51 267.235Z" fill="#14345A"/>
<path d="M290.509 259.978C297.901 259.978 303.893 253.985 303.893 246.594C303.893 239.202 297.901 233.209 290.509 233.209C283.117 233.209 277.125 239.202 277.125 246.594C277.125 253.985 283.117 259.978 290.509 259.978Z" fill="#3AC1B0"/>
<path d="M282.724 252.687C285.192 254.883 289.065 254.28 292.078 252.934C293.862 252.134 295.67 250.978 296.322 249.136C296.9 247.502 296.43 245.71 295.934 244.05C293.779 236.859 291.137 229.807 288.024 222.979C287.372 221.543 286.505 219.949 284.978 219.561C284.466 219.429 283.921 219.445 283.442 219.239C282.955 219.033 282.55 218.471 282.781 217.992C280.114 218.793 277.555 219.949 275.193 221.435C274.343 221.972 273.476 222.608 273.154 223.557C272.832 224.507 273.129 225.539 273.435 226.497C275.672 233.581 277.902 240.673 280.139 247.758C280.692 249.557 281.32 251.44 282.724 252.687Z" fill="#14345A"/>
<path d="M288.454 251.704C286.167 251.704 284.309 249.846 284.309 247.559C284.309 245.272 286.167 243.415 288.454 243.415C290.741 243.415 292.599 245.272 292.599 247.559C292.599 249.846 290.741 251.704 288.454 251.704ZM288.454 244.034C286.513 244.034 284.928 245.611 284.928 247.559C284.928 249.5 286.505 251.085 288.454 251.085C290.394 251.085 291.979 249.508 291.979 247.559C291.979 245.619 290.402 244.034 288.454 244.034Z" fill="white"/>
<path d="M195.871 212.312C190.249 211.222 184.296 212.865 179.564 216.085C174.833 219.313 171.234 224.012 168.624 229.106C166.015 234.209 164.331 239.724 162.836 245.256C162.589 246.189 162.349 247.221 162.787 248.08C163.15 248.79 163.902 249.211 164.62 249.566C169.698 252.018 175.403 252.827 181.026 253.24C192.684 254.091 204.45 253.339 215.902 251.011C217.157 250.755 218.437 250.474 219.502 249.764C220.369 249.194 221.046 248.377 221.616 247.51C224.159 243.638 224.696 238.659 223.663 234.142C222.64 229.626 220.163 225.539 217.124 222.046C214.11 218.579 210.461 215.59 206.234 213.782C202.006 211.973 197.176 211.404 192.759 212.675" fill="#14345A"/>
<path d="M197.754 211.503C197.754 211.973 197.374 212.353 196.904 212.353H155.026C154.555 212.353 154.175 211.973 154.175 211.503C154.175 211.032 154.555 210.652 155.026 210.652H196.904C197.374 210.652 197.754 211.032 197.754 211.503Z" fill="#14345A"/>
<path d="M316.312 246.519C315.561 240.277 313.736 235.562 309.748 230.807C308.369 229.163 306.767 227.256 303.803 225.299C296.298 220.337 286.415 219.421 278.736 224.036C271.173 228.569 266.376 237.445 265.946 246.527H316.312V246.519Z" fill="#F4424F"/>
<path d="M268.498 245.297C269.059 239.253 272.824 233.606 278.183 230.765C283.541 227.925 290.337 227.983 295.646 230.914C300.955 233.845 304.629 239.559 305.083 245.611L268.498 245.297Z" fill="#D62D41"/>
<path d="M307.767 238.551C307.659 238.551 307.552 238.494 307.494 238.386C303.812 231.641 297.429 226.918 290.427 225.737C282.963 224.482 275.202 227.57 271.132 233.408C271.032 233.548 270.843 233.581 270.702 233.482C270.562 233.383 270.529 233.193 270.628 233.053C274.839 227.017 282.831 223.83 290.535 225.126C297.726 226.332 304.266 231.178 308.039 238.089C308.122 238.238 308.064 238.428 307.915 238.51C307.866 238.535 307.816 238.551 307.767 238.551Z" fill="white"/>
<path d="M230.236 207.944C230.987 207.168 230.5 205.88 229.881 204.996C227.594 201.76 224.043 199.588 220.287 198.325C216.53 197.062 212.55 196.641 208.603 196.319C206.737 196.17 204.739 196.063 203.137 197.037C200.867 198.416 200.264 201.38 199.876 204.006C199.604 205.847 199.562 208.175 201.214 209.034C201.891 209.389 202.7 209.364 203.468 209.339C211.782 209.05 220.105 208.77 228.419 208.481C229.072 208.464 229.782 208.406 230.236 207.944Z" fill="#14345A"/>
<path d="M222.483 206.73C222.384 206.73 222.285 206.68 222.227 206.59C218.173 200.562 210.123 197.483 203.088 199.266C202.923 199.307 202.758 199.208 202.708 199.043C202.667 198.878 202.766 198.713 202.931 198.663C210.213 196.814 218.544 200.009 222.739 206.243C222.838 206.383 222.797 206.573 222.656 206.672C222.607 206.713 222.541 206.73 222.483 206.73Z" fill="white"/>
<path d="M260.315 200.603C259.696 199.893 258.573 200.067 257.656 200.306C256.236 200.669 254.61 201.223 254.131 202.61C253.924 203.221 253.982 203.881 254.048 204.525C254.428 208.191 254.8 211.849 255.179 215.515C255.311 216.786 256.467 217.703 257.739 217.53L260.414 217.158C261.009 217.075 261.644 216.976 262.065 216.547C262.635 215.961 262.561 215.02 262.453 214.21C261.892 210.14 261.339 206.069 260.777 201.999C260.72 201.487 260.637 200.975 260.315 200.603Z" fill="white"/>
<path d="M255.493 198.869L255.848 201.495L258.474 200.892L257.623 198.374L255.493 198.869Z" fill="white"/>
<path d="M254.065 199.613C255.526 199.283 257.021 199.084 258.515 199.002C258.433 198.077 258.35 197.152 258.259 196.236C256.715 196.442 255.163 196.64 253.619 196.847C253.66 197.78 253.809 198.713 254.065 199.613Z" fill="#F4424F"/>
<path d="M251.745 199.2C251.67 199.464 251.687 199.778 251.868 199.985C252.05 200.191 252.422 200.232 252.595 200.009C252.512 199.605 252.752 199.192 253.09 198.953C253.429 198.721 253.85 198.639 254.263 198.614C254.676 198.581 255.089 198.597 255.493 198.515C255.278 198.209 255.179 197.838 255.204 197.466C254.568 197.697 253.875 197.739 253.223 197.937C252.587 198.135 251.935 198.548 251.745 199.2Z" fill="#F4424F"/>
<path d="M263.485 209.686C263.362 207.217 263.048 204.757 262.552 202.337C261.124 205.855 257.631 208.447 253.842 208.778C253.916 209.529 253.99 210.28 254.056 211.032C257.177 210.388 260.323 209.942 263.485 209.686Z" fill="#14345A"/>
<path d="M155.934 170.327C153.87 171.697 151.797 173.249 150.699 175.47C149.444 177.997 149.659 180.978 149.948 183.785C150.6 190.176 151.484 196.542 152.582 202.866C153.028 205.426 153.655 208.225 155.744 209.76C157.528 211.073 159.914 211.123 162.127 211.123C172.414 211.106 182.702 211.09 192.99 211.073C194.798 211.073 196.862 210.958 198.01 209.554C198.885 208.489 198.951 207.003 198.976 205.632C199.232 192.298 199.488 178.963 199.752 165.629C199.785 164.027 199.785 162.318 198.935 160.964C198.15 159.708 196.755 158.965 195.351 158.487C190.224 156.72 184.56 157.768 179.358 159.32C171.052 161.806 163.134 165.521 155.934 170.327Z" fill="#F4424F"/>
<path d="M195.797 184.842C181.711 184.834 167.625 186.361 153.861 189.383C153.762 185.337 153.672 181.283 153.573 177.229C166.676 170.261 181.199 165.984 195.987 164.737C195.921 171.441 195.855 178.137 195.797 184.842Z" fill="#F2D525"/>
<path d="M175.783 204.832C180.074 204.832 183.553 201.353 183.553 197.062C183.553 192.771 180.074 189.292 175.783 189.292C171.492 189.292 168.014 192.771 168.014 197.062C168.014 201.353 171.492 204.832 175.783 204.832Z" fill="#F2D525"/>
<path d="M184.75 160.418C177.178 161.764 169.937 164.538 162.87 167.56C158.964 169.237 154.861 171.185 152.631 174.802C154.91 172.374 158.469 170.442 161.557 169.204C166.957 167.032 171.209 165.348 176.749 163.523C182.232 161.723 188.886 160.328 194.526 161.55C191.776 159.593 188.069 159.824 184.75 160.418Z" fill="white"/>
<path d="M193.106 215.713C187.483 214.623 181.53 216.266 176.799 219.486C172.068 222.715 168.468 227.413 165.859 232.507C163.249 237.61 161.565 243.125 160.071 248.657C159.823 249.59 159.583 250.622 160.021 251.481C160.384 252.191 161.136 252.612 161.854 252.967C166.932 255.42 172.637 256.229 178.26 256.642C189.918 257.492 201.684 256.741 213.136 254.412C214.391 254.156 215.671 253.876 216.736 253.165C217.603 252.596 218.28 251.778 218.85 250.911C221.393 247.039 221.93 242.06 220.898 237.544C219.874 233.027 217.397 228.94 214.358 225.448C211.345 221.98 207.695 218.991 203.468 217.183C199.24 215.375 194.41 214.805 189.993 216.077" fill="#F4424F"/>
<path d="M211.13 223.615C210.816 223.615 210.494 223.615 210.18 223.623C210.296 225.027 208.669 225.861 207.324 226.29C193.205 230.798 178.887 234.629 164.57 238.469C163.505 242.291 162.448 246.114 161.383 249.937C179.399 249.293 196.953 244.38 214.3 239.492C215.861 239.055 217.653 238.386 218.098 236.834C218.462 235.554 217.735 234.249 217.033 233.126C215.077 229.956 213.103 226.785 211.13 223.615Z" fill="#F2D525"/>
<path d="M166.544 233.911C166.503 233.911 166.47 233.903 166.428 233.886C166.271 233.82 166.197 233.638 166.255 233.482C169.046 226.595 174.858 220.94 181.819 218.339C188.779 215.746 196.879 216.209 203.501 219.586C203.649 219.66 203.715 219.85 203.633 219.998C203.559 220.147 203.369 220.213 203.22 220.13C196.755 216.828 188.837 216.374 182.042 218.908C175.246 221.443 169.558 226.975 166.833 233.704C166.783 233.837 166.668 233.911 166.544 233.911Z" fill="white"/>
<path d="M212.319 251.547C212.278 251.844 211.997 252.141 211.692 252.208C208.026 252.992 206.217 253.182 202.758 253.132C202.469 253.132 202.32 252.876 202.436 252.571C202.551 252.265 202.865 252.026 203.154 252.026C206.523 252.067 208.282 251.886 211.848 251.126C212.146 251.068 212.36 251.25 212.319 251.547Z" fill="#14345A"/>
<path d="M212.724 249.136C212.682 249.433 212.402 249.73 212.096 249.796C208.43 250.581 206.622 250.771 203.162 250.721C202.873 250.721 202.725 250.465 202.84 250.16C202.956 249.854 203.27 249.615 203.559 249.615C206.927 249.656 208.686 249.474 212.253 248.715C212.55 248.649 212.757 248.839 212.724 249.136Z" fill="#14345A"/>
<path d="M213.12 246.717C213.079 247.014 212.798 247.311 212.493 247.377C208.827 248.162 207.018 248.352 203.559 248.302C203.27 248.302 203.121 248.046 203.237 247.741C203.352 247.435 203.666 247.196 203.955 247.196C207.324 247.237 209.083 247.055 212.649 246.296C212.947 246.238 213.161 246.42 213.12 246.717Z" fill="#14345A"/>
<path d="M267.102 235.191C269.777 230.063 273.691 225.605 278.298 222.104C281.535 219.644 285.3 217.439 286.976 213.732C288.999 209.248 287.331 204.055 285.663 199.431C283.855 194.452 282.047 189.465 280.247 184.487C279.52 182.472 278.546 180.565 277.349 178.798C276.333 177.303 274.285 175.536 272.213 176.098C272.188 179.252 268.663 182.026 266.912 184.644C263.956 189.044 264.353 194.799 264.708 200.083C265.195 207.366 265.376 214.731 264.146 221.931C262.916 229.13 260.191 236.206 255.411 241.722C254.535 242.737 253.512 243.984 253.924 245.264C254.379 246.692 256.302 247.023 257.756 246.643C260.216 245.991 262.181 244.1 263.585 241.97C264.972 239.839 265.921 237.445 267.102 235.191Z" fill="#F4424F"/>
<path d="M269.48 197.623C270.586 197.763 271.412 196.632 271.792 195.584C272.593 193.354 272.551 190.861 273.583 188.731C273.922 188.029 274.376 187.385 274.607 186.642C274.838 185.899 274.797 184.999 274.244 184.454C273.715 183.933 272.849 183.876 272.155 184.148C271.461 184.421 270.916 184.966 270.438 185.535C268.134 188.252 266.879 192.008 267.721 195.468C267.936 196.434 268.497 197.491 269.48 197.623Z" fill="white"/>
<path d="M256.377 242.407C256.302 242.407 256.236 242.383 256.178 242.333C256.046 242.226 256.03 242.028 256.145 241.895C264.79 231.649 265.971 218.719 265.442 209.678C265.31 207.449 265.31 205.178 265.31 202.982C265.31 201.174 265.31 199.299 265.236 197.466L265.203 196.641C265.038 192.851 264.864 188.937 267.036 185.717C267.705 184.726 268.415 183.876 269.1 183.05C270.628 181.217 272.073 179.483 272.849 176.461C272.89 176.296 273.055 176.197 273.228 176.238C273.394 176.28 273.493 176.453 273.451 176.618C272.642 179.772 271.156 181.556 269.579 183.446C268.902 184.256 268.208 185.098 267.556 186.064C265.492 189.119 265.665 192.933 265.822 196.616L265.855 197.45C265.93 199.291 265.93 201.174 265.938 202.99C265.938 205.178 265.946 207.44 266.07 209.653C266.607 218.81 265.401 231.905 256.624 242.308C256.55 242.366 256.467 242.407 256.377 242.407Z" fill="white"/>
</svg>
