<svg width="583" height="314" viewBox="0 0 583 314" fill="none" xmlns="http://www.w3.org/2000/svg">
<path opacity="0.13" d="M340.382 299.662L0 300.021C0 300.021 13.8126 254.637 48.2545 258.404C82.6963 262.171 74.8034 237.954 80.1849 206.561C85.5665 175.169 117.856 117.049 177.142 122.789C236.429 128.529 208.983 68.7044 233.559 33.6347C272.665 -22.1539 380.475 -1.43502 384.242 134.449C388.009 270.333 459.135 150.863 517.704 184.856C576.273 218.849 505.954 270.333 535.732 265.758C565.51 261.094 581.834 270.153 583 299.483L340.382 299.662Z" fill="url(#paint0_radial)"/>
<g opacity="0.47">
<g opacity="0.47">
<path opacity="0.47" d="M411.418 299.842L338.857 299.931L338.678 148.441L411.329 165.662L411.418 299.842Z" fill="url(#paint1_radial)"/>
<g opacity="0.41">
<g opacity="0.41">
<g opacity="0.41">
<path opacity="0.41" d="M381.462 174.273H338.769V178.937H381.462V174.273Z" fill="white"/>
<path opacity="0.41" d="M381.461 183.869H338.768V188.533H381.461V183.869Z" fill="white"/>
<path opacity="0.41" d="M381.461 193.556H338.768V198.22H381.461V193.556Z" fill="white"/>
</g>
<g opacity="0.41">
<path opacity="0.41" d="M381.461 202.883H338.768V207.547H381.461V202.883Z" fill="white"/>
<path opacity="0.41" d="M381.46 212.57H338.767V217.234H381.46V212.57Z" fill="white"/>
<path opacity="0.41" d="M381.46 222.167H338.767V226.831H381.46V222.167Z" fill="white"/>
</g>
<g opacity="0.41">
<path opacity="0.41" d="M381.461 231.585H338.768V236.249H381.461V231.585Z" fill="white"/>
<path opacity="0.41" d="M381.46 241.182H338.767V245.846H381.46V241.182Z" fill="white"/>
<path opacity="0.41" d="M381.46 250.869H338.767V255.533H381.46V250.869Z" fill="white"/>
</g>
<g opacity="0.41">
<path opacity="0.41" d="M381.46 260.197H338.767V264.861H381.46V260.197Z" fill="white"/>
<path opacity="0.41" d="M381.549 269.884H338.855V274.548H381.549V269.884Z" fill="white"/>
<path opacity="0.41" d="M381.549 279.481H338.855V284.145H381.549V279.481Z" fill="white"/>
</g>
</g>
<g opacity="0.41">
<g opacity="0.41">
<path opacity="0.41" d="M393.212 174.183H387.382V178.847H393.212V174.183Z" fill="white"/>
<path opacity="0.41" d="M393.212 183.87H387.382V188.534H393.212V183.87Z" fill="white"/>
<path opacity="0.41" d="M393.212 193.466H387.382V198.13H393.212V193.466Z" fill="white"/>
</g>
<g opacity="0.41">
<path opacity="0.41" d="M393.212 202.884H387.382V207.548H393.212V202.884Z" fill="white"/>
<path opacity="0.41" d="M393.212 212.481H387.382V217.145H393.212V212.481Z" fill="white"/>
<path opacity="0.41" d="M393.212 222.168H387.382V226.832H393.212V222.168Z" fill="white"/>
</g>
<g opacity="0.41">
<path opacity="0.41" d="M393.304 231.585H387.474V236.249H393.304V231.585Z" fill="white"/>
<path opacity="0.41" d="M393.304 241.183H387.474V245.847H393.304V241.183Z" fill="white"/>
<path opacity="0.41" d="M393.304 250.78H387.474V255.444H393.304V250.78Z" fill="white"/>
</g>
<g opacity="0.41">
<path opacity="0.41" d="M393.304 260.197H387.474V264.861H393.304V260.197Z" fill="white"/>
<path opacity="0.41" d="M393.304 269.884H387.474V274.548H393.304V269.884Z" fill="white"/>
<path opacity="0.41" d="M393.304 279.481H387.474V284.145H393.304V279.481Z" fill="white"/>
</g>
</g>
<g opacity="0.41">
<g opacity="0.41">
<path opacity="0.41" d="M411.327 174.183H398.143V178.847H411.327V174.183Z" fill="white"/>
<path opacity="0.41" d="M411.325 183.87H398.141V188.534H411.325V183.87Z" fill="white"/>
<path opacity="0.41" d="M411.414 193.466H398.229V198.13H411.414V193.466Z" fill="white"/>
</g>
<g opacity="0.41">
<path opacity="0.41" d="M411.415 202.884H398.23V207.548H411.415V202.884Z" fill="white"/>
<path opacity="0.41" d="M411.415 212.481H398.23V217.145H411.415V212.481Z" fill="white"/>
<path opacity="0.41" d="M411.415 222.168H398.23V226.832H411.415V222.168Z" fill="white"/>
</g>
<g opacity="0.41">
<path opacity="0.41" d="M411.415 231.497H398.23V236.161H411.415V231.497Z" fill="white"/>
<path opacity="0.41" d="M411.415 241.183H398.23V245.847H411.415V241.183Z" fill="white"/>
<path opacity="0.41" d="M411.415 250.78H398.23V255.444H411.415V250.78Z" fill="white"/>
</g>
<g opacity="0.41">
<path opacity="0.41" d="M411.415 260.197H398.23V264.861H411.415V260.197Z" fill="white"/>
<path opacity="0.41" d="M411.415 269.794H398.23V274.458H411.415V269.794Z" fill="white"/>
<path opacity="0.41" d="M411.415 279.481H398.23V284.145H411.415V279.481Z" fill="white"/>
</g>
</g>
</g>
<path opacity="0.28" d="M359.216 290.873H348.633V299.842H359.216V290.873Z" fill="white"/>
<path opacity="0.28" d="M370.788 290.873H360.204V299.842H370.788V290.873Z" fill="white"/>
<path opacity="0.28" d="M387.471 290.873H376.888V295.357H387.471V290.873Z" fill="white"/>
<path opacity="0.28" d="M401.015 290.873H390.432V295.357H401.015V290.873Z" fill="white"/>
</g>
<g opacity="0.47">
<path opacity="0.47" d="M449.447 205.845H404.422V299.842H449.447V205.845Z" fill="url(#paint2_radial)"/>
<g opacity="0.42">
<g opacity="0.42">
<g opacity="0.42">
<path opacity="0.42" d="M434.918 218.76H431.24V221.63H434.918V218.76Z" fill="white"/>
<path opacity="0.42" d="M434.917 224.77H431.239V227.64H434.917V224.77Z" fill="white"/>
<path opacity="0.42" d="M434.917 230.779H431.239V233.649H434.917V230.779Z" fill="white"/>
</g>
<g opacity="0.42">
<path opacity="0.42" d="M434.916 236.609H431.238V239.479H434.916V236.609Z" fill="white"/>
<path opacity="0.42" d="M434.915 242.529H431.237V245.399H434.915V242.529Z" fill="white"/>
<path opacity="0.42" d="M434.915 248.538H431.237V251.408H434.915V248.538Z" fill="white"/>
</g>
<g opacity="0.42">
<path opacity="0.42" d="M434.916 254.368H431.238V257.238H434.916V254.368Z" fill="white"/>
<path opacity="0.42" d="M435.006 260.377H431.328V263.248H435.006V260.377Z" fill="white"/>
<path opacity="0.42" d="M435.006 266.297H431.328V269.168H435.006V266.297Z" fill="white"/>
</g>
<g opacity="0.42">
<path opacity="0.42" d="M435.006 272.127H431.329V274.998H435.006V272.127Z" fill="white"/>
<path opacity="0.42" d="M435.005 278.136H431.327V281.006H435.005V278.136Z" fill="white"/>
<path opacity="0.42" d="M435.005 284.146H431.327V287.016H435.005V284.146Z" fill="white"/>
</g>
</g>
<g opacity="0.42">
<g opacity="0.42">
<path opacity="0.42" d="M445.143 218.76H441.466V221.63H445.143V218.76Z" fill="white"/>
<path opacity="0.42" d="M445.143 224.77H441.466V227.64H445.143V224.77Z" fill="white"/>
<path opacity="0.42" d="M445.143 230.779H441.466V233.649H445.143V230.779Z" fill="white"/>
</g>
<g opacity="0.42">
<path opacity="0.42" d="M445.143 236.519H441.466V239.389H445.143V236.519Z" fill="white"/>
<path opacity="0.42" d="M445.143 242.529H441.466V245.399H445.143V242.529Z" fill="white"/>
<path opacity="0.42" d="M445.143 248.538H441.466V251.408H445.143V248.538Z" fill="white"/>
</g>
<g opacity="0.42">
<path opacity="0.42" d="M445.232 254.368H441.555V257.238H445.232V254.368Z" fill="white"/>
<path opacity="0.42" d="M445.232 260.288H441.555V263.158H445.232V260.288Z" fill="white"/>
<path opacity="0.42" d="M445.232 266.297H441.555V269.168H445.232V266.297Z" fill="white"/>
</g>
<g opacity="0.42">
<path opacity="0.42" d="M445.232 272.127H441.555V274.998H445.232V272.127Z" fill="white"/>
<path opacity="0.42" d="M445.232 278.136H441.555V281.006H445.232V278.136Z" fill="white"/>
<path opacity="0.42" d="M445.232 284.056H441.555V286.926H445.232V284.056Z" fill="white"/>
</g>
</g>
<g opacity="0.42">
<g opacity="0.42">
<path opacity="0.42" d="M414.468 218.852H410.791V221.722H414.468V218.852Z" fill="white"/>
<path opacity="0.42" d="M414.467 224.77H410.79V227.64H414.467V224.77Z" fill="white"/>
<path opacity="0.42" d="M414.467 230.779H410.79V233.649H414.467V230.779Z" fill="white"/>
</g>
<g opacity="0.42">
<path opacity="0.42" d="M414.467 236.609H410.79V239.479H414.467V236.609Z" fill="white"/>
<path opacity="0.42" d="M414.466 242.529H410.789V245.399H414.466V242.529Z" fill="white"/>
<path opacity="0.42" d="M414.466 248.538H410.789V251.408H414.466V248.538Z" fill="white"/>
</g>
<g opacity="0.42">
<path opacity="0.42" d="M414.466 254.368H410.789V257.238H414.466V254.368Z" fill="white"/>
<path opacity="0.42" d="M414.556 260.378H410.879V263.248H414.556V260.378Z" fill="white"/>
<path opacity="0.42" d="M414.556 266.298H410.879V269.168H414.556V266.298Z" fill="white"/>
</g>
<g opacity="0.42">
<path opacity="0.42" d="M414.556 272.127H410.879V274.998H414.556V272.127Z" fill="white"/>
<path opacity="0.42" d="M414.555 278.136H410.878V281.006H414.555V278.136Z" fill="white"/>
<path opacity="0.42" d="M414.555 284.146H410.878V287.016H414.555V284.146Z" fill="white"/>
</g>
</g>
<g opacity="0.42">
<g opacity="0.42">
<path opacity="0.42" d="M424.692 218.76H421.015V221.63H424.692V218.76Z" fill="white"/>
<path opacity="0.42" d="M424.692 224.77H421.015V227.64H424.692V224.77Z" fill="white"/>
<path opacity="0.42" d="M424.692 230.779H421.015V233.649H424.692V230.779Z" fill="white"/>
</g>
<g opacity="0.42">
<path opacity="0.42" d="M424.691 236.609H421.014V239.479H424.691V236.609Z" fill="white"/>
<path opacity="0.42" d="M424.691 242.529H421.014V245.399H424.691V242.529Z" fill="white"/>
<path opacity="0.42" d="M424.691 248.538H421.014V251.408H424.691V248.538Z" fill="white"/>
</g>
<g opacity="0.42">
<path opacity="0.42" d="M424.691 254.368H421.014V257.238H424.691V254.368Z" fill="white"/>
<path opacity="0.42" d="M424.783 260.377H421.105V263.248H424.783V260.377Z" fill="white"/>
<path opacity="0.42" d="M424.783 266.297H421.105V269.168H424.783V266.297Z" fill="white"/>
</g>
<g opacity="0.42">
<path opacity="0.42" d="M424.783 272.127H421.105V274.998H424.783V272.127Z" fill="white"/>
<path opacity="0.42" d="M424.782 278.136H421.104V281.006H424.782V278.136Z" fill="white"/>
<path opacity="0.42" d="M424.782 284.146H421.104V287.016H424.782V284.146Z" fill="white"/>
</g>
</g>
</g>
<path opacity="0.28" d="M417.068 294.281H410.521V299.842H417.068V294.281Z" fill="white"/>
<path opacity="0.28" d="M424.244 294.281H417.696V299.842H424.244V294.281Z" fill="white"/>
<path opacity="0.28" d="M434.559 294.191H428.012V296.972H434.559V294.191Z" fill="white"/>
<path opacity="0.28" d="M442.989 294.191H436.441V296.972H442.989V294.191Z" fill="white"/>
<path opacity="0.47" d="M446.935 200.643H410.431V206.383H446.935V200.643Z" fill="url(#paint3_radial)"/>
<path opacity="0.47" d="M446.936 194.902H418.683V200.643H446.936V194.902Z" fill="url(#paint4_radial)"/>
</g>
</g>
<g opacity="0.3">
<g opacity="0.3">
<g opacity="0.3">
<path opacity="0.3" d="M193.199 164.227H128.082V300.111H193.199V164.227Z" fill="url(#paint5_radial)"/>
<g opacity="0.41">
<g opacity="0.41">
<g opacity="0.41">
<path opacity="0.41" d="M166.198 187.368H127.989V191.583H166.198V187.368Z" fill="white"/>
<path opacity="0.41" d="M166.198 196.068H127.989V200.283H166.198V196.068Z" fill="white"/>
<path opacity="0.41" d="M166.198 204.678H127.989V208.894H166.198V204.678Z" fill="white"/>
</g>
<g opacity="0.41">
<path opacity="0.41" d="M166.198 213.109H127.989V217.325H166.198V213.109Z" fill="white"/>
<path opacity="0.41" d="M166.198 221.72H127.989V225.935H166.198V221.72Z" fill="white"/>
<path opacity="0.41" d="M166.288 230.42H128.079V234.635H166.288V230.42Z" fill="white"/>
</g>
<g opacity="0.41">
<path opacity="0.41" d="M166.29 238.851H128.081V243.067H166.29V238.851Z" fill="white"/>
<path opacity="0.41" d="M166.29 247.461H128.081V251.676H166.29V247.461Z" fill="white"/>
<path opacity="0.41" d="M166.29 256.072H128.081V260.287H166.29V256.072Z" fill="white"/>
</g>
<g opacity="0.41">
<path opacity="0.41" d="M166.29 264.503H128.081V268.718H166.29V264.503Z" fill="white"/>
<path opacity="0.41" d="M166.29 273.203H128.081V277.419H166.29V273.203Z" fill="white"/>
<path opacity="0.41" d="M166.29 281.814H128.081V286.029H166.29V281.814Z" fill="white"/>
</g>
</g>
<g opacity="0.41">
<g opacity="0.41">
<path opacity="0.41" d="M176.963 187.368H171.671V191.583H176.963V187.368Z" fill="white"/>
<path opacity="0.41" d="M176.962 195.979H171.67V200.194H176.962V195.979Z" fill="white"/>
<path opacity="0.41" d="M176.962 204.678H171.67V208.894H176.962V204.678Z" fill="white"/>
</g>
<g opacity="0.41">
<path opacity="0.41" d="M176.962 213.109H171.67V217.325H176.962V213.109Z" fill="white"/>
<path opacity="0.41" d="M176.961 221.72H171.669V225.935H176.961V221.72Z" fill="white"/>
<path opacity="0.41" d="M176.961 230.33H171.669V234.546H176.961V230.33Z" fill="white"/>
</g>
<g opacity="0.41">
<path opacity="0.41" d="M176.962 238.761H171.67V242.977H176.962V238.761Z" fill="white"/>
<path opacity="0.41" d="M176.961 247.461H171.669V251.677H176.961V247.461Z" fill="white"/>
<path opacity="0.41" d="M176.961 256.072H171.669V260.288H176.961V256.072Z" fill="white"/>
</g>
<g opacity="0.41">
<path opacity="0.41" d="M176.962 264.503H171.67V268.718H176.962V264.503Z" fill="white"/>
<path opacity="0.41" d="M176.961 273.114H171.669V277.329H176.961V273.114Z" fill="white"/>
<path opacity="0.41" d="M177.05 281.814H171.758V286.029H177.05V281.814Z" fill="white"/>
</g>
</g>
<g opacity="0.41">
<g opacity="0.41">
<path opacity="0.41" d="M193.107 187.368H181.268V191.583H193.107V187.368Z" fill="white"/>
<path opacity="0.41" d="M193.196 195.979H181.356V200.194H193.196V195.979Z" fill="white"/>
<path opacity="0.41" d="M193.196 204.678H181.356V208.894H193.196V204.678Z" fill="white"/>
</g>
<g opacity="0.41">
<path opacity="0.41" d="M193.193 213.109H181.354V217.325H193.193V213.109Z" fill="white"/>
<path opacity="0.41" d="M193.192 221.72H181.353V225.935H193.192V221.72Z" fill="white"/>
<path opacity="0.41" d="M193.192 230.33H181.353V234.546H193.192V230.33Z" fill="white"/>
</g>
<g opacity="0.41">
<path opacity="0.41" d="M193.193 238.761H181.354V242.977H193.193V238.761Z" fill="white"/>
<path opacity="0.41" d="M193.192 247.461H181.353V251.677H193.192V247.461Z" fill="white"/>
<path opacity="0.41" d="M193.192 256.072H181.353V260.288H193.192V256.072Z" fill="white"/>
</g>
<g opacity="0.41">
<path opacity="0.41" d="M193.193 264.503H181.354V268.718H193.193V264.503Z" fill="white"/>
<path opacity="0.41" d="M193.192 273.114H181.353V277.329H193.192V273.114Z" fill="white"/>
<path opacity="0.41" d="M193.192 281.814H181.353V286.029H193.192V281.814Z" fill="white"/>
</g>
</g>
</g>
<path opacity="0.28" d="M146.377 292.039H136.869V300.111H146.377V292.039Z" fill="white"/>
<path opacity="0.28" d="M156.692 292.039H147.185V300.111H156.692V292.039Z" fill="white"/>
<path opacity="0.28" d="M171.67 292.039H162.163V296.075H171.67V292.039Z" fill="white"/>
<path opacity="0.28" d="M183.869 291.949H174.361V295.985H183.869V291.949Z" fill="white"/>
<path opacity="0.21" d="M193.108 178.309H127.991V182.704H193.108V178.309Z" fill="white"/>
<path opacity="0.21" d="M193.108 170.595H127.991V174.99H193.108V170.595Z" fill="white"/>
</g>
<path opacity="0.3" d="M140.368 164.227H188.712V154.989H150.772L140.368 164.227Z" fill="url(#paint6_radial)"/>
</g>
<g opacity="0.3">
<path opacity="0.3" d="M269.166 127.542H186.47V300.021H269.166V127.542Z" fill="url(#paint7_radial)"/>
<g opacity="0.42">
<g opacity="0.42">
<g opacity="0.42">
<path opacity="0.42" d="M242.438 151.311H235.801V156.693H242.438V151.311Z" fill="white"/>
<path opacity="0.42" d="M242.437 162.254H235.8V167.635H242.437V162.254Z" fill="white"/>
<path opacity="0.42" d="M242.437 173.286H235.8V178.668H242.437V173.286Z" fill="white"/>
</g>
<g opacity="0.42">
<path opacity="0.42" d="M242.437 183.959H235.8V189.341H242.437V183.959Z" fill="white"/>
<path opacity="0.42" d="M242.436 194.902H235.799V200.283H242.436V194.902Z" fill="white"/>
<path opacity="0.42" d="M242.526 205.934H235.889V211.315H242.526V205.934Z" fill="white"/>
</g>
<g opacity="0.42">
<path opacity="0.42" d="M242.527 216.607H235.89V221.989H242.527V216.607Z" fill="white"/>
<path opacity="0.42" d="M242.527 227.55H235.89V232.931H242.527V227.55Z" fill="white"/>
<path opacity="0.42" d="M242.527 238.582H235.89V243.964H242.527V238.582Z" fill="white"/>
</g>
<g opacity="0.42">
<path opacity="0.42" d="M242.527 249.255H235.89V254.637H242.527V249.255Z" fill="white"/>
<path opacity="0.42" d="M242.527 260.197H235.89V265.579H242.527V260.197Z" fill="white"/>
<path opacity="0.42" d="M242.527 271.14H235.89V276.522H242.527V271.14Z" fill="white"/>
</g>
</g>
<g opacity="0.42">
<g opacity="0.42">
<path opacity="0.42" d="M261.183 151.311H254.546V156.693H261.183V151.311Z" fill="white"/>
<path opacity="0.42" d="M261.182 162.254H254.545V167.635H261.182V162.254Z" fill="white"/>
<path opacity="0.42" d="M261.273 173.196H254.636V178.578H261.273V173.196Z" fill="white"/>
</g>
<g opacity="0.42">
<path opacity="0.42" d="M261.272 183.959H254.635V189.341H261.272V183.959Z" fill="white"/>
<path opacity="0.42" d="M261.269 194.902H254.632V200.283H261.269V194.902Z" fill="white"/>
<path opacity="0.42" d="M261.269 205.844H254.632V211.225H261.269V205.844Z" fill="white"/>
</g>
<g opacity="0.42">
<path opacity="0.42" d="M261.272 216.607H254.635V221.989H261.272V216.607Z" fill="white"/>
<path opacity="0.42" d="M261.269 227.55H254.632V232.931H261.269V227.55Z" fill="white"/>
<path opacity="0.42" d="M261.269 238.492H254.632V243.874H261.269V238.492Z" fill="white"/>
</g>
<g opacity="0.42">
<path opacity="0.42" d="M261.272 249.255H254.635V254.637H261.272V249.255Z" fill="white"/>
<path opacity="0.42" d="M261.269 260.197H254.632V265.579H261.269V260.197Z" fill="white"/>
<path opacity="0.42" d="M261.359 271.14H254.722V276.522H261.359V271.14Z" fill="white"/>
</g>
</g>
<g opacity="0.42">
<g opacity="0.42">
<path opacity="0.42" d="M204.857 151.311H198.22V156.693H204.857V151.311Z" fill="white"/>
<path opacity="0.42" d="M204.948 162.343H198.311V167.725H204.948V162.343Z" fill="white"/>
<path opacity="0.42" d="M204.948 173.286H198.311V178.668H204.948V173.286Z" fill="white"/>
</g>
<g opacity="0.42">
<path opacity="0.42" d="M204.946 183.959H198.309V189.341H204.946V183.959Z" fill="white"/>
<path opacity="0.42" d="M204.945 194.992H198.308V200.373H204.945V194.992Z" fill="white"/>
<path opacity="0.42" d="M204.945 205.934H198.308V211.315H204.945V205.934Z" fill="white"/>
</g>
<g opacity="0.42">
<path opacity="0.42" d="M204.946 216.607H198.309V221.989H204.946V216.607Z" fill="white"/>
<path opacity="0.42" d="M204.945 227.64H198.308V233.021H204.945V227.64Z" fill="white"/>
<path opacity="0.42" d="M204.945 238.582H198.308V243.964H204.945V238.582Z" fill="white"/>
</g>
<g opacity="0.42">
<path opacity="0.42" d="M205.037 249.255H198.399V254.637H205.037V249.255Z" fill="white"/>
<path opacity="0.42" d="M205.037 260.288H198.399V265.669H205.037V260.288Z" fill="white"/>
<path opacity="0.42" d="M205.037 271.23H198.399V276.612H205.037V271.23Z" fill="white"/>
</g>
</g>
<g opacity="0.42">
<g opacity="0.42">
<path opacity="0.42" d="M223.694 151.311H217.057V156.693H223.694V151.311Z" fill="white"/>
<path opacity="0.42" d="M223.692 162.254H217.055V167.635H223.692V162.254Z" fill="white"/>
<path opacity="0.42" d="M223.692 173.286H217.055V178.668H223.692V173.286Z" fill="white"/>
</g>
<g opacity="0.42">
<path opacity="0.42" d="M223.692 183.959H217.055V189.341H223.692V183.959Z" fill="white"/>
<path opacity="0.42" d="M223.69 194.902H217.053V200.283H223.69V194.902Z" fill="white"/>
<path opacity="0.42" d="M223.69 205.934H217.053V211.315H223.69V205.934Z" fill="white"/>
</g>
<g opacity="0.42">
<path opacity="0.42" d="M223.69 216.607H217.053V221.989H223.69V216.607Z" fill="white"/>
<path opacity="0.42" d="M223.779 227.55H217.142V232.931H223.779V227.55Z" fill="white"/>
<path opacity="0.42" d="M223.779 238.582H217.142V243.964H223.779V238.582Z" fill="white"/>
</g>
<g opacity="0.42">
<path opacity="0.42" d="M223.784 249.255H217.146V254.637H223.784V249.255Z" fill="white"/>
<path opacity="0.42" d="M223.784 260.197H217.146V265.579H223.784V260.197Z" fill="white"/>
<path opacity="0.42" d="M223.784 271.23H217.146V276.612H223.784V271.23Z" fill="white"/>
</g>
</g>
</g>
<path opacity="0.28" d="M209.879 289.796H197.771V300.021H209.879V289.796Z" fill="white"/>
<path opacity="0.28" d="M222.974 289.796H210.865V300.021H222.974V289.796Z" fill="white"/>
<path opacity="0.28" d="M241.989 289.796H229.881V294.908H241.989V289.796Z" fill="white"/>
<path opacity="0.28" d="M257.417 289.706H245.309V294.819H257.417V289.706Z" fill="white"/>
<path opacity="0.3" d="M264.503 117.946H197.593V128.44H264.503V117.946Z" fill="url(#paint8_radial)"/>
<path opacity="0.3" d="M264.502 107.452H212.66V117.946H264.502V107.452Z" fill="url(#paint9_radial)"/>
</g>
<g opacity="0.3">
<path opacity="0.3" d="M93.1893 300.11H134.807L134.717 213.109L93.0996 223.154L93.1893 300.11Z" fill="url(#paint10_radial)"/>
<g opacity="0.41">
<g opacity="0.41">
<g opacity="0.41">
<path opacity="0.41" d="M110.258 230.642L134.744 230.618L134.742 227.927L110.256 227.951L110.258 230.642Z" fill="white"/>
<path opacity="0.41" d="M110.269 236.238L134.755 236.214L134.752 233.524L110.266 233.547L110.269 236.238Z" fill="white"/>
<path opacity="0.41" d="M110.278 241.744L134.764 241.721L134.761 239.03L110.275 239.053L110.278 241.744Z" fill="white"/>
</g>
<g opacity="0.41">
<path opacity="0.41" d="M110.292 247.147L134.778 247.124L134.776 244.433L110.29 244.456L110.292 247.147Z" fill="white"/>
<path opacity="0.41" d="M110.303 252.654L134.789 252.63L134.786 249.94L110.3 249.963L110.303 252.654Z" fill="white"/>
<path opacity="0.41" d="M110.311 258.16L134.797 258.137L134.794 255.446L110.308 255.469L110.311 258.16Z" fill="white"/>
</g>
<g opacity="0.41">
<path opacity="0.41" d="M110.321 263.562L134.807 263.539L134.804 260.848L110.318 260.871L110.321 263.562Z" fill="white"/>
<path opacity="0.41" d="M110.331 269.159L134.817 269.135L134.815 266.444L110.329 266.468L110.331 269.159Z" fill="white"/>
<path opacity="0.41" d="M110.341 274.664L134.827 274.641L134.825 271.95L110.339 271.974L110.341 274.664Z" fill="white"/>
</g>
<g opacity="0.41">
<path opacity="0.41" d="M110.353 280.068L134.839 280.044L134.836 277.354L110.35 277.377L110.353 280.068Z" fill="white"/>
<path opacity="0.41" d="M110.363 285.574L134.849 285.551L134.846 282.86L110.36 282.883L110.363 285.574Z" fill="white"/>
<path opacity="0.41" d="M110.373 291.081L134.859 291.058L134.857 288.367L110.371 288.39L110.373 291.081Z" fill="white"/>
</g>
</g>
<g opacity="0.41">
<g opacity="0.41">
<path opacity="0.41" d="M103.414 230.665L106.822 230.662L106.82 227.971L103.411 227.974L103.414 230.665Z" fill="white"/>
<path opacity="0.41" d="M103.425 236.171L106.833 236.168L106.83 233.477L103.422 233.48L103.425 236.171Z" fill="white"/>
<path opacity="0.41" d="M103.435 241.767L106.844 241.764L106.841 239.073L103.433 239.077L103.435 241.767Z" fill="white"/>
</g>
<g opacity="0.41">
<path opacity="0.41" d="M103.446 247.169L106.854 247.166L106.852 244.475L103.444 244.479L103.446 247.169Z" fill="white"/>
<path opacity="0.41" d="M103.457 252.676L106.865 252.672L106.863 249.982L103.454 249.985L103.457 252.676Z" fill="white"/>
<path opacity="0.41" d="M103.468 258.182L106.876 258.179L106.873 255.488L103.465 255.492L103.468 258.182Z" fill="white"/>
</g>
<g opacity="0.41">
<path opacity="0.41" d="M103.48 263.586L106.889 263.583L106.886 260.892L103.478 260.895L103.48 263.586Z" fill="white"/>
<path opacity="0.41" d="M103.492 269.093L106.9 269.089L106.898 266.399L103.49 266.402L103.492 269.093Z" fill="white"/>
<path opacity="0.41" d="M103.502 274.689L106.91 274.686L106.908 271.995L103.499 271.998L103.502 274.689Z" fill="white"/>
</g>
<g opacity="0.41">
<path opacity="0.41" d="M103.509 280.091L106.917 280.087L106.914 277.397L103.506 277.4L103.509 280.091Z" fill="white"/>
<path opacity="0.41" d="M103.519 285.597L106.928 285.594L106.925 282.903L103.517 282.906L103.519 285.597Z" fill="white"/>
<path opacity="0.41" d="M103.53 291.104L106.938 291.101L106.936 288.41L103.528 288.413L103.53 291.104Z" fill="white"/>
</g>
</g>
<g opacity="0.41">
<g opacity="0.41">
<path opacity="0.41" d="M93.1084 230.682L100.643 230.675L100.64 227.985L93.1059 227.992L93.1084 230.682Z" fill="white"/>
<path opacity="0.41" d="M93.1172 236.189L100.651 236.182L100.649 233.491L93.1146 233.498L93.1172 236.189Z" fill="white"/>
<path opacity="0.41" d="M93.1289 241.785L100.663 241.778L100.661 239.087L93.1264 239.094L93.1289 241.785Z" fill="white"/>
</g>
<g opacity="0.41">
<path opacity="0.41" d="M93.1397 247.187L100.674 247.18L100.671 244.489L93.1371 244.496L93.1397 247.187Z" fill="white"/>
<path opacity="0.41" d="M93.1494 252.694L100.684 252.687L100.681 249.996L93.1469 250.003L93.1494 252.694Z" fill="white"/>
<path opacity="0.41" d="M93.1612 258.2L100.695 258.193L100.693 255.502L93.1586 255.509L93.1612 258.2Z" fill="white"/>
</g>
<g opacity="0.41">
<path opacity="0.41" d="M93.168 263.603L100.702 263.596L100.7 260.905L93.1654 260.912L93.168 263.603Z" fill="white"/>
<path opacity="0.41" d="M93.1778 269.11L100.712 269.103L100.709 266.412L93.1752 266.419L93.1778 269.11Z" fill="white"/>
<path opacity="0.41" d="M93.1895 274.705L100.724 274.698L100.721 272.007L93.1869 272.015L93.1895 274.705Z" fill="white"/>
</g>
<g opacity="0.41">
<path opacity="0.41" d="M93.2041 280.108L100.738 280.101L100.736 277.41L93.2016 277.417L93.2041 280.108Z" fill="white"/>
<path opacity="0.41" d="M93.124 285.615L100.658 285.607L100.656 282.917L93.1215 282.924L93.124 285.615Z" fill="white"/>
<path opacity="0.41" d="M93.1338 291.121L100.668 291.114L100.665 288.423L93.1312 288.43L93.1338 291.121Z" fill="white"/>
</g>
</g>
</g>
<path opacity="0.28" d="M123.075 300.123L129.174 300.117L129.169 294.915L123.07 294.921L123.075 300.123Z" fill="white"/>
<path opacity="0.28" d="M116.488 300.136L122.587 300.13L122.582 294.928L116.483 294.934L116.488 300.136Z" fill="white"/>
<path opacity="0.28" d="M106.904 297.576L113.003 297.57L113 294.969L106.901 294.975L106.904 297.576Z" fill="white"/>
<path opacity="0.28" d="M99.1509 297.5L105.25 297.494L105.248 294.893L99.1484 294.899L99.1509 297.5Z" fill="white"/>
</g>
</g>
<g opacity="0.25">
<g opacity="0.25">
<g opacity="0.25">
<path opacity="0.25" d="M487.752 219.388H449.812V298.586H487.752V219.388Z" fill="url(#paint11_radial)"/>
<g opacity="0.41">
<g opacity="0.41">
<g opacity="0.41">
<path opacity="0.41" d="M472.053 232.933H449.72V235.354H472.053V232.933Z" fill="white"/>
<path opacity="0.41" d="M472.053 237.955H449.72V240.376H472.053V237.955Z" fill="white"/>
<path opacity="0.41" d="M472.053 242.978H449.72V245.399H472.053V242.978Z" fill="white"/>
</g>
<g opacity="0.41">
<path opacity="0.41" d="M472.053 247.91H449.72V250.332H472.053V247.91Z" fill="white"/>
<path opacity="0.41" d="M472.053 252.933H449.72V255.355H472.053V252.933Z" fill="white"/>
<path opacity="0.41" d="M472.143 257.956H449.81V260.377H472.143V257.956Z" fill="white"/>
</g>
<g opacity="0.41">
<path opacity="0.41" d="M472.143 262.889H449.81V265.311H472.143V262.889Z" fill="white"/>
<path opacity="0.41" d="M472.143 267.912H449.81V270.334H472.143V267.912Z" fill="white"/>
<path opacity="0.41" d="M472.143 273.024H449.81V275.446H472.143V273.024Z" fill="white"/>
</g>
<g opacity="0.41">
<path opacity="0.41" d="M472.143 277.868H449.81V280.289H472.143V277.868Z" fill="white"/>
<path opacity="0.41" d="M472.143 282.98H449.81V285.402H472.143V282.98Z" fill="white"/>
<path opacity="0.41" d="M472.143 288.003H449.81V290.425H472.143V288.003Z" fill="white"/>
</g>
</g>
<g opacity="0.41">
<g opacity="0.41">
<path opacity="0.41" d="M478.243 232.932H475.193V235.354H478.243V232.932Z" fill="white"/>
<path opacity="0.41" d="M478.242 237.955H475.192V240.376H478.242V237.955Z" fill="white"/>
<path opacity="0.41" d="M478.242 242.978H475.192V245.399H478.242V242.978Z" fill="white"/>
</g>
<g opacity="0.41">
<path opacity="0.41" d="M478.242 247.911H475.192V250.332H478.242V247.911Z" fill="white"/>
<path opacity="0.41" d="M478.241 252.934H475.191V255.355H478.241V252.934Z" fill="white"/>
<path opacity="0.41" d="M478.241 257.956H475.191V260.378H478.241V257.956Z" fill="white"/>
</g>
<g opacity="0.41">
<path opacity="0.41" d="M478.242 262.889H475.192V265.311H478.242V262.889Z" fill="white"/>
<path opacity="0.41" d="M478.241 267.912H475.191V270.334H478.241V267.912Z" fill="white"/>
<path opacity="0.41" d="M478.241 272.935H475.191V275.356H478.241V272.935Z" fill="white"/>
</g>
<g opacity="0.41">
<path opacity="0.41" d="M478.242 277.868H475.192V280.289H478.242V277.868Z" fill="white"/>
<path opacity="0.41" d="M478.241 282.891H475.191V285.312H478.241V282.891Z" fill="white"/>
<path opacity="0.41" d="M478.33 288.003H475.28V290.425H478.33V288.003Z" fill="white"/>
</g>
</g>
<g opacity="0.41">
<g opacity="0.41">
<path opacity="0.41" d="M487.748 232.842H480.842V235.264H487.748V232.842Z" fill="white"/>
<path opacity="0.41" d="M487.748 237.955H480.842V240.376H487.748V237.955Z" fill="white"/>
<path opacity="0.41" d="M487.748 242.978H480.842V245.399H487.748V242.978Z" fill="white"/>
</g>
<g opacity="0.41">
<path opacity="0.41" d="M487.748 247.911H480.842V250.332H487.748V247.911Z" fill="white"/>
<path opacity="0.41" d="M487.748 252.934H480.842V255.355H487.748V252.934Z" fill="white"/>
<path opacity="0.41" d="M487.748 257.956H480.842V260.378H487.748V257.956Z" fill="white"/>
</g>
<g opacity="0.41">
<path opacity="0.41" d="M487.748 262.889H480.842V265.311H487.748V262.889Z" fill="white"/>
<path opacity="0.41" d="M487.748 267.912H480.842V270.334H487.748V267.912Z" fill="white"/>
<path opacity="0.41" d="M487.748 272.935H480.842V275.356H487.748V272.935Z" fill="white"/>
</g>
<g opacity="0.41">
<path opacity="0.41" d="M487.748 277.868H480.842V280.289H487.748V277.868Z" fill="white"/>
<path opacity="0.41" d="M487.748 282.891H480.842V285.312H487.748V282.891Z" fill="white"/>
<path opacity="0.41" d="M487.838 287.914H480.932V290.335H487.838V287.914Z" fill="white"/>
</g>
</g>
</g>
<path opacity="0.28" d="M460.483 293.922H454.922V298.586H460.483V293.922Z" fill="white"/>
<path opacity="0.28" d="M466.491 293.922H460.93V298.586H466.491V293.922Z" fill="white"/>
<path opacity="0.28" d="M475.282 293.922H469.721V296.254H475.282V293.922Z" fill="white"/>
<path opacity="0.28" d="M482.367 293.922H476.806V296.254H482.367V293.922Z" fill="white"/>
<path opacity="0.21" d="M487.659 227.64H449.719V230.152H487.659V227.64Z" fill="white"/>
<path opacity="0.21" d="M487.659 223.066H449.719V225.577H487.659V223.066Z" fill="white"/>
</g>
<path opacity="0.25" d="M456.981 219.388H485.145V214.006H463.081L456.981 219.388Z" fill="url(#paint12_radial)"/>
</g>
<g opacity="0.25">
<path opacity="0.25" d="M530.262 250.601L530.352 298.855L476.716 298.945V255.534C476.716 254.816 476.716 254.189 476.805 253.561C476.895 252.753 476.985 251.946 477.075 251.139C477.254 249.973 477.523 248.807 477.882 247.731C478.151 246.924 478.42 246.116 478.689 245.309C479.138 244.143 479.676 242.977 480.304 241.901C480.752 241.094 481.29 240.286 481.828 239.479C482.725 238.223 483.622 237.147 484.698 236.071C485.506 235.174 486.403 234.456 487.389 233.649C489.093 232.304 490.977 231.138 492.95 230.241C496.448 228.626 500.395 227.64 504.61 227.64H507.48C511.516 227.64 515.373 228.716 518.692 230.51C520.217 231.407 521.652 232.393 522.997 233.559C523.804 234.277 524.611 235.084 525.239 235.981C526.136 237.057 526.944 238.223 527.571 239.389C528.02 240.197 528.379 240.914 528.737 241.811C529.186 242.887 529.545 244.053 529.903 245.219C530.083 246.027 530.262 246.834 530.352 247.641C530.172 248.538 530.262 249.525 530.262 250.601Z" fill="url(#paint13_radial)"/>
<g opacity="0.22">
<path opacity="0.22" d="M511.875 241.722V245.13H478.51C478.958 243.964 479.496 242.798 480.124 241.722H511.875Z" fill="white"/>
<path opacity="0.22" d="M511.875 235.892V239.3H481.648C482.545 238.044 483.442 236.968 484.519 235.892H511.875Z" fill="white"/>
<path opacity="0.22" d="M511.875 230.062V233.47H487.12C488.824 232.124 490.708 230.958 492.681 230.062H511.875Z" fill="white"/>
<path opacity="0.22" d="M511.875 259.212H476.536V262.62H511.875V259.212Z" fill="white"/>
<path opacity="0.22" d="M511.875 253.381V256.79H476.536V255.355C476.536 254.637 476.536 254.009 476.626 253.381H511.875Z" fill="white"/>
<path opacity="0.22" d="M511.875 247.551V250.96H476.895C477.074 249.794 477.343 248.628 477.702 247.551H511.875Z" fill="white"/>
<path opacity="0.22" d="M511.964 265.042H476.625V268.45H511.964V265.042Z" fill="white"/>
<path opacity="0.22" d="M511.964 282.441H476.625V285.85H511.964V282.441Z" fill="white"/>
<path opacity="0.22" d="M511.964 276.701H476.625V280.109H511.964V276.701Z" fill="white"/>
<path opacity="0.22" d="M511.964 270.871H476.625V274.279H511.964V270.871Z" fill="white"/>
</g>
<g opacity="0.22">
<path opacity="0.22" d="M529.632 245.13H518.421V241.722H528.466C528.915 242.798 529.274 243.964 529.632 245.13Z" fill="white"/>
<path opacity="0.22" d="M527.3 239.299H518.421V235.891H524.968C525.865 236.967 526.673 238.133 527.3 239.299Z" fill="white"/>
<path opacity="0.22" d="M522.639 233.469H518.334V230.42C519.948 231.317 521.384 232.303 522.639 233.469Z" fill="white"/>
<path opacity="0.22" d="M530.26 259.211H518.421V262.62H530.26V259.211Z" fill="white"/>
<path opacity="0.22" d="M530.26 253.381H518.421V256.79H530.26V253.381Z" fill="white"/>
<path opacity="0.22" d="M530.26 250.601V250.96H518.421V247.551H530.081C530.171 248.538 530.26 249.524 530.26 250.601Z" fill="white"/>
<path opacity="0.22" d="M530.26 264.952H518.421V268.36H530.26V264.952Z" fill="white"/>
<path opacity="0.22" d="M530.26 282.441H518.421V285.85H530.26V282.441Z" fill="white"/>
<path opacity="0.22" d="M530.26 276.611H518.421V280.02H530.26V276.611Z" fill="white"/>
<path opacity="0.22" d="M530.26 270.782H518.421V274.19H530.26V270.782Z" fill="white"/>
</g>
<path opacity="0.34" d="M511.964 290.335H494.295V298.856H511.964V290.335Z" fill="white"/>
<g opacity="0.25">
<path opacity="0.34" d="M491.782 293.384H487.746V295.357H491.782V293.384Z" fill="white"/>
<path opacity="0.34" d="M491.782 290.334H487.746V292.307H491.782V290.334Z" fill="white"/>
<path opacity="0.34" d="M486.58 293.384H482.544V295.357H486.58V293.384Z" fill="white"/>
<path opacity="0.34" d="M486.58 290.334H482.544V292.307H486.58V290.334Z" fill="white"/>
</g>
<g opacity="0.25">
<path opacity="0.34" d="M524.072 293.384H520.036V295.357H524.072V293.384Z" fill="white"/>
<path opacity="0.34" d="M524.072 290.245H520.036V292.218H524.072V290.245Z" fill="white"/>
<path opacity="0.34" d="M518.87 293.384H514.834V295.357H518.87V293.384Z" fill="white"/>
<path opacity="0.34" d="M518.871 290.335H514.835V292.309H518.871V290.335Z" fill="white"/>
</g>
</g>
</g>
<g opacity="0.17">
<path opacity="0.17" d="M92.6524 262.709V300.111H51.0352V266.387C51.0352 265.848 51.0352 265.31 51.1248 264.862C51.1248 264.234 51.2145 263.606 51.3042 262.978C51.4836 262.081 51.663 261.184 51.9321 260.287C52.1115 259.66 52.2908 259.032 52.5599 258.404C52.9187 257.507 53.3672 256.61 53.8156 255.713C54.1744 255.085 54.5332 254.457 54.9816 253.83C55.6095 252.843 56.4167 252.036 57.2239 251.139C57.8518 250.511 58.5693 249.883 59.2868 249.255C60.6322 248.179 62.0673 247.282 63.5921 246.565C66.3725 245.309 69.4221 244.591 72.651 244.591H74.8933C78.0325 244.591 80.9924 245.399 83.5935 246.834C84.7595 247.461 85.9255 248.269 86.9121 249.255C87.5399 249.793 88.1678 250.421 88.7059 251.139C89.4235 251.946 89.9616 252.843 90.4998 253.83C90.8585 254.457 91.1276 255.085 91.3967 255.713C91.7555 256.61 92.0245 257.417 92.2936 258.404C92.473 259.032 92.5627 259.66 92.6524 260.287C92.6524 261.095 92.6524 261.902 92.6524 262.709Z" fill="url(#paint14_radial)"/>
<g opacity="0.22">
<path opacity="0.22" d="M78.4806 255.803V258.494H52.5596C52.9183 257.597 53.3668 256.7 53.8153 255.803H78.4806Z" fill="white"/>
<path opacity="0.22" d="M78.4808 251.318V254.009H54.9814C55.6093 253.022 56.4165 252.215 57.2238 251.318H78.4808Z" fill="white"/>
<path opacity="0.22" d="M78.3904 246.833V249.524H59.1963C60.5417 248.448 61.9768 247.551 63.5015 246.833H78.3904Z" fill="white"/>
<path opacity="0.22" d="M78.481 269.436H51.0352V272.127H78.481V269.436Z" fill="white"/>
<path opacity="0.22" d="M78.481 264.861V267.552H51.0352V266.476C51.0352 265.938 51.0352 265.399 51.1248 264.951L78.481 264.861Z" fill="white"/>
<path opacity="0.22" d="M78.4805 260.377V263.068H51.3037C51.4831 262.171 51.6625 261.274 51.9316 260.377H78.4805Z" fill="white"/>
<path opacity="0.22" d="M78.481 273.921H51.0352V276.612H78.481V273.921Z" fill="white"/>
<path opacity="0.22" d="M78.481 287.464H51.0352V290.155H78.481V287.464Z" fill="white"/>
<path opacity="0.22" d="M78.481 282.979H51.0352V285.67H78.481V282.979Z" fill="white"/>
<path opacity="0.22" d="M78.481 278.405H51.0352V281.096H78.481V278.405Z" fill="white"/>
</g>
<g opacity="0.22">
<path opacity="0.22" d="M92.2031 258.493H83.5029V255.802H91.3062C91.6649 256.699 91.934 257.596 92.2031 258.493Z" fill="white"/>
<path opacity="0.22" d="M90.4092 254.008H83.5029V251.317H88.6154C89.2432 252.125 89.8711 253.022 90.4092 254.008Z" fill="white"/>
<path opacity="0.22" d="M86.8225 249.434H83.5039V247.013C84.6699 247.73 85.8359 248.537 86.8225 249.434Z" fill="white"/>
<path opacity="0.22" d="M92.6515 269.346H83.5029V272.036H92.6515V269.346Z" fill="white"/>
<path opacity="0.22" d="M92.6515 264.861H83.5029V267.552H92.6515V264.861Z" fill="white"/>
<path opacity="0.22" d="M92.6515 262.709V262.978H83.5029V260.287H92.5618C92.6515 261.094 92.6515 261.902 92.6515 262.709Z" fill="white"/>
<path opacity="0.22" d="M92.6515 273.92H83.5029V276.611H92.6515V273.92Z" fill="white"/>
<path opacity="0.22" d="M92.6515 287.464H83.5029V290.155H92.6515V287.464Z" fill="white"/>
<path opacity="0.22" d="M92.6515 282.89H83.5029V285.58H92.6515V282.89Z" fill="white"/>
<path opacity="0.22" d="M92.6515 278.405H83.5029V281.096H92.6515V278.405Z" fill="white"/>
</g>
<path opacity="0.34" d="M78.4817 293.563H64.7588V300.2H78.4817V293.563Z" fill="white"/>
<g opacity="0.17">
<path opacity="0.34" d="M62.8775 295.895H59.7383V297.42H62.8775V295.895Z" fill="white"/>
<path opacity="0.34" d="M62.8775 293.563H59.7383V295.088H62.8775V293.563Z" fill="white"/>
<path opacity="0.34" d="M58.8394 295.895H55.7002V297.42H58.8394V295.895Z" fill="white"/>
<path opacity="0.34" d="M58.8404 293.563H55.7012V295.088H58.8404V293.563Z" fill="white"/>
</g>
<g opacity="0.17">
<path opacity="0.34" d="M87.898 295.895H84.7588V297.42H87.898V295.895Z" fill="white"/>
<path opacity="0.34" d="M87.898 293.563H84.7588V295.088H87.898V293.563Z" fill="white"/>
<path opacity="0.34" d="M83.8609 295.895H80.7217V297.42H83.8609V295.895Z" fill="white"/>
<path opacity="0.34" d="M83.8619 293.563H80.7227V295.088H83.8619V293.563Z" fill="white"/>
</g>
</g>
<path d="M49.9601 300.559L110.592 300.47C110.592 300.47 109.336 284.863 100.457 287.195C91.5774 289.527 97.5867 296.433 89.6041 282.8C81.6215 269.167 73.8183 297.33 64.58 289.706C55.3417 282.083 50.4086 302.532 44.3095 294.55C38.2104 286.567 33.2773 300.559 33.2773 300.559H49.9601Z" fill="url(#paint15_radial)"/>
<path opacity="0.27" d="M449.36 86.4636C448.822 86.4636 448.374 86.5533 447.925 86.7327C447.835 82.8759 444.696 79.7367 440.75 79.7367C440.301 79.7367 439.763 79.8263 439.315 79.916C437.79 76.0593 434.023 73.2788 429.628 73.2788C423.888 73.2788 419.224 77.9428 419.224 83.6831C419.224 83.7728 419.224 83.8625 419.224 83.9522C418.685 83.7728 418.058 83.6831 417.43 83.6831C414.56 83.6831 412.228 86.0151 412.228 88.8853C412.228 91.7554 414.56 94.0874 417.43 94.0874H449.36C451.423 94.0874 453.127 92.3833 453.127 90.3203C453.127 88.1677 451.423 86.4636 449.36 86.4636Z" fill="white"/>
<path opacity="0.18" d="M530.532 164.944C530.352 164.944 530.173 164.944 529.994 165.034C529.994 163.509 528.738 162.254 527.124 162.254C526.944 162.254 526.765 162.254 526.585 162.343C525.957 160.818 524.522 159.742 522.729 159.742C520.397 159.742 518.603 161.626 518.603 163.868V163.958C518.423 163.868 518.154 163.868 517.885 163.868C516.719 163.868 515.822 164.765 515.822 165.931C515.822 167.097 516.719 167.994 517.885 167.994H530.532C531.339 167.994 532.057 167.276 532.057 166.469C532.057 165.662 531.429 164.944 530.532 164.944Z" fill="white"/>
<path opacity="0.4" d="M195.978 88.078C195.26 88.078 194.542 88.2574 193.915 88.5264C193.825 82.7861 189.161 78.2118 183.421 78.2118C182.703 78.2118 181.986 78.3015 181.358 78.3912C179.115 72.6509 173.554 68.6147 167.097 68.6147C158.666 68.6147 151.849 75.5211 151.849 83.9521C151.849 84.1315 151.849 84.2212 151.849 84.4006C151.042 84.1315 150.145 83.9521 149.248 83.9521C145.032 83.9521 141.624 87.3604 141.624 91.576C141.624 95.7915 145.032 99.1998 149.248 99.1998H196.067C199.117 99.1998 201.628 96.6884 201.628 93.6389C201.538 90.4997 199.027 87.9883 195.978 88.078Z" fill="white"/>
<path opacity="0.26" d="M84.0425 213.467C83.6838 213.467 83.325 213.557 82.9662 213.647C82.8765 210.777 80.5445 208.445 77.6744 208.445C77.3156 208.445 76.9568 208.445 76.5981 208.534C75.5218 205.664 72.7413 203.691 69.4227 203.691C65.2071 203.691 61.7988 207.099 61.7988 211.315C61.7988 211.404 61.7988 211.494 61.7988 211.584C61.3504 211.404 60.9916 211.315 60.4535 211.315C58.3008 211.315 56.5967 213.019 56.5967 215.172C56.5967 217.324 58.3008 219.028 60.4535 219.028H83.8631C85.3879 219.028 86.6436 217.773 86.6436 216.248C86.823 214.723 85.5673 213.467 84.0425 213.467Z" fill="white"/>
<path opacity="0.51" d="M214.544 43.8597C214.185 43.8597 213.916 43.9494 213.647 44.0391C213.557 41.438 211.494 39.3751 208.893 39.3751C208.534 39.3751 208.265 39.3751 207.996 39.4647C207.01 36.8637 204.498 35.0698 201.628 35.0698C197.861 35.0698 194.722 38.1194 194.722 41.9761C194.722 42.0658 194.722 42.1555 194.722 42.1555C194.363 42.0658 194.004 41.9761 193.556 41.9761C191.672 41.9761 190.147 43.5009 190.147 45.3844C190.147 47.268 191.672 48.7928 193.556 48.7928H214.633C215.979 48.7928 217.145 47.6267 217.145 46.2814C217.145 44.936 215.889 43.8597 214.544 43.8597Z" fill="white"/>
<path d="M502.813 249.075V299.572L451.24 299.662L451.15 274.638L398.321 274.727L456.621 249.165L502.813 249.075Z" fill="url(#paint16_radial)"/>
<path d="M451.24 274.637H398.321V299.661H451.24V274.637Z" fill="url(#paint17_radial)"/>
<path d="M561.2 274.637H444.421V299.661H561.2V274.637Z" fill="url(#paint18_radial)"/>
<path d="M502.813 249.075V256.161L460.657 274.638H444.423L502.813 249.075Z" fill="url(#paint19_radial)"/>
<path d="M561.199 274.547H544.965L502.81 256.16V249.075L561.199 274.547Z" fill="url(#paint20_radial)"/>
<path d="M502.811 256.16V274.637H460.655L502.811 256.16Z" fill="url(#paint21_radial)"/>
<path d="M544.965 274.547L502.81 274.637V256.16L544.965 274.547Z" fill="url(#paint22_radial)"/>
<path d="M520.658 280.288H484.961V299.571H520.658V280.288Z" fill="url(#paint23_radial)"/>
<path d="M520.657 296.432H484.96V298.405H520.657V296.432Z" fill="url(#paint24_radial)"/>
<path d="M520.657 292.755H484.96V294.728H520.657V292.755Z" fill="url(#paint25_radial)"/>
<path d="M520.657 288.987H484.96V290.961H520.657V288.987Z" fill="url(#paint26_radial)"/>
<path d="M520.657 285.131H484.96V287.105H520.657V285.131Z" fill="url(#paint27_radial)"/>
<path d="M520.657 281.364H484.96V283.337H520.657V281.364Z" fill="url(#paint28_radial)"/>
<path d="M483.438 290.872H480.389V294.728H483.438V290.872Z" fill="url(#paint29_radial)"/>
<path d="M481.913 293.472C482.21 293.472 482.451 293.151 482.451 292.755C482.451 292.358 482.21 292.037 481.913 292.037C481.616 292.037 481.375 292.358 481.375 292.755C481.375 293.151 481.616 293.472 481.913 293.472Z" fill="url(#paint30_radial)"/>
<path d="M480.3 280.198H472.407V282.62H480.3V280.198Z" fill="white"/>
<path d="M459.043 280.198H451.15V282.62H459.043V280.198Z" fill="white"/>
<path d="M469.896 280.198H462.003V282.62H469.896V280.198Z" fill="white"/>
<path d="M434.2 280.198H426.307V282.62H434.2V280.198Z" fill="white"/>
<path d="M412.943 280.198H405.05V282.62H412.943V280.198Z" fill="white"/>
<path d="M423.795 280.198H415.902V282.62H423.795V280.198Z" fill="white"/>
<path d="M556.448 280.108H548.555V282.53H556.448V280.108Z" fill="white"/>
<path d="M535.192 280.108H527.299V282.53H535.192V280.108Z" fill="white"/>
<path d="M546.043 280.108H538.15V282.53H546.043V280.108Z" fill="white"/>
<path d="M339.665 298.945L259.032 299.034C252.036 299.034 246.385 293.384 246.385 286.388L246.206 115.165C246.206 108.169 251.857 102.518 258.853 102.518L339.486 102.429C346.482 102.429 352.133 108.079 352.133 115.075L352.312 286.298C352.312 293.204 346.572 298.855 339.665 298.945Z" fill="white"/>
<path d="M346.393 114.088H252.126V285.849H346.393V114.088Z" fill="url(#paint31_radial)"/>
<path d="M346.393 114.088H252.126V285.849H346.393V114.088Z" fill="url(#paint32_linear)"/>
<g opacity="0.24">
<path opacity="0.24" d="M338.502 113.999L300.831 148.889L263.16 114.088L338.502 113.999Z" fill="url(#paint33_linear)"/>
<path opacity="0.24" d="M346.304 118.572L346.394 190.775L307.198 154.718L346.304 118.572Z" fill="url(#paint34_linear)"/>
<path opacity="0.24" d="M346.393 198.847V234.007L326.033 252.842L263.518 195.17L302.893 158.755L346.393 198.847Z" fill="url(#paint35_linear)"/>
<path opacity="0.24" d="M346.394 243.514V273.202L330.339 258.403L346.394 243.514Z" fill="url(#paint36_radial)"/>
<path opacity="0.24" d="M298.408 235.801L258.944 272.306L252.127 265.938V193.197L298.408 235.801Z" fill="url(#paint37_linear)"/>
<path opacity="0.24" d="M343.165 277.059L333.747 285.759L273.743 285.849L264.325 277.149L303.7 240.734L343.165 277.059Z" fill="url(#paint38_linear)"/>
<path opacity="0.24" d="M296.524 152.925L257.149 189.34L252.126 184.676L252.036 121.174L257.059 116.51L296.524 152.925Z" fill="url(#paint39_linear)"/>
</g>
<path d="M412.138 234.545H342.626V299.662H412.138V234.545Z" fill="url(#paint40_linear)"/>
<path d="M425.502 234.456H412.138V299.572H425.502V234.456Z" fill="url(#paint41_linear)"/>
<path opacity="0.25" d="M407.114 279.571H391.418V293.832H407.114V279.571Z" fill="white"/>
<path opacity="0.25" d="M363.343 279.661H347.646V281.096H363.343V279.661Z" fill="white"/>
<path opacity="0.25" d="M363.342 282.71H347.646V284.145H363.342V282.71Z" fill="white"/>
<path opacity="0.25" d="M356.884 286.028H347.646V287.463H356.884V286.028Z" fill="white"/>
<path d="M405.319 218.49L332.758 218.58L342.624 234.545L412.136 234.455L405.319 218.49Z" fill="url(#paint42_linear)"/>
<path d="M412.138 234.455L419.941 218.49H434.561L425.502 234.455H412.138Z" fill="url(#paint43_linear)"/>
<path d="M335.986 259.48H292.844V299.931H335.986V259.48Z" fill="url(#paint44_linear)"/>
<path d="M344.418 259.39H336.076V299.841H344.418V259.39Z" fill="url(#paint45_linear)"/>
<path opacity="0.25" d="M332.936 287.464H323.159V296.343H332.936V287.464Z" fill="white"/>
<path opacity="0.25" d="M305.763 287.464H295.986V288.361H305.763V287.464Z" fill="white"/>
<path opacity="0.25" d="M305.762 289.347H295.985V290.244H305.762V289.347Z" fill="white"/>
<path opacity="0.25" d="M301.726 291.41H295.985V292.307H301.726V291.41Z" fill="white"/>
<path d="M336.076 256.161H291.409V259.39H336.076V256.161Z" fill="url(#paint46_linear)"/>
<path d="M345.225 256.161H336.076V259.39H345.225V256.161Z" fill="url(#paint47_linear)"/>
<path d="M330.247 166.738C330.247 150.324 316.793 137.049 300.379 137.318C284.504 137.588 271.588 150.593 271.409 166.468C271.319 173.285 273.561 179.564 277.329 184.586L300.828 215.979L324.327 184.497C328.094 179.564 330.247 173.375 330.247 166.738Z" fill="url(#paint48_linear)"/>
<path d="M300.738 180.999C307.623 180.999 313.205 175.417 313.205 168.532C313.205 161.646 307.623 156.064 300.738 156.064C293.852 156.064 288.271 161.646 288.271 168.532C288.271 175.417 293.852 180.999 300.738 180.999Z" fill="white"/>
<path opacity="0.09" d="M430.073 313.654L351.413 313.743C350.336 313.743 349.35 312.846 349.35 311.68C349.35 310.604 350.247 309.618 351.413 309.618L430.073 309.528C431.149 309.528 432.136 310.425 432.136 311.591C432.136 312.757 431.239 313.654 430.073 313.654Z" fill="black"/>
<path d="M389.621 173.465V192.749C389.621 192.749 389.621 192.838 389.621 192.928C389.532 193.735 389.352 197.413 388.904 202.615C387.917 214.992 385.854 235.891 382.446 246.923C382.446 246.923 389.711 259.839 377.782 300.021L370.606 299.841L371.234 237.864C369.082 219.567 370.876 192.749 370.876 192.749L372.042 173.465H389.621Z" fill="url(#paint49_radial)"/>
<path d="M370.784 301.276C370.784 301.276 368.453 306.299 366.928 307.914L377.781 310.335V301.276H370.784Z" fill="url(#paint50_linear)"/>
<path d="M377.871 310.336C377.871 310.336 370.516 297.779 364.955 310.336H377.871Z" fill="url(#paint51_linear)"/>
<path d="M377.871 310.335H364.955V311.95H377.871V310.335Z" fill="url(#paint52_linear)"/>
<path d="M378.32 302.532H369.889V298.406H378.858L378.32 302.532Z" fill="url(#paint53_radial)"/>
<path d="M371.323 186.201C371.323 186.201 377.781 185.304 377.871 177.053H371.861L371.323 186.201Z" fill="url(#paint54_radial)"/>
<path d="M389.621 173.465V192.749C389.621 192.749 389.621 192.838 389.621 192.928C389.711 193.735 389.89 197.413 390.339 202.615C391.325 214.992 393.478 235.891 396.796 246.923C396.796 246.923 389.531 259.839 401.55 300.021L408.726 299.841L408.008 237.864C410.161 219.567 408.277 192.749 408.277 192.749L407.111 173.465H389.621Z" fill="url(#paint55_radial)"/>
<path d="M408.637 301.276C408.637 301.276 410.969 306.299 412.493 307.914L401.641 310.335V301.276H408.637Z" fill="url(#paint56_linear)"/>
<path d="M401.64 310.336C401.64 310.336 408.994 297.689 414.555 310.336H401.64Z" fill="url(#paint57_linear)"/>
<path d="M401.64 311.95H414.555V310.335H401.64V311.95Z" fill="url(#paint58_linear)"/>
<path d="M401.191 302.532H409.533V298.406H400.653L401.191 302.532Z" fill="url(#paint59_radial)"/>
<path d="M408.008 186.112C408.008 186.112 401.55 185.215 401.371 177.053H407.38L408.008 186.112Z" fill="url(#paint60_radial)"/>
<path d="M407.739 173.465H371.503V177.411H407.739V173.465Z" fill="url(#paint61_radial)"/>
<path d="M392.76 173.465H387.199V177.411H392.76V173.465Z" fill="url(#paint62_radial)"/>
<path d="M425.678 114.896L418.054 129.426C416.171 127.991 414.287 126.287 412.493 124.224L415.543 108.886C415.812 108.976 420.117 111.129 425.678 114.896Z" fill="url(#paint63_radial)"/>
<path d="M395.989 100.814L388.096 108.707V104.043L380.741 100.994L363.161 102.967L372.041 173.465H388.185L407.2 173.376L415.541 108.797L395.989 100.814Z" fill="url(#paint64_radial)"/>
<path d="M422.358 148.262H390.518V174.452H422.358V148.262Z" fill="url(#paint65_linear)"/>
<path d="M428.457 148.262H422.357V174.452H428.457V148.262Z" fill="url(#paint66_linear)"/>
<path d="M423.075 145.212H389.44V149.427H423.075V145.212Z" fill="url(#paint67_linear)"/>
<path d="M429.532 145.212H423.074V149.427H429.532V145.212Z" fill="url(#paint68_linear)"/>
<path opacity="0.06" d="M428.457 149.427H390.428V151.849H428.457V149.427Z" fill="black"/>
<path opacity="0.25" d="M420.027 166.38H412.852V172.12H420.027V166.38Z" fill="white"/>
<path opacity="0.25" d="M399.932 166.469H392.757V167.097H399.932V166.469Z" fill="white"/>
<path opacity="0.25" d="M399.931 167.635H392.756V168.263H399.931V167.635Z" fill="white"/>
<path opacity="0.25" d="M396.971 168.98H392.756V169.608H396.971V168.98Z" fill="white"/>
<path d="M387.918 76.8657L381.909 79.6462L380.653 103.773L387.918 108.886L395.542 103.504L393.928 79.6462L387.918 76.8657Z" fill="url(#paint69_linear)"/>
<path opacity="0.06" d="M381.64 84.2204C381.64 84.2204 389.174 98.3021 395.093 97.4949L394.197 84.041L381.64 84.2204Z" fill="black"/>
<path d="M395.902 74.5343C395.453 63.9506 388.009 66.2826 388.009 66.2826C388.009 66.2826 380.564 63.9506 380.116 74.5343C380.116 74.5343 379.488 89.2439 388.009 89.2439C396.619 89.2439 395.902 74.5343 395.902 74.5343Z" fill="url(#paint70_linear)"/>
<path opacity="0.07" d="M380.473 69.6011C380.473 69.6011 381.459 74.6238 388.097 76.5074C394.644 78.3909 396.617 72.83 395.631 69.6011H380.473Z" fill="black"/>
<path d="M395.809 77.5833L395.092 72.0223C395.002 71.4842 394.823 70.946 394.643 70.4976L394.284 69.78C393.926 69.1522 393.298 68.7037 392.58 68.7037H388.096V63.0531C388.096 63.0531 391.504 61.5283 394.823 63.8603C398.052 66.1923 395.809 77.5833 395.809 77.5833Z" fill="url(#paint71_radial)"/>
<path d="M395.899 74.5342C395.899 74.5342 397.424 73.5475 398.141 75.6105C398.859 77.6734 395.63 79.5569 395.63 79.5569L395.899 74.5342Z" fill="url(#paint72_linear)"/>
<path d="M363.164 102.967L327.018 103.774C325.942 103.774 325.314 104.94 325.763 105.927C328.274 110.411 337.064 120.367 364.958 118.125L363.164 102.967Z" fill="url(#paint73_linear)"/>
<path d="M363.163 102.967L351.593 103.236L355.808 118.394C355.808 118.394 359.396 118.753 365.047 118.125L363.163 102.967Z" fill="url(#paint74_radial)"/>
<path d="M380.295 77.6731L381.013 72.1122C381.102 71.574 381.282 71.0359 381.461 70.5874L381.82 69.8699C382.179 69.242 382.806 68.7936 383.524 68.7936H388.009V63.1429C388.009 63.1429 384.6 61.6182 381.282 63.9502C378.053 66.1925 380.295 77.6731 380.295 77.6731Z" fill="url(#paint75_radial)"/>
<path d="M388.007 67.9869C388.007 67.9869 382.356 67.2694 380.473 69.6014C380.473 69.6014 381.19 72.1128 383.612 72.5613C386.034 72.92 388.097 72.92 388.097 72.92C388.097 72.92 390.07 72.92 392.581 72.5613C395.003 72.2025 395.72 69.6014 395.72 69.6014C393.747 67.3591 388.007 67.9869 388.007 67.9869Z" fill="url(#paint76_linear)"/>
<path d="M395.273 63.2329C394.465 62.2463 393.03 61.5288 391.685 61.17C389.353 60.4525 386.752 60.4525 384.42 61.17C383.075 61.6185 381.729 62.2463 380.832 63.2329C378.859 65.7443 379.307 69.6011 379.307 69.6011H388.008H396.708C396.797 69.6011 397.246 65.7443 395.273 63.2329Z" fill="url(#paint77_linear)"/>
<path d="M380.204 74.5342C380.204 74.5342 378.679 73.5475 377.961 75.6105C377.244 77.7631 380.473 79.5569 380.473 79.5569L380.204 74.5342Z" fill="url(#paint78_linear)"/>
<path d="M332.398 107.989C332.398 107.989 354.642 106.106 373.388 75.9692L370.428 73.3682C370.428 73.3682 328.542 92.9211 325.671 100.366C322.801 107.72 329.708 108.438 332.398 107.989Z" fill="url(#paint79_linear)"/>
<path d="M377.963 75.61L376.079 76.4172L374.555 75.2512L377.335 73.3677L377.963 75.61Z" fill="url(#paint80_linear)"/>
<path d="M370.429 73.3681L377.873 70.1392H384.331C384.331 70.1392 383.883 71.1258 380.923 71.2155C377.963 71.3052 378.591 71.2155 378.591 71.2155L379.308 73.0093L378.053 75.7001L375.81 75.3413C375.81 75.3413 375.99 74.5341 376.976 74.7135L377.335 73.3681L373.389 75.9692L370.429 73.3681Z" fill="url(#paint81_linear)"/>
<path d="M427.382 168.891L419.938 170.505C419.938 170.505 419.669 172.03 423.705 170.864L425.14 172.03L421.373 176.156C421.373 176.156 417.427 172.837 416.171 175.618L421.194 177.322C421.194 177.322 425.499 175.887 429.714 170.057L427.382 168.891Z" fill="url(#paint82_linear)"/>
<path d="M446.848 135.525C446.848 135.525 445.233 154.988 429.716 170.057L427.384 168.891C427.384 168.891 426.219 146.109 435.636 136.243C430.434 135.705 424.066 134 417.967 129.426L425.591 114.896C432.676 119.56 441.646 126.825 446.848 135.525Z" fill="url(#paint83_linear)"/>
<path d="M387.916 108.886L383.252 114.896L378.768 101.173L380.831 99.4688L387.916 108.886Z" fill="url(#paint84_radial)"/>
<path d="M387.918 108.886L392.672 114.896L397.067 101.173L395.542 99.2891L387.918 108.886Z" fill="url(#paint85_radial)"/>
<path opacity="0.06" d="M351.591 103.236L355.897 118.394L353.116 118.304L350.156 103.236H351.591Z" fill="black"/>
<path opacity="0.06" d="M425.676 114.896L418.052 129.426L420.384 131.041L426.752 115.614L425.676 114.896Z" fill="black"/>
<path opacity="0.06" d="M275.265 312.847L77.4038 313.026C75.9687 313.026 74.8027 311.86 74.8027 310.425V309.977C74.8027 308.542 75.9687 307.376 77.4038 307.376L275.265 307.196C276.7 307.196 277.866 308.362 277.866 309.797V310.246C277.866 311.681 276.7 312.847 275.265 312.847Z" fill="black"/>
<path d="M154.808 290.782L253.021 290.693V285.67L154.808 285.849V290.782Z" fill="url(#paint86_radial)"/>
<path d="M154.808 278.584L270.869 278.494L270.78 213.916L154.808 214.095V278.584Z" fill="url(#paint87_radial)"/>
<path d="M274.727 278.495L154.719 278.584V285.849L274.727 285.67V278.495Z" fill="url(#paint88_radial)"/>
<path d="M270.87 278.943H274.727L274.637 213.916H270.78L270.87 278.943Z" fill="url(#paint89_radial)"/>
<path d="M119.649 289.437H154.809L154.719 228.625H135.973C126.914 228.625 119.56 235.98 119.56 245.039L119.649 289.437Z" fill="url(#paint90_radial)"/>
<path d="M122.608 234.994L100.903 263.785L86.7314 270.512C82.0674 272.754 79.1973 277.418 79.1973 282.531V289.437H119.648L122.608 234.994Z" fill="url(#paint91_radial)"/>
<path d="M81.1706 299.572L254.187 299.393C257.147 299.393 259.569 296.971 259.569 294.011C259.569 291.052 257.147 288.63 254.187 288.63L81.1706 288.809C78.2108 288.809 75.7891 291.231 75.7891 294.191C75.7891 297.151 78.2108 299.572 81.1706 299.572Z" fill="url(#paint92_radial)"/>
<path d="M211.942 299.393H244.142C244.142 290.513 236.967 283.338 227.997 283.338C219.118 283.338 211.942 290.513 211.942 299.393Z" fill="url(#paint93_radial)"/>
<path d="M215.081 299.483H240.912C240.912 292.307 235.082 286.567 227.997 286.567C220.911 286.567 215.081 292.307 215.081 299.483Z" fill="url(#paint94_radial)"/>
<path d="M228.086 310.066C234.031 310.066 238.849 305.247 238.849 299.303C238.849 293.359 234.031 288.54 228.086 288.54C222.142 288.54 217.323 293.359 217.323 299.303C217.323 305.247 222.142 310.066 228.086 310.066Z" fill="url(#paint95_radial)"/>
<path d="M228.087 307.196C232.446 307.196 235.98 303.662 235.98 299.303C235.98 294.944 232.446 291.41 228.087 291.41C223.728 291.41 220.194 294.944 220.194 299.303C220.194 303.662 223.728 307.196 228.087 307.196Z" fill="white"/>
<path d="M228.087 305.582C231.555 305.582 234.366 302.771 234.366 299.303C234.366 295.836 231.555 293.025 228.087 293.025C224.62 293.025 221.809 295.836 221.809 299.303C221.809 302.771 224.62 305.582 228.087 305.582Z" fill="url(#paint96_radial)"/>
<path d="M90.4971 299.393H122.697C122.697 290.513 115.521 283.338 106.552 283.338C97.5828 283.338 90.4971 290.513 90.4971 299.393Z" fill="url(#paint97_radial)"/>
<path d="M93.6348 299.393H119.466C119.466 292.217 113.636 286.477 106.55 286.477C99.4648 286.477 93.6348 292.217 93.6348 299.393Z" fill="url(#paint98_radial)"/>
<path d="M106.641 310.156C112.585 310.156 117.404 305.337 117.404 299.393C117.404 293.449 112.585 288.63 106.641 288.63C100.697 288.63 95.8779 293.449 95.8779 299.393C95.8779 305.337 100.697 310.156 106.641 310.156Z" fill="url(#paint99_radial)"/>
<path d="M106.643 307.286C111.002 307.286 114.536 303.752 114.536 299.393C114.536 295.034 111.002 291.5 106.643 291.5C102.284 291.5 98.75 295.034 98.75 299.393C98.75 303.752 102.284 307.286 106.643 307.286Z" fill="white"/>
<path d="M106.642 305.672C110.109 305.672 112.92 302.861 112.92 299.393C112.92 295.926 110.109 293.115 106.642 293.115C103.174 293.115 100.363 295.926 100.363 299.393C100.363 302.861 103.174 305.672 106.642 305.672Z" fill="url(#paint100_radial)"/>
<path opacity="0.44" d="M116.418 262.171H140.186V242.977C140.186 240.734 138.393 238.94 136.15 238.94H129.962C128.437 238.94 127.002 239.658 126.194 240.914L115.79 255.264L114.086 257.596C112.651 259.48 113.996 262.171 116.418 262.171Z" fill="white"/>
<path d="M128.259 271.14H135.704C136.511 271.14 137.139 270.512 137.139 269.705C137.139 268.897 136.511 268.27 135.704 268.27H128.259C127.452 268.27 126.824 268.897 126.824 269.705C126.824 270.422 127.452 271.14 128.259 271.14Z" fill="white"/>
<path d="M151.579 288.629H154.808V228.536H151.489L151.579 288.629Z" fill="url(#paint101_radial)"/>
<path d="M90.4985 279.122H79.1973V285.939H83.7716C87.449 285.849 90.4985 282.799 90.4985 279.122Z" fill="white"/>
<path d="M111.828 263.978L117.21 263.973L117.199 252.762L111.818 252.767L111.828 263.978Z" fill="white"/>
<path opacity="0.44" d="M140.189 260.556H117.317V262.17H140.189V260.556Z" fill="white"/>
<path d="M270.78 236.967H154.808V255.892H270.78V236.967Z" fill="url(#paint102_radial)"/>
<path d="M270.78 259.659H154.808V264.054H270.78V259.659Z" fill="url(#paint103_radial)"/>
<path d="M271.319 83.7726C294.452 83.7726 313.205 65.0195 313.205 41.8863C313.205 18.7531 294.452 0 271.319 0C248.186 0 229.433 18.7531 229.433 41.8863C229.433 65.0195 248.186 83.7726 271.319 83.7726Z" fill="url(#paint104_radial)"/>
<path d="M290.513 40.9886C290.513 40.7195 290.513 40.5401 290.513 40.2711C290.155 30.2255 281.993 22.1532 272.037 21.7944C271.768 21.7944 271.588 21.7944 271.319 21.7944C271.05 21.7944 270.871 21.7944 270.602 21.7944C260.556 22.1532 252.484 30.3152 252.125 40.3607C252.125 40.6298 252.125 40.8092 252.125 41.0783C252.125 41.3474 252.125 41.5267 252.125 41.7958C252.484 51.8414 260.646 59.9137 270.602 60.2724C270.871 60.2724 271.05 60.2724 271.319 60.2724C271.588 60.2724 271.768 60.2724 272.037 60.2724C282.082 59.9137 290.155 51.7517 290.513 41.7061C290.513 41.437 290.513 41.2577 290.513 40.9886ZM281.185 41.168C281.185 41.5267 280.916 41.7958 280.557 41.7958H272.485C272.216 42.1546 271.768 42.334 271.319 42.334C270.512 42.334 269.884 41.7061 269.884 40.8989C269.884 40.4504 270.063 40.002 270.422 39.7329V30.0461C270.422 29.6874 270.781 29.3286 271.14 29.3286H271.588C271.947 29.3286 272.306 29.6874 272.306 30.0461V39.9123L272.395 40.002H280.468C280.827 40.002 281.096 40.271 281.096 40.6298L281.185 41.168Z" fill="white"/>
<path d="M271.228 15.5166C257.147 15.5166 245.756 26.9972 245.756 40.9892C245.756 55.0709 257.236 66.4618 271.228 66.4618C285.31 66.4618 296.701 54.9812 296.701 40.8995C296.701 26.9075 285.31 15.5166 271.228 15.5166ZM271.318 64.1298C258.582 64.1298 248.178 53.8152 248.178 41.0789C248.178 28.3426 258.492 17.9383 271.228 17.9383C283.965 17.9383 294.369 28.2529 294.369 40.9892C294.369 53.7255 284.054 64.1298 271.318 64.1298Z" fill="white"/>
<path d="M481.197 160.101C498.188 160.101 511.962 146.327 511.962 129.336C511.962 112.345 498.188 98.5718 481.197 98.5718C464.206 98.5718 450.433 112.345 450.433 129.336C450.433 146.327 464.206 160.101 481.197 160.101Z" fill="url(#paint105_radial)"/>
<path d="M491.154 112.923H488.463V115.434C488.463 117.228 486.938 118.753 485.144 118.753H477.072C475.278 118.753 473.754 117.228 473.754 115.434V112.923H471.063C469.897 112.923 468.91 113.909 468.91 115.075V144.315C468.91 145.481 469.897 146.468 471.063 146.468H491.064C492.23 146.468 493.217 145.481 493.217 144.315V115.075C493.306 113.909 492.32 112.923 491.154 112.923ZM476.624 121.533C476.803 121.533 476.982 121.623 477.072 121.713C477.431 121.982 477.521 122.43 477.252 122.789L474.92 126.108C474.74 126.287 474.561 126.466 474.292 126.466C474.023 126.466 473.754 126.377 473.664 126.108L472.857 125.031C472.588 124.673 472.677 124.134 473.036 123.955C473.215 123.865 473.305 123.776 473.484 123.776C473.754 123.776 474.023 123.865 474.112 124.134L474.202 124.314L475.906 121.892C476.086 121.713 476.355 121.533 476.624 121.533ZM488.373 136.153H478.418C478.059 136.153 477.79 135.884 477.79 135.525C477.79 135.167 478.059 134.897 478.418 134.897H488.373C488.732 134.897 489.001 135.167 489.001 135.525C488.912 135.884 488.642 136.153 488.373 136.153ZM488.912 138.934C488.912 139.292 488.642 139.561 488.284 139.561H478.328C477.969 139.561 477.7 139.292 477.7 138.934C477.7 138.575 477.969 138.306 478.328 138.306H488.284C488.642 138.306 488.912 138.575 488.912 138.934ZM488.373 132.745H478.418C478.059 132.745 477.79 132.476 477.79 132.117C477.79 131.758 478.059 131.489 478.418 131.489H488.373C488.732 131.489 489.001 131.758 489.001 132.117C489.001 132.476 488.642 132.745 488.373 132.745ZM488.284 129.337H478.328C477.969 129.337 477.7 129.067 477.7 128.709C477.7 128.35 477.969 128.081 478.328 128.081H488.284C488.642 128.081 488.912 128.35 488.912 128.709C488.912 129.067 488.642 129.337 488.284 129.337ZM472.677 131.489C472.677 131.31 472.857 131.13 473.036 130.951C473.215 130.861 473.305 130.772 473.484 130.772C473.754 130.772 474.023 130.861 474.112 131.13L474.202 131.31L475.906 128.888C476.086 128.709 476.265 128.529 476.534 128.529C476.713 128.529 476.893 128.619 476.982 128.709C477.341 128.978 477.431 129.426 477.162 129.785L474.83 133.104C474.65 133.283 474.471 133.462 474.202 133.462C473.933 133.462 473.664 133.373 473.574 133.104L472.767 132.027C472.677 131.848 472.677 131.669 472.677 131.489ZM488.284 125.928H478.328C477.969 125.928 477.7 125.659 477.7 125.3C477.7 124.942 477.969 124.673 478.328 124.673H488.284C488.642 124.673 488.912 124.942 488.912 125.3C488.912 125.659 488.642 125.928 488.284 125.928Z" fill="white"/>
<path d="M477.072 117.228H485.144C486.22 117.228 487.117 116.331 487.117 115.255V112.923H475.099V115.255C475.188 116.331 475.996 117.228 477.072 117.228Z" fill="white"/>
<path d="M481.557 110.412H480.75C479.853 110.412 479.135 111.039 478.866 111.757H483.44C483.171 111.039 482.454 110.412 481.557 110.412Z" fill="white"/>
<path d="M114.357 209.163C132.833 209.163 147.812 194.144 147.812 175.618C147.812 157.091 132.833 142.073 114.357 142.073C95.8798 142.073 80.9014 157.091 80.9014 175.618C80.9014 194.144 95.8798 209.163 114.357 209.163Z" fill="url(#paint106_radial)"/>
<path d="M125.207 165.482H95.7881V166.828H125.207V165.482Z" fill="white"/>
<path d="M96.6865 186.65H118.482V168.442H96.6865V186.65ZM109.154 180.73C109.154 180.461 109.333 180.282 109.602 180.282H116.239C116.509 180.282 116.688 180.461 116.688 180.73V184.139C116.688 184.408 116.509 184.587 116.239 184.587H109.602C109.333 184.587 109.154 184.408 109.154 184.139V180.73Z" fill="white"/>
<path d="M124.759 186.56V182.613C124.759 182.344 124.939 182.165 125.208 182.165H128.167C128.526 182.165 128.795 181.896 128.795 181.537C128.795 181.178 128.526 180.909 128.167 180.909H125.208C124.939 180.909 124.759 180.73 124.759 180.461V178.577C124.759 178.308 124.939 178.129 125.208 178.129H134.984C135.343 178.129 135.612 177.86 135.612 177.501C135.612 177.142 135.343 176.873 134.984 176.873H125.208C124.939 176.873 124.759 176.694 124.759 176.425V174.541C124.759 174.272 124.939 174.093 125.208 174.093H141.98C142.339 174.093 142.608 173.824 142.608 173.465C142.608 173.106 142.339 172.837 141.98 172.837H125.208C124.939 172.837 124.759 172.658 124.759 172.389V168.532H120.364V186.739L124.759 186.56Z" fill="white"/>
<path d="M139.559 176.873H137.944C137.585 176.873 137.316 177.142 137.316 177.501C137.316 177.86 137.585 178.129 137.944 178.129H139.559C139.917 178.129 140.187 177.86 140.187 177.501C140.187 177.142 139.917 176.873 139.559 176.873Z" fill="white"/>
<defs>
<radialGradient id="paint0_radial" cx="0" cy="0" r="1" gradientUnits="userSpaceOnUse" gradientTransform="translate(105.257 473.849) rotate(-0.0547147) scale(647.649 648.232)">
<stop offset="0.00263467" stop-color="#FFF6A6" stop-opacity="0.14"/>
<stop offset="1" stop-color="#10488C"/>
</radialGradient>
<radialGradient id="paint1_radial" cx="0" cy="0" r="1" gradientUnits="userSpaceOnUse" gradientTransform="translate(334.04 144.245) rotate(-0.0547146) scale(258.723 231.35)">
<stop stop-color="#219DDB"/>
<stop offset="0.5071" stop-color="#219DDB"/>
<stop offset="1" stop-color="#10488C"/>
</radialGradient>
<radialGradient id="paint2_radial" cx="0" cy="0" r="1" gradientUnits="userSpaceOnUse" gradientTransform="translate(401.453 203.259) rotate(-0.0547146) scale(160.524 143.54)">
<stop stop-color="#219DDB"/>
<stop offset="0.5071" stop-color="#219DDB"/>
<stop offset="1" stop-color="#10488C"/>
</radialGradient>
<radialGradient id="paint3_radial" cx="0" cy="0" r="1" gradientUnits="userSpaceOnUse" gradientTransform="translate(356.875 172.912) rotate(-0.0547147) scale(140.322 140.448)">
<stop stop-color="#219DDB"/>
<stop offset="0.5071" stop-color="#219DDB"/>
<stop offset="1" stop-color="#10488C"/>
</radialGradient>
<radialGradient id="paint4_radial" cx="0" cy="0" r="1" gradientUnits="userSpaceOnUse" gradientTransform="translate(379.998 161.614) rotate(-0.0547146) scale(95.0584 95.1439)">
<stop stop-color="#219DDB"/>
<stop offset="0.5071" stop-color="#219DDB"/>
<stop offset="1" stop-color="#10488C"/>
</radialGradient>
<radialGradient id="paint5_radial" cx="0" cy="0" r="1" gradientUnits="userSpaceOnUse" gradientTransform="translate(123.795 160.498) rotate(-0.0547146) scale(232.041 207.491)">
<stop stop-color="#219DDB"/>
<stop offset="0.5071" stop-color="#219DDB"/>
<stop offset="1" stop-color="#10488C"/>
</radialGradient>
<radialGradient id="paint6_radial" cx="0" cy="0" r="1" gradientUnits="userSpaceOnUse" gradientTransform="translate(113.343 135.078) rotate(-0.0547147) scale(107.043 107.139)">
<stop stop-color="#219DDB"/>
<stop offset="0.5071" stop-color="#219DDB"/>
<stop offset="1" stop-color="#10488C"/>
</radialGradient>
<radialGradient id="paint7_radial" cx="0" cy="0" r="1" gradientUnits="userSpaceOnUse" gradientTransform="translate(181.118 122.808) rotate(-0.0547146) scale(294.598 263.43)">
<stop stop-color="#219DDB"/>
<stop offset="0.5071" stop-color="#219DDB"/>
<stop offset="1" stop-color="#10488C"/>
</radialGradient>
<radialGradient id="paint8_radial" cx="0" cy="0" r="1" gradientUnits="userSpaceOnUse" gradientTransform="translate(99.3091 67.104) rotate(-0.0547146) scale(257.523 257.755)">
<stop stop-color="#219DDB"/>
<stop offset="0.5071" stop-color="#219DDB"/>
<stop offset="1" stop-color="#10488C"/>
</radialGradient>
<radialGradient id="paint9_radial" cx="0" cy="0" r="1" gradientUnits="userSpaceOnUse" gradientTransform="translate(141.744 46.3696) rotate(-0.0547146) scale(174.454 174.611)">
<stop stop-color="#219DDB"/>
<stop offset="0.5071" stop-color="#219DDB"/>
<stop offset="1" stop-color="#10488C"/>
</radialGradient>
<radialGradient id="paint10_radial" cx="0" cy="0" r="1" gradientUnits="userSpaceOnUse" gradientTransform="translate(137.431 210.717) rotate(179.945) scale(148.543 132.827)">
<stop stop-color="#219DDB"/>
<stop offset="0.5071" stop-color="#219DDB"/>
<stop offset="1" stop-color="#10488C"/>
</radialGradient>
<radialGradient id="paint11_radial" cx="0" cy="0" r="1" gradientUnits="userSpaceOnUse" gradientTransform="translate(447.291 217.215) rotate(-0.0547147) scale(135.346 121.027)">
<stop stop-color="#219DDB"/>
<stop offset="0.5071" stop-color="#219DDB"/>
<stop offset="1" stop-color="#10488C"/>
</radialGradient>
<radialGradient id="paint12_radial" cx="0" cy="0" r="1" gradientUnits="userSpaceOnUse" gradientTransform="translate(441.19 202.392) rotate(-0.0547146) scale(62.4366 62.4927)">
<stop stop-color="#219DDB"/>
<stop offset="0.5071" stop-color="#219DDB"/>
<stop offset="1" stop-color="#10488C"/>
</radialGradient>
<radialGradient id="paint13_radial" cx="0" cy="0" r="1" gradientUnits="userSpaceOnUse" gradientTransform="translate(287.464 67.6691) rotate(-0.0547146) scale(388.173 388.523)">
<stop offset="0.5071" stop-color="#219DDB"/>
<stop offset="1" stop-color="#10488C"/>
</radialGradient>
<radialGradient id="paint14_radial" cx="0" cy="0" r="1" gradientUnits="userSpaceOnUse" gradientTransform="translate(-95.693 120.776) rotate(-0.0547146) scale(301.21 301.481)">
<stop offset="0.5071" stop-color="#219DDB"/>
<stop offset="1" stop-color="#10488C"/>
</radialGradient>
<radialGradient id="paint15_radial" cx="0" cy="0" r="1" gradientUnits="userSpaceOnUse" gradientTransform="translate(45.0243 247.441) rotate(-0.0547147) scale(160.129 160.273)">
<stop offset="0.00263467" stop-color="#FFF6A6"/>
<stop offset="0.3545" stop-color="#64B8CB"/>
<stop offset="0.5071" stop-color="#219DDB"/>
<stop offset="1" stop-color="#10488C"/>
</radialGradient>
<radialGradient id="paint16_radial" cx="0" cy="0" r="1" gradientUnits="userSpaceOnUse" gradientTransform="translate(474.053 193.107) rotate(-0.0547147) scale(134.075 171.415)">
<stop offset="0.00263467" stop-color="#EDDFB4"/>
<stop offset="0.5071" stop-color="#219DDB"/>
<stop offset="1" stop-color="#10488C"/>
</radialGradient>
<radialGradient id="paint17_radial" cx="0" cy="0" r="1" gradientUnits="userSpaceOnUse" gradientTransform="translate(309.962 208.392) rotate(-0.0547146) scale(329.224 420.912)">
<stop offset="0.00263467" stop-color="#EDDFB4"/>
<stop offset="0.5071" stop-color="#219DDB"/>
<stop offset="1" stop-color="#10488C"/>
</radialGradient>
<radialGradient id="paint18_radial" cx="0" cy="0" r="1" gradientUnits="userSpaceOnUse" gradientTransform="translate(422.823 230.947) rotate(-0.0547146) scale(323.122 413.112)">
<stop offset="0.00263467" stop-color="#EDDFB4"/>
<stop offset="0.5071" stop-color="#219DDB"/>
<stop offset="1" stop-color="#10488C"/>
</radialGradient>
<radialGradient id="paint19_radial" cx="0" cy="0" r="1" gradientUnits="userSpaceOnUse" gradientTransform="translate(438.919 237.701) rotate(-0.0547147) scale(386.084 493.608)">
<stop offset="0.00263467" stop-color="#EDDFB4"/>
<stop offset="0.5071" stop-color="#219DDB"/>
<stop offset="1" stop-color="#10488C"/>
</radialGradient>
<radialGradient id="paint20_radial" cx="0" cy="0" r="1" gradientUnits="userSpaceOnUse" gradientTransform="translate(459.47 222.059) rotate(-0.0547146) scale(200.891 256.839)">
<stop offset="0.00263467" stop-color="#EDDFB4"/>
<stop offset="0.5071" stop-color="#219DDB"/>
<stop offset="1" stop-color="#10488C"/>
</radialGradient>
<radialGradient id="paint21_radial" cx="0" cy="0" r="1" gradientUnits="userSpaceOnUse" gradientTransform="translate(358.45 208.748) rotate(-0.0547147) scale(319.124 408)">
<stop offset="0.00263467" stop-color="#EDDFB4"/>
<stop offset="0.5071" stop-color="#219DDB"/>
<stop offset="1" stop-color="#10488C"/>
</radialGradient>
<radialGradient id="paint22_radial" cx="0" cy="0" r="1" gradientUnits="userSpaceOnUse" gradientTransform="translate(332.46 199.787) rotate(-0.0547147) scale(319.124 408)">
<stop offset="0.00263467" stop-color="#EDDFB4"/>
<stop offset="0.5071" stop-color="#219DDB"/>
<stop offset="1" stop-color="#10488C"/>
</radialGradient>
<radialGradient id="paint23_radial" cx="0" cy="0" r="1" gradientUnits="userSpaceOnUse" gradientTransform="translate(366.737 197.909) rotate(-0.0547147) scale(188.674 241.22)">
<stop offset="0.00263467" stop-color="#EDDFB4"/>
<stop offset="0.5071" stop-color="#219DDB"/>
<stop offset="1" stop-color="#10488C"/>
</radialGradient>
<radialGradient id="paint24_radial" cx="0" cy="0" r="1" gradientUnits="userSpaceOnUse" gradientTransform="translate(366.822 288.322) rotate(-0.054715) scale(188.674 24.8485)">
<stop offset="0.00263467" stop-color="#EDDFB4"/>
<stop offset="0.5071" stop-color="#219DDB"/>
<stop offset="1" stop-color="#10488C"/>
</radialGradient>
<radialGradient id="paint25_radial" cx="0" cy="0" r="1" gradientUnits="userSpaceOnUse" gradientTransform="translate(366.819 284.678) rotate(-0.054715) scale(188.674 24.8485)">
<stop offset="0.00263467" stop-color="#EDDFB4"/>
<stop offset="0.5071" stop-color="#219DDB"/>
<stop offset="1" stop-color="#10488C"/>
</radialGradient>
<radialGradient id="paint26_radial" cx="0" cy="0" r="1" gradientUnits="userSpaceOnUse" gradientTransform="translate(366.815 280.871) rotate(-0.0547142) scale(188.674 24.8482)">
<stop offset="0.00263467" stop-color="#EDDFB4"/>
<stop offset="0.5071" stop-color="#219DDB"/>
<stop offset="1" stop-color="#10488C"/>
</radialGradient>
<radialGradient id="paint27_radial" cx="0" cy="0" r="1" gradientUnits="userSpaceOnUse" gradientTransform="translate(366.811 277.065) rotate(-0.054715) scale(188.674 24.8485)">
<stop offset="0.00263467" stop-color="#EDDFB4"/>
<stop offset="0.5071" stop-color="#219DDB"/>
<stop offset="1" stop-color="#10488C"/>
</radialGradient>
<radialGradient id="paint28_radial" cx="0" cy="0" r="1" gradientUnits="userSpaceOnUse" gradientTransform="translate(366.808 273.258) rotate(-0.0547142) scale(188.674 24.8482)">
<stop offset="0.00263467" stop-color="#EDDFB4"/>
<stop offset="0.5071" stop-color="#219DDB"/>
<stop offset="1" stop-color="#10488C"/>
</radialGradient>
<radialGradient id="paint29_radial" cx="0" cy="0" r="1" gradientUnits="userSpaceOnUse" gradientTransform="translate(473.175 284.186) rotate(-0.0547145) scale(28.7681 36.78)">
<stop offset="0.00263467" stop-color="#EDDFB4"/>
<stop offset="0.5071" stop-color="#219DDB"/>
<stop offset="1" stop-color="#10488C"/>
</radialGradient>
<radialGradient id="paint30_radial" cx="0" cy="0" r="1" gradientUnits="userSpaceOnUse" gradientTransform="translate(470.067 283.706) rotate(-0.0547143) scale(53.3894 68.2579)">
<stop offset="0.00263467" stop-color="#EDDFB4"/>
<stop offset="0.5071" stop-color="#219DDB"/>
<stop offset="1" stop-color="#10488C"/>
</radialGradient>
<radialGradient id="paint31_radial" cx="0" cy="0" r="1" gradientUnits="userSpaceOnUse" gradientTransform="translate(-1.67446 22.6641) rotate(-0.0547137) scale(649.653 599.85)">
<stop stop-color="#FFEAA9"/>
<stop offset="0.2841" stop-color="#F79D5E"/>
<stop offset="0.5555" stop-color="#5E7CD3"/>
<stop offset="1" stop-color="#492E93"/>
</radialGradient>
<linearGradient id="paint32_linear" x1="112.25" y1="-17.7138" x2="540.865" y2="481.217" gradientUnits="userSpaceOnUse">
<stop stop-color="#FFF171"/>
<stop offset="1" stop-color="#FF3C00"/>
</linearGradient>
<linearGradient id="paint33_linear" x1="227.777" y1="22.6855" x2="332.606" y2="153.82" gradientUnits="userSpaceOnUse">
<stop stop-color="#FFF171"/>
<stop offset="1" stop-color="#FF3C00"/>
</linearGradient>
<linearGradient id="paint34_linear" x1="237.128" y1="24.5544" x2="338.23" y2="151.028" gradientUnits="userSpaceOnUse">
<stop stop-color="#FFF171"/>
<stop offset="1" stop-color="#FF3C00"/>
</linearGradient>
<linearGradient id="paint35_linear" x1="191.904" y1="55.6416" x2="294.29" y2="183.72" gradientUnits="userSpaceOnUse">
<stop stop-color="#FFF171"/>
<stop offset="1" stop-color="#FF3C00"/>
</linearGradient>
<radialGradient id="paint36_radial" cx="0" cy="0" r="1" gradientUnits="userSpaceOnUse" gradientTransform="translate(223.548 73.8165) rotate(-0.0547136) scale(349.613 322.811)">
<stop stop-color="#FBFFCC"/>
<stop offset="0.3566" stop-color="#FFD4E0"/>
<stop offset="0.9926" stop-color="#152960" stop-opacity="0.4"/>
</radialGradient>
<linearGradient id="paint37_linear" x1="146.744" y1="90.1137" x2="248.347" y2="217.213" gradientUnits="userSpaceOnUse">
<stop stop-color="#FFF171"/>
<stop offset="1" stop-color="#FF3C00"/>
</linearGradient>
<linearGradient id="paint38_linear" x1="149.682" y1="84.4146" x2="253.546" y2="214.343" gradientUnits="userSpaceOnUse">
<stop stop-color="#FFF171"/>
<stop offset="1" stop-color="#FF3C00"/>
</linearGradient>
<linearGradient id="paint39_linear" x1="186.787" y1="59.3315" x2="287.89" y2="185.805" gradientUnits="userSpaceOnUse">
<stop stop-color="#FFF171"/>
<stop offset="1" stop-color="#FF3C00"/>
</linearGradient>
<linearGradient id="paint40_linear" x1="318.687" y1="211.14" x2="434.572" y2="321.557" gradientUnits="userSpaceOnUse">
<stop stop-color="#FCCA81"/>
<stop offset="1" stop-color="#E87446"/>
</linearGradient>
<linearGradient id="paint41_linear" x1="348.246" y1="171.454" x2="409.776" y2="254.775" gradientUnits="userSpaceOnUse">
<stop stop-color="#FCCA81"/>
<stop offset="1" stop-color="#E87446"/>
</linearGradient>
<linearGradient id="paint42_linear" x1="351.317" y1="213.525" x2="465.296" y2="278.935" gradientUnits="userSpaceOnUse">
<stop stop-color="#FCCA81"/>
<stop offset="1" stop-color="#E87446"/>
</linearGradient>
<linearGradient id="paint43_linear" x1="381.432" y1="196.589" x2="454.342" y2="248.595" gradientUnits="userSpaceOnUse">
<stop stop-color="#FCCA81"/>
<stop offset="1" stop-color="#E87446"/>
</linearGradient>
<linearGradient id="paint44_linear" x1="281.082" y1="262.668" x2="366.977" y2="306.426" gradientUnits="userSpaceOnUse">
<stop stop-color="#FCCA81"/>
<stop offset="1" stop-color="#E87446"/>
</linearGradient>
<linearGradient id="paint45_linear" x1="285.669" y1="219.456" x2="333.233" y2="271.95" gradientUnits="userSpaceOnUse">
<stop stop-color="#FCCA81"/>
<stop offset="1" stop-color="#E87446"/>
</linearGradient>
<linearGradient id="paint46_linear" x1="323.444" y1="263.609" x2="497.033" y2="367.081" gradientUnits="userSpaceOnUse">
<stop stop-color="#FCCA81"/>
<stop offset="1" stop-color="#E87446"/>
</linearGradient>
<linearGradient id="paint47_linear" x1="311.312" y1="229.892" x2="366.616" y2="282.58" gradientUnits="userSpaceOnUse">
<stop stop-color="#FCCA81"/>
<stop offset="1" stop-color="#E87446"/>
</linearGradient>
<linearGradient id="paint48_linear" x1="244.313" y1="82.6826" x2="383.623" y2="289.954" gradientUnits="userSpaceOnUse">
<stop stop-color="#E20000"/>
<stop offset="1" stop-color="#FF3C00"/>
</linearGradient>
<radialGradient id="paint49_radial" cx="0" cy="0" r="1" gradientUnits="userSpaceOnUse" gradientTransform="translate(277 146.691) rotate(-0.0547146) scale(138.896 139.021)">
<stop offset="0.00263467" stop-color="#FFF6A6"/>
<stop offset="0.3545" stop-color="#64B8CB"/>
<stop offset="0.5071" stop-color="#219DDB"/>
<stop offset="1" stop-color="#10488C"/>
</radialGradient>
<linearGradient id="paint50_linear" x1="355.26" y1="287.348" x2="393.679" y2="325.992" gradientUnits="userSpaceOnUse">
<stop stop-color="#FFF171"/>
<stop offset="1" stop-color="#FF3C00"/>
</linearGradient>
<linearGradient id="paint51_linear" x1="352.738" y1="295.458" x2="422.113" y2="348.111" gradientUnits="userSpaceOnUse">
<stop stop-color="#FFF171"/>
<stop offset="1" stop-color="#FF3C00"/>
</linearGradient>
<linearGradient id="paint52_linear" x1="354.528" y1="294.2" x2="389.173" y2="329.048" gradientUnits="userSpaceOnUse">
<stop stop-color="#FFF171"/>
<stop offset="1" stop-color="#FF3C00"/>
</linearGradient>
<radialGradient id="paint53_radial" cx="0" cy="0" r="1" gradientUnits="userSpaceOnUse" gradientTransform="translate(347.542 279.526) rotate(-0.0547159) scale(151.577 160.719)">
<stop offset="0.00263467" stop-color="#FFF6A6"/>
<stop offset="0.3545" stop-color="#64B8CB"/>
<stop offset="0.5071" stop-color="#219DDB"/>
<stop offset="1" stop-color="#10488C"/>
</radialGradient>
<radialGradient id="paint54_radial" cx="0" cy="0" r="1" gradientUnits="userSpaceOnUse" gradientTransform="translate(333.857 165.447) rotate(-0.0547148) scale(43.7663 43.8058)">
<stop offset="0.00263467" stop-color="#FFF6A6"/>
<stop offset="0.3545" stop-color="#64B8CB"/>
<stop offset="0.5071" stop-color="#219DDB"/>
<stop offset="1" stop-color="#10488C"/>
</radialGradient>
<radialGradient id="paint55_radial" cx="0" cy="0" r="1" gradientUnits="userSpaceOnUse" gradientTransform="translate(161.87 59.6755) rotate(-0.0547146) scale(250.241 250.467)">
<stop offset="0.00263467" stop-color="#FFF6A6"/>
<stop offset="0.3545" stop-color="#64B8CB"/>
<stop offset="0.5071" stop-color="#219DDB"/>
<stop offset="1" stop-color="#10488C"/>
</radialGradient>
<linearGradient id="paint56_linear" x1="424.204" y1="287.282" x2="385.859" y2="325.999" gradientUnits="userSpaceOnUse">
<stop stop-color="#FFF171"/>
<stop offset="1" stop-color="#FF3C00"/>
</linearGradient>
<linearGradient id="paint57_linear" x1="426.741" y1="295.388" x2="357.467" y2="348.173" gradientUnits="userSpaceOnUse">
<stop stop-color="#FFF171"/>
<stop offset="1" stop-color="#FF3C00"/>
</linearGradient>
<linearGradient id="paint58_linear" x1="424.948" y1="294.132" x2="390.37" y2="329.047" gradientUnits="userSpaceOnUse">
<stop stop-color="#FFF171"/>
<stop offset="1" stop-color="#FF3C00"/>
</linearGradient>
<radialGradient id="paint59_radial" cx="0" cy="0" r="1" gradientUnits="userSpaceOnUse" gradientTransform="translate(431.981 279.445) rotate(179.945) scale(151.577 160.719)">
<stop offset="0.00263467" stop-color="#FFF6A6"/>
<stop offset="0.3545" stop-color="#64B8CB"/>
<stop offset="0.5071" stop-color="#219DDB"/>
<stop offset="1" stop-color="#10488C"/>
</radialGradient>
<radialGradient id="paint60_radial" cx="0" cy="0" r="1" gradientUnits="userSpaceOnUse" gradientTransform="translate(354.628 163.371) rotate(-0.0547147) scale(59.1828 59.2362)">
<stop offset="0.00263467" stop-color="#FFF6A6"/>
<stop offset="0.3545" stop-color="#64B8CB"/>
<stop offset="0.5071" stop-color="#219DDB"/>
<stop offset="1" stop-color="#10488C"/>
</radialGradient>
<radialGradient id="paint61_radial" cx="0" cy="0" r="1" gradientUnits="userSpaceOnUse" gradientTransform="translate(338.184 154.857) rotate(-0.0547148) scale(53.2106 53.2586)">
<stop offset="0.00263467" stop-color="#FFF6A6"/>
<stop offset="0.3545" stop-color="#64B8CB"/>
<stop offset="0.5071" stop-color="#219DDB"/>
<stop offset="1" stop-color="#10488C"/>
</radialGradient>
<radialGradient id="paint62_radial" cx="0" cy="0" r="1" gradientUnits="userSpaceOnUse" gradientTransform="translate(351.27 153.017) rotate(-0.0547149) scale(50.5757 50.6214)">
<stop offset="0.00263467" stop-color="#FFF6A6"/>
<stop offset="0.3545" stop-color="#64B8CB"/>
<stop offset="0.5071" stop-color="#219DDB"/>
<stop offset="1" stop-color="#10488C"/>
</radialGradient>
<radialGradient id="paint63_radial" cx="0" cy="0" r="1" gradientUnits="userSpaceOnUse" gradientTransform="translate(492.057 174.664) rotate(-0.0547146) scale(169.293 169.445)">
<stop offset="0.00263467" stop-color="#FFF6A6"/>
<stop offset="0.1475" stop-color="#FDF5A6"/>
<stop offset="0.1997" stop-color="#F6F3A8"/>
<stop offset="0.2369" stop-color="#EBEEAB"/>
<stop offset="0.267" stop-color="#DAE7AF"/>
<stop offset="0.2928" stop-color="#C4DEB4"/>
<stop offset="0.3156" stop-color="#A8D3BB"/>
<stop offset="0.3357" stop-color="#89C7C2"/>
<stop offset="0.3541" stop-color="#65B8CB"/>
<stop offset="0.3545" stop-color="#64B8CB"/>
<stop offset="0.5071" stop-color="#219DDB"/>
<stop offset="1" stop-color="#10488C"/>
</radialGradient>
<radialGradient id="paint64_radial" cx="0" cy="0" r="1" gradientUnits="userSpaceOnUse" gradientTransform="translate(279.188 47.8355) rotate(-0.0547146) scale(263.093 263.33)">
<stop offset="0.00263467" stop-color="#FFF6A6"/>
<stop offset="0.3545" stop-color="#64B8CB"/>
<stop offset="0.5071" stop-color="#219DDB"/>
<stop offset="1" stop-color="#10488C"/>
</radialGradient>
<linearGradient id="paint65_linear" x1="366.08" y1="119.429" x2="520.054" y2="279.575" gradientUnits="userSpaceOnUse">
<stop stop-color="#FCCA81"/>
<stop offset="1" stop-color="#E87446"/>
</linearGradient>
<linearGradient id="paint66_linear" x1="396.808" y1="125.098" x2="430.96" y2="168.389" gradientUnits="userSpaceOnUse">
<stop stop-color="#FCCA81"/>
<stop offset="1" stop-color="#E87446"/>
</linearGradient>
<linearGradient id="paint67_linear" x1="417.826" y1="154" x2="562.967" y2="237.464" gradientUnits="userSpaceOnUse">
<stop stop-color="#FCCA81"/>
<stop offset="1" stop-color="#E87446"/>
</linearGradient>
<linearGradient id="paint68_linear" x1="407.102" y1="127.371" x2="442.48" y2="164.173" gradientUnits="userSpaceOnUse">
<stop stop-color="#FCCA81"/>
<stop offset="1" stop-color="#E87446"/>
</linearGradient>
<linearGradient id="paint69_linear" x1="408.509" y1="104.834" x2="376.35" y2="85.493" gradientUnits="userSpaceOnUse">
<stop stop-color="#C14666"/>
<stop offset="0.5802" stop-color="#FE95A9"/>
<stop offset="0.9978" stop-color="#FFDA99"/>
</linearGradient>
<linearGradient id="paint70_linear" x1="453.973" y1="123.777" x2="378.368" y2="70.2303" gradientUnits="userSpaceOnUse">
<stop stop-color="#C14666"/>
<stop offset="0.5802" stop-color="#FE95A9"/>
<stop offset="0.9978" stop-color="#FFDA99"/>
</linearGradient>
<radialGradient id="paint71_radial" cx="0" cy="0" r="1" gradientUnits="userSpaceOnUse" gradientTransform="translate(406.448 50.111) rotate(179.945) scale(35.1342 35.1658)">
<stop stop-color="#FFEAA9"/>
<stop offset="0.1044" stop-color="#FCCE8D"/>
<stop offset="0.2841" stop-color="#F79D5E"/>
<stop offset="0.5555" stop-color="#5E7CD3"/>
<stop offset="1" stop-color="#492E93"/>
</radialGradient>
<linearGradient id="paint72_linear" x1="388.586" y1="84.2368" x2="401.103" y2="71.9843" gradientUnits="userSpaceOnUse">
<stop stop-color="#C14666"/>
<stop offset="0.5802" stop-color="#FE95A9"/>
<stop offset="0.9978" stop-color="#FFDA99"/>
</linearGradient>
<linearGradient id="paint73_linear" x1="402.478" y1="126.5" x2="296.511" y2="91.0982" gradientUnits="userSpaceOnUse">
<stop stop-color="#C14666"/>
<stop offset="0.5802" stop-color="#FE95A9"/>
<stop offset="0.9978" stop-color="#FFDA99"/>
</linearGradient>
<radialGradient id="paint74_radial" cx="0" cy="0" r="1" gradientUnits="userSpaceOnUse" gradientTransform="translate(325.323 81.4476) rotate(-0.0547146) scale(120.932 121.041)">
<stop offset="0.00263467" stop-color="#FFF6A6"/>
<stop offset="0.3545" stop-color="#64B8CB"/>
<stop offset="0.5071" stop-color="#219DDB"/>
<stop offset="1" stop-color="#10488C"/>
</radialGradient>
<radialGradient id="paint75_radial" cx="0" cy="0" r="1" gradientUnits="userSpaceOnUse" gradientTransform="translate(369.621 50.1463) rotate(-0.0547146) scale(35.1342 35.1658)">
<stop stop-color="#FFEAA9"/>
<stop offset="0.1044" stop-color="#FCCE8D"/>
<stop offset="0.2841" stop-color="#F79D5E"/>
<stop offset="0.5555" stop-color="#5E7CD3"/>
<stop offset="1" stop-color="#492E93"/>
</radialGradient>
<linearGradient id="paint76_linear" x1="358.542" y1="41.6623" x2="391.141" y2="72.9834" gradientUnits="userSpaceOnUse">
<stop stop-color="#FCCA81"/>
<stop offset="1" stop-color="#E87446"/>
</linearGradient>
<linearGradient id="paint77_linear" x1="355.44" y1="33.5116" x2="406.636" y2="86.4351" gradientUnits="userSpaceOnUse">
<stop stop-color="#FCCA81"/>
<stop offset="1" stop-color="#E87446"/>
</linearGradient>
<linearGradient id="paint78_linear" x1="387.546" y1="84.2378" x2="375.006" y2="72.0092" gradientUnits="userSpaceOnUse">
<stop stop-color="#C14666"/>
<stop offset="0.5802" stop-color="#FE95A9"/>
<stop offset="0.9978" stop-color="#FFDA99"/>
</linearGradient>
<linearGradient id="paint79_linear" x1="363.907" y1="112.133" x2="344.521" y2="83.5932" gradientUnits="userSpaceOnUse">
<stop stop-color="#C14666"/>
<stop offset="0.5802" stop-color="#FE95A9"/>
<stop offset="0.9978" stop-color="#FFDA99"/>
</linearGradient>
<linearGradient id="paint80_linear" x1="381.246" y1="77.2639" x2="359.359" y2="65.7707" gradientUnits="userSpaceOnUse">
<stop stop-color="#C14666"/>
<stop offset="0.5802" stop-color="#FE95A9"/>
<stop offset="0.9978" stop-color="#FFDA99"/>
</linearGradient>
<linearGradient id="paint81_linear" x1="392.628" y1="69.2819" x2="363.994" y2="76.2896" gradientUnits="userSpaceOnUse">
<stop stop-color="#C14666"/>
<stop offset="0.5802" stop-color="#FE95A9"/>
<stop offset="0.9978" stop-color="#FFDA99"/>
</linearGradient>
<linearGradient id="paint82_linear" x1="398.287" y1="141.75" x2="431.155" y2="183.186" gradientUnits="userSpaceOnUse">
<stop stop-color="#C14666"/>
<stop offset="0.5802" stop-color="#FE95A9"/>
<stop offset="0.9978" stop-color="#FFDA99"/>
</linearGradient>
<linearGradient id="paint83_linear" x1="378.702" y1="80.2231" x2="453.809" y2="172.305" gradientUnits="userSpaceOnUse">
<stop stop-color="#C14666"/>
<stop offset="0.5802" stop-color="#FE95A9"/>
<stop offset="0.9978" stop-color="#FFDA99"/>
</linearGradient>
<radialGradient id="paint84_radial" cx="0" cy="0" r="1" gradientUnits="userSpaceOnUse" gradientTransform="translate(354.309 93.8626) rotate(-0.0547146) scale(122.851 122.961)">
<stop offset="0.00263467" stop-color="#FFF6A6"/>
<stop offset="0.3545" stop-color="#64B8CB"/>
<stop offset="0.5071" stop-color="#219DDB"/>
<stop offset="1" stop-color="#10488C"/>
</radialGradient>
<radialGradient id="paint85_radial" cx="0" cy="0" r="1" gradientUnits="userSpaceOnUse" gradientTransform="translate(351.774 81.0773) rotate(-0.0547146) scale(122.851 122.961)">
<stop offset="0.00263467" stop-color="#FFF6A6"/>
<stop offset="0.3545" stop-color="#64B8CB"/>
<stop offset="0.5071" stop-color="#219DDB"/>
<stop offset="1" stop-color="#10488C"/>
</radialGradient>
<radialGradient id="paint86_radial" cx="0" cy="0" r="1" gradientUnits="userSpaceOnUse" gradientTransform="translate(516.277 261.191) rotate(179.945) scale(309.401 301.333)">
<stop offset="0.00263467" stop-color="#FFF6A6"/>
<stop offset="0.3545" stop-color="#64B8CB"/>
<stop offset="0.5071" stop-color="#219DDB"/>
<stop offset="1" stop-color="#10488C"/>
</radialGradient>
<radialGradient id="paint87_radial" cx="0" cy="0" r="1" gradientUnits="userSpaceOnUse" gradientTransform="translate(49.5978 96.9478) rotate(-0.0547147) scale(357.055 357.376)">
<stop offset="0.00404123" stop-color="#FAFFEE"/>
<stop offset="0.4456" stop-color="#FEFFD9"/>
<stop offset="1" stop-color="#809EBF"/>
</radialGradient>
<radialGradient id="paint88_radial" cx="0" cy="0" r="1" gradientUnits="userSpaceOnUse" gradientTransform="translate(150.202 167.465) rotate(-0.0547148) scale(214.767 214.96)">
<stop offset="0.00263467" stop-color="#FFF6A6"/>
<stop offset="0.3545" stop-color="#64B8CB"/>
<stop offset="0.5071" stop-color="#219DDB"/>
<stop offset="1" stop-color="#10488C"/>
</radialGradient>
<radialGradient id="paint89_radial" cx="0" cy="0" r="1" gradientUnits="userSpaceOnUse" gradientTransform="translate(150.202 167.465) rotate(-0.0547147) scale(214.766 214.96)">
<stop offset="0.00263467" stop-color="#FFF6A6"/>
<stop offset="0.3545" stop-color="#64B8CB"/>
<stop offset="0.5071" stop-color="#219DDB"/>
<stop offset="1" stop-color="#10488C"/>
</radialGradient>
<radialGradient id="paint90_radial" cx="0" cy="0" r="1" gradientUnits="userSpaceOnUse" gradientTransform="translate(281.773 179.823) rotate(179.945) scale(277.502 277.752)">
<stop offset="0.00263467" stop-color="#FFF6A6"/>
<stop offset="0.3545" stop-color="#64B8CB"/>
<stop offset="0.5071" stop-color="#219DDB"/>
<stop offset="1" stop-color="#10488C"/>
</radialGradient>
<radialGradient id="paint91_radial" cx="0" cy="0" r="1" gradientUnits="userSpaceOnUse" gradientTransform="translate(281.773 179.823) rotate(179.945) scale(277.502 277.752)">
<stop offset="0.00263467" stop-color="#FFF6A6"/>
<stop offset="0.3545" stop-color="#64B8CB"/>
<stop offset="0.5071" stop-color="#219DDB"/>
<stop offset="1" stop-color="#10488C"/>
</radialGradient>
<radialGradient id="paint92_radial" cx="0" cy="0" r="1" gradientUnits="userSpaceOnUse" gradientTransform="translate(332.375 248.323) rotate(179.945) scale(216.451 216.646)">
<stop offset="0.00263467" stop-color="#FFF6A6"/>
<stop offset="0.3545" stop-color="#64B8CB"/>
<stop offset="0.5071" stop-color="#219DDB"/>
<stop offset="1" stop-color="#10488C"/>
</radialGradient>
<radialGradient id="paint93_radial" cx="0" cy="0" r="1" gradientUnits="userSpaceOnUse" gradientTransform="translate(277.766 272.594) rotate(179.945) scale(132.781 132.9)">
<stop offset="0.00263467" stop-color="#FFF6A6"/>
<stop offset="0.3545" stop-color="#64B8CB"/>
<stop offset="0.5071" stop-color="#219DDB"/>
<stop offset="1" stop-color="#10488C"/>
</radialGradient>
<radialGradient id="paint94_radial" cx="0" cy="0" r="1" gradientUnits="userSpaceOnUse" gradientTransform="translate(155.649 270.602) rotate(-0.0547146) scale(96.9509 97.0381)">
<stop offset="0.00263467" stop-color="#FFF6A6"/>
<stop offset="0.3545" stop-color="#64B8CB"/>
<stop offset="0.5071" stop-color="#219DDB"/>
<stop offset="1" stop-color="#10488C"/>
</radialGradient>
<radialGradient id="paint95_radial" cx="0" cy="0" r="1" gradientUnits="userSpaceOnUse" gradientTransform="translate(174.125 261.853) rotate(-0.0547147) scale(49.7578 49.8026)">
<stop offset="0.00263467" stop-color="#FFF6A6"/>
<stop offset="0.3545" stop-color="#64B8CB"/>
<stop offset="0.5071" stop-color="#219DDB"/>
<stop offset="1" stop-color="#10488C"/>
</radialGradient>
<radialGradient id="paint96_radial" cx="0" cy="0" r="1" gradientUnits="userSpaceOnUse" gradientTransform="translate(190.176 270.119) rotate(-0.0547147) scale(152.202 152.339)">
<stop offset="0.00263467" stop-color="#FFF6A6"/>
<stop offset="0.3545" stop-color="#64B8CB"/>
<stop offset="0.5071" stop-color="#219DDB"/>
<stop offset="1" stop-color="#10488C"/>
</radialGradient>
<radialGradient id="paint97_radial" cx="0" cy="0" r="1" gradientUnits="userSpaceOnUse" gradientTransform="translate(148.348 263.159) rotate(179.945) scale(79.1603 79.2315)">
<stop offset="0.00263467" stop-color="#FFF6A6"/>
<stop offset="0.3545" stop-color="#64B8CB"/>
<stop offset="0.5071" stop-color="#219DDB"/>
<stop offset="1" stop-color="#10488C"/>
</radialGradient>
<radialGradient id="paint98_radial" cx="0" cy="0" r="1" gradientUnits="userSpaceOnUse" gradientTransform="translate(41.2021 264.059) rotate(-0.0547146) scale(74.7525 74.8197)">
<stop offset="0.00263467" stop-color="#FFF6A6"/>
<stop offset="0.3545" stop-color="#64B8CB"/>
<stop offset="0.5071" stop-color="#219DDB"/>
<stop offset="1" stop-color="#10488C"/>
</radialGradient>
<radialGradient id="paint99_radial" cx="0" cy="0" r="1" gradientUnits="userSpaceOnUse" gradientTransform="translate(156.735 322.57) rotate(-0.0547147) scale(61.1366 61.1917)">
<stop offset="0.00263467" stop-color="#FFF6A6"/>
<stop offset="0.3545" stop-color="#64B8CB"/>
<stop offset="0.5071" stop-color="#219DDB"/>
<stop offset="1" stop-color="#10488C"/>
</radialGradient>
<radialGradient id="paint100_radial" cx="0" cy="0" r="1" gradientUnits="userSpaceOnUse" gradientTransform="translate(308.917 252.799) rotate(179.945) scale(577.322 577.841)">
<stop offset="0.00263467" stop-color="#FFF6A6"/>
<stop offset="0.3545" stop-color="#64B8CB"/>
<stop offset="0.5071" stop-color="#219DDB"/>
<stop offset="1" stop-color="#10488C"/>
</radialGradient>
<radialGradient id="paint101_radial" cx="0" cy="0" r="1" gradientUnits="userSpaceOnUse" gradientTransform="translate(193.455 222.962) rotate(179.945) scale(78.5037 78.574)">
<stop offset="0.00263467" stop-color="#FFF6A6"/>
<stop offset="0.3545" stop-color="#64B8CB"/>
<stop offset="0.5071" stop-color="#219DDB"/>
<stop offset="1" stop-color="#10488C"/>
</radialGradient>
<radialGradient id="paint102_radial" cx="0" cy="0" r="1" gradientUnits="userSpaceOnUse" gradientTransform="translate(61.534 166.393) rotate(-0.0547146) scale(606.494 607.04)">
<stop offset="0.00263467" stop-color="#FFF6A6" stop-opacity="0.25"/>
<stop offset="0.3545" stop-color="#64B8CB"/>
<stop offset="0.5071" stop-color="#219DDB"/>
<stop offset="1" stop-color="#10488C"/>
</radialGradient>
<radialGradient id="paint103_radial" cx="0" cy="0" r="1" gradientUnits="userSpaceOnUse" gradientTransform="translate(61.534 166.393) rotate(-0.0547146) scale(606.494 607.04)">
<stop offset="0.00263467" stop-color="#FFF6A6"/>
<stop offset="0.3545" stop-color="#64B8CB"/>
<stop offset="0.5071" stop-color="#219DDB"/>
<stop offset="1" stop-color="#10488C"/>
</radialGradient>
<radialGradient id="paint104_radial" cx="0" cy="0" r="1" gradientUnits="userSpaceOnUse" gradientTransform="translate(170.412 -15.6999) rotate(-0.0547146) scale(377.554 377.894)">
<stop offset="0.00263467" stop-color="#FFF6A6"/>
<stop offset="0.3545" stop-color="#64B8CB"/>
<stop offset="0.5071" stop-color="#219DDB"/>
<stop offset="1" stop-color="#10488C"/>
</radialGradient>
<radialGradient id="paint105_radial" cx="0" cy="0" r="1" gradientUnits="userSpaceOnUse" gradientTransform="translate(434.204 60.3135) rotate(-0.0547147) scale(230.707 230.915)">
<stop offset="0.00263467" stop-color="#FFF6A6"/>
<stop offset="0.3545" stop-color="#64B8CB"/>
<stop offset="0.5071" stop-color="#219DDB"/>
<stop offset="1" stop-color="#10488C"/>
</radialGradient>
<radialGradient id="paint106_radial" cx="0" cy="0" r="1" gradientUnits="userSpaceOnUse" gradientTransform="translate(22.0938 92.8946) rotate(-0.0547146) scale(349.7 350.014)">
<stop offset="0.00263467" stop-color="#FFF6A6"/>
<stop offset="0.3545" stop-color="#64B8CB"/>
<stop offset="0.5071" stop-color="#219DDB"/>
<stop offset="1" stop-color="#10488C"/>
</radialGradient>
</defs>
</svg>
